<?xml version="1.0" encoding="UTF-8"?>
<svg width="135px" height="92px" viewBox="0 0 135 92" version="1.1" xmlns="http://www.w3.org/2000/svg" xmlns:xlink="http://www.w3.org/1999/xlink">
    <!-- Generator: Sketch 43.2 (39069) - http://www.bohemiancoding.com/sketch -->
    <title>10</title>
    <desc>Created with Sketch.</desc>
    <defs></defs>
    <g id="Symbols" stroke="none" stroke-width="1" fill="none" fill-rule="evenodd">
        <g id="10" transform="translate(-1.000000, 0.000000)">
            <g transform="translate(1.000000, 0.000000)" id="Shape">
                <path d="M131.21,36.67 C126.73,11.79 106.53,-2.97 82.71,1.21 C79.788471,1.72353697 76.9384325,2.58291252 74.22,3.77 C73.9,1.34 72.62,1.49 69.52,1.53 C55.24,1.71 40.96,1.75 26.68,1.53 C23.81,1.53 22.37,2.06 21.77,3.76 C21.72,3.83 21.65,3.9 21.6,3.98 C15.15,14.6 8.89,23.74 2.41,34.44 C1.64,35.72 -0.18,37.04 0.76,38.58 C1.7,40.12 3.68,39.28 5.2,39.28 L21.51,39.28 L21.51,75.13 C21.51,79.54 21.59,82.95 21.51,87.35 C21.46,89.91 22.94,90.17 24.87,90.2 C27.07,90.2 54.02,90.08 67.58,90.07 C68.29,90.07 68.99,90.22 69.69,90.2 C73.17,90.1 74.14,90.09 74.31,87.43 C80.66,90.01 88.31,91.56 94.6,91.12 C119.22,89.2 136.15,64.05 131.21,36.67 Z" stroke="#000000"></path>
                <path d="M97.99,26.64 C97.2521923,29.5505464 97.5527946,32.6272997 98.84,35.34 C98.8311616,36.371063 98.9521119,37.3991401 99.2,38.4 C99.2640796,39.3176017 99.1451073,40.2387877 98.85,41.11 C98.24,40.94 97.61,40.81 97.01,40.7 C94.9800972,40.103905 92.8610014,39.8703305 90.75,40.01 C90.5772589,40.0273927 90.4065183,40.0608713 90.24,40.11 C89.4235761,39.9463923 88.5756955,40.0700416 87.84,40.46 C85.84,41.64 86.04,45.06 87.22,46.8 C87.4424974,47.1250776 87.7160162,47.4121035 88.03,47.65 C88.11,48.17 87.96,48.96 88.03,49.41 C88.0441038,50.4873894 88.4451731,51.5237809 89.16,52.33 C89.4638218,52.6622503 89.8556522,52.9015096 90.29,53.02 C90.1426984,54.5746077 90.2954676,56.1430385 90.74,57.64 C91.1015857,58.3674828 91.2930765,59.1676407 91.3,59.98 C91.1101221,60.8867601 91.1759015,61.8284441 91.49,62.7 C92.3751756,64.2744734 94.0648761,65.2234832 95.87,65.16 C96.0939337,65.2925614 96.336702,65.3903431 96.59,65.45 C98.2146737,65.725746 99.8671994,65.7996394 101.51,65.67 C103.32,65.67 105.13,66.18 106.93,66.26 C108.929056,66.32091 110.925623,66.0747118 112.85,65.53 C113.33902,65.603829 113.838843,65.5486761 114.3,65.37 C114.849383,65.3172226 115.369397,65.0973511 115.79,64.74 L116.04,64.74 C120.207432,64.6596415 124.375171,64.8835697 128.51,65.41 C129.053186,65.8382385 129.758002,66.0042196 130.435204,65.8633771 C131.112406,65.7225345 131.692599,65.2893007 132.02,64.68 C133.430679,62.2509818 134.166085,59.4888939 134.15,56.68 C134.24,54.27 135.42,50 132.78,49.2 C132.05,48.98 128.17,48.86 127.62,49.2 C126.376642,48.8940407 125.084677,48.8396422 123.82,49.04 C122.745094,49.2360089 121.649463,49.293143 120.56,49.21 C119.22,48.9 117.89,48.61 116.56,48.21 C115.4,46.02 113.48,44.49 111.71,42.67 C110.76,41.67 109.6,41.02 108.65,40.07 C107.7,39.12 106.65,38.07 105.79,37 C105.561709,36.7329138 105.27864,36.5180549 104.96,36.37 C103.3,33.83 101.96,31.2 102.81,27.88 C103.6,24.85 98.77,23.51 97.99,26.64 Z" fill="#FAFD7B" fill-rule="nonzero"></path>
                <path d="M98.87,40.76 C99.87,38.61 98.6,35.62 98.22,34.45 C97.4,31.93 96.81,29.06 98.04,26.71 C98.421836,25.8976732 99.0918469,25.2561734 99.92,24.91 C100.771184,24.5780379 101.739242,24.823065 102.33,25.52 C102.694605,26.1193435 102.849404,26.8229746 102.77,27.52 C102.77,29.26 102.43,31.04 102.97,32.69 C103.403908,33.794037 104.034065,34.81042 104.83,35.69 C107.131763,38.5333454 109.667264,41.179231 112.41,43.6 C113.788443,44.699717 115.045564,45.9434288 116.16,47.31 C117.276836,48.6998376 117.791706,50.4784793 117.59,52.25" stroke="#000000"></path>
                <path d="M100.11,62.41 C100.11,61.9 100.21,61.41 100.21,60.87 C100.261172,60.3475109 100.013602,59.8407676 99.57,59.56" stroke="#000000"></path>
                <path d="M95.88,62.34 L96.79,60.34 C96.8661894,60.1308957 96.9854275,59.9401148 97.14,59.78 C97.397878,59.5891657 97.7092182,59.4842196 98.03,59.48 C98.9043173,59.4424137 99.7707529,59.2980078 100.61,59.05 C101.464571,58.791705 102.125875,58.1115064 102.36,57.25 C102.461614,56.2586555 101.967133,55.3010901 101.1,54.81 C99.6,53.86 97.66,54.04 95.97,54.12 C93.82,54.23 93.14,55.04 92.17,56.97 C91.32,58.68 90.45,60.65 91.17,62.42 C92.02,64.52 94.61,65.21 96.86,65.5 C102.166616,66.1975899 107.536903,66.2680749 112.86,65.71 C113.856006,65.6721645 114.830455,65.4088924 115.71,64.94 C116.722802,64.2344624 117.413535,63.1551933 117.63,61.94 C117.832411,60.7307478 117.872766,59.4999138 117.75,58.28" stroke="#000000"></path>
                <path d="M89.88,53.34 C88.34,52.34 87.99,50.26 87.98,48.43 C87.9755607,47.4878935 88.0256444,46.5463195 88.13,45.61 C88.1457816,45.3642706 88.2068048,45.1235682 88.31,44.9 C88.6182323,44.4564903 89.1111631,44.1769176 89.65,44.14 C90.9187157,43.9860821 92.203485,44.0265473 93.46,44.26 L98.58,44.95 C99.4519822,44.9360574 100.244376,45.4550752 100.58,46.26 C101.026121,46.8932293 101.364046,47.5961137 101.58,48.34 C101.777622,49.0952757 101.59061,49.8994294 101.08,50.49 L101.08,50.04" stroke="#000000"></path>
                <path d="M91.05,58.34 C90.2510341,56.8032327 89.963744,55.0514637 90.23,53.34 C90.5064469,51.9529266 90.9636821,50.6081173 91.59,49.34 C91.7017588,48.9874614 91.9267226,48.6816513 92.23,48.47 C92.4655514,48.3658014 92.7231212,48.321156 92.98,48.34 C95.0379727,48.3833664 97.0709607,48.800129 98.98,49.57 C100.151496,49.9343559 101.193096,50.6287559 101.98,51.57 C102.765793,52.5631785 102.73217,53.9753444 101.9,54.93" stroke="#000000"></path>
                <path d="M106.17,52.79 C106.922126,53.577461 107.80098,54.233221 108.77,54.73 C109.752313,55.2267995 110.889866,55.3201004 111.94,54.99" stroke="#000000"></path>
                <path d="M116.68,64.63 C118.938753,64.5048078 121.20414,64.5784245 123.45,64.85 C124.45,64.97 125.4,65.12 126.37,65.24 C127.866854,65.4119187 129.373647,65.4820798 130.88,65.45" stroke="#000000"></path>
                <path d="M117.38,48.41 C118.927176,48.8033852 120.507091,49.0544309 122.1,49.16 C123.39,49.25 124.68,49.24 125.97,49.23 L133.55,49.23" stroke="#000000"></path>
                <path d="M87.66,47.73 C86.6644222,45.8727353 86.2861465,43.7466858 86.58,41.66 C86.6035673,41.3613826 86.6996835,41.0730343 86.86,40.82 C87.0460825,40.5999565 87.2931221,40.4399027 87.57,40.36 C89.0720404,39.8893659 90.6534935,39.7261191 92.22,39.88 C94.3405648,39.9864056 96.4499743,40.2538426 98.53,40.68 C99.0876596,40.7475009 99.6164984,40.9652581 100.06,41.31 C100.466997,41.7362208 100.750442,42.2650865 100.88,42.84 C101.23027,44.0713347 101.318836,45.3623678 101.14,46.63" stroke="#000000"></path>
                <path d="M99.38,32.65 C98.9758326,32.9155715 98.4891271,33.025702 98.01,32.96" stroke="#000000"></path>
            </g>
        </g>
    </g>
</svg>