<?xml version="1.0" encoding="UTF-8"?>
<svg width="83px" height="94px" viewBox="0 0 83 94" version="1.1" xmlns="http://www.w3.org/2000/svg" xmlns:xlink="http://www.w3.org/1999/xlink">
    <!-- Generator: Sketch 43.2 (39069) - http://www.bohemiancoding.com/sketch -->
    <title>3</title>
    <desc>Created with Sketch.</desc>
    <defs></defs>
    <g id="Symbols" stroke="none" stroke-width="1" fill="none" fill-rule="evenodd">
        <g id="3" transform="translate(-27.000000, 0.000000)">
            <g transform="translate(28.000000, 0.000000)" id="Shape">
                <path d="M66.83,9.52 C63.83,7.52 58.83,2.79 41.31,0.76 C26.17,-1.35 5.16,9.71 0.69,22.1 C-0.18,24.5 1.45,25.1 3.16,26.1 C8.68,29.19 15.57,31.1 14.51,34.5 C12.51,38.43 5.72,41.44 5.72,45.71 L5.72,45.88 L5.72,46.05 C5.72,50.32 12.72,52.56 14.65,56.49 C15.71,59.93 8.65,62.57 3.15,65.66 C1.44,66.66 -0.19,67.23 0.68,69.66 C5.15,82.05 26.16,93.11 41.3,91 C59.88,89.6 63.86,84.27 66.82,82.24 C79.6,73.45 83.98,58.47 78.75,45.91 C84.04,33.29 79.65,18.31 66.83,9.52 Z" stroke="#000000"></path>
                <path d="M65.29,52.45 C62.41,53.52 60.53,55.39 58.48,57.61 C56.78,59.46 54.24,63.07 51.7,62.56 C51.5688927,62.3474352 51.4071525,62.1553687 51.22,61.99 C50.9982842,61.7923444 50.7645004,61.6086571 50.52,61.44 C50.2376991,52.4347294 50.4580415,43.420722 51.18,34.44 C51.2594345,33.8003274 51.0421197,33.159433 50.59,32.7 L50.59,32.49 C50.83,29.28 45.83,29.3 45.59,32.49 C45.32,36.1 45.07,39.7 44.77,43.31 C44.58,45.54 44.91,53.1 42.33,54.13 C42.1961296,53.5351767 41.9628554,52.9672045 41.64,52.45 C41.4623709,52.1564468 41.227759,51.9014338 40.95,51.7 L40.3,49.98 C40.02,49.23 39.75,48.48 39.44,47.74 C39.0150464,47.0554132 38.6790097,46.3194928 38.44,45.55 C38.4199536,45.0087518 38.2232708,44.488947 37.88,44.07 C36.6,40.12 35.07,36.25 33.88,32.6 C32.88,29.54 28.09,30.85 29.06,33.93 C31.31,41.11 35.34,49.59 35.23,57.34 C34.1972955,56.8430577 33.02522,56.7159652 31.91,56.98 C30.7759246,57.3090811 29.9890662,58.3392978 29.97,59.52 C29.97,59.98 29.97,60.45 30.04,60.9 C30.0705817,61.3953106 30.2290724,61.8742283 30.5,62.29 C29.7978133,62.1557105 29.0726813,62.3483659 28.529742,62.8134645 C27.9868026,63.2785631 27.6851055,63.9655211 27.71,64.68 L27.71,66.29 L27.71,66.67 C27.5557717,67.8370742 27.532293,69.0177169 27.64,70.19 C27.4778639,70.6099137 27.4262162,71.0644136 27.49,71.51 C27.95,74.72 29.49,77.62 30.89,80.51 C31.3479014,81.607274 31.9318214,82.6475912 32.63,83.61 C32.5920819,83.7510099 32.5653324,83.8947881 32.55,84.04 C32.4545868,85.0978529 32.4545868,86.1621471 32.55,87.22 C32.7836997,88.1133062 32.8648409,89.0396684 32.79,89.96 C32.4315983,91.292649 33.2117328,92.6656856 34.54,93.04 C38.2671618,93.6166249 42.0451729,93.7942953 45.81,93.57 C46.5834983,93.5538476 47.3074647,93.1860417 47.7766335,92.570866 C48.2458023,91.9556904 48.4090165,91.1602221 48.22,90.41 C47.5562913,87.5345792 47.4308426,84.5611062 47.85,81.64 C47.8584837,81.5134754 47.8584837,81.3865246 47.85,81.26 C52.44,78.48 55.06,73.71 56.85,68.26 C60.03,64.63 63.51,61.26 66.8,57.71 C67.0338787,57.4647257 67.217346,57.1759346 67.34,56.86 C69.33,55.27 68.02,51.44 65.29,52.45 Z" fill="#FAFD7B" fill-rule="nonzero"></path>
                <path d="M34.93,85.28 C32.5,84.48 31.2,81.9 30.16,79.57 C29.1775144,77.5245872 28.3680199,75.4005005 27.74,73.22 C27.1596756,70.965618 26.9702637,68.6284101 27.18,66.31 C27.2386324,65.2512802 27.4964747,64.2131255 27.94,63.25 C28.2410743,62.4605596 28.9766155,61.9206411 29.82,61.87 C30.1807194,61.932871 30.5225671,62.076447 30.82,62.29 C34.1363398,64.3482742 36.6352662,67.4940231 37.89,71.19 C38.1822248,71.9262741 38.2953309,72.7214443 38.22,73.51 C38.1303113,74.3137772 37.5911168,74.9964984 36.83,75.27 C36.0267568,75.4329563 35.1999896,75.1316113 34.69,74.49 C34.2000105,73.8529182 33.8398662,73.1258345 33.63,72.35 C33.35,71.53 33.58,70.74 33.06,70.05 C32.1474332,69.2840576 30.9913556,68.8691463 29.8,68.88" stroke="#000000"></path>
                <path d="M30.38,62.02 C29.56,60.67 29.64,58.2 30.92,57.27 C32.2724749,56.3569851 34.0653444,56.4466286 35.32,57.49 C35.692319,57.8449168 36.027393,58.2369533 36.32,58.66 L37.96,60.78 C38.4748242,61.4139101 38.9459125,62.0821205 39.37,62.78 C40.7586868,65.4257801 41.4471944,68.3829205 41.37,71.37 C41.2926439,71.9277808 41.1057235,72.4647521 40.82,72.95 C40.5687499,73.3718677 40.1302915,73.6475163 39.6412094,73.6910782 C39.1521273,73.7346402 38.671854,73.540822 38.35,73.17" stroke="#000000"></path>
                <path d="M34.73,56.88 C35.53,55.88 35.24,54.4 34.89,53.15 C34.06,50.15 31.63,42.43 31.35,41.44 C30.9434206,39.8706718 30.4048342,38.3385443 29.74,36.86 C29.4073211,36.0282672 29.1267778,35.1766179 28.9,34.31 C28.7,33.72 28.5,32.08 29.34,31.31 C30.5951951,30.3777612 32.3299288,30.4443217 33.51,31.47 C34.0306745,32.1895968 34.3733747,33.0223582 34.51,33.9 C34.75,34.78 36.11,38.04 36.35,38.9 C36.59,39.76 37.71,43.07 38.06,43.84 L38.73,45.24 C39.67,47.24 40.12,49.17 41.07,51.24 C41.35,51.84 41.94,53.61 42.58,53.78" stroke="#000000"></path>
                <path d="M40.2,54.16 C42.1532702,53.6203519 44.200411,53.5111711 46.2,53.84" stroke="#000000"></path>
                <path d="M39.99,75.53 C39.9366389,76.5011791 40.1846117,77.4651296 40.7,78.29 C40.9827049,78.8120178 41.4610693,79.2004641 42.03,79.37" stroke="#000000"></path>
                <path d="M43.47,53.65 C43.98,53.08 44.15,51.23 44.28,50.48 C44.48,49.29 44.82,44.78 44.84,43.69 C44.86,42.6 45.24,38.43 45.18,37.5 C45.02,35.04 44.73,31.5 47.37,30.24 C49.43,29.24 50.51,30.65 50.91,32.54 C51.1242461,33.831927 51.1712994,35.1460586 51.05,36.45 C51.05,37.06 51.05,38.13 50.96,38.72 C50.87,39.31 51.05,42.35 50.96,43.47 C50.87,44.59 50.75,48.79 50.7,49.89 C50.59,52.41 50.08,54.76 50.35,57.27 C50.45,58.27 50.75,62.32 51.47,62.49" stroke="#000000"></path>
                <path d="M32.02,83 C32.7593351,85.3995743 33.0475355,87.9153934 32.87,90.42 C32.8592311,90.679311 32.7980944,90.9340471 32.69,91.17" stroke="#000000"></path>
                <path d="M44.76,81.79 C45.7724593,82.1789914 46.9099231,82.060041 47.82,81.47 C48.8167638,80.8956726 49.7288298,80.18554 50.53,79.36 C54.28,75.21 55.09,72.84 56.66,69.65 C59.23,64.43 63.42,61.99 67.09,57.85 C67.8781097,57.0258426 68.3916348,55.9778322 68.56,54.85 C68.5520148,53.8471889 67.9848277,52.9327443 67.09,52.48 C65.37,52.15 63.95,52.48 61.91,54.02 C60.7557709,54.9984452 59.6792061,56.0649798 58.69,57.21 C58.02,58 56.53,59.63 55.15,61.01 C54.26,61.9 52.75,63.01 51.47,62.49" stroke="#000000"></path>
                <path d="M48.02,81.45 C47.8466667,83.5166667 47.7766667,85.5933333 47.81,87.68 C47.7302094,89.1554184 48.0116855,90.628019 48.63,91.97" stroke="#000000"></path>
                <path d="M38.83,61.91 C41.3887403,61.5473527 43.8536564,60.6951572 46.09,59.4" stroke="#000000"></path>
                <path d="M32.56,39.18 C32.8364551,39.24301 33.1235449,39.24301 33.4,39.18 C33.7055326,39.0434096 33.9408467,38.7863742 34.05,38.47" stroke="#000000"></path>
                <path d="M35.18,46.9 C35.9064875,47.0408405 36.6390285,46.686779 36.98,46.03" stroke="#000000"></path>
                <path d="M47.29,38.67 C47.7778372,38.7743068 48.287119,38.6846445 48.71,38.42" stroke="#000000"></path>
                <path d="M46.57,45.47 C47.256715,45.8005958 48.0223006,45.9322349 48.78,45.85" stroke="#000000"></path>
                <path d="M34.94,74.7 C34.6626931,73.8806421 34.627968,72.9986232 34.84,72.16 C35.053882,71.6255247 35.5852429,71.2873859 36.16,71.32 C36.4655994,71.3349473 36.7575661,71.4510305 36.99,71.65 C37.5559019,72.0605109 38.029426,72.5851347 38.38,73.19" stroke="#000000"></path>
                <path d="M37.83,70.92 C37.9065855,70.3599973 38.1752119,69.843952 38.59,69.46 C38.8569932,69.2836078 39.1700008,69.1897055 39.49,69.19 C39.8529096,69.1707969 40.2097992,69.2885705 40.49,69.52 C40.9868175,69.9375518 41.2993402,70.5338596 41.36,71.18" stroke="#000000"></path>
                <path d="M59.6,58.59 C59.6829934,59.0012034 59.9280994,59.3616534 60.28,59.59 C60.6315033,59.8134802 61.0116144,59.9883986 61.41,60.11" stroke="#000000"></path>
            </g>
        </g>
    </g>
</svg>