<?xml version="1.0" encoding="UTF-8"?>
<svg width="84px" height="94px" viewBox="0 0 84 94" version="1.1" xmlns="http://www.w3.org/2000/svg" xmlns:xlink="http://www.w3.org/1999/xlink">
    <!-- Generator: Sketch 43.2 (39069) - http://www.bohemiancoding.com/sketch -->
    <title>5</title>
    <desc>Created with Sketch.</desc>
    <defs></defs>
    <g id="Symbols" stroke="none" stroke-width="1" fill="none" fill-rule="evenodd">
        <g id="5" transform="translate(-27.000000, 0.000000)">
            <g transform="translate(27.000000, 0.000000)" id="Shape">
                <path d="M75.53,0.52 C71.1,0.66 73.16,0.65 60.77,0.64 C60.2774144,0.533408075 59.7738031,0.486404357 59.27,0.5 C43.37,0.68 27.47,0.59 11.57,0.59 C8.57,0.59 5.5,0.66 2.47,0.59 C0.71,0.59 0.31,2.03 0.65,3.8 C1.05,5.9 0.59,31.3 0.6,44.1 C0.636799476,44.7661588 0.636799476,45.4338412 0.6,46.1 C0.19,49.75 1.48,50.51 3.91,50.49 C9.38,50.49 14.84,50.49 20.31,50.44 C18.83,55.29 11.56,58.15 6.08,61.72 C4.38,62.82 2.77,63.53 3.63,66.3 C8.07,80.59 28.93,93.3 43.97,90.91 C62.56,88.3 66.38,83.15 69.31,80.8 C85.26,68.07 88.06,44.04 75.25,28.47 C74.35,27.38 73.63,26.47 73.09,25.75 C77.72,25.69 80.44,26.04 80.38,23.41 C80.24,17.67 80.3,4.84 80.3,4.16 C80.28,1.15 80.36,0.36 75.53,0.52 Z" stroke="#000000"></path>
                <path d="M72.95,53.21 C72.3602171,53.2855803 71.8226225,53.5866332 71.45,54.05 C70.7733455,53.9485995 70.0883398,54.1707635 69.6,54.65 C66.6,57.38 64.49,60.94 61.72,63.93 C61.4528052,63.7702678 61.1628009,63.6522428 60.86,63.58 C60.5134361,63.4957251 60.1914768,63.3313204 59.92,63.1 C59.79,62.95 59.63,62.78 59.46,62.61 C58.11,60.81 58.12,57.1 57.94,54.88 C57.94,54.65 57.94,54.42 57.87,54.18 C57.8490099,54.0513672 57.8189346,53.9243828 57.78,53.8 C57.9133412,52.5681291 57.9567895,51.3281828 57.91,50.09 C57.8886764,49.7969514 57.799678,49.5128412 57.65,49.26 C57.9815776,47.1505969 58.0921763,45.0123559 57.98,42.88 L57.98,42.64 C58.146518,42.3566465 58.2584505,42.0445922 58.31,41.72 C58.5686723,39.4864899 58.6355835,37.2349293 58.51,34.99 L58.51,32.61 C58.45,29.81 53.66,29.89 53.51,32.69 L53.51,34.41 C53.4508596,35.1560753 53.3439739,35.8975944 53.19,36.63 C52.96,37.8 53.1,39.03 52.94,40.22 C52.8490436,40.7925001 52.977619,41.3782325 53.3,41.86 C53.3168158,41.9787016 53.3435766,42.0957802 53.38,42.21 C53.1349626,42.6450877 53.0203981,43.1415341 53.05,43.64 L53.05,44.97 C52.91,47.2 52.05,49.39 51.59,51.61 C51.3160664,51.5119925 51.0301469,51.4514448 50.74,51.43 C50.5570151,51.414015 50.3729849,51.414015 50.19,51.43 C49.43,45.74 48.97,39.84 47.19,34.43 C47.1497081,32.5721669 46.7771656,30.7365488 46.09,29.01 C45.6610721,28.1131366 44.7466465,27.5506032 43.7527259,27.5721633 C42.7588052,27.5937234 41.8696332,28.1953804 41.48,29.11 L41.22,29.82 C40.9192154,30.5588308 41.0173105,31.4001842 41.48,32.05 C41.02,33.81 42.12,35.32 42.48,37.05 C42.5163412,37.2454793 42.573327,37.4365495 42.65,37.62 C42.6117829,37.8752441 42.6117829,38.1347559 42.65,38.39 C42.89,39.97 42.65,41.46 43.07,43.02 C43.5,44.79 44.07,46.46 44.42,48.27 C44.67,49.64 44.95,50.97 45.27,52.27 C45.27,52.64 45.38,53 45.43,53.36 C45.0065534,53.4800419 44.6072524,53.6729246 44.25,53.93 C43.117447,52.040294 42.2048446,50.0272005 41.53,47.93 C40.63,45.38 39.29,43.11 38.27,40.63 C38.1156785,40.2843152 37.8868936,39.9769922 37.6,39.73 C37.54,39.53 37.47,39.33 37.41,39.12 C37.2658235,38.5569152 36.934318,38.0596571 36.47,37.71 L35.98,36.5 C34.75,33.5 30.19,35.56 31.41,38.5 C33.95,44.66 36.28,51.5 39.41,57.5 C39.2392663,57.7715979 39.1363718,58.0802814 39.11,58.4 C38.863277,58.6062112 38.6623232,58.8616609 38.52,59.15 L37.16,57.71 C37.053649,57.4393017 36.9014189,57.1889678 36.71,56.97 C36.6962155,56.8754422 36.6761715,56.7819034 36.65,56.69 C36.4297717,55.9319851 35.8783212,55.3143605 35.15,55.01 L35.09,55.08 C35.0333502,54.969504 34.9698948,54.8626318 34.9,54.76 L34.74,54.53 C34.6991755,54.4810649 34.6557811,54.4343325 34.61,54.39 C34.4534446,53.9165855 34.1527404,53.5039915 33.75,53.21 L33.75,53.21 C33.4613212,52.7880603 33.0542261,52.4609925 32.58,52.27 C32.58,52.22 32.52,52.16 32.48,52.11 C32.4260557,51.905215 32.3488885,51.7072644 32.25,51.52 C32.1276188,50.8466518 31.7427183,50.2495165 31.18,49.86 C30.9237245,48.6216317 29.7228877,47.8166263 28.48,48.05 C26.08,48.42 25.92,51.32 27.35,52.51 C27.4426512,52.8774387 27.6169758,53.2192515 27.86,53.51 C27.9520558,53.835634 28.1047263,54.140975 28.31,54.41 C28.4750021,55.1241813 28.9523297,55.7263484 29.61,56.05 C29.7437155,56.218823 29.8982793,56.3700267 30.07,56.5 C30.0022602,57.1144148 30.1985413,57.7287018 30.61,58.19 L33.26,61 C33.4242329,61.3394836 33.6677563,61.6344556 33.97,61.86 L34.04,61.91 L34.13,61.96 C34.2709745,62.1530787 34.4282149,62.3337379 34.6,62.5 C34.6404479,62.6827147 34.7008086,62.8604434 34.78,63.03 C34.8099535,63.295945 34.8807879,63.555671 34.99,63.8 C35.2535105,64.4373429 35.7406884,64.9565253 36.36,65.26 C38.75,70.95 38.88,79.17 44.17,82.94 C43.9179828,83.5391172 43.9398942,84.2183707 44.23,84.8 C44.6398345,85.5728885 44.9746969,86.3832556 45.23,87.22 C45.1307817,87.5438226 45.1102128,87.886637 45.17,88.22 C45.3030243,88.9870286 45.649617,89.7010096 46.17,90.28 C46.0407508,91.5944789 46.948363,92.7857201 48.25,93.01 C52.5972315,93.8157022 57.0892749,93.1099609 60.98,91.01 C62.2213352,90.429907 62.778833,88.9697935 62.24,87.71 L61.08,85.52 L61.08,85.33 C61.0688748,84.8372632 61.0220858,84.3459787 60.94,83.86 C60.9927377,82.3029759 60.9158055,80.7442634 60.71,79.2 C60.684066,79.074785 60.6506732,78.9512315 60.61,78.83 C63.0623153,76.9910144 64.9531489,74.5045335 66.07,71.65 C67.7760759,67.7398802 69.8876311,64.0195211 72.37,60.55 C72.4288042,60.459901 72.4822307,60.3664046 72.53,60.27 L73.53,59.27 C73.9303031,58.9070456 74.2212393,58.4394696 74.37,57.92 C76.73,56.88 75.87,52.77 72.95,53.21 Z" fill="#FAFD7B" fill-rule="nonzero"></path>
                <path d="M57.46,79.28 C58.4627252,79.6962116 59.6041367,79.6069807 60.53,79.04 C61.5618213,78.5431144 62.4965199,77.8657965 63.29,77.04 C65.77,73.9 66.08,71.64 67.94,68.61 C69.21,66.55 70.03,63.9 71.4,62.23 C72.03,61.46 76.28,56.68 75.78,54.89 C74.87,51.65 70.52,54.2 69.45,54.79 C67.99,55.6 66.31,58.17 65.69,59.34 C64.8815711,61.0224244 63.7060473,62.5020808 62.25,63.67" stroke="#000000"></path>
                <path d="M60.76,78.9 C60.8934517,80.894292 61.1304378,82.8803027 61.47,84.85 C61.6155084,86.3182739 62.1166318,87.7289707 62.93,88.96" stroke="#000000"></path>
                <path d="M46.16,83.61 C43.99,83.61 42.34,81.7 41.26,79.81 C39.9323272,77.4936317 38.9455117,74.997965 38.33,72.4 C38.0098646,70.5304911 37.5348963,68.6908251 36.91,66.9 C36.0696028,65.1364597 34.9893717,63.4976044 33.7,62.03 L31.87,59.74 C30.3,57.74 29.01,55.49 27.63,53.39 C27.47,53.15 27.32,52.91 27.18,52.66 C26.5,51.39 25.99,48.27 28.09,47.98 C29.68,47.76 31.01,49.51 31.84,50.6 L38.39,59.19" stroke="#000000"></path>
                <path d="M52.86,65.67 C50.5337658,69.2745967 50.0621956,73.7712225 51.59,77.78" stroke="#000000"></path>
                <path d="M37.64,60.21 C41.29,55.87 45.16,52.33 53.64,50.86" stroke="#000000"></path>
                <path d="M43.87,82.98 C45.1457674,85.7836095 46.0210012,88.7526719 46.47,91.8" stroke="#000000"></path>
                <path d="M51.28,51.33 C52.72,47.41 52.89,43.15 52.99,38.98 C52.9738741,37.1198472 53.1278482,35.2621153 53.45,33.43 C53.574428,32.6174129 53.8972898,31.8480401 54.39,31.19 C54.902069,30.5319933 55.7433542,30.2218421 56.56,30.39 C57.2185681,30.622013 57.7321002,31.1466285 57.95,31.81 C58.1546168,32.4569813 58.259157,33.1314337 58.26,33.81 C58.4147654,36.0106156 58.4147654,38.2193844 58.26,40.42 C58.18,41.25 58.06,42.08 57.99,42.91 C57.8364308,45.070608 57.8364308,47.239392 57.99,49.4 L58.34,56.03 C58.3238906,58.1211555 58.6864,60.1979618 59.41,62.16 C59.6476157,62.8413803 60.1283237,63.4111083 60.76,63.76 C61.41,64.05 62.03,63.76 62.76,63.1" stroke="#000000"></path>
                <path d="M39.21,58.21 C37.11,52.47 34.95,46.94 32.47,41.35 C31.8620467,40.2437676 31.5196957,39.0113039 31.47,37.75 C31.4652935,36.4526819 32.3710536,35.3298733 33.64,35.06 C34.3885667,35.0275882 35.1156461,35.3147845 35.64,35.85 C36.1553859,36.3832034 36.5839293,36.9939622 36.91,37.66 C38.37,40.35 39.58,43.16 40.79,45.97 C41.88,48.51 43.04,51.47 44.14,53.97" stroke="#000000"></path>
                <path d="M44.97,53.77 C44.38,49.53 43.73,45.39 43.03,41.21 C42.7,39.21 42.44,37.21 42.03,35.31 C41.62,33.41 41.03,31.72 41.47,29.78 C41.7036105,28.5661128 42.6931227,27.6412218 43.92,27.49 C44.8915404,27.5516315 45.7821942,28.0521642 46.34,28.85 C47.47,30.24 47.47,32.29 47.6,33.99 C47.73,35.69 48.34,37.53 48.6,39.34 C49.17,43.43 49.45,47.44 50.75,51.34" stroke="#000000"></path>
                <path d="M55.16,38.03 C55.5766122,38.4526402 56.1781642,38.6368655 56.76,38.52" stroke="#000000"></path>
                <path d="M54.59,44.7 C54.8839103,44.9811359 55.318813,45.0562554 55.69,44.89" stroke="#000000"></path>
                <path d="M44.18,36.97 C44.6166436,37.0406981 45.0633768,37.0168269 45.49,36.9" stroke="#000000"></path>
                <path d="M45.26,44.17 C45.6900334,44.3971276 46.2127635,44.3542169 46.6,44.06" stroke="#000000"></path>
                <path d="M35.63,43.44 C36.1264434,43.4365569 36.6052836,43.2556617 36.98,42.93" stroke="#000000"></path>
                <path d="M37.91,49.72 C38.4061773,49.7692942 38.9009847,49.6139896 39.28,49.29" stroke="#000000"></path>
                <path d="M30.09,53.97 C30.5627768,53.8818744 30.9765902,53.5987389 31.23,53.19" stroke="#000000"></path>
                <path d="M32.61,57.51 C33.0338937,57.5155516 33.4350409,57.3186923 33.69,56.98" stroke="#000000"></path>
                <path d="M67.17,59.38 C67.496272,59.8051974 67.9714814,60.0910376 68.5,60.18" stroke="#000000"></path>
                <path d="M42.77,66.27 C47.0013032,63.7731405 50.442949,60.133938 52.7,55.77" stroke="#000000"></path>
            </g>
        </g>
    </g>
</svg>