<?xml version="1.0" encoding="UTF-8"?>
<svg width="78px" height="98px" viewBox="0 0 78 98" version="1.1" xmlns="http://www.w3.org/2000/svg" xmlns:xlink="http://www.w3.org/1999/xlink">
    <!-- Generator: Sketch 43.2 (39069) - http://www.bohemiancoding.com/sketch -->
    <title>6</title>
    <desc>Created with Sketch.</desc>
    <defs></defs>
    <g id="Symbols" stroke="none" stroke-width="1" fill="none" fill-rule="evenodd">
        <g id="6" transform="translate(-30.000000, 0.000000)">
            <g transform="translate(30.000000, 0.000000)" id="Shape">
                <path d="M76.31,52.89 C74.0630833,41.0728032 65.5892359,31.400982 54.17,27.62 C58.77,15.04 63.41,4.16 63.44,2.55 C63.44,0.69 62.32,0.26 60.96,0.62 C59.34,1.04 33.96,0.53 24.09,0.54 L22.55,0.54 C19.66,0.6 19.55,1.34 19.21,2.54 C13.98,19.09 4.3,36.71 1.4,51.63 C0.468039994,55.688127 0.254811823,59.8782298 0.77,64.01 C2.02,74.26 6.68,82.67 15.54,88.21 C21.32,91.82 31.54,94.15 39.27,93.99 C63.9,93.47 80.53,73.55 76.31,52.89 Z" stroke="#000000"></path>
                <path d="M45.93,36.25 C44.78,42.45 43.77,48.54 41.79,54.56 C41.49,55.25 41.22,55.97 40.97,56.7 C40.6046127,56.4396144 40.1686255,56.2966106 39.72,56.29 C39.66,55.73 39.56,55.16 39.53,54.57 C39.42,52.8 39.59,51.07 39.33,49.31 C38.9894546,47.8321312 38.8482011,46.3153377 38.91,44.8 C39.01,43.91 39.12,43.04 39.21,42.15 C39.325312,41.8299333 39.3729828,41.4894279 39.35,41.15 L39.35,40.79 C39.3279977,40.371421 39.2081205,39.9638384 39,39.6 C39.19,38.48 39.3,37.35 39.4,36.22 C39.6312226,35.1661095 39.5654489,34.0687272 39.21,33.05 C39.26,30.84 35.93,29.36 34.54,31.73 C33.969016,32.6595745 33.6935466,33.7405301 33.75,34.83 C33.7710934,35.2474059 33.8873932,35.6544551 34.09,36.02 C33.9410185,36.3333998 33.856028,36.6733619 33.84,37.02 C33.5995346,38.352777 33.6783552,39.7235694 34.07,41.02 C33.3873127,41.9383872 33.3396328,43.1820388 33.95,44.15 C33.9,44.57 33.85,44.99 33.83,45.42 C33.8059017,46.4483782 33.9066375,47.4758827 34.13,48.48 C34.0626266,48.6262513 34.0155254,48.7810123 33.99,48.94 C33.51,51.94 33.72,54.83 33.47,57.78 L33.08,57.78 L33.08,57.78 L33.01,57.16 C32.9649676,56.7731577 32.8352232,56.400996 32.63,56.07 C32.5650699,55.6766679 32.4035806,55.305586 32.16,54.99 C32.1244345,54.8084496 32.0708355,54.6309028 32,54.46 C32.006084,54.3667658 32.006084,54.2732342 32,54.18 L32,54.18 C31.9995423,53.9911803 31.976035,53.8031226 31.93,53.62 L31.93,53.62 C31.9247857,53.243957 31.8323606,52.8742564 31.66,52.54 C31.6462756,52.3430128 31.6093537,52.1483333 31.55,51.96 C31.55,51.96 31.55,51.96 31.55,51.91 L31.55,51.91 C31.5471785,51.6045824 31.4860853,51.3025103 31.37,51.02 C31.3871603,50.5455321 31.2655243,50.0763645 31.02,49.67 C31.0097716,49.5591205 30.9930765,49.4489329 30.97,49.34 C31.0082878,49.1692686 31.0283998,48.9949646 31.03,48.82 L31.03,48.71 C31.0226552,48.3146428 30.9197247,47.9269377 30.73,47.58 L30.73,47.34 C30.7251386,47.1158665 30.6880934,46.8935948 30.62,46.68 C30.6658747,46.4934519 30.6893734,46.3021049 30.69,46.11 L30.69,46 C30.6844304,45.5232939 30.5421277,45.0582069 30.28,44.66 C30.330303,44.1403603 30.2332667,43.6170572 30,43.15 C30.0398773,42.9727676 30.06,42.7916633 30.06,42.61 L30.06,42.42 C30.0533342,41.9863839 29.9326216,41.5621653 29.71,41.19 L29.71,41.01 L29.71,41.01 C29.4789527,39.3387389 28.5434779,37.8463472 27.14,36.91 C26.3364953,36.9148215 25.5859868,37.311755 25.129756,37.9731901 C24.6735251,38.6346253 24.5690805,39.4771871 24.85,40.23 C24.7607908,40.480541 24.71349,40.7440735 24.71,41.01 L24.71,41.01 C24.7161942,41.4436855 24.8369409,41.868024 25.06,42.24 L25.06,42.42 L25.06,42.61 C25.0648684,43.1145468 25.2216877,43.605914 25.51,44.02 C25.4303066,44.5568665 25.5066744,45.105326 25.73,45.6 C25.7185445,45.7364266 25.7185445,45.8735734 25.73,46.01 L25.73,46.12 C25.7152593,46.259612 25.7152593,46.400388 25.73,46.54 C25.601376,46.9546045 25.5807239,47.3951814 25.67,47.82 C26.11,50.01 26.45,52.31 26.78,54.53 C26.8735367,55.7938887 27.184783,57.0321074 27.7,58.19 C27.2980371,58.1015765 26.8903719,58.0414292 26.48,58.01 C25.1192514,57.7968945 23.7524372,58.3551707 22.93,59.46 C21.85,61.16 22.14,64.34 22.93,67.11 C22.7346225,67.559641 22.6688133,68.0549414 22.74,68.54 C23.2842453,72.3823172 24.137001,76.1745719 25.29,79.88 C25.7706917,81.9786808 26.7326765,83.9368848 28.1,85.6 C28.0887173,85.7397727 28.0887173,85.8802273 28.1,86.02 C28.25,87.59 28.37,89.16 28.44,90.74 C28.3389001,91.9696503 28.4028005,93.2073 28.63,94.42 C29.45,96.82 33.01,96.9 35.1,97.16 C37.6,97.47 40.79,97.65 43.17,96.63 C44.76,95.95 45.65,93.93 44.56,92.52 C44.75,90.72 44.48,88.61 44.56,87.22 C44.5746248,86.9363524 44.5408074,86.6522866 44.46,86.38 C45.1662498,85.0756204 45.6751203,83.673699 45.97,82.22 C46.67,79.01 47.97,74.9 46.66,71.64 C47.4818703,66.7947377 47.9331779,61.8938718 48.01,56.98 C48.0150603,56.7401962 47.9847342,56.5009566 47.92,56.27 C48.11,55.63 48.31,54.99 48.55,54.35 C48.8627155,53.6631439 48.7621657,52.8587459 48.29,52.27 C48.63,51.5 48.95,50.71 49.22,49.9 C49.491594,49.1172004 49.2937105,48.2480651 48.71,47.66 C49.39,44.19 49.93,40.66 50.56,37.24 C51.13,34.08 46.52,33.08 45.93,36.25 Z" fill="#FAFD7B" fill-rule="nonzero"></path>
                <path d="M29.94,86.77 C28.08,86.77 26.94,84.77 26.22,83.1 C23.5941575,76.593467 22.265904,69.6362723 22.31,62.62 C22.31,61.16 22.45,59.56 23.47,58.53 C24.6091446,57.5175559 26.2525472,57.3071686 27.61,58 C28.95,58.64 30.22,60.63 30.81,62" stroke="#000000"></path>
                <path d="M30.65,58.54 C34.4601286,56.6650816 38.769318,56.0554889 42.95,56.8" stroke="#000000"></path>
                <path d="M35.22,82.42 C33.9622235,80.5104305 33.5227587,78.1762241 34,75.94 C34.46,73.62 35.58,73.15 37.64,73.05 C38.93,72.99 36.2,70.68 35.06,69.99 C34.3887139,69.7005272 33.6828889,69.4988629 32.96,69.39 C31.625329,69.110427 30.4158541,68.4092821 29.51,67.39 C28.9270631,66.758774 28.5352187,65.9750851 28.38,65.13 C28.1441439,64.4800877 28.1656084,63.7646049 28.44,63.13 C28.9718815,62.3619219 29.8677213,61.9291857 30.8,61.99 C31.8619775,62.1069769 32.9021909,62.3729214 33.89,62.78 C35.62,63.24 37.44,63.84 39.53,64.27 C41.6838577,65.3233303 43.6207565,66.7717642 45.24,68.54 C47.18,70.8 47.43,74.12 47.12,77.08 C46.6966199,80.0319857 45.9106843,82.9204669 44.78,85.68 C44.571051,86.3805145 44.2317812,87.0353053 43.78,87.61 C43.126189,88.2585304 42.3002764,88.7061889 41.4,88.9" stroke="#000000"></path>
                <path d="M27.31,57.88 C25.9791781,51.8543581 25.2125331,45.7178503 25.02,39.55 C24.892643,38.7206835 25.1014076,37.8748269 25.6,37.2 C26.43,36.35 27.98,36.74 28.73,37.68 C29.3819877,38.687259 29.7515228,39.8511219 29.8,41.05 C30.54,46.51 31.8,51.9 32.97,57.28" stroke="#000000"></path>
                <path d="M40.8,56.07 C41.8925982,53.2697167 42.7619763,50.3873939 43.4,47.45 C43.6,46.38 43.74,45.31 43.93,44.24 C44.4005968,41.5403536 45.1582283,38.8987004 46.19,36.36 C46.4300872,35.438379 47.07303,34.6741955 47.94,34.28 C49.0925476,34.1127172 50.1834972,34.8486753 50.46,35.98 C50.6837623,37.0883012 50.6357259,38.2343121 50.32,39.32 C49.54,43.24 49.09,47.22 48.67,51.19 C48,57.51 47.32,64.83 46.79,71.51" stroke="#000000"></path>
                <path d="M25.36,64.94 C26.3490477,65.2943629 27.4045635,65.4241675 28.45,65.32" stroke="#000000"></path>
                <path d="M33.4,57.14 C33.9841787,50.1988555 34.0910968,43.2257918 33.72,36.27 C33.5603558,35.0120667 33.6659563,33.7346418 34.03,32.52 C34.4334326,31.2827008 35.5885947,30.446622 36.89,30.45 C37.9558406,30.6551274 38.8277595,31.4199685 39.17,32.45 C39.4759483,33.4804238 39.587846,34.5587108 39.5,35.63 L39.32,44.02 C39.0866152,48.1694791 39.2506958,52.3317693 39.81,56.45" stroke="#000000"></path>
                <path d="M27.73,85.68 C28.3679894,88.4248792 28.6170917,91.2457939 28.47,94.06" stroke="#000000"></path>
                <path d="M44.59,86.23 C44.3857318,88.9864764 44.5776843,91.7580015 45.16,94.46" stroke="#000000"></path>
                <path d="M38.77,67.09 C39.2814486,66.8311874 39.6619349,66.3709801 39.82,65.82" stroke="#000000"></path>
                <path d="M29.46,62.26 C29.0528427,62.4421988 28.7559127,62.8063144 28.6593564,63.241803 C28.5628001,63.6772916 28.6780067,64.1327859 28.97,64.47 C29.2821393,64.8504721 29.7108887,65.1175619 30.19,65.23 C30.7835041,65.4205589 31.4088209,65.4919265 32.03,65.44 C32.7853236,65.456642 33.4944481,65.0774311 33.9,64.44 C34.0037435,63.8830454 33.8735329,63.3079486 33.54,62.85" stroke="#000000"></path>
                <path d="M26.82,44.95 C27.3999206,45.0372151 27.9926569,44.9465613 28.52,44.69" stroke="#000000"></path>
                <path d="M27.84,51.47 C28.5966138,51.557267 29.3580959,51.3534901 29.97,50.9" stroke="#000000"></path>
                <path d="M35.58,47.83 C36.0680184,48.0055962 36.6019816,48.0055962 37.09,47.83" stroke="#000000"></path>
                <path d="M35.33,39.97 C35.8893989,40.2626202 36.5353914,40.3442567 37.15,40.2" stroke="#000000"></path>
                <path d="M46.19,43.04 C46.6659687,43.321446 47.1991053,43.4923231 47.75,43.54" stroke="#000000"></path>
                <path d="M44.61,49.46 C45.1658467,49.7924969 45.8180948,49.9264721 46.46,49.84" stroke="#000000"></path>
                <path d="M27.17,70.87 C28.8719462,70.6323887 30.5197354,70.1011712 32.04,69.3" stroke="#000000"></path>
            </g>
        </g>
    </g>
</svg>