<?xml version="1.0" encoding="UTF-8"?>
<svg width="75px" height="98px" viewBox="0 0 75 98" version="1.1" xmlns="http://www.w3.org/2000/svg" xmlns:xlink="http://www.w3.org/1999/xlink">
    <!-- Generator: Sketch 43.2 (39069) - http://www.bohemiancoding.com/sketch -->
    <title>8</title>
    <desc>Created with Sketch.</desc>
    <defs></defs>
    <g id="Symbols" stroke="none" stroke-width="1" fill="none" fill-rule="evenodd">
        <g id="8" transform="translate(-31.000000, 0.000000)">
            <g transform="translate(31.000000, 0.000000)" id="Shape">
                <path d="M73.37,55.73 C72.2337554,50.6831213 69.8238536,46.0113546 66.37,42.16 C69.8115482,36.4205039 70.8873,29.5679652 69.37,23.05 C65.83,7.54 49.91,-1.67 31.11,0.94 C14.11,3.29 2.82,16.75 4.93,32.24 C5.36814922,35.7228849 6.46787484,39.089946 8.17,42.16 C2.29086231,48.6470484 -0.402055234,57.4109379 0.82,66.08 C1.89874503,75.6681423 7.6489494,84.1025241 16.18,88.61 C22.18,91.97 32.78,94.44 40.85,93.99 C62.71,92.64 77.75,74.97 73.37,55.73 Z" stroke="#000000"></path>
                <path d="M49.38,33.93 C49.18,34.42 48.98,34.93 48.78,35.45 C48.4684537,35.7493554 48.2408807,36.1251957 48.12,36.54 C46.78,40.93 45.92,45.54 45,50 C44.7938673,50.2455779 44.6345612,50.5269057 44.53,50.83 C43.9213764,52.5020044 43.18244,54.1236522 42.32,55.68 C42.32,55.26 42.32,54.85 42.26,54.45 C42.3730037,53.9083611 42.2878402,53.344153 42.02,52.86 C42.3143116,52.1601855 42.2586359,51.362167 41.87,50.71 C41.4661405,50.0161543 40.8050005,49.5095198 40.03,49.3 C38.9595446,48.9240099 37.7778397,49.4156681 37.29,50.44 C36.6822527,51.1628765 36.3306609,52.0664673 36.29,53.01 C36.29,53.66 36.29,54.31 36.19,55.01 C36.19,55.01 36.07,55.65 35.98,56.01 L35.91,56.01 L35.91,56.01 C35.91,55.94 35.91,55.87 35.82,55.81 C33.99,52.42 34.12,48.27 33.82,44.52 C33.4289316,41.5420478 32.6419779,38.6296464 31.48,35.86 C30.54,33.28 26.63,33.58 26.57,36.52 L26.57,36.73 C26.5576616,36.8797463 26.5576616,37.0302537 26.57,37.18 C26.4665158,37.4853077 26.4323549,37.8098366 26.47,38.13 C26.62,39.52 26.81,40.89 27.04,42.26 L27.04,42.39 L27.22,43.39 C26.8397151,44.3440569 27.0292469,45.430964 27.71,46.2 C27.6661771,46.4615101 27.6661771,46.7284899 27.71,46.99 C28.2,49.33 29.17,51.42 29.46,53.8 C29.69,55.68 29.78,57.62 29.93,59.52 L29.85,59.52 C29.7782393,59.4073955 29.6980073,59.3004195 29.61,59.2 C28.04,57.46 27.26,55.25 25.53,53.6 C24.6299163,52.7293795 23.806847,51.7825153 23.07,50.77 C22.1651398,49.8300606 21.3483862,48.8091186 20.63,47.72 C19.27,44.81 14.96,47.34 16.31,50.24 C16.9803719,51.3316738 17.7794268,52.3388859 18.69,53.24 C18.97,53.59 19.23,53.94 19.49,54.29 C19.5196053,54.9077029 19.7718089,55.4938098 20.2,55.94 L20.51,56.34 C20.5205556,56.9329808 20.7778642,57.4947108 21.22,57.89 C21.3429175,57.9860018 21.4567316,58.093121 21.56,58.21 L21.56,58.27 C21.69,58.47 21.82,58.67 21.96,58.87 C22.1509279,59.1357757 22.3579836,59.3895859 22.58,59.63 C22.5360914,60.3040908 22.7794965,60.9652808 23.25,61.45 C25.36,63.74 25.48,67.12 26.11,70.04 C26.3,70.9 26.42,71.76 26.63,72.56 C26.5393202,72.944729 26.5393202,73.345271 26.63,73.73 C26.9932597,75.53299 27.5811796,77.2833116 28.38,78.94 C28.921823,79.7588539 29.3871193,80.625845 29.77,81.53 C29.8791852,82.1600916 30.0329038,82.7816498 30.23,83.39 C30.640517,84.313585 31.1573411,85.1861452 31.77,85.99 C31.6789737,86.3152501 31.6585168,86.6561993 31.71,86.99 C31.95,88.82 31.88,90.63 32.13,92.44 C31.5784564,92.9396984 31.3154653,93.683444 31.4302979,94.4187754 C31.5451305,95.1541068 32.0223627,95.7822559 32.7,96.09 C36.7039328,97.8064265 41.1439793,98.2294545 45.4,97.3 C46.142388,97.0857326 46.7454406,96.54272 47.0361065,95.8267844 C47.3267725,95.1108488 47.2729191,94.301136 46.89,93.63 C46.22,92.63 46.45,90.15 46.26,88.99 C46.162093,88.1097631 45.9398817,87.2478528 45.6,86.43 C46.5884588,84.5652927 47.3569432,82.5920662 47.89,80.55 C48.6420843,79.9068012 49.0915527,78.9788667 49.13,77.99 C49.1368716,77.6191286 49.0931354,77.2490524 49,76.89 C50.23,74.06 49.58,70.44 49.64,67.54 C49.6479862,67.4167959 49.6479862,67.2932041 49.64,67.17 L49.64,67.02 C49.94,64.54 50.23,62.02 50.33,59.56 C50.2852405,57.3799788 50.4932953,55.2021155 50.95,53.07 C51.1316254,52.5624252 51.1316254,52.0075748 50.95,51.5 L50.95,51.29 C51.2579171,48.9432511 51.7698556,46.6278171 52.48,44.37 C52.94,42.54 53.31,40.85 53.62,39.08 C53.7011097,38.9067566 53.7647573,38.7258632 53.81,38.54 C54.0155561,37.84996 54.086844,37.1268963 54.02,36.41 C54.0029807,36.2191391 53.9626815,36.0310762 53.9,35.85 C53.97,35.66 54.03,35.47 54.1,35.29 C55.41,32.27 50.57,30.98 49.38,33.93 Z" fill="#FAFD7B" fill-rule="nonzero"></path>
                <path d="M27.31,61.21 C28.31,59.38 30.97,58.56 33.03,58.56" stroke="#000000"></path>
                <path d="M41.44,74.34 L41.08,70.81 C41.0563733,70.3023048 40.9482224,69.802107 40.76,69.33 C40.4620288,68.7992135 40.0766169,68.3225198 39.62,67.92 C38.1984682,66.4550346 37.0953548,64.7118431 36.38,62.8 C36.0144561,62.049125 35.9500534,61.1868453 36.2,60.39 C36.8801312,59.2837199 38.2765247,58.8553783 39.46,59.39 C40.5949234,59.9452069 41.6132095,60.7123158 42.46,61.65 C43.29,62.42 44.19,63.12 44.96,63.95 C47.89,67.13 48.52,71.74 48.96,76.03 C49.1173949,76.9734807 49.1173949,77.9365193 48.96,78.88 C48.66,80.24 47.73,81.37 47.23,82.67 C46.82,83.73 46.71,84.89 46.23,85.95 C45.8533183,87.039785 44.8853806,87.8172451 43.74,87.95" stroke="#000000"></path>
                <path d="M29.51,59.34 C27.22,55.94 24.51,52.43 21.91,49.24 C20.91,48 19.72,46.65 18.12,46.56 C17.1823316,46.4679339 16.307566,47.0427799 16.02,47.94 C15.9695574,48.4822886 16.0772268,49.027582 16.33,49.51 C18.08,53.69 20.92,56.88 23.14,61.14 C24.0151281,62.6414105 24.6876371,64.2520696 25.14,65.93 C26,69.47 26.6,73.98 28.04,77.57 C28.67,79.15 29.69,80.57 30.36,82.13 C30.8041615,83.4707654 31.3525,84.774741 32,86.03 C32.6855982,87.3074387 34.0655579,88.0544255 35.51,87.93" stroke="#000000"></path>
                <path d="M36.39,59.83 C35.8716846,58.5633054 35.7394759,57.1716344 36.01,55.83 L36.36,52.38 C36.3691131,51.7240459 36.5519941,51.0822373 36.89,50.52 C37.4601964,49.7794281 38.3264914,49.3261767 39.26,49.28 C39.8474527,49.2902813 40.4211307,49.45962 40.92,49.77 C41.6767097,50.4013502 42.0856079,51.3566851 42.02,52.34 C42.2063199,55.0652245 42.0517924,57.8030493 41.56,60.49" stroke="#000000"></path>
                <path d="M31.98,86.03 C31.69,88.54 32.42,92.59 31.47,94.93" stroke="#000000"></path>
                <path d="M46.4,85.7 C46.2602641,87.3339371 46.3139693,88.9786594 46.56,90.6 L46.72,92.29 C46.8190055,93.1890156 47.0168685,94.0743686 47.31,94.93" stroke="#000000"></path>
                <path d="M38.3,81.66 C36.2299366,78.5737688 36.1247961,74.57064 38.03,71.38 C38.7295117,70.4280114 39.5768978,69.5941295 40.54,68.91" stroke="#000000"></path>
                <path d="M29.73,59.16 C29.46,57.06 29.22,54.6 28.95,52.5 C28.88,51.98 28.82,51.5 28.71,50.96 C28.6,50.42 28.44,49.96 28.29,49.44 C27.2916989,46.0488138 26.6219473,42.5694545 26.29,39.05 C26.1638269,38.1946278 26.1638269,37.3253722 26.29,36.47 C26.4284826,35.6095159 26.8988009,34.8376196 27.6,34.32 C28.6566986,33.6579642 30.0351397,33.842877 30.88,34.76 C31.1896216,35.1509472 31.4328652,35.590137 31.6,36.06 C33.6,41.06 33.89,46.64 34.6,52.06 C34.86,54.06 35.7,56.84 36.08,58.87" stroke="#000000"></path>
                <path d="M42.1,55.79 C43.75,52.03 45.57,48.04 46.35,44.02 C46.61,42.68 46.77,41.33 47.07,40.02 C47.3820807,38.6819042 47.810373,37.373605 48.35,36.11 C49,34.55 49.94,32.91 51.55,32.39 C51.9924259,32.2287142 52.4775741,32.2287142 52.92,32.39 C53.7148355,32.8725618 54.1943509,33.7402563 54.18,34.67 C54.6,38.3 53.35,41.88 52.43,45.42 C50.11,54.31 50.28,69.04 49.01,78.88" stroke="#000000"></path>
                <path d="M38.61,59.16 C38.2094709,59.1384962 37.8191773,59.291062 37.5394109,59.5784933 C37.2596444,59.8659245 37.117681,60.2601982 37.15,60.66 C37.2504336,61.203416 37.5157949,61.7027143 37.91,62.09 C38.2408719,62.4607008 38.6095363,62.7958502 39.01,63.09 C39.2572225,63.2935686 39.5481119,63.4373022 39.86,63.51 C40.3798625,63.5507651 40.8964062,63.3975831 41.31,63.08 C41.9030573,62.8288604 42.2942228,62.2538471 42.31,61.61" stroke="#000000"></path>
                <path d="M20.67,53.7 C21.0992106,53.7004263 21.5103624,53.5273098 21.81,53.22" stroke="#000000"></path>
                <path d="M23.24,57.4 C23.7367249,57.3853856 24.2189544,57.2292682 24.63,56.95" stroke="#000000"></path>
                <path d="M29.16,43.09 C29.6622718,43.1886711 30.1821927,43.1436113 30.66,42.96" stroke="#000000"></path>
                <path d="M30.23,50.42 C30.7365763,50.5870966 31.2834237,50.5870966 31.79,50.42" stroke="#000000"></path>
                <path d="M48.62,42.19 C49.2149128,42.8186725 50.0694899,43.1331272 50.93,43.04" stroke="#000000"></path>
                <path d="M46.51,50.42 C47.2023642,50.9268129 48.0552389,51.1649071 48.91,51.09" stroke="#000000"></path>
                <path d="M44.44,65.66 C44.9644828,65.5910335 45.4451304,65.3311278 45.79,64.93" stroke="#000000"></path>
                <path d="M30.43,68.04 C32.5156823,67.6890534 34.5149573,66.9422953 36.32,65.84 C36.6830488,65.612839 36.9851324,65.3004571 37.2,64.93" stroke="#000000"></path>
            </g>
        </g>
    </g>
</svg>