<?xml version="1.0" encoding="UTF-8"?>
<svg width="80px" height="100px" viewBox="0 0 80 100" version="1.1" xmlns="http://www.w3.org/2000/svg" xmlns:xlink="http://www.w3.org/1999/xlink">
    <!-- Generator: Sketch 43.2 (39069) - http://www.bohemiancoding.com/sketch -->
    <title>9</title>
    <desc>Created with Sketch.</desc>
    <defs></defs>
    <g id="Symbols" stroke="none" stroke-width="1" fill="none" fill-rule="evenodd">
        <g id="9" transform="translate(-29.000000, 1.000000)">
            <g transform="translate(29.000000, 0.000000)" id="Shape">
                <path d="M1.23,41.66 C3.47691671,53.4771968 11.9507641,63.149018 23.37,66.93 C18.77,79.51 14.13,90.39 14.1,92 C14.1,93.86 15.22,94.29 16.58,93.93 C18.2,93.51 45.31,94.02 55.2,94.02 L56.74,94.02 C59.63,93.96 59.74,93.22 60.08,92.02 C65.31,75.47 74.99,57.85 77.89,42.93 C78.82196,38.871873 79.0351882,34.6817702 78.52,30.55 C77.27,20.3 72.61,11.89 63.75,6.35 C57.97,2.74 52.75,0.02 32.54,0.54 C11.43,1.11 -2.98,21 1.23,41.66 Z" stroke="#000000"></path>
                <path d="M56.85,67.46 C56.7691722,66.914778 56.482971,66.421081 56.05,66.08 C55.9161691,64.8090607 55.6922729,63.5492268 55.38,62.31 C55.017401,61.0983337 54.8156726,59.844255 54.78,58.58 C54.83,57.37 55.37,56.18 55.15,54.97 C54.9716536,54.102487 54.4363439,53.3501312 53.6752265,52.8972663 C52.9141091,52.4444015 51.9975086,52.3328707 51.15,52.59 C50.2591987,52.8232076 49.4431632,53.2811516 48.78,53.92 C48.9,48.1 49.47,42.13 48.83,36.47 C48.8014065,36.2296983 48.7408722,35.9942872 48.65,35.77 C48.71,35.5 48.76,35.23 48.83,34.96 C49.62,31.84 44.83,30.51 44.01,33.63 C42.07,41.33 43.01,49.44 42.58,57.31 C42.4355702,57.6229506 42.3670458,57.9655726 42.38,58.31 C42.07,58.36 41.76,58.42 41.46,58.5 C41.5082253,58.1985834 41.5082253,57.8914166 41.46,57.59 L39.87,49.22 C40.0543528,48.7461639 40.1062075,48.2310737 40.02,47.73 C39.5533333,44.8566667 39.0233333,42 38.43,39.16 C37.77,36.01 32.95,37.34 33.61,40.49 C34.03,42.49 34.41,44.49 34.77,46.56 C34.5507918,47.0633323 34.49145,47.6218434 34.6,48.16 L35.53,53.03 C35.1048251,53.6042392 34.9217245,54.3222809 35.02,55.03 C35.2335299,56.178258 35.5241883,57.3108232 35.89,58.42 C35.8060403,58.8155942 35.8060403,59.2244058 35.89,59.62 L35.98,60.08 C36.0182569,60.2523692 36.075263,60.420034 36.15,60.58 L35.27,60.98 L35.16,61.04 C33.8784475,59.5164005 32.7684347,57.8564116 31.85,56.09 C30.41,53.48 28.56,50.88 27.38,48.15 C26.11,45.2 21.8,47.75 23.06,50.67 C24.6768461,54.0342411 26.5141801,57.2879926 28.56,60.41 C29.03,61.19 29.56,61.94 30.07,62.65 C30.1004988,62.9298481 30.1747357,63.2031746 30.29,63.46 C30.87,64.74 31.39,65.94 31.82,67.18 C31.82,67.73 31.91,68.28 31.95,68.82 C31.7551357,69.192563 31.6620022,69.6099388 31.68,70.03 C31.68,71.24 31.79,72.46 31.89,73.69 C31.7125383,75.631282 31.9934103,77.5871106 32.71,79.4 C32.8149717,79.6587894 32.9564025,79.9012423 33.13,80.12 C33.8930722,82.12638 35.0260277,83.9716727 36.47,85.56 C36.4639508,85.6632448 36.4639508,85.7667552 36.47,85.87 C36.7836701,88.2741523 36.9473201,90.6955049 36.96,93.12 C36.83,95.35 37.11,96.53 39.33,97.43 C43.4555023,99.0224308 48.0717136,98.7263793 51.96,96.62 C52.5300813,96.3668617 52.9651704,95.8826425 53.1561073,95.2888287 C53.3470442,94.695015 53.2757093,94.0479584 52.96,93.51 C53.32,91.62 52.71,89.27 52.84,87.51 C52.8693859,86.9456475 52.6753956,86.3924161 52.3,85.97 C52.7126663,85.5616219 53.0510556,85.0844929 53.3,84.56 C56.7019108,79.5553521 57.9786942,73.4052121 56.85,67.46 Z" fill="#FAFD7B" fill-rule="nonzero"></path>
                <path d="M32.24,63.06 C36.2172414,59.834399 41.1243197,57.9697092 46.24,57.74" stroke="#000000"></path>
                <path d="M49.09,75.45 C48.9594158,73.6072117 49.3037218,71.7617319 50.09,70.09 C50.7,68.69 49.63,67.42 48.76,66.09 C47.9784688,65.1018951 47.5054353,63.9053986 47.4,62.65 C47.4,61.4 48.53,60.09 49.75,60.35 C50.3253569,60.5362879 50.8354202,60.8832697 51.22,61.35 C53.0066667,63.1233333 54.7066667,64.98 56.32,66.92 C56.568338,67.1885437 56.7710203,67.4959452 56.92,67.83 C57.0384892,68.201412 57.0926022,68.5903492 57.08,68.98 C57.18,73.12 57.23,77.48 55.26,81.13 C54.43,82.66 53.64,84.13 52.87,85.69 C52.2071369,87.0040196 50.8515566,87.8235825 49.38,87.8" stroke="#000000"></path>
                <path d="M39.13,87.23 C36.99,86.72 35.59,84.74 34.39,82.9 C33.271619,81.3888624 32.4193808,79.6979137 31.87,77.9 C31.26,75.33 31.87,72.64 31.75,70.01 C31.55,66.47 29.93,63.19 28.18,60.11 C26.12,56.49 24.63,54.76 23.28,50.82 C22.9560593,49.9809552 22.900161,49.0621265 23.12,48.19 C23.4865899,47.5481955 24.1438492,47.1262052 24.88,47.06 C25.6857293,47.109711 26.4413603,47.46783 26.99,48.06 C27.7117595,49.0176668 28.3160736,50.0584301 28.79,51.16 C30.7161802,54.5138973 32.8993833,57.7134768 35.32,60.73" stroke="#000000"></path>
                <path d="M35.85,60.59 C35.05,54.1033333 34.3833333,47.6 33.85,41.08 C33.7294713,40.2538171 33.7667981,39.4122674 33.96,38.6 C34.0970821,37.7303515 34.7867163,37.0526153 35.6586185,36.930687 C36.5305207,36.8087587 37.3796155,37.2713165 37.75,38.07 C38.1622611,38.8023036 38.4304267,39.6068004 38.54,40.44 C39.6866667,46.3466667 40.71,52.2766667 41.61,58.23" stroke="#000000"></path>
                <path d="M35.99,85.26 C36.14,86.02 36.28,86.79 36.36,87.56 C36.44,88.33 36.45,89.25 36.48,90.1 C36.53,91.57 36.66,93.03 36.79,94.49 L36.87,95.39" stroke="#000000"></path>
                <path d="M47.85,61.27 C47.6696358,60.7456767 47.5193907,60.2114721 47.4,59.67 C47.1029342,58.2642132 47.2860349,56.7994079 47.92,55.51 C48.5681306,54.223236 49.7247283,53.2660518 51.11,52.87 C52.3219897,52.4523547 53.6626205,52.9143567 54.36,53.99 C54.4990991,54.3080972 54.5900954,54.6451203 54.63,54.99 C55.0480323,57.9888089 54.8091845,61.0426494 53.93,63.94" stroke="#000000"></path>
                <path d="M44.28,83.47 C43.43462,80.766614 43.5727684,77.8513302 44.67,75.24 C45.7631387,72.7017794 47.7381483,70.6450696 50.23,69.45" stroke="#000000"></path>
                <path d="M42.43,58.06 C42.43,52.66 42.61,47.26 42.83,41.87 L43,37.57 C42.9872707,36.438606 43.1491752,35.3120209 43.48,34.23 C43.8256032,33.1360111 44.6554275,32.2619294 45.73,31.86 C46.2813506,31.6757866 46.8837984,31.7226838 47.4,31.99 C48.0091714,32.407968 48.4322383,33.0461536 48.58,33.77 C48.9138388,35.1909588 49.038486,36.6530366 48.95,38.11 C48.88,43.43 48.86,49.16 48.63,54.47" stroke="#000000"></path>
                <path d="M55.85,66.19 C55.85,63.77 55.12,59.86 54.8,57.47" stroke="#000000"></path>
                <path d="M52.56,86.45 L52.68,90.03 C52.6981763,91.7274975 52.8351779,93.4216396 53.09,95.1" stroke="#000000"></path>
                <path d="M26.31,53.54 C26.9583491,53.6021611 27.596357,53.3447194 28.02,52.85" stroke="#000000"></path>
                <path d="M28.73,57.13 C29.2122586,57.2926954 29.7437554,57.2066079 30.15,56.9" stroke="#000000"></path>
                <path d="M35.85,45.61 C36.5109683,45.7168541 37.1809971,45.7570558 37.85,45.73" stroke="#000000"></path>
                <path d="M36.72,51.59 C37.1737085,51.7410366 37.6539853,51.7955361 38.13,51.75 C38.35,51.75 38.65,51.53 38.51,51.35" stroke="#000000"></path>
                <path d="M44.94,40.17 C45.7010301,40.5260304 46.5437287,40.671085 47.38,40.59" stroke="#000000"></path>
                <path d="M44.39,48.34 C45.0512462,48.643673 45.805197,48.6759852 46.49,48.43" stroke="#000000"></path>
                <path d="M54.67,68.79 C55.5180832,68.7854467 56.3246153,68.4221439 56.89,67.79" stroke="#000000"></path>
                <path d="M49.48,60.34 C48.9641434,60.4759953 48.5420438,60.8462581 48.34,61.34 C48.1612919,61.786796 48.2175735,62.29333 48.49,62.69 C48.9192382,63.342311 49.4300381,63.9371241 50.01,64.46 C50.6104665,64.8352078 51.3548203,64.8984779 52.01,64.63 C52.4985897,64.3627593 52.7989075,63.8468286 52.79,63.29" stroke="#000000"></path>
                <path d="M34.34,68.34 C37.9249111,67.8594636 41.288521,66.3324473 44.01,63.95" stroke="#000000"></path>
                <path d="M37.48,78.23 C38.0433272,76.1734067 39.152503,74.3075035 40.69,72.83 C42.2320112,71.3479066 43.9055649,70.0090636 45.69,68.83" stroke="#000000"></path>
            </g>
        </g>
    </g>
</svg>