<?xml version="1.0" encoding="UTF-8"?>
<svg width="102px" height="95px" viewBox="0 0 102 95" version="1.1" xmlns="http://www.w3.org/2000/svg" xmlns:xlink="http://www.w3.org/1999/xlink">
    <!-- Generator: Sketch 43.2 (39069) - http://www.bohemiancoding.com/sketch -->
    <title>A</title>
    <desc>Created with Sketch.</desc>
    <defs></defs>
    <g id="Symbols" stroke="none" stroke-width="1" fill="none" fill-rule="evenodd">
        <g id="A" transform="translate(-17.000000, 0.000000)">
            <g transform="translate(17.000000, 0.000000)" id="Shape">
                <path d="M37.44,88.15 L0.89,88.15 L54.25,0 L100.69,88.12 L63.5,88.12 C62.1,88.14 41.83,88.14 37.44,88.15 Z" stroke="#000000"></path>
                <path d="M65.88,42.93 C65.7694354,42.5188035 65.543961,42.147638 65.23,41.86 C65.17,41.29 65.09,40.72 65.03,40.15 C64.9803036,39.5911886 64.7484173,39.0641742 64.37,38.65 C64.47,38.44 64.58,38.24 64.66,38.02 C65.1555617,37.610046 65.2554313,36.8892483 64.89,36.36 C65.4003913,36.2053224 65.6995862,35.6773315 65.57,35.16 L65.57,35.02 C65.4998876,34.7639583 65.3308445,34.5463021 65.1001234,34.4149974 C64.8694024,34.2836928 64.5959398,34.2495164 64.34,34.32 C64.27,34.32 64.16,34.14 64.1,34.17 C61.71,34.11 61.1,34.9 60.64,38 C60.3088392,38.3229308 60.1245125,38.7674833 60.13,39.23 C58.99,37.91 56.69,37.91 55.96,39.29 L55.85,39.29 C55.2550478,39.514213 54.8021463,40.00795 54.63,40.62 C52.82,38.37 49.24,38.13 48.11,41.03 C46.5367689,39.8552338 44.3123574,40.1577538 43.11,41.71 C42.6339557,42.2625588 42.3997636,42.9831499 42.46,43.71 C41.8011756,43.4508009 41.0582316,43.5213805 40.46,43.9 C40.27,44.05 40.11,44.22 39.93,44.38 C39.71835,44.4324776 39.5136092,44.5096749 39.32,44.61 C37.6,45.52 36.32,47.81 35.87,49.61 C35.42,51.41 34.7,53.43 35.05,55.23 C35.05,55.47 34.98,55.71 34.96,55.95 L34.96,56.18 C33.96,56.93 33.76,58.46 33.77,59.67 C33.77,60.73 33.83,62.36 34.61,63.23 C34.6918335,64.4987957 35.0321308,65.7374778 35.61,66.87 C35.360159,67.5453815 35.477426,68.3019428 35.92,68.87 C36.5225669,69.7255428 37.0607157,70.6246859 37.53,71.56 C38.545777,74.2962274 39.2175913,77.1480793 39.53,80.05 C39.86,83.64 38.84,87.19 38.11,90.67 C37.8937267,91.535496 38.1473622,92.4510059 38.7781782,93.0818218 C39.4089941,93.7126378 40.324504,93.9662733 41.19,93.75 C44.98,93.09 53.09,96.18 55.57,91.88 C56.64,90.03 56.19,86.64 56.3,84.63 C56.44,82.01 55.67,78.63 56.04,75.86 C56.14,75.41 56.24,74.97 56.33,74.52 L56.33,74.4 C57.9370135,73.0224643 59.1051419,71.2042169 59.69,69.17 C60.8723011,66.0552655 61.8444804,62.86478 62.6,59.62 C63.12,56.93 64.1,54.34 64.4,51.62 L65.51,49.83 C66.93,47.58 66.55,45.41 65.88,42.93 Z" fill="#FAFD7B" fill-rule="nonzero"></path>
                <path d="M37.54,91.26 C38.1126215,90.2291893 38.453863,89.08603 38.54,87.91 C39.08,84.06 39.62,80.09 38.71,76.31 C37.85,72.74 35.71,69.58 34.77,66.05 C33.57,61.75 34.08,57.16 34.94,52.77 C35.53,49.77 36.4,46.56 38.76,44.6 C39.94,43.6 41.9,43.13 42.9,44.3 C43.2497203,44.7887943 43.4761462,45.3548591 43.56,45.95 L44.95,52.17 C45.1010352,52.6523905 45.1251445,53.1655743 45.02,53.66 C44.67,54.79 43.13,55.06 42.02,54.66 C39.92,53.91 38.66,51.66 38.35,49.46 L38.5,52.02 C38.11,52.28 37.79,52.34 37.4,52.6" stroke="#000000"></path>
                <path d="M44.53,54.86 C44.626657,56.1480376 45.1270552,57.3727885 45.96,58.36 C46.76,59.3 48.14,60 49.2,59.36 C50.26,58.72 50.31,57.24 50.2,56 L49.55,45.8 C49.5826619,44.4547903 49.2361208,43.127538 48.55,41.97 C47.704661,40.8100726 46.2454558,40.2712286 44.8491358,40.6033736 C43.4528159,40.9355185 42.3925227,42.0736798 42.16,43.49" stroke="#000000"></path>
                <path d="M48.2,67.7 C49.06507,65.4513005 50.2506635,63.3394622 51.72,61.43" stroke="#000000"></path>
                <path d="M50.74,58.04 C51.66,59.11 53.55,58.63 54.37,57.48 C55.071964,56.247906 55.3889095,54.8338415 55.28,53.42 L55.48,43.73 C55.5225131,43.0609354 55.4822078,42.3891813 55.36,41.73 C54.9937263,40.108921 53.6764499,38.8747601 52.0349697,38.6147673 C50.3934896,38.3547745 48.7593014,39.1214551 47.91,40.55" stroke="#000000"></path>
                <path d="M42.28,54.67 C41.6632011,54.1355317 41.3001667,53.3658986 41.28,52.55 C41.2330694,52.0994199 41.3909164,51.6515751 41.71,51.33 C41.9832328,51.1324707 42.304331,51.0116273 42.64,50.98 C43.3394284,50.7682487 44.0986729,50.9390787 44.64,51.43 C44.8634508,51.7967193 44.9746897,52.2208176 44.96,52.65" stroke="#000000"></path>
                <path d="M46.7,58.44 C46.7876007,57.937192 46.7427982,57.4202401 46.57,56.94 C46.3784078,56.0360026 46.7297168,55.103082 47.47,54.55 C47.8477031,54.3055659 48.3100439,54.2292087 48.7462844,54.3392172 C49.1825249,54.4492256 49.5533713,54.7356909 49.77,55.13" stroke="#000000"></path>
                <path d="M50.46,55.6 C50.5678734,54.5781628 51.4325003,53.8043218 52.46,53.81 C52.8491329,53.7728829 53.2402438,53.8566924 53.58,54.05 C53.9879448,54.3413136 54.253235,54.7919435 54.31,55.29 C54.3603148,55.7836815 54.3401123,56.2820114 54.25,56.77" stroke="#000000"></path>
                <path d="M54.84,40 C55.12,38.79 56.55,38.31 57.78,38.11 C58.4718086,37.9062623 59.2170068,37.9966989 59.84,38.36 C60.389144,38.9559666 60.6391271,39.7684115 60.52,40.57 C60.4915849,43.7760824 60.2477019,46.9766295 59.79,50.15 C59.7106382,51.3613068 59.3140344,52.5304258 58.64,53.54 C57.9122032,54.5536314 56.5559085,54.8884667 55.44,54.33" stroke="#000000"></path>
                <path d="M40.64,74.72 C41.9721415,75.8630426 43.7321207,76.3768253 45.47,76.13" stroke="#000000"></path>
                <path d="M56.11,91.13 C56.2966667,86.8566667 56.2966667,82.5766667 56.11,78.29 C56.023463,77.3292766 56.0875695,76.3609311 56.3,75.42 C56.402325,75.1387689 56.4727658,74.8469427 56.51,74.55" stroke="#000000"></path>
                <path d="M60.37,39.31 C60.3,37.99 60.37,35.99 61.12,35.05 C61.9331996,34.1104558 63.1714587,33.653659 64.4,33.84 C64.7415902,33.8174268 65.075708,33.9468899 65.3129064,34.1937306 C65.5501048,34.4405712 65.666159,34.7795798 65.63,35.12 C65.6235399,35.9492059 65.3844738,36.759952 64.94,37.46 C64.7819965,37.6665839 64.6633545,37.9004782 64.59,38.15 C64.5558887,38.4496503 64.6007036,38.7530122 64.72,39.03 C65.2666667,40.65 65.7666667,42.2866667 66.22,43.94 C66.5321986,44.880513 66.6711163,45.8698777 66.63,46.86 C66.4530773,47.8864208 66.11561,48.8785749 65.63,49.8 C64.5725532,52.3887492 63.687292,55.0445326 62.98,57.75 L59.39,70.3 C59.0473815,72.75887 57.0779658,74.6706041 54.61,74.94 C54.0218423,75.1553963 53.4052897,75.2834237 52.78,75.32" stroke="#000000"></path>
                <path d="M60.72,45.2 C61.1345819,45.8904691 61.9228659,46.264904 62.72,46.15" stroke="#000000"></path>
                <path d="M64.37,34.53 C63.812469,35.1225787 63.4345014,35.8611761 63.28,36.66 C63.1369948,37.4714881 63.461588,38.2945638 64.12,38.79 C64.2140345,38.8634146 64.3459655,38.8634146 64.44,38.79" stroke="#000000"></path>
                <path d="M55.86,50.72 C56.1344925,50.1877998 56.7391354,49.914468 57.32,50.06 C58.26714,50.2610633 58.9483635,51.0918238 58.96,52.06" stroke="#000000"></path>
                <path d="M56.53,45.92 C57.3446564,46.4122498 58.3310184,46.5323603 59.24,46.25" stroke="#000000"></path>
                <path d="M51.64,49 L53.64,49" stroke="#000000"></path>
                <path d="M47.26,51.06 C47.8519638,51.2304464 48.483061,51.2059037 49.06,50.99 C49.169269,50.9598064 49.2646884,50.8926594 49.33,50.8 C49.3572669,50.7528968 49.3630247,50.6963619 49.3458137,50.6447288 C49.3286026,50.5930957 49.2900754,50.5513225 49.24,50.53" stroke="#000000"></path>
                <path d="M41.37,47.69 C41.9797443,47.7421243 42.5892505,47.5871054 43.1,47.25" stroke="#000000"></path>
            </g>
        </g>
    </g>
</svg>