<?xml version="1.0" encoding="UTF-8"?>
<svg width="79px" height="92px" viewBox="0 0 79 92" version="1.1" xmlns="http://www.w3.org/2000/svg" xmlns:xlink="http://www.w3.org/1999/xlink">
    <!-- Generator: Sketch 43.2 (39069) - http://www.bohemiancoding.com/sketch -->
    <title>B</title>
    <desc>Created with Sketch.</desc>
    <defs></defs>
    <g id="Symbols" stroke="none" stroke-width="1" fill="none" fill-rule="evenodd">
        <g id="B" transform="translate(-28.000000, 1.000000)">
            <g transform="translate(28.000000, 0.000000)" id="Shape">
                <path d="M18.95,86 L4.21,86 C1.83,86 0.53,85.55 0.53,82.75 C0.603333333,56.4433333 0.603333333,30.1333333 0.53,3.82 C0.53,1.04 1.83,0.48 4.21,0.49 C19.53,0.57 34.86,0.29 50.21,0.71 C59.41,0.96 67.29,4.71 70.97,13.76 C74.58,22.64 73.39,31.14 66.26,38.12 C64.39,39.95 65.14,40.49 66.87,41.65 C76.18,47.89 79.95,56.5 77.87,66.34 C75.68,76.78 68.96,83.12 57.93,85.34 C54.62,86.01 51.3,85.78 47.99,85.99 C44.68,86.2 23.53,85.97 18.95,86 Z" stroke="#000000"></path>
                <path d="M52.75,47.78 C52.75,47.73 52.7,47.69 52.68,47.65 C52.7882568,46.3577335 53.0466646,45.0824743 53.45,43.85 C54.45,40.8 49.67,39.49 48.63,42.52 C47.8299341,44.8719244 47.4080244,47.3358767 47.38,49.82 C47.3858889,51.3532804 47.0439811,52.8679318 46.38,54.25 C47.05,49.25 45.46,44.32 44.12,39.42 C44.0839192,39.3072793 44.0404929,39.1970432 43.99,39.09 C44.0954378,38.6664634 44.0954378,38.2235366 43.99,37.8 C43.56,35.8 43.38,32.38 42.04,30.37 C41.98,30.05 41.91,29.72 41.85,29.37 C41.85,29.3 41.85,29.24 41.79,29.17 C41.7093634,28.6154295 41.5890547,28.0673568 41.43,27.53 C41.1407307,26.6554373 40.405518,26.002577 39.502887,25.8187459 C38.6002559,25.6349149 37.6682704,25.9482314 37.06,26.64 C36.9170872,26.2291446 36.7397928,25.8310684 36.53,25.45 C36.323172,25.1202994 36.0925596,24.8061317 35.84,24.51 C35.7675034,24.265637 35.6738145,24.0280687 35.56,23.8 C35.1163418,23.0273445 34.2909472,22.5535069 33.4,22.56 L33.22,22.56 C32.2664683,22.5430799 31.3972644,23.1041115 31.02,23.98 C30.7326806,24.4111194 30.5040071,24.8785551 30.34,25.37 C30.1882469,25.6899971 30.0709217,26.0252119 29.99,26.37 C29.6962146,26.0824587 29.3353081,25.8727891 28.94,25.76 C26.07,24.92 24.27,27.63 24.94,30.22 C25.15,31.01 25.37,31.78 25.58,32.56 C25.45,33.68 25.39,34.82 25.32,35.96 C25.32,36.23 25.26,36.47 25.23,36.72 C23.67,35.56 20.97,36.14 21.23,38.52 C21.23,38.69 21.28,38.86 21.31,39.03 C21.08,39.34 21.06,39.57 21.25,39.74 C20.9898791,40.0527269 20.8173478,40.4288451 20.75,40.83 L20.75,40.94 C20.6008295,41.8255237 20.8917937,42.7282589 21.53,43.36 C22.3137458,49.0111905 22.1786697,54.7519251 21.13,60.36 C20.3230491,63.7269374 20.5247614,67.256902 21.71,70.51 C21.6462922,70.8402893 21.6462922,71.1797107 21.71,71.51 C22.4200839,74.5268295 23.5051944,77.4428538 24.94,80.19 C25.82,82.06 26.62,84.04 27.63,85.87 C27.6260993,86.8906963 28.2266008,87.81696 29.16,88.23 C29.7657166,88.9122431 30.6623146,89.2619535 31.57,89.17 C32.0449412,89.4994755 32.6304714,89.6287951 33.2,89.53 C36.5166781,90.3508897 39.9462497,90.6178219 43.35,90.32 C43.876464,90.2812563 44.380278,90.0901544 44.8,89.77 L45.45,89.65 C47.18,89.28 47.55,87.35 46.94,85.98 C45.1,81.82 45.77,78.74 46.89,74.98 C47.0357757,74.8214732 47.1632448,74.6470418 47.27,74.46 C47.7645186,73.5703425 48.1826842,72.6403423 48.52,71.68 C48.5986119,71.460605 48.6490159,71.232107 48.67,71 C49.47,68.73 50.12,66.41 50.77,64.08 C51.09,62.95 51.77,61.44 52.07,59.98 C52.38,59.31 52.71,58.64 53.01,57.98 C54.7,54.26 54.37,51.52 52.75,47.78 Z" fill="#FAFD7B" fill-rule="nonzero"></path>
                <path d="M26.28,38.02 C26.06,37.08 24.69,35.64 23.82,35.63 C22.936862,35.6699204 22.1345182,36.155847 21.69,36.92 C21.2593811,37.6789946 21.0127777,38.5284063 20.97,39.4 C20.8529462,40.672597 20.9169161,41.9553626 21.16,43.21 C21.34,44.13 21.61,45.04 21.79,45.96 C21.9824395,47.0464375 22.0861153,48.1467382 22.1,49.25 C22.1859019,52.3447729 21.9344185,55.4396951 21.35,58.48 C20.8667849,60.4139692 20.568774,62.3895473 20.46,64.38 C20.5000689,65.7635882 20.6742173,67.1400301 20.98,68.49 C21.2866667,70.0433333 21.62,71.5933333 21.98,73.14 C22.2060028,74.2207702 22.4999191,75.2862168 22.86,76.33 C23.4318625,77.777346 24.1277871,79.172541 24.94,80.5 C26.4189627,82.7707819 27.5545414,85.247489 28.31,87.85" stroke="#000000"></path>
                <path d="M24.31,49 L26.48,49" stroke="#000000"></path>
                <path d="M23.76,42.67 C24.2446572,42.4701872 24.7659903,42.3747798 25.29,42.39" stroke="#000000"></path>
                <path d="M27.49,53.48 C27.8558713,48.5384281 27.5021805,43.569914 26.44,38.73 C25.66,35.16 24.44,31.61 24.68,27.96 C24.6775224,27.6132792 24.7562931,27.2707983 24.91,26.96 C25.1297615,26.6397597 25.4251629,26.3787073 25.77,26.2 C26.77,25.6 27.91,25.01 28.97,25.43 C30.29,25.95 30.6,27.64 30.74,29.05 C31.4082185,36.1995057 32.4496389,43.3092025 33.86,50.35" stroke="#000000"></path>
                <path d="M28.55,81.95 C30.1668419,82.7227352 31.9817784,82.9810146 33.75,82.69" stroke="#000000"></path>
                <path d="M30.02,26.17 C30.1396324,25.1924083 30.5233768,24.2658903 31.13,23.49 C31.751269,22.7100216 32.7286485,22.3024657 33.72,22.41 C35.16,22.64 36.02,24.13 36.45,25.52 C37.54,29.09 37.08,32.93 37.64,36.62 C38.3,40.93 40.36,45.1 39.88,49.43" stroke="#000000"></path>
                <path d="M36.95,81.07 C39.2769115,81.3706786 41.6347833,80.8317365 43.6,79.55" stroke="#000000"></path>
                <path d="M36.95,27.67 C36.82,26.57 38.57,24.72 39.95,25.58 C40.8552348,26.2242088 41.5118394,27.1596939 41.81,28.23 C42.7905049,31.0646006 43.4120115,34.0108777 43.66,37 C43.6979227,37.7288654 43.7881549,38.4540651 43.93,39.17 C44.2229879,40.1769131 44.6010147,41.1571064 45.06,42.1 C46.3828815,45.6519342 46.8953677,49.4545821 46.56,53.23" stroke="#000000"></path>
                <path d="M32.7,62.8 C32.63,64.13 32.56,65.45 32.55,66.8 C32.514349,67.6266462 32.5917303,68.4542895 32.78,69.26 C33.1393658,70.3415116 33.6767512,71.3554464 34.37,72.26" stroke="#000000"></path>
                <path d="M37.82,69.49 C37.2790154,67.7285332 37.6917571,65.8125028 38.91,64.43 C40.1213346,63.0860211 41.4610263,61.8635525 42.91,60.78 C44.3595087,59.6806234 45.4124041,58.1398865 45.91,56.39 C45.963108,55.360453 46.1861168,54.3467765 46.57,53.39 C46.8492289,53.0300559 47.0999878,52.6489024 47.32,52.25 C47.453066,51.8510488 47.5007644,51.4285772 47.46,51.01 C47.3208691,49.3462369 47.3208691,47.6737631 47.46,46.01 C47.6190051,44.3269866 48.3619397,42.7526727 49.56,41.56 C50.38,40.82 52.08,40.14 52.99,41.16 C53.63,41.89 53.28,42.75 53.1,43.56 C52.8047394,44.8330288 52.7673377,46.1522878 52.99,47.44 C53.37,49.59 54.48,51.61 54.43,53.79 C54.2639888,55.4627718 53.7893015,57.0902713 53.03,58.59 C52.0862586,60.8715501 51.2847243,63.2093583 50.63,65.59 C50.24,67 49.9,68.42 49.43,69.8 C48.5,72.52 47.05,75.05 46.43,77.8 C45.6278371,81.1508435 45.9801881,84.674354 47.43,87.8" stroke="#000000"></path>
                <path d="M26.05,55.32 C30.8463641,51.4801474 36.8059341,49.385482 42.95,49.38" stroke="#000000"></path>
                <path d="M28.64,43.67 C29.3621838,43.6123284 30.0878162,43.6123284 30.81,43.67" stroke="#000000"></path>
                <path d="M28.07,35.83 C28.1852606,35.5202444 28.5039826,35.3357211 28.83,35.39 C29.1476917,35.4500049 29.4758154,35.3697969 29.73,35.17" stroke="#000000"></path>
                <path d="M33.95,32.56 C34.2827457,32.6204153 34.6249403,32.6033056 34.95,32.51" stroke="#000000"></path>
                <path d="M34.25,41.01 C34.9677276,41.2509906 35.750033,41.2116967 36.44,40.9" stroke="#000000"></path>
                <path d="M40.57,41.26 C41.2212496,41.0009418 41.9196885,40.8816961 42.62,40.91" stroke="#000000"></path>
                <path d="M39.81,34 L41.33,34" stroke="#000000"></path>
                <path d="M29.83,58.34 C34.7267326,55.1701328 40.4807793,53.5849767 46.31,53.8" stroke="#000000"></path>
                <path d="M47.71,51.87 C48.3931033,52.1843925 49.1292186,52.3675733 49.88,52.41" stroke="#000000"></path>
                <path d="M36.29,62.32 C37.1247832,61.433736 38.1508397,60.7496983 39.29,60.32 C40.7611504,59.8200726 42.2972765,59.537102 43.85,59.48" stroke="#000000"></path>
            </g>
        </g>
    </g>
</svg>