<?xml version="1.0" encoding="UTF-8"?>
<svg width="83px" height="91px" viewBox="0 0 83 91" version="1.1" xmlns="http://www.w3.org/2000/svg" xmlns:xlink="http://www.w3.org/1999/xlink">
    <!-- Generator: Sketch 43.2 (39069) - http://www.bohemiancoding.com/sketch -->
    <title>C</title>
    <desc>Created with Sketch.</desc>
    <defs></defs>
    <g id="Symbols" stroke="none" stroke-width="1" fill="none" fill-rule="evenodd">
        <g id="C" transform="translate(-26.000000, 0.000000)">
            <g transform="translate(26.000000, 0.000000)" id="Shape">
                <path d="M7.85,69.3 C0.44,57.24 -1.24,45.56 2.23,33.43 C6.96,16.89 18.08,6.08 34.69,1.99 C51.85,-2.24 66.9,2.65 79.54,14.99 C81.71,17.12 81.96,18.72 79.78,21.18 C73.91,27.76 68.44,34.71 62.57,41.3 C60.43,43.71 60.57,45.21 62.67,47.53 C68.82,54.31 74.67,61.38 80.77,68.2 C82.58,70.2 82.52,71.54 80.77,73.63 C68.48,88.63 43.96,94.15 26.04,85.22 C18.886635,81.305651 12.6777361,75.8715845 7.85,69.3 L7.85,69.3 Z" stroke="#000000"></path>
                <path d="M43.97,63.72 C44.1106926,63.6158272 44.2412684,63.4986438 44.36,63.37 C47.07,61.77 49.96,60.17 50.44,56.74 C50.4922434,56.3829314 50.4718354,56.0189894 50.38,55.67 L51.31,53.11 C51.5101996,52.5814209 51.5312795,52.0017238 51.37,51.46 C51.8104169,51.0785739 52.2032504,50.6454498 52.54,50.17 C53.1427022,48.9347537 52.6444294,47.4443844 51.42,46.82 C50.1833616,46.2397789 48.7090174,46.732694 48.07,47.94 C47.6536507,48.3680373 47.1983524,48.75638 46.71,49.1 C46.1489404,49.6548954 45.6857449,50.3006642 45.34,51.01 C44.62,52.5 44.66,54.16 44.09,55.68 L44.09,55.77 L43.97,55.77 C42.4912357,55.8359049 41.1099825,56.5265315 40.17,57.67 C39.8892785,57.9116524 39.6222002,58.1687152 39.37,58.44 C39.2700756,58.4345013 39.1699244,58.4345013 39.07,58.44 C37.77,58.44 36.63,56.52 35.79,55.73 C34.8445941,55.0284039 34.0029579,54.1968673 33.29,53.26 C33.13,52.99 32.96,52.73 32.79,52.48 C34.3,51.48 35.69,50.54 35.99,48.48 C36.42,45.55 35.5,42.35 34.99,39.48 C34.9621626,39.3302841 34.9220266,39.1831188 34.87,39.04 C35.49,38.28 36.12,37.52 36.75,36.76 L36.91,36.6 C37.18,36.65 37.55,36.68 37.69,36.72 L40.94,37.55 C41.902029,37.8470758 42.9406721,37.4299501 43.43,36.55 C43.9014638,37.2666262 44.4406009,37.9363617 45.04,38.55 C46.1828427,39.2705481 47.4575624,39.7566412 48.79,39.98 C51.79,40.66 52.56,36.75 50.39,35.29 C49.4048512,34.6228089 48.3869098,34.005369 47.34,33.44 L47.19,33.38 C46.5507426,32.576526 45.708335,31.9585303 44.75,31.59 C42.31,30.79 39.16,31.02 36.63,31.01 C33.85,31.01 32.47,31.14 30.76,33.36 C29.87,34.52 29.04,35.74 28.25,36.98 C27.8630556,36.7602238 27.4249883,36.6463953 26.98,36.65 L26.24,36.65 C25.7423582,36.3409352 25.1749252,36.1621079 24.59,36.13 C23.2360482,35.9176062 21.9497136,36.7926637 21.65,38.13 L21.48,38.67 C21.4330849,38.8293766 21.4062112,38.9939779 21.4,39.16 C20.8207642,39.1178946 20.2392358,39.1178946 19.66,39.16 C18.23,39.59 17.46,42.05 16.54,42.16 C15.628912,42.1667972 14.7936646,42.6687119 14.36,43.47 C13.4400189,45.8198613 12.7696669,48.2599425 12.36,50.75 C12.2353525,50.8443063 12.1243063,50.9553525 12.03,51.08 C11.26,52.08 11.43,53.03 11.12,54.08 C10.5098242,55.6477393 10.2603256,57.3327089 10.39,59.01 C10.61,61.19 11.39,63.67 10.87,65.86 C10.33,68.37 8.69,70.98 7.34,73.3 C6.85235247,73.7169088 6.55021291,74.3103972 6.5,74.95 C6.21583321,76.1056797 6.88924464,77.2808487 8.03,77.62 C11.6692399,79.9018562 15.4577838,81.9364446 19.37,83.71 C19.9023169,84.3613094 20.7245094,84.7040733 21.5618349,84.6237543 C22.3991605,84.5434353 23.141202,84.050625 23.54,83.31 C24.9776834,80.5271868 26.5632848,77.8233192 28.29,75.21 C32.29,73.43 38.4,70.21 40.85,66.02 L43.97,63.72 Z" fill="#FAFD7B" fill-rule="nonzero"></path>
                <path d="M16.24,47.11 C16.7297897,47.8868735 17.3606498,48.5652177 18.1,49.11 C18.8650599,49.6672538 19.8792206,49.7446706 20.72,49.31 C21.4,48.89 21.78,48.04 22.54,47.79 C21.7493585,49.0665471 22.1380572,50.7419725 23.41,51.54 C22.0976364,51.6784488 20.9135139,52.3897128 20.1748432,53.4832539 C19.4361726,54.576795 19.2184499,55.9408476 19.58,57.21 C19.6069853,57.3430137 19.6731571,57.464909 19.77,57.56 C19.9863455,57.6720811 20.2436545,57.6720811 20.46,57.56 C21.3078978,57.36286 22.1094155,57.0028563 22.82,56.5 C23.3595945,55.9224878 23.9304515,55.3749992 24.53,54.86 C25.53,54.19 27.19,54.17 27.64,53.02 C27.7551994,52.6620383 27.7960348,52.2843113 27.76,51.91 C27.7417694,49.5849514 27.5445196,47.2647589 27.17,44.97 C27.0886797,43.7805749 26.493663,42.6854522 25.54,41.97 C24.9457705,41.6935369 24.2950875,41.5599756 23.64,41.58 C21.0810508,41.4753581 18.5178558,41.5958216 15.98,41.94 C15.6608455,41.9533545 15.3521128,42.0574217 15.09,42.24 C14.9200757,42.407151 14.7872006,42.6081672 14.7,42.83 C13.6903655,44.7746278 12.9053145,46.8278381 12.36,48.95 C12.2350416,49.6963408 12.0647261,50.4343748 11.85,51.16 C11.23,52.92 10.54,54.07 10.36,55.93 C10.1981364,57.6220392 10.2993361,59.3289407 10.66,60.99 C11.067915,63.5453811 10.654771,66.164294 9.48,68.47 C8.3130982,70.7446777 7.27154117,73.0815044 6.36,75.47" stroke="#000000"></path>
                <path d="M13.18,69.73 C13.8340946,70.8546627 14.9562735,71.6284527 16.24,71.84" stroke="#000000"></path>
                <path d="M23.16,57.08 C23.3039858,57.8649689 23.8884096,58.4961466 24.66,58.7 C25.2912998,58.7294482 25.8993752,58.4587805 26.3,57.97 C26.73,57.52 27.04,56.97 27.47,56.51 C28.69,55.19 30.75,54.7 31.61,53.12 C32.0393886,52.1186992 32.1880386,51.0193806 32.04,49.94 L31.72,43.19 C31.64,41.51 31.36,39.5 29.84,38.78 C29.151766,38.5191852 28.4119875,38.4232879 27.68,38.5 L22.36,38.64 C21.3079454,38.6195097 20.2580813,38.7440128 19.24,39.01 C18.05,39.38 16.87,40.43 17.11,41.65" stroke="#000000"></path>
                <path d="M24.57,62.15 C24.3476675,62.1132986 24.1289672,62.2329648 24.04,62.44 C22.6288218,64.5292961 21.9115536,67.0099944 21.99,69.53" stroke="#000000"></path>
                <path d="M21.44,38.21 C21.5784291,37.2432118 22.2844234,36.4543913 23.23,36.21 C24.1538418,35.9883276 25.112777,35.9543228 26.05,36.11 L31.6,36.66 C32.84,36.78 34.25,37 34.94,38.04 C35.2221334,38.5244102 35.3992966,39.0627141 35.46,39.62 C35.9925615,42.7331972 36.1670303,45.8971222 35.98,49.05 C35.9854472,49.5761117 35.8690785,50.096348 35.64,50.57 C35.3103908,51.041537 34.8711175,51.4259011 34.36,51.69 L31.83,53.28" stroke="#000000"></path>
                <path d="M22.85,84.48 L26.75,76.69 C26.9235027,76.2223981 27.2424722,75.8228099 27.66,75.55 L27.54,75.8" stroke="#000000"></path>
                <path d="M28.75,36.14 L31.27,32.38 C31.8020715,31.2476328 33.0490977,30.63659 34.27,30.91 L39.11,31.06 C43.1632096,30.6138268 47.1871593,32.1209519 49.95,35.12 C50.5051571,35.570819 50.9845572,36.1076122 51.37,36.71 C51.7573835,37.323676 51.8279991,38.0855812 51.56,38.76 C51.0527977,39.565311 50.1615737,40.0469512 49.21,40.03 C46.726826,40.3107204 44.3241786,39.0459605 43.15,36.84 C41.0665904,37.4904999 38.808634,37.2704754 36.89,36.23 L35.52,38.49" stroke="#000000"></path>
                <path d="M38.11,62.18 C37.9389505,59.016166 40.1515076,56.2204542 43.27,55.66 C43.5710136,55.6571456 43.8627075,55.5552285 44.1,55.37 C44.2644439,55.14714 44.3521665,54.8769543 44.35,54.6 C44.5186615,52.3257163 45.4650025,50.1787934 47.03,48.52 C48.0564242,47.5665255 49.3453329,46.9429724 50.73,46.73 C51.1354606,46.5889604 51.5839496,46.6507226 51.936195,46.8961071 C52.2884405,47.1414916 52.5017934,47.5407878 52.51,47.97 C52.51,49.97 51.26,51.58 50.9,53.46 C50.54,55.34 50.78,57.46 49.81,59.31 C49.0946369,60.4379652 48.1255248,61.3831064 46.98,62.07 C44.5495572,63.6397742 42.2122921,65.3493166 39.98,67.19 C38.88,68.19 37.87,69.19 36.76,70.19 C35.2338927,71.4470667 33.6271233,72.6028717 31.95,73.65 C30.9236279,74.4151948 29.7688254,74.9909028 28.54,75.35 C27.0695304,75.6746178 25.5302899,75.3740131 24.29,74.52" stroke="#000000"></path>
                <path d="M50.9,36.48 C50.09,35.94 49.48,35.08 48.38,35.36 C46.97,35.72 47.17,37.23 48.01,38.05 C48.5994393,38.7601376 49.5009556,39.1342108 50.42,39.05" stroke="#000000"></path>
                <path d="M33.14,52.37 C33.0987557,52.7337569 33.2152383,53.097765 33.46,53.37 C34.1252027,54.4386239 34.8884998,55.4429622 35.74,56.37 C36.5974203,57.2875648 37.6905822,57.9517644 38.9,58.29" stroke="#000000"></path>
                <path d="M23.75,54.69 C23.4367132,54.4110218 23.0387218,54.2454856 22.62,54.22 C22.1013265,54.3114674 21.6686227,54.6682582 21.48,55.16 C21.3005823,55.6432474 21.0762681,56.1086157 20.81,56.55" stroke="#000000"></path>
                <path d="M26.88,55.86 C26.3155591,55.6335235 25.6697881,55.8389961 25.34,56.35 C24.9358762,56.8020866 24.6173583,57.3239137 24.4,57.89" stroke="#000000"></path>
            </g>
        </g>
    </g>
</svg>