<?xml version="1.0" encoding="UTF-8"?>
<svg width="87px" height="90px" viewBox="0 0 87 90" version="1.1" xmlns="http://www.w3.org/2000/svg" xmlns:xlink="http://www.w3.org/1999/xlink">
    <!-- Generator: Sketch 43.2 (39069) - http://www.bohemiancoding.com/sketch -->
    <title>D</title>
    <desc>Created with Sketch.</desc>
    <defs></defs>
    <g id="Symbols" stroke="none" stroke-width="1" fill="none" fill-rule="evenodd">
        <g id="D" transform="translate(-24.000000, 1.000000)">
            <g transform="translate(24.000000, 0.000000)" id="Shape">
                <path d="M23.52,86.02 C17.02,86.02 10.52,85.94 4.02,86.02 C1.48,86.02 0.49,85.25 0.5,82.61 C0.566666667,56.4433333 0.566666667,30.28 0.5,4.12 C0.5,1.63 1.24,0.48 3.89,0.51 C17.89,0.66 31.89,0.1 45.89,0.93 C68.22,2.28 83.96,18.19 85.96,40.22 C87.72,59.89 73.77,79.14 53.64,84.66 C47.61,86.72 25.1,86.02 23.52,86.02 Z" stroke="#000000"></path>
                <path d="M44.6,46.63 C44.6131519,46.3707449 44.5861668,46.1110142 44.52,45.86 C44.6640219,45.5159168 44.7123933,45.1393109 44.66,44.77 C44.6190537,44.0157389 44.2405983,43.3200257 43.6296181,42.8758528 C43.0186379,42.4316799 42.2401101,42.2862847 41.51,42.48 L41.51,42.48 C41.3546361,42.5338768 41.2041009,42.6007813 41.06,42.68 C41.0283065,42.0771113 40.7628484,41.5103224 40.32,41.1 C39.5351316,40.4268 38.6682493,39.8555984 37.74,39.4 C36.88,38.89 36.13,38.22 35.28,37.71 C34.7079195,37.3563722 34.0929205,37.0774382 33.45,36.88 C33.823499,36.1213031 33.7505338,35.218839 33.26,34.53 C33.7846257,32.592859 34.4531505,30.6975911 35.26,28.86 C36.56,25.95 32.26,23.4 30.94,26.34 C29.4528714,29.8693983 28.2816184,33.5237074 27.44,37.26 C27.3865443,37.5374487 27.3865443,37.8225513 27.44,38.1 L27.34,38.1 C27.15,38.1 26.95,38.18 26.76,38.23 C26.5920636,38.2295562 26.4245231,38.2463103 26.26,38.28 C25.3796952,38.3983381 24.5527942,38.7700961 23.88,39.35 C23.79,39.42 23.72,39.49 23.64,39.56 C23.79,38.32 23.9,37.07 23.93,35.79 C23.9448877,35.4066118 23.8766606,35.0245403 23.73,34.67 C23.79,34.43 23.84,34.19 23.91,33.94 C23.9825581,33.6764414 24.0129341,33.4030577 24,33.13 C24.1432253,32.8956507 24.2701906,32.6517438 24.38,32.4 C24.75,31.53 24.74,30.76 25.48,30.11 C27.91,27.99 24.36,24.47 21.94,26.57 C21.0815581,27.3046384 20.4386898,28.2585721 20.08,29.33 C19.6490092,30.4853795 19.0491588,31.5705022 18.3,32.55 C17.9034936,33.1550629 17.5684933,33.7982636 17.3,34.47 C16.02,32.47 12.3,33.86 12.83,36.66 C12.83,36.77 12.83,36.88 12.88,37 C12.109029,37.6248623 11.7536116,38.6293028 11.96,39.6 C11.9927477,39.9419342 12.0700699,40.2781178 12.19,40.6 C11.75,43.51 10.86,46.25 10.86,49.29 C10.8708651,51.1678404 10.9810189,53.0437927 11.19,54.91 C10.1917689,57.7589842 10.2342798,60.8693613 11.31,63.69 C10.9641129,64.2629821 10.8978657,64.962258 11.13,65.59 C11.8268695,67.5253059 12.3882253,69.5067583 12.81,71.52 C13.0855094,73.1935654 13.8431041,74.7504575 14.99,76 C15.2140999,76.2580312 15.4901082,76.4658893 15.8,76.61 C15.8992026,77.0468313 16.142183,77.4377128 16.49,77.72 L16.59,77.81 C16.7177044,77.9187522 16.8549229,78.0158092 17,78.1 L17,78.1 L17.3,78.34 C17.2565699,78.6149623 17.2565699,78.8950377 17.3,79.17 C17.36,79.47 17.42,79.77 17.48,80.05 L17.48,80.05 C16.92,81.94 17.31,83.65 17.33,85.52 C16.9805648,86.1232013 16.9704223,86.8648294 17.3032312,87.4773611 C17.6360401,88.0898928 18.2637762,88.4849401 18.96,88.52 C22.706648,88.9659002 26.4877875,89.0462787 30.25,88.76 C31.0459912,88.7152502 31.7761415,88.3036205 32.2264751,87.6457419 C32.6768087,86.9878633 32.7963254,86.1582403 32.55,85.4 C32.556823,85.2967793 32.556823,85.1932207 32.55,85.09 C32.55,82.61 33.03,80.09 32.84,77.58 C32.9457503,77.4891984 33.0428343,77.3887667 33.13,77.28 C35.56,74.28 37.82,70.13 38.03,66.11 C38.35,65.11 38.66,64.11 38.92,63.16 L38.92,62.96 C39.4373203,61.9794754 40.0290543,61.0400559 40.69,60.15 C40.9353744,59.8365593 41.0940121,59.4641054 41.15,59.07 C41.77,58.43 42.38,57.77 42.95,57.07 C43.4315326,56.8903821 43.8254383,56.532286 44.05,56.07 C44.73,54.58 44.3,53.39 44.36,51.84 C44.35,50.1 44.5,48.36 44.6,46.63 Z M37.73,47.38 C37.282858,48.6654667 37.1963959,50.0488616 37.48,51.38 C36.21,52.15 35.09,53.08 33.85,53.92 C33.0901962,54.3640693 32.358781,54.8550192 31.66,55.39 C30.9,54.23 30.8,53.11 30.53,51.13 C30.4710354,50.6453076 30.2885352,50.1838921 30,49.79 C29.9474737,49.4716677 29.8427308,49.1641966 29.69,48.88 C30.02,48.29 30.37,47.71 30.74,47.15 C31.0331427,46.909312 31.2573954,46.5953581 31.39,46.24 C31.53,46.05 31.65,45.86 31.8,45.68 C32.1684305,45.129018 32.2607573,44.4384135 32.05,43.81 C32.19,43.9 32.33,43.99 32.47,44.07 C32.85,44.28 33.25,44.46 33.64,44.64 L36.37,45.94 C36.9910148,46.2446884 37.7009481,46.3156817 38.37,46.14 C38.1176756,46.53043 37.906545,46.9459885 37.74,47.38 L37.73,47.38 Z" fill="#FAFD7B" fill-rule="nonzero"></path>
                <path d="M17.09,87.94 L17.09,79.8 C17.1317319,79.2856318 17.0529813,78.7686171 16.86,78.29 C16.5963406,77.8712433 16.2572681,77.505045 15.86,77.21 C14.2706125,75.765677 13.2138388,73.8282586 12.86,71.71 C12.72,70.82 12.7,69.92 12.5,69.04 C12.2540329,68.188714 11.9636349,67.3508991 11.63,66.53 C10.9634857,64.2565259 10.626719,61.8991591 10.63,59.53 C10.2222448,54.1053058 10.3763976,48.6529902 11.09,43.26 C11.2,42.57 11.33,41.88 11.46,41.2 L12.56,35.31 C12.5493695,34.7255199 12.8232358,34.1722781 13.2944517,33.8263221 C13.7656676,33.4803661 14.3755397,33.3847874 14.93,33.57 C15.7980953,33.410781 16.6862246,33.7173129 17.2713052,34.3780858 C17.8563859,35.0388587 18.0531428,35.9575654 17.79,36.8 C17.8096396,37.8880045 17.7326709,38.9756052 17.56,40.05 C17.373505,40.7849176 17.2266267,41.5293236 17.12,42.28 C16.99,43.84 17.61,45.42 17.37,46.97 C17.1858264,47.6622336 17.055438,48.3676683 16.98,49.08 C16.98,50.21 17.71,51.28 17.59,52.41 C17.44,53.83 16.07,54.74 14.83,55.41" stroke="#000000"></path>
                <path d="M26.9,37.26 C27.6171233,33.5339669 28.8242728,29.9192435 30.49,26.51 C30.6715184,26.0688511 30.9520865,25.6753715 31.31,25.36 C31.7929075,25.0441501 32.3637498,24.8900577 32.94,24.92 C33.3687598,24.8923764 33.7984512,24.9571711 34.2,25.11 C35.154498,25.6783481 35.6987374,26.7435024 35.6,27.85 C35.6032796,28.3933093 35.5188611,28.9335877 35.35,29.45 C35.1132433,30.0432901 34.8462262,30.6240523 34.55,31.19 C33.8490106,33.0225212 33.4897446,34.9679807 33.49,36.93" stroke="#000000"></path>
                <path d="M17.58,34.13 C17.83,33.77 19.72,29.38 21.39,27.2 C22.06,26.33 22.94,25.41 24.04,25.47 C25.1699426,25.6685824 26.0051691,26.633269 26.04,27.78 C26.0458123,28.9054154 25.7375965,30.0101438 25.15,30.97 C24.5633194,31.9226089 24.1312956,32.9621662 23.87,34.05 C23.59,35.77 24.32,37.63 23.62,39.22 C23.4,39.72 23.05,40.15 22.82,40.65 C22.17,42.03 22.51,43.65 22.42,45.17 C22.2065789,48.0414245 20.4534803,50.5715515 17.84,51.78" stroke="#000000"></path>
                <path d="M17.36,61.24 C17.1968448,60.880761 17.3199636,60.4562134 17.65,60.24 C17.9834292,60.0380635 18.3541479,59.905421 18.74,59.85 C21.45,59.22 23.61,57.23 25.61,55.3 C26.3541813,54.4264945 27.3380718,53.7902685 28.44,53.47" stroke="#000000"></path>
                <path d="M20.96,49.56 C21.8055272,49.4000921 22.6607435,49.2965307 23.52,49.25 C23.9051356,49.2677602 24.2910331,49.2409151 24.67,49.17 C25.4254884,48.9377328 26.0378653,48.3803598 26.34,47.65 C26.6311149,46.9276255 26.8131082,46.1659499 26.88,45.39 C27.018141,45.00856 26.8565954,44.5834401 26.5,44.39 L24.96,43.31 C24.8941252,43.2632258 24.8058748,43.2632258 24.74,43.31 C24.68,43.36 24.83,43.46 24.82,43.38" stroke="#000000"></path>
                <path d="M31.76,55.35 C32.9997357,53.8326943 34.5470939,52.5954893 36.3,51.72 C36.7120063,51.5701443 37.0633589,51.2890622 37.3,50.92 C37.40964,50.598682 37.4405056,50.2557311 37.39,49.92 C37.2427361,47.9313104 37.8657142,45.9621267 39.13,44.42 C40.01,43.42 42.93,41.27 44.13,42.83 C45.13,44.04 44.67,46.93 44.52,48.38 C44.3029306,49.5804315 44.2190891,50.8011632 44.27,52.02 C44.523048,52.9821603 44.6375347,53.9755013 44.61,54.97 C44.2998057,56.0367582 43.6887569,56.9915219 42.85,57.72 C41.467916,59.1374737 40.323247,60.7683737 39.46,62.55 C37.96,65.87 37.95,69.75 36.25,72.97 C35.7975722,73.8691366 35.2654421,74.7258996 34.66,75.53 C34.24,76.06 33.66,76.41 33.29,76.98 C32.58,78.05 32.95,79.52 32.75,80.72 C32.4249308,82.9779258 32.2977806,85.2599379 32.37,87.54" stroke="#000000"></path>
                <path d="M34.12,58.81 C33.45,56.93 31.41,55.67 31.12,53.7 C31.088099,53.17048 31.088099,52.63952 31.12,52.11 C31.075961,50.6045188 30.4568745,49.1731049 29.39,48.11 C28.4601325,47.6745381 27.3777806,47.7117323 26.48,48.21" stroke="#000000"></path>
                <path d="M23.8,38.81 C24.3021292,38.3471952 24.9406683,38.0595018 25.62,37.99 C27.0133333,37.6566667 28.42,37.3633333 29.84,37.11 C31.0920217,36.8032358 32.396233,36.7759225 33.66,37.03 C34.6520475,37.3590252 35.5816835,37.8525774 36.41,38.49 L39.33,40.49 C40.0247899,40.8571855 40.5928145,41.4252101 40.96,42.12" stroke="#000000"></path>
                <path d="M25.11,43.12 C25.8706725,43.3241705 26.5886603,43.6628439 27.23,44.12 C28.7486011,44.8547764 30.5603185,44.6021622 31.82,43.48 L34.23,44.87 C34.7348823,45.1820158 35.2711618,45.4401003 35.83,45.64 C36.3652539,45.8128104 36.9295416,45.8773976 37.49,45.83" stroke="#000000"></path>
                <path d="M30.11,48.25 C31.008912,47.1889426 31.5911009,45.8963447 31.79,44.52" stroke="#000000"></path>
                <path d="M39.07,44.03 L37.33,43.03 C36.61,42.61 35.54,42.38 35.54,41.29 C35.6953748,40.659918 36.2336383,40.1979755 36.88,40.14 C37.4662535,40.0691907 38.0599299,40.0894297 38.64,40.2" stroke="#000000"></path>
                <path d="M43.6,42.72 C42.5759609,43.0736221 41.7742126,43.8827598 41.43,44.91 C41.3250353,45.2001882 41.2578176,45.502668 41.23,45.81 L40.96,47.87 C40.9129228,48.0469219 40.9129228,48.2330781 40.96,48.41 C41.0234971,48.5335694 41.1120456,48.6425522 41.22,48.73 C41.9335819,49.3737247 42.820067,49.7943706 43.77,49.94" stroke="#000000"></path>
                <path d="M27.05,73.17 C24.8063254,70.176787 24.3190817,66.2179322 25.77,62.77 C26.0699855,61.9036623 26.6935044,61.1869739 27.51,60.77" stroke="#000000"></path>
                <path d="M15.53,48.09 C16.1502911,48.1413921 16.7626024,47.9227095 17.21,47.49" stroke="#000000"></path>
                <path d="M15.61,42.25 C16.1630939,42.1129069 16.6971369,41.9080225 17.2,41.64" stroke="#000000"></path>
                <path d="M21.63,33.93 C22.5245906,33.9553678 23.3859777,33.5903732 23.99,32.93" stroke="#000000"></path>
                <path d="M20.1,41.25 C20.9431707,41.6237984 21.9248238,41.492396 22.64,40.91" stroke="#000000"></path>
                <path d="M31.3,33.41 C31.7819163,33.4330514 32.2559243,33.5413961 32.7,33.73 C32.9250927,33.8151492 33.1754009,33.8032559 33.3914061,33.6971481 C33.6074112,33.5910403 33.7698147,33.400198 33.84,33.17" stroke="#000000"></path>
            </g>
        </g>
    </g>
</svg>