<?xml version="1.0" encoding="UTF-8"?>
<svg width="101px" height="88px" viewBox="0 0 101 88" version="1.1" xmlns="http://www.w3.org/2000/svg" xmlns:xlink="http://www.w3.org/1999/xlink">
    <!-- Generator: Sketch 43.2 (39069) - http://www.bohemiancoding.com/sketch -->
    <title>H</title>
    <desc>Created with Sketch.</desc>
    <defs></defs>
    <g id="Symbols" stroke="none" stroke-width="1" fill="none" fill-rule="evenodd">
        <g id="H" transform="translate(-17.000000, 1.000000)">
            <g transform="translate(18.000000, 0.000000)" id="Shape">
                <path d="M96.21,84.94 C96.21,86.3 94.35,85.99 93.21,85.99 C80.38,85.99 67.55,85.99 54.72,86.04 C52.22,86.04 51.61,84.99 51.67,82.74 C51.78,78.41 51.61,74.07 51.73,69.74 C51.8,67.45 51.12,66.43 48.66,66.41 C46.2,66.39 45.03,67.17 45.12,69.84 C45.27,74 45.03,78.17 45.19,82.33 C45.3,85.13 44.32,86.08 41.46,86.05 C28.97,85.92 16.46,85.94 3.97,86.05 C1.4,86.05 0.47,85.3 0.48,82.65 C0.553333333,56.49 0.553333333,30.33 0.48,4.17 C0.48,1.26 1.53,0.48 4.26,0.5 C16.59,0.6 28.92,0.63 41.26,0.5 C44.36,0.5 45.38,1.58 45.26,4.56 C45.07,8.05 45.33,11.56 45.19,15.05 C45.08,17.61 45.98,18.58 48.62,18.6 C51.5,18.6 51.89,17.19 51.79,14.85 C51.67,12.19 51.79,9.52 51.79,6.85 C51.79,0.54 51.79,0.54 58.34,0.54 C69.67,0.54 81,0.63 92.34,0.49 C95.51,0.49 96.73,1.35 96.69,4.72 C96.52,17.88 96.55,31.05 96.69,44.21 C96.61,48.08 96.34,81.3 96.21,84.94 Z" stroke="#000000"></path>
                <path d="M66.74,33.43 C64.12,33.94 61.41,33.91 58.83,34.51 L58.6,34.51 C58.3977716,34.4800223 58.1922284,34.4800223 57.99,34.51 C57.5,34.57 56.99,34.69 56.45,34.79 C54.183286,35.1967674 51.882667,35.3842997 49.58,35.35 C46.2682971,35.4249604 42.9913734,36.0431841 39.88,37.18 C39.0536006,37.4603187 38.4249089,38.1393834 38.2089901,38.9848972 C37.9930713,39.830411 38.219192,40.7277692 38.81,41.37 L37.2,41.61 C36.3125778,41.6862832 35.5108681,42.1702646 35.03,42.92 C34.3418075,43.1337215 33.7959707,43.6615064 33.5592339,44.3421248 C33.322497,45.0227433 33.4229849,45.7753367 33.83,46.37 C34.6562553,47.7904678 36.3356489,48.476186 37.92,48.04 C39.79,47.77 41.56,47.39 43.36,47.11 C43.7443096,47.310293 44.1788394,47.3937227 44.61,47.35 C45.44,47.28 46.24,47.18 47.04,47.04 C47.7078702,47.0502652 48.3757512,47.0202106 49.04,46.95 C49.6,46.87 50.14,46.76 50.67,46.66 C51.6779048,46.9799332 52.7552804,47.0111113 53.78,46.75 C53.9809795,46.6943588 54.1729355,46.6101676 54.35,46.5 C54.2034454,46.8167971 54.105672,47.1539469 54.06,47.5 C53.73,50.15 55.78,54.62 59.06,53.5 L59.18,53.45 C59.1921606,53.6325227 59.2223067,53.8133994 59.27,53.99 L59.35,54.29 C59.3332322,54.4829698 59.3332322,54.6770302 59.35,54.87 C59.65,57.11 61.89,59.38 63.96,60.16 C65.2543435,60.5658994 66.6302696,60.6381355 67.96,60.37 C69.6127069,60.0972897 71.2849445,59.9601663 72.96,59.96 C74.4120513,60.7783784 76.0816626,61.1276694 77.74,60.96 L78.05,60.96 C78.8410126,61.4113629 79.8005059,61.4559905 80.63,61.08 C81.4387162,60.6727627 82.175159,60.1356323 82.81,59.49 C83.25,59.2566667 83.68,59.0033333 84.1,58.73 L84.45,58.53 C84.99,58.18 85.51,57.79 86.02,57.4 C86.1882718,57.3838759 86.3533197,57.343456 86.51,57.28 C89.0932162,56.2030797 91.9149227,55.8270821 94.69,56.19 C94.971195,56.2263738 95.2568296,56.2059714 95.53,56.13 C96.5505994,56.4738208 97.6601899,55.9477599 98.04,54.94 C100.15,50.25 98.44,43.61 97.5,38.74 C97.1938751,37.6598983 96.2125941,36.9107045 95.09,36.9 C91.0821476,36.8515486 87.0980398,36.2766267 83.24,35.19 C80.24,34.19 77.33,32.92 74.14,32.58 C71.57,32.29 69.34,32.92 66.74,33.43 Z" fill="#FAFD7B" fill-rule="nonzero"></path>
                <path d="M64.15,56.95 C64.42,52.76 71.44,53.89 70.98,49.85 C70.47,45.46 62.15,48.78 60.67,50.85 C59.03,53.13 58.24,54.98 60.24,57.34 C61.4,58.7 62.65,60.41 64.55,60.7 C67.34,61.12 70.24,59.79 73.09,60.31 C74.2,60.51 75.27,60.94 76.38,61.18 C78.5931739,61.6369798 80.8965023,61.3043947 82.89,60.24 C85.03,59.09 86.75,57.11 89.1,56.45 C91.65,55.73 94.44,56.72 97.01,56.07" stroke="#000000"></path>
                <path d="M89.41,43.93 C89.626448,42.6277125 89.6601059,41.3015909 89.51,39.99 C89.4764752,39.4171579 89.3122829,38.8595882 89.03,38.36 C88.7340898,37.8580041 88.181631,37.5643896 87.6,37.6" stroke="#000000"></path>
                <path d="M58.05,40.42 C52.1858624,40.2754714 46.3197127,40.6099155 40.51,41.42 C40.1002033,41.4964673 39.6797967,41.4964673 39.27,41.42 C38.733984,41.2311289 38.2974055,40.8330719 38.0599644,40.3167317 C37.8225233,39.8003916 37.8044962,39.2098619 38.01,38.68 C39.09,35.68 46.9,35.68 49.53,35.37 C57.6,34.45 65.53,33.07 73.7,32.65 C74.9937966,32.5349878 76.2968034,32.5786452 77.58,32.78 C79.0723215,33.1716189 80.5251867,33.7005422 81.92,34.36 C86.48,36.18 92.4,36.78 97.29,37.22" stroke="#000000"></path>
                <path d="M58.72,53.62 C57.9902558,53.8946321 57.1733643,53.8055166 56.52,53.38 C55.8807783,52.9517182 55.3583698,52.3708824 55,51.69 C54.3069617,50.575813 53.9590285,49.2815015 54,47.97 C54.065885,46.3092247 55.1719535,44.8705341 56.76,44.38" stroke="#000000"></path>
                <path d="M87.91,56.19 C88.3237376,55.6644473 88.6049824,55.0470808 88.73,54.39 C88.8363443,53.7084468 88.4409884,53.0481183 87.79,52.82" stroke="#000000"></path>
                <path d="M84.11,50.09 C81.360639,50.9491577 78.3732376,50.5656893 75.93,49.04 C74.7537861,48.4052482 73.7799869,47.4522419 73.12,46.29 C72.62,45.29 72.79,42.43 71.85,41.79 C71.4512921,41.5796841 70.9957085,41.5025854 70.55,41.57 C68.79,41.65 65.09,42.11 63.89,43.57 C62.31,45.52 62.65,49.43 58.89,49.14 C54.73,48.82 56.89,43.97 57.76,41.89 C58.2138289,40.7304217 58.80469,39.6292714 59.52,38.61 C61.35,36.22 64.02,36.81 66.64,35.93 C69.54,34.93 72.21,33.21 75.26,32.73" stroke="#000000"></path>
                <path d="M53.9,46.71 C52.31,47.48 50.78,46.85 49.09,47.22 C47.5818935,47.6060466 46.0145434,47.7044301 44.47,47.51 C41.75,47.17 39.02,48.51 36.31,48.04 C35.3608492,47.9561184 34.5158082,47.4050489 34.0563038,46.5703159 C33.5967993,45.735583 33.583187,44.7268281 34.02,43.88 C34.77,42.3 37.25,41.31 39.02,41.42" stroke="#000000"></path>
                <path d="M62.72,38.71 C62.3457651,38.7231415 62.0060426,38.4926156 61.88,38.14" stroke="#000000"></path>
                <path d="M42.71,40.17 C42.5705955,40.0636124 42.5038068,39.8872188 42.5377896,39.7151807 C42.5717724,39.5431426 42.7006143,39.405392 42.87,39.36" stroke="#000000"></path>
                <path d="M50,39.64 L50,38.56" stroke="#000000"></path>
                <path d="M48.06,46.82 C48.2724568,46.4378429 48.3124487,45.9833888 48.17,45.57" stroke="#000000"></path>
                <path d="M40.34,46.85 C40.6200567,46.4245105 40.7502552,45.9177918 40.71,45.41" stroke="#000000"></path>
                <path d="M73.73,42.85 C74.8333999,43.1256094 76.0003511,42.7987111 76.8,41.99" stroke="#000000"></path>
                <path d="M69.62,47.71 C70.01,47.44 70.45,47.27 70.85,47.02 C71.8043382,46.4465024 72.3625677,45.3916412 72.3,44.28 C72.18,43.2 71.51,41.78 68.89,42.34" stroke="#000000"></path>
                <path d="M56.97,47.71 C57.7740746,47.5879556 58.510009,47.1881451 59.05,46.58 C59.2821338,46.0430636 59.4272845,45.4725873 59.48,44.89 C59.5490781,44.3866155 59.5253532,43.8748347 59.41,43.38 C59.2800141,42.8915148 58.8984852,42.5099859 58.41,42.38" stroke="#000000"></path>
                <path d="M70.26,46.92 C66.59,46.82 66.04,43.21 69.38,41.99" stroke="#000000"></path>
                <path d="M70.84,50.55 C68.54,52 66.51,50.96 66.29,50.38 C66,49.62 66.87,48.62 68.29,47.88" stroke="#000000"></path>
            </g>
        </g>
    </g>
</svg>