<?xml version="1.0" encoding="UTF-8"?>
<svg width="109px" height="94px" viewBox="0 0 109 94" version="1.1" xmlns="http://www.w3.org/2000/svg" xmlns:xlink="http://www.w3.org/1999/xlink">
    <!-- Generator: Sketch 43.2 (39069) - http://www.bohemiancoding.com/sketch -->
    <title>M</title>
    <desc>Created with Sketch.</desc>
    <defs></defs>
    <g id="Symbols" stroke="none" stroke-width="1" fill="none" fill-rule="evenodd">
        <g id="M" transform="translate(-13.000000, 0.000000)">
            <g transform="translate(13.000000, 0.000000)" id="Shape">
                <path d="M34.66,88.23 L3.17,88.23 C-1.5,88.23 1.29,85.14 1.69,83.79 C8.6,60.32 15.69,36.9 22.69,13.47 C23.93,9.34 25.21,5.21 26.56,0.77 C30.15,2.93 32.28,6.14 34.88,8.83 C40.44,14.58 45.99,20.34 51.3,26.32 C53.59,28.9 54.93,29.18 57.43,26.45 C64.18,19.09 71.26,12.01 78.26,4.88 C79.62,3.49 80.71,1.71 83.1,0.88 C87.17,14.65 91.21,28.34 95.24,42.02 C99.14,55.27 103.1,68.51 106.89,81.79 C108.83,88.6 110.06,88.22 101.89,88.23 L34.67,88.23 L34.66,88.23 Z" stroke="#000000"></path>
                <path d="M66.92,88.2 C65.92,83.33 64.02,79.13 63.58,74.01 C63.27,70.39 64.15,66.25 63.1,62.77 L63.1,62.77 L63.66,59.51 C63.7768494,58.8930578 63.6591663,58.2547158 63.33,57.72 C63.2487675,55.0160269 63.0184175,52.3185946 62.64,49.64 C62.5986809,48.7598062 62.1075902,47.9627282 61.34,47.53 C59.1279672,43.4713422 55.7909586,40.137806 51.73,37.93 C49.02,36.65 42.22,34.26 40.53,37.93 C40.1856455,38.0019747 39.8613244,38.1487727 39.58,38.36 C35.6789359,41.2466126 32.4625417,44.9580993 30.16,49.23 C29.2714593,50.8745475 29.0563362,52.799899 29.56,54.6 C29.9134827,55.818602 30.727697,56.851614 31.83,57.48 C32.1197661,57.9548013 32.5704761,58.309691 33.1,58.48 C33.3984385,58.7509807 33.6636299,59.0564544 33.89,59.39 C34.0534552,59.6683958 34.2444101,59.9297026 34.46,60.17 C34.5880825,60.3129431 34.7323895,60.4404702 34.89,60.55 C35.0175706,60.8433567 35.1715371,61.1245129 35.35,61.39 C35.9526926,62.1767195 36.6868323,62.853346 37.52,63.39 C38.1402727,63.9097359 39.0126189,64.0044704 39.73,63.63 L39.84,64.06 C40.0476008,65.4518169 40.7903158,66.7076153 41.91,67.56 C43,68.36 44.46,67.56 45.09,66.48 C45.2559091,66.3725737 45.4130654,66.2521987 45.56,66.12 C46.3023795,66.0507096 47.0232916,65.8330758 47.68,65.48 L47.68,65.63 C47.71443,66.0937371 47.8583702,66.5426934 48.1,66.94 L48.1,69.42 C48.1,69.42 48.1,69.42 48.1,69.48 C47.8069897,71.6042165 47.6566529,73.7456804 47.65,75.89 C47.76,80.47 47.93,85.06 47.96,89.65 C47.9267212,90.5945247 48.4796203,91.4616613 49.35,91.83 C49.5346605,91.9467756 49.7327653,92.0407914 49.94,92.11 C54.3871911,93.5427643 59.1980018,93.3550081 63.52,91.58 L65.18,91.3 C66.5069647,90.9123541 67.2802495,89.5346629 66.92,88.2 L66.92,88.2 Z" fill="#FAFD7B" fill-rule="nonzero"></path>
                <path d="M43.5,40.93 L41.5,48.3 C40.8933125,49.8952786 40.7647362,51.632797 41.13,53.3 C41.34,53.94 41.69,54.52 41.95,55.13 C42.3498324,56.18994 42.6184946,57.2948133 42.75,58.42 L43.65,64.15 C43.685058,64.6244429 43.8324464,65.083746 44.08,65.49 C44.7346755,66.2074924 45.810206,66.3508965 46.63,65.83 C47.407946,65.2857492 47.970552,64.4860702 48.22,63.57 C48.7806932,61.8934367 48.8397764,60.0896615 48.39,58.38 C48.15,57.47 47.76,56.59 47.55,55.67 C47.3167541,54.5112431 47.27621,53.3219513 47.43,52.15 C47.7503215,49.1826224 48.7420515,46.3271239 50.33,43.8" stroke="#000000"></path>
                <path d="M38.92,41.35 C37.9239257,43.136415 37.1034196,45.0152064 36.47,46.96 C36.0057038,48.2437461 35.7557008,49.5951137 35.73,50.96 C35.73,53.36 36.89,55.58 37.73,57.81 C38.3637826,59.4353445 38.8719403,61.1069157 39.25,62.81 C39.4200673,64.2997722 39.9749181,65.7196388 40.86,66.93 C41.86,68.03 44.05,68.87 44.79,66.14" stroke="#000000"></path>
                <path d="M47.63,65.05 C48.2181998,73.2661527 48.2181998,81.5138473 47.63,89.73" stroke="#000000"></path>
                <path d="M37.64,39.69 C36.4271491,40.5960964 35.2900615,41.599409 34.24,42.69 C32.9241381,43.9253771 31.96112,45.4889871 31.45,47.22 C31.07,49.29 31.93,52.09 32.19,54.17 C32.4103608,57.1602072 33.6126961,59.9937811 35.61,62.23 C35.91,62.66 38.41,64.73 39.29,62.92" stroke="#000000"></path>
                <path d="M48.5,48.52 C49.7625834,48.0516513 51.0938011,47.7948681 52.44,47.76" stroke="#000000"></path>
                <path d="M31.35,48.06 C31.27,48.68 29.95,49.29 29.58,49.8 C29.3374301,50.2072102 29.2192458,50.6764712 29.24,51.15 C29.2042209,52.1040199 29.2678977,53.0591722 29.43,54 C29.5518995,54.882648 29.8476013,55.7323658 30.3,56.5 C30.9371141,57.3392431 31.839319,57.9383635 32.86,58.2" stroke="#000000"></path>
                <path d="M37.64,39.69 C39.51,38.46 40.25,36.93 42.42,36.3 C43.2996404,36.0993815 44.2099593,36.0722078 45.1,36.22 C46.4933333,36.3666667 47.88,36.5633333 49.26,36.81 C50.2347429,36.9417366 51.1828741,37.2251638 52.07,37.65 C52.926671,38.1617166 53.7019259,38.7987739 54.37,39.54 C56.63,41.8133333 58.8466667,44.1466667 61.02,46.54 C61.7426329,47.2284689 62.3146724,48.0592881 62.7,48.98 C62.8838575,49.6103342 62.9781147,50.2634018 62.98,50.92 C63.08,52.98 63.36,54.92 63.57,56.92 C63.6958758,59.6426913 63.6691673,62.3702957 63.49,65.09 C63.3818221,73.4128736 64.6142569,81.6988873 67.14,89.63" stroke="#000000"></path>
                <path d="M47.86,56.72 C49.6832309,57.4541048 51.6491861,57.7652386 53.61,57.63 C55.6263451,57.4797695 57.4987943,56.5291415 58.81,54.99" stroke="#000000"></path>
                <path d="M41.81,50.22 L43.24,50.45" stroke="#000000"></path>
                <path d="M43.73,56.87 C44.1216319,56.9797503 44.5407199,56.8413722 44.79,56.52" stroke="#000000"></path>
                <path d="M38.59,57.35 C38.9618656,57.4751214 39.371467,57.3358569 39.59,57.01" stroke="#000000"></path>
                <path d="M37.4,48.75 L38.83,48.89" stroke="#000000"></path>
                <path d="M32.92,45.73 C33.3720054,45.8826168 33.8075275,46.0802768 34.22,46.32 L32.9,45.79" stroke="#000000"></path>
                <path d="M32.97,55.11 C33.591813,55.4344478 34.327025,55.4601802 34.97,55.18" stroke="#000000"></path>
                <path d="M36.17,62.66 C35.9156864,62.2465205 35.8391574,61.7478521 35.9577769,61.2771398 C36.0763964,60.8064275 36.3801076,60.4035795 36.8,60.16 C37.4853976,59.9886415 38.2047695,60.2644007 38.6,60.85" stroke="#000000"></path>
                <path d="M39.75,64.85 C39.6918387,64.0198034 40.1317676,63.2342161 40.87,62.85 C41.5688612,62.6816824 42.3063062,62.8439203 42.87,63.29 C43.296577,63.740177 43.6356798,64.2657863 43.87,64.84" stroke="#000000"></path>
                <path d="M43.35,62.35 C43.3770499,61.8081231 43.6890506,61.3210976 44.17,61.07 C44.6442224,60.877265 45.1841815,60.9414559 45.6,61.24 C45.9653832,61.6195272 46.2450186,62.0730822 46.42,62.57 C46.8185707,63.538935 46.912745,64.606243 46.69,65.63" stroke="#000000"></path>
                <path d="M38.92,41.35 C39.72,39.8 40.13,39.19 40.74,37.76 C41.0917474,37.2323208 41.5519829,36.7857219 42.09,36.45" stroke="#000000"></path>
            </g>
        </g>
    </g>
</svg>