<?xml version="1.0" encoding="UTF-8"?>
<svg width="88px" height="94px" viewBox="0 0 88 94" version="1.1" xmlns="http://www.w3.org/2000/svg" xmlns:xlink="http://www.w3.org/1999/xlink">
    <!-- Generator: Sketch 43.2 (39069) - http://www.bohemiancoding.com/sketch -->
    <title>N</title>
    <desc>Created with Sketch.</desc>
    <defs></defs>
    <g id="Symbols" stroke="none" stroke-width="1" fill="none" fill-rule="evenodd">
        <g id="N" transform="translate(-24.000000, 1.000000)">
            <g transform="translate(24.000000, 0.000000)" id="Shape">
                <path d="M22.09,87.97 C15.92,87.92 9.76,87.89 3.59,87.97 C1.13,87.97 0.51,86.88 0.52,84.63 C0.566666667,57.4633333 0.566666667,30.2966667 0.52,3.13 C0.52,-0.54 2.01,0.31 4.05,1.51 C15.6833333,8.34333333 27.33,15.1533333 38.99,21.94 C40.38,22.75 41.62,23.94 44.08,24.01 C44.08,18.19 44.21,12.43 44.03,6.69 C43.93,3.52 44.83,2.34 48.24,2.4 C59.57,2.61 70.91,2.58 82.24,2.4 C85.39,2.4 86.63,3.1 86.62,6.52 C86.5,32.3533333 86.5,58.1866667 86.62,84.02 C86.62,87.17 85.46,88.02 82.52,88.02 C71.52,87.9 60.52,87.92 49.52,88.02 C46.85,88.02 24.09,87.98 22.09,87.97 Z" stroke="#000000"></path>
                <path d="M47.23,78.91 C47.1366667,75.8233333 47.0466667,72.7333333 46.96,69.64 C47.0085723,68.4293272 46.9785091,67.2167782 46.87,66.01 C46.95,64.56 47,63.13 47.05,61.77 C47.1,60.41 47.25,58.92 47.19,57.33 C47.6075906,56.1217024 47.8893268,54.8706597 48.03,53.6 C48.03,52.1 47.6,50.6 47.49,49.11 C47.187757,48.0999037 46.8542634,47.0994229 46.49,46.11 C46.1017157,45.7085161 45.6802179,45.3405418 45.23,45.01 L45.1,44.88 L44.95,44.71 L44.66,44.34 C44.506318,44.1744362 44.3314781,44.029857 44.14,43.91 C42.3540052,41.571314 40.2658093,39.4797554 37.93,37.69 C37.5931095,37.4201281 37.1945446,37.2380252 36.77,37.16 C36.4780013,36.8195091 36.0800203,36.58706 35.64,36.5 C32.78,35.97 29.93,35.2 27.11,35.88 C26.3263438,35.685783 25.5014706,35.9672563 25,36.6 L24.71,36.94 C24.6001441,37.075474 24.5061963,37.2231063 24.43,37.38 L23.25,39.22 C23.2021966,39.3009317 23.1588,39.3843866 23.12,39.47 C22.1774381,39.3399435 21.2461336,39.7742913 20.74,40.58 C20.36,41.1466667 19.97,41.7033333 19.57,42.25 C19.1169196,42.6097679 18.7193169,43.0343266 18.39,43.51 C17.0669432,44.8372056 16.3258466,46.6359838 16.33,48.51 C16.48,50.99 18.23,53.51 19.6,55.44 C19.6760651,55.5458396 19.7596121,55.6460961 19.85,55.74 C20.0512301,59.1475523 21.1783712,62.4356233 23.11,65.25 C23.7423664,66.4788329 25.2511663,66.9623649 26.4799995,66.3299991 C27.7088327,65.6976332 28.1923653,64.1888335 27.56,62.96 C27.683164,62.9691392 27.806836,62.9691392 27.93,62.96 C28.2487185,63.731759 28.7455987,64.4171111 29.38,64.96 C29.8917736,65.3829047 30.526849,65.628514 31.19,65.66 L31.19,68.66 C31.0010182,69.0226171 30.9277264,69.4344476 30.98,69.84 C31.2258182,71.6220979 31.3028266,73.4234247 31.21,75.22 C31.1878804,75.5593965 31.2355266,75.8997265 31.35,76.22 C31.35,78.01 31.19,79.8 31.14,81.54 C31.08,83.99 30.36,86.8 30.51,89.19 C30.5489678,90.3026866 31.286903,91.2692212 32.35,91.6 C35.54,92.82 40.14,92.44 43.46,92.17 C45.54,92 47.28,91.93 47.94,89.68 C48.84,86.7 47.33,82.05 47.23,78.91 Z" fill="#FAFD7B" fill-rule="nonzero"></path>
                <path d="M28.54,38.84 C28.54,40.72 27.64,41.98 26.63,43.47 C25.7088722,45.0154782 25.2217567,46.7808401 25.22,48.58 C25.027888,51.2753062 25.3122358,53.9833808 26.06,56.58 C26.6183212,59.0934285 27.3774239,61.5580041 28.33,63.95 C28.5070658,64.3981725 28.7723067,64.8062354 29.11,65.15 C30.131999,65.9084446 31.562218,65.7701757 32.42,64.83 C33.2195462,63.8814062 33.5825567,62.6399104 33.42,61.41 C33.2502496,60.1954923 32.9895162,58.99545 32.64,57.82 C31.5051719,52.857845 32.4210029,47.6477041 35.18,43.37" stroke="#000000"></path>
                <path d="M19.41,56.21 L18.58,54.68 C17.7429832,53.2475815 17.0719847,51.724415 16.58,50.14 C16.0812691,48.5404662 16.1447863,46.8184456 16.76,45.26 C17.3588593,44.1080424 18.1579904,43.0718809 19.12,42.2 C20.52,40.78 22.51,39.08 23.96,37.71" stroke="#000000"></path>
                <path d="M33.71,46.81 C34.8960076,46.3968356 36.1907061,46.4216655 37.36,46.88" stroke="#000000"></path>
                <path d="M27.98,63.11 C28.0341228,64.334686 27.4069479,65.4889958 26.35,66.11 C25.3751612,66.5638279 24.2206188,66.3600851 23.46,65.6 C23.102574,65.1862569 22.8154292,64.7166908 22.61,64.21 L21.33,61.31 C20.2869939,59.3662204 19.6731799,57.2212815 19.53,55.02 L18.76,48.39 C18.6034162,47.5774751 18.6034162,46.7425249 18.76,45.93 C19.1,44.69 20.12,43.79 20.88,42.76 C22.62,40.42 23.39,37.01 26.13,35.98 C27.1762657,35.6673983 28.2747834,35.5687698 29.36,35.69 L33.13,35.86 C35.0379644,35.7655827 36.8948389,36.4937688 38.23,37.86 C40.5657904,39.6360515 42.7136506,41.6465291 44.64,43.86 C46.5758756,46.0774414 47.7867651,48.8342214 48.11,51.76 C48.1494101,53.5272536 48.0289194,55.2944506 47.75,57.04 C47.5027443,59.7760612 47.3959375,62.5230005 47.43,65.27 C47.43,73.55 47.36,81.84 48.12,90.08" stroke="#000000"></path>
                <path d="M32.25,55.43 C32.4,55.43 32.81,55.64 32.87,55.67 C34.4182791,56.3782619 36.081528,56.801696 37.78,56.92 C38.5495031,57.0491722 39.3305662,57.096103 40.11,57.06 C41.861004,56.8991916 43.4348032,55.9252876 44.36,54.43" stroke="#000000"></path>
                <path d="M30.93,65.55 L31.22,81.93 C31.4005958,84.5098492 31.1710809,87.1020181 30.54,89.61" stroke="#000000"></path>
                <path d="M19.53,47.74 C20.3858683,47.469939 21.3041317,47.469939 22.16,47.74" stroke="#000000"></path>
                <path d="M25.93,48.21 C26.6217149,48.0656297 27.3377068,48.0861845 28.02,48.27" stroke="#000000"></path>
                <path d="M27.58,62.02 C27.66,60.5 28.65,59.8 29.41,59.87 C30.2722187,60.0434922 31.0206656,60.5739449 31.47,61.33 C32.0690447,62.328331 32.4475185,63.4432944 32.58,64.6" stroke="#000000"></path>
                <path d="M22.23,63.33 C22.05,62.4 22.99,60.88 23.77,60.83 C24.5720085,60.8370136 25.3283807,61.2041846 25.83,61.83 C26.6445258,62.8079613 27.1122101,64.0281601 27.16,65.3" stroke="#000000"></path>
                <path d="M20.86,57.57 C21.7763144,57.7171987 22.7133717,57.6694939 23.61,57.43" stroke="#000000"></path>
                <path d="M28.16,57.37 L30.24,57.09" stroke="#000000"></path>
            </g>
        </g>
    </g>
</svg>