<?xml version="1.0" encoding="UTF-8"?>
<svg width="93px" height="92px" viewBox="0 0 93 92" version="1.1" xmlns="http://www.w3.org/2000/svg" xmlns:xlink="http://www.w3.org/1999/xlink">
    <!-- Generator: Sketch 43.2 (39069) - http://www.bohemiancoding.com/sketch -->
    <title>O</title>
    <desc>Created with Sketch.</desc>
    <defs></defs>
    <g id="Symbols" stroke="none" stroke-width="1" fill="none" fill-rule="evenodd">
        <g id="O" transform="translate(-21.000000, 0.000000)">
            <g transform="translate(21.000000, 0.000000)" id="Shape">
                <path d="M19.97,81.54 C8.5,74.37 2.46,63.48 0.85,50.21 C-2.15,25.95 13.77,4.86 37.57,1.21 C63.92,-2.87 86.26,11.55 91.22,35.85 C96.68,62.6 77.96,87.17 50.69,89.05 C40.64,89.66 27.45,86.22 19.97,81.54 Z" stroke="#000000"></path>
                <path d="M56.13,44.54 C55.8773896,44.2934477 55.5735033,44.1056528 55.24,43.99 L55.1,43.81 L54.59,43.07 C54.24,42.57 53.89,42.07 53.51,41.6 C52.8066311,40.7255636 51.9232959,40.0127565 50.92,39.51 C49.3732769,38.7907537 47.6857108,38.4252282 45.98,38.44 C45.4106908,38.0047356 44.6692748,37.8638665 43.98,38.06 C42.38,38.39 39.2,39.36 39.4,37.48 L39.4,37.48 L39.4,36.19 C39.4166225,35.4450699 39.078982,34.736396 38.49,34.28 C39.093588,32.6407113 39.4997822,30.9353671 39.7,29.2 C39.7328319,29.0080605 39.7328319,28.8119395 39.7,28.62 C39.891838,28.3861182 40.0377329,28.1180786 40.13,27.83 C40.5,24.38 37.38,22.49 35.81,25.31 C34.7731115,26.9924599 34.0292203,28.8386628 33.61,30.77 C32.89,27.86 28.29,29.19 28.84,32.28 C29.098608,33.560308 29.4700581,34.8152068 29.95,36.03 C29.2985809,35.976842 28.6570421,36.2147506 28.1977916,36.67979 C27.738541,37.1448294 27.5086867,37.7892978 27.57,38.44 C27.88,43.88 28.31,49.07 29.13,54.35 C29.0091348,54.6928965 28.9680934,55.0588487 29.01,55.42 C29.4,59.51 28.5,63.65 28.92,67.66 C29.2612565,69.9553766 29.934994,72.1888163 30.92,74.29 L31.1,82 C30.85,83.75 31.16,85.44 30.92,87.18 C30.7,88.76 31.54,90.34 33.33,90.34 C36.85,90.34 41.6,93.27 44.62,90.65 C46.04,89.42 45.62,85.74 45.67,84.04 C45.77,81.54 45.98,79.04 46.25,76.55 C47.792479,75.8372545 49.1329066,74.7511645 50.15,73.39 C52.29,70.33 53.33,66.39 54.64,62.92 C54.7647602,62.602088 54.8193394,62.2609679 54.8,61.92 C55.05,61.61 55.3,61.31 55.57,61.02 C56.0110187,60.5670116 56.2615495,59.9621586 56.27,59.33 C57.4980932,58.4203791 58.5203722,57.2617962 59.27,55.93 C59.794738,54.6228689 59.9267981,53.1910592 59.65,51.81 C59.7636854,51.1793516 59.8272176,50.5406859 59.84,49.9 C59.8399694,49.6443972 59.7959956,49.3907022 59.71,49.15 C59.8318892,48.5453678 60.0266439,47.957746 60.29,47.4 C61.58,44.67 58.08,42.8 56.13,44.54 Z M53.4,52.68 C53.1397646,52.7575246 52.8933989,52.8756451 52.67,53.03 C52.2727589,53.0937613 51.8837476,53.2010748 51.51,53.35 C50.9058559,53.5433188 50.3867388,53.9388366 50.04,54.47 C48.8564624,53.8151402 47.3718458,54.125676 46.55,55.2 C46.4124333,54.722688 46.2351475,54.2577309 46.02,53.81 C45.1880018,52.0274756 43.7386486,50.606541 41.94,49.81 L42.22,48.98 C42.655914,47.817726 42.9904939,46.6199299 43.22,45.4 C45.6931377,45.0850295 48.2045591,45.2790011 50.6,45.97 L50.6,45.97 C51.2577886,47.2121187 52.3456439,48.1719911 53.66,48.67 C53.5069453,49.7211243 53.5069453,50.7888757 53.66,51.84 C53.7015594,52.0799275 53.7935887,52.3082964 53.93,52.51 C53.7497444,52.5547998 53.5726835,52.611593 53.4,52.68 L53.4,52.68 Z" fill="#FAFD7B" fill-rule="nonzero"></path>
                <path d="M30.5,88.65 L30.5,77.07 C30.5429749,75.9213725 30.4625139,74.7714505 30.26,73.64 C29.98,72.36 29.4,71.17 29.07,69.91 C28.37,67.29 28.77,64.52 28.87,61.81 C29.18,53.62 26.74,45.44 27.7,37.31 C27.7130556,36.9752852 27.8167438,36.6503954 28,36.37 C28.1725071,36.1665265 28.4026151,36.0200942 28.66,35.95 C30.32,35.44 31.92,37.13 32.28,38.82 C32.64,40.51 32.28,42.29 32.52,44.01 C32.86,46.31 34.33,48.58 33.65,50.8 C34.4745815,51.4868874 35.1226579,52.3612763 35.54,53.35" stroke="#000000"></path>
                <path d="M32.88,75.45 C33.789849,76.1932104 34.9161965,76.6212926 36.09,76.67 C36.8092589,76.8470986 37.5607411,76.8470986 38.28,76.67 C39.0117799,76.4516014 39.4802653,75.7383217 39.39,74.98" stroke="#000000"></path>
                <path d="M40.4,50.19 C40.6399159,48.3094268 40.4378978,46.3988152 39.81,44.61 C39.4444003,43.7673724 39.1662755,42.8894364 38.98,41.99 C38.79,40.57 39.37,39.29 39.45,37.91 C39.4146513,36.682823 39.1536326,35.4726452 38.68,34.34 C38.3109324,33.5670076 38.4240852,32.6500797 38.97,31.99 C39.350531,31.2472107 39.5719138,30.4332031 39.62,29.6 C39.74,28.13 40.69,23.7 37.99,23.89 C37.1556703,24.0805914 36.4530356,24.6397562 36.08,25.41 C35.2749663,26.5241649 34.6036935,27.7290996 34.08,29 C33.59,30.42 33.87,30.64 34.42,32 C35.3743462,34.220827 35.635758,36.6780981 35.17,39.05 C35.0109187,39.7221149 35.0886249,40.4285353 35.39,41.05 C35.7,41.63 36.13,42.14 36.39,42.73 C36.7968044,43.7519074 36.964414,44.8533419 36.88,45.95 C36.859389,46.3053189 36.8862932,46.6617994 36.96,47.01 C37.0883907,47.3848531 37.2524769,47.7465125 37.45,48.09 C37.8859524,49.004383 38.0391543,50.02805 37.89,51.03" stroke="#000000"></path>
                <path d="M42.4,71.87 C42.0058224,70.8107625 41.7014165,69.7202536 41.49,68.61 C41.2401342,67.4671193 41.192749,66.289259 41.35,65.13 C41.5191857,63.9724463 42.0889029,62.9108613 42.96,62.13 C43.4101446,61.8527947 43.7603813,61.4395154 43.96,60.95" stroke="#000000"></path>
                <path d="M39.56,38.74 C40.4,37.74 44.47,38.01 46.69,38.3 C48.0798185,38.4063927 49.4454033,38.7233433 50.74,39.24 C52.99,40.24 54.49,42.42 55.89,44.47 C56.48,45.33 57.03,46.61 56.25,47.31 C55.9795427,47.5166087 55.664467,47.6570229 55.33,47.72 C53.97,48.08 52.33,48.36 51.33,47.41 C50.72,46.85 50.46,45.97 49.77,45.52 C49.2477091,45.2421766 48.661162,45.1076158 48.07,45.13 L43.85,44.93 C43.7880362,44.9113734 43.7219638,44.9113734 43.66,44.93 C43.5846487,44.9989153 43.5442613,45.098048 43.55,45.2 C43.3745081,46.8431728 42.8310515,48.4256911 41.96,49.83" stroke="#000000"></path>
                <path d="M38.7,61.5 C38.1710908,60.9827462 37.7317782,60.3812259 37.4,59.72 C37.2151237,59.4215164 37.1408092,59.0676377 37.19,58.72 C37.268305,58.4801656 37.4099648,58.2659483 37.6,58.1 C38.13,57.58 38.78,57.21 39.35,56.75 C39.9524327,56.3166055 40.3728449,55.6752988 40.53,54.95 C40.53,54.66 40.68,54.24 40.96,54.31" stroke="#000000"></path>
                <path d="M29.78,35.74 C29.4916058,35.0595727 29.257541,34.3573784 29.08,33.64 C28.7429111,32.6145725 28.7927088,31.501238 29.22,30.51 C29.6928789,29.5072505 30.828147,29.0012696 31.89,29.32 C32.6080134,29.7241355 33.1604328,30.3686249 33.45,31.14 C33.75,31.72 35.32,33.93 35.32,35.74" stroke="#000000"></path>
                <path d="M31.84,56.51 C33.1952707,56.0565628 34.3763103,55.1934954 35.22,54.04 C35.619941,53.361132 36.0963844,52.7303478 36.64,52.16 C37.1558731,51.7643744 37.7336853,51.4568837 38.35,51.25 L40.82,50.25 C41.4666204,49.8912217 42.229539,49.8048536 42.94,50.01 C43.2081236,50.1490841 43.4514047,50.3315449 43.66,50.55 C45.3,52.1 47.05,53.9 47.09,56.15 C47.097917,56.2691496 47.1395337,56.3835956 47.21,56.48" stroke="#000000"></path>
                <path d="M54.36,47.52 C53.737987,46.6664731 53.1702024,45.7747172 52.66,44.85 C52.3622915,44.3321363 52.2797047,43.7181215 52.43,43.14 C52.7874977,42.4262573 53.6546576,42.135714 54.37,42.49" stroke="#000000"></path>
                <path d="M56.3,44.8 C56.977101,44.0437646 57.9833323,43.669701 58.99,43.8 C59.4560338,43.9337726 59.8576045,44.2322854 60.12,44.64 C60.3347995,44.8722445 60.4402993,45.1851059 60.41,45.5 C59.8187253,48.6984354 59.5473869,51.9477967 59.6,55.2 C59.6078884,55.656624 59.5085615,56.1087324 59.31,56.52 C59.0493366,56.9495197 58.7100868,57.3260869 58.31,57.63 C57.0736026,58.674958 56.0543355,59.9524394 55.31,61.39 C54.5324555,63.3037171 53.8647043,65.2602282 53.31,67.25 C51.96,70.93 48.73,76.91 44.31,77.14" stroke="#000000"></path>
                <path d="M47.21,54.42 C48.1879148,53.6742173 49.5680129,53.7727957 50.43,54.65 C50.7521947,55.0429118 51.008831,55.4852717 51.19,55.96 L52.04,57.86 C52.1369995,58.0514002 52.3005891,58.2007646 52.5,58.28" stroke="#000000"></path>
                <path d="M46.18,77.06 C45.6453922,81.5558899 45.4215275,86.0833009 45.51,90.61" stroke="#000000"></path>
                <path d="M48.64,42.8 C48.3590172,43.1924353 48.2615631,43.6872458 48.3727513,44.1569201 C48.4839395,44.6265944 48.7928947,45.0251937 49.22,45.25" stroke="#000000"></path>
                <path d="M42.13,43.12 C42.0725863,43.5949626 42.2293789,44.0708573 42.5578734,44.4186751 C42.886368,44.7664928 43.3525341,44.9502015 43.83,44.92" stroke="#000000"></path>
                <path d="M30.99,44.18 C31.4790464,44.1565787 31.9680108,44.227886 32.43,44.39" stroke="#000000"></path>
                <path d="M32.05,50.64 C32.6435684,50.4528029 33.290454,50.5526081 33.8,50.91" stroke="#000000"></path>
                <path d="M35.3,46.61 C35.7833241,46.5654835 36.2707107,46.606099 36.74,46.73" stroke="#000000"></path>
                <path d="M33.78,38.87 C34.1803877,38.8116139 34.5887929,38.8890701 34.94,39.09" stroke="#000000"></path>
                <path d="M37.7,40.97 C38.05,40.97 38.41,41.09 38.7,41.11" stroke="#000000"></path>
                <path d="M50.3,53.98 C50.3665667,53.4424897 50.7691906,53.0076559 51.3,52.9 C52.5542792,52.4530801 53.937845,52.5472495 55.12,53.16 C54.2281924,52.8107647 53.543712,52.0747642 53.26,51.16 C53.027276,50.129387 53.218235,49.0484866 53.79,48.16" stroke="#000000"></path>
                <path d="M36.84,33.03 L38.2,33.15" stroke="#000000"></path>
            </g>
        </g>
    </g>
</svg>