<?xml version="1.0" encoding="UTF-8"?>
<svg width="89px" height="89px" viewBox="0 0 89 89" version="1.1" xmlns="http://www.w3.org/2000/svg" xmlns:xlink="http://www.w3.org/1999/xlink">
    <!-- Generator: Sketch 43.2 (39069) - http://www.bohemiancoding.com/sketch -->
    <title>S</title>
    <desc>Created with Sketch.</desc>
    <defs></defs>
    <g id="Symbols" stroke="none" stroke-width="1" fill="none" fill-rule="evenodd">
        <g id="S" transform="translate(-24.000000, 0.000000)">
            <g transform="translate(24.000000, 0.000000)" id="Shape">
                <path d="M32.66,87.82 C17.52,86.09 0.91,68.15 0.51,53.19 C0.43,50.29 2.18,50.05 4.11,49.45 C11.98,47 11.97,46.98 11.56,38.93 C10.56,19.34 26.71,2.05 47.32,0.62 C64.01,-0.54 79.55,7.84 86.47,21.45 C88.25,24.94 88.02,26.59 83.83,27.6 C76.71,29.32 76.77,29.55 79.69,36.22 C87.79,54.68 78.58,77.04 59.78,84.97 C56.33,86.42 51.65,87.89 32.66,87.82 Z" stroke="#000000"></path>
                <path d="M45.25,61.62 C45.2929716,61.3752048 45.2929716,61.1247952 45.25,60.88 C46.14,58.88 46.64,56.88 47.49,54.82 C47.5398312,54.6898158 47.5799412,54.5561159 47.61,54.42 C48.0170546,54.1028547 48.285777,53.6406521 48.36,53.13 L48.36,52.84 C48.5875784,51.7458409 48.087667,50.6291034 47.12,50.07 L46.89,49.95 L46.89,49.95 C46.6173871,49.517821 46.2801373,49.1299838 45.89,48.8 C45.9635811,48.7047864 46.030411,48.6045417 46.09,48.5 C46.6359549,47.3852543 47.0907737,46.2281419 47.45,45.04 L47.45,44.98 C49.78,41.48 53.08,37.62 52.79,33.88 C53.06,33.35 53.32,32.81 53.59,32.28 C53.8344207,31.820524 53.9255231,31.294933 53.85,30.78 C54.2012871,29.9476624 54.4725114,29.0837627 54.66,28.2 C55.3,25.06 51.22,24.42 49.99,27.3 C48.76,30.18 47.27,32.49 45.99,35.2 C45.15,36.94 44.38,38.68 43.52,40.37 C42.06,39.1 40.32,39.72 38.6,40.5 C37.9784178,40.3210288 37.3096303,40.4233569 36.77,40.78 L36.94,42.35 C36.8703741,40.9849154 35.736802,39.9175051 34.37,39.93 C31.99,40.13 30.37,41.33 28.21,41.93 C26.05,42.53 24.21,42.07 22.49,43.85 C21.4596912,45.1081102 20.8231577,46.6420516 20.66,48.26 C20.2985038,49.0804665 20.0074546,49.9301964 19.79,50.8 C18.66,55.23 17.57,59.42 16.04,63.8 C15.7844343,64.4807239 15.9184489,65.2465216 16.39,65.8 C15.7217014,66.4915762 15.006685,67.1364274 14.25,67.73 C12.44,69.14 10.35,70.04 9.25,72.11 C8.46128845,72.4285288 7.87825974,73.112714 7.68888654,73.9419693 C7.49951334,74.7712246 7.72774576,75.6406737 8.3,76.27 C9.80078642,77.7617583 11.5123519,79.025217 13.38,80.02 C15.22,81.08 17.9,85.96 19.54,84.45 C21.9490919,82.2702887 24.1150519,79.8360982 26,77.19 C26.9640202,76.3821854 27.8389846,75.4736974 28.61,74.48 C28.7919473,74.3592705 28.959677,74.2183775 29.11,74.06 L29.73,73.61 C30.57,73.18 31.64,73.16 32.51,72.77 C33.8108735,72.0540798 35.0605374,71.2488151 36.25,70.36 C40.45,69 44.14,65.77 45.25,61.62 Z" fill="#FAFD7B" fill-rule="nonzero"></path>
                <path d="M43.35,40.58 C45.35,36.23 47.95,31.58 50.19,27.31 C51.28,25.24 53.87,24.61 54.53,27.09 C55.19,29.57 53.84,32.76 52.95,35.09 C51.91078,37.4940139 50.6696713,39.8056207 49.24,42 C48.15,43.85 47.36,46.66 46.18,48.52" stroke="#000000"></path>
                <path d="M7.42,73.62 L15.55,66.62 C15.7712661,66.4598041 15.944235,66.2418634 16.05,65.99 C16.0959046,65.5609276 16.0196418,65.1276163 15.83,64.74 C15.5,63.52 16.25,62.31 16.83,61.19 C19.55,56.05 19.21,49.77 21.68,44.5 C22.92,41.85 26.68,41.42 29.24,41.8 C30.77,42.03 32.57,42.31 32.74,44.14 C33.15,48.54 33.74,51.88 29.53,54.59 C28.32,55.37 26.6,56.07 25.59,55.05 C25.0321445,54.3181183 24.8922047,53.3498859 25.22,52.49 C25.7529887,50.5928494 27.0749894,49.0159175 28.85,48.16 L28.33,47.05 C27.7360412,47.427311 27.0152747,47.5498413 26.33,47.39" stroke="#000000"></path>
                <path d="M36.29,41.14 C37.5557665,40.4635211 38.8989064,39.9430544 40.29,39.59 C40.8278793,39.4271982 41.3964668,39.392946 41.95,39.49 C43.25,39.8 43.9,41.29 43.95,42.62 C43.8760203,43.9556863 43.9329585,45.2954071 44.12,46.62" stroke="#000000"></path>
                <path d="M19.29,67.06 C19.9478529,67.572519 20.6394116,68.0402399 21.36,68.46 C21.5911128,68.6197972 21.8600216,68.7163285 22.14,68.74 C22.4279356,68.750864 22.6816,68.5521602 22.74,68.27" stroke="#000000"></path>
                <path d="M40.63,59.56 C40.29,57.88 40.91,56.78 41.34,55.25 C41.63,54.25 41.87,54.67 41.6,53.71 C41.3049495,53.2516423 40.9703389,52.8199946 40.6,52.42 C39.79,51.06 39.31,47.88 40.54,46.6 C42.71,44.33 46.41,48.87 47.59,50.36 C48.0773599,50.8722518 48.4221226,51.5031676 48.59,52.19 C48.6393604,52.8428161 48.5437442,53.49847 48.31,54.11 C46.51,60.11 44.16,66.58 38.72,69.66 C37.4,70.41 35.95,70.92 34.63,71.66 C33.7027109,72.3249804 32.6946256,72.8693465 31.63,73.28 C30.5188896,73.6522139 29.29556,73.2444373 28.63,72.28" stroke="#000000"></path>
                <path d="M25.32,54.34 C26.12,52.72 28.49,51.44 29.32,52.4 C29.95,53.1 29.7,54.02 28.82,54.89" stroke="#000000"></path>
                <path d="M28.49,41.66 C30.36,41.6 32.79,39.5 34.61,39.95 C36.43,40.4 37.18,42.66 37.56,44.55 L38.3,48.31 C38.5236727,49.0637567 38.5236727,49.8662433 38.3,50.62 C37.9535879,51.2308188 37.5226682,51.7896678 37.02,52.28 C35.8122481,53.8689382 35.7838417,56.0602889 36.95,57.68 C37.3753922,58.2981077 38.0310714,58.7196157 38.77,58.85 C39.5169395,58.9616826 40.2435744,58.5488219 40.53,57.85" stroke="#000000"></path>
                <path d="M50.99,33.34 C51.07,32.99 53.36,33.87 53.37,33.51" stroke="#000000"></path>
                <path d="M36.09,55.06 C35.57,56.06 34.81,57.84 32.88,57.11 C32.4280465,56.8814074 32.0860657,56.4818299 31.93,56 C31.5920001,54.9708911 31.6858166,53.8487013 32.19,52.89 C32.7727181,52.2380676 33.6459825,51.9256498 34.51,52.06 C35.3149212,52.3417848 35.9550074,52.9635828 36.26,53.76" stroke="#000000"></path>
                <path d="M20.23,84.39 C20.87,83.65 22.79,81.1 23.44,80.39 C23.84,79.93 24.24,79.48 24.64,79.03 C26.3112103,77.1831729 28.116086,75.4618563 30.04,73.88" stroke="#000000"></path>
                <path d="M36.54,56.77 C36.9,53.47 40.54,52.77 41.07,56.12" stroke="#000000"></path>
                <path d="M33.64,57.84 C32.2552032,59.8241969 31.2701919,62.0591535 30.74,64.42" stroke="#000000"></path>
                <path d="M40.53,46.6 C40.7154399,47.8611161 41.5627716,48.9260059 42.75,49.39 C45.75,50.11 45.48,47.85 44.66,47.26" stroke="#000000"></path>
                <path d="M48.15,39.3 C48.8104999,39.8127934 49.6550489,40.0266491 50.48,39.89" stroke="#000000"></path>
                <path d="M58.14,32.78 C59.8791022,34.5278088 61.2405805,36.6142743 62.14,38.91 C64.0750813,44.2986725 63.7135775,50.2454101 61.14,55.36 C58.5458486,60.4228919 54.5367142,64.6231028 49.6,67.45" stroke="#000000"></path>
                <path d="M46.18,66.76 C45.399852,68.3240693 44.7315117,69.9414529 44.18,71.6 L49.18,70.6 C48.26,69.35 46.45,67.2 46.11,66.81" stroke="#000000"></path>
            </g>
        </g>
    </g>
</svg>