<?xml version="1.0" encoding="UTF-8"?>
<svg width="92px" height="91px" viewBox="0 0 92 91" version="1.1" xmlns="http://www.w3.org/2000/svg" xmlns:xlink="http://www.w3.org/1999/xlink">
    <!-- Generator: Sketch 43.2 (39069) - http://www.bohemiancoding.com/sketch -->
    <title>T</title>
    <desc>Created with Sketch.</desc>
    <defs></defs>
    <g id="Symbols" stroke="none" stroke-width="1" fill="none" fill-rule="evenodd">
        <g id="T" transform="translate(-22.000000, 1.000000)">
            <g transform="translate(22.000000, 0.000000)" id="Shape">
                <path d="M33.74,86 C33.573504,85.9893326 33.406496,85.9893326 33.24,86 C20.73,86.73 20.73,86.73 20.73,74.12 C20.73,64.12 20.63,54.12 20.78,44.12 C20.78,41.05 19.78,39.98 16.78,40.12 C12.46,40.33 8.12,40.12 3.78,40.19 C1.44,40.19 0.52,39.31 0.53,36.96 C0.59,25.8066667 0.59,14.65 0.53,3.49 C0.53,0.97 1.74,0.49 3.93,0.49 C31.7366667,0.536666667 59.5466667,0.536666667 87.36,0.49 C90.14,0.49 90.7,1.69 90.68,4.09 C90.61,14.91 90.59,25.74 90.68,36.56 C90.68,39.45 89.55,40.35 86.81,40.23 C83.15,40.07 79.45,40.51 75.81,40.12 C71.19,39.62 70.26,41.54 70.36,45.78 C70.63,57.43 70.28,69.09 70.54,80.78 C70.63,84.86 69.54,86.25 65.32,86.14 C56.25,85.87 36.39,86.18 33.74,86 Z" stroke="#000000"></path>
                <path d="M59.57,42.07 C57.0634568,41.7246317 54.5232904,41.6977516 52.01,41.99 C52.01,41.66 51.11,41.77 51.09,41.44 C51.03,40.44 51.37,39.44 50.72,39 C50.8520574,38.3646367 51.0189764,37.7370213 51.22,37.12 C52.22,34.06 47.41,32.75 46.4,35.79 C45.7018153,37.9108265 45.3374676,40.1272748 45.32,42.36 C45.0182155,42.3166496 44.7117845,42.3166496 44.41,42.36 C44.3212722,42.3836773 44.2343778,42.4137561 44.15,42.45 C43.5710242,42.4012545 42.9889758,42.4012545 42.41,42.45 L42.25,42.45 C42.4162762,36.1073164 42.1690859,29.7605379 41.51,23.45 C41.14,20.29 36.14,20.26 36.51,23.45 C36.51,23.65 36.51,23.85 36.57,24.05 C35.3400924,23.8086706 34.1294477,24.5463394 33.78,25.75 L33.26,27.41 C33.1836688,27.6525564 33.1465352,27.9057401 33.15,28.16 C32.6405352,30.5483794 32.352647,32.9786917 32.29,35.42 C31.8455257,34.8356113 31.1746896,34.4663898 30.4431736,34.4035252 C29.7116577,34.3406605 28.9876628,34.5900137 28.45,35.09 L28.16,35.4 C27.4996057,36.0652281 27.2955096,37.0582343 27.64,37.93 C27.1694709,42.8283175 27.0024852,47.7510568 27.14,52.67 C26.7969659,53.092194 26.603547,53.6161832 26.59,54.16 C26.36,59.03 26.59,62.79 28.69,67.23 C30.94,71.95 34.58,78.05 33.69,83.53 C33.48,84.78 33.2,87.79 34.63,88.08 C39.53,89.08 45.4,89.56 50.19,88.14 C51.57,87.73 51.66,84.41 51.51,83.3 C51.6609615,82.9886086 51.7363361,82.6459968 51.73,82.3 C51.6160648,80.237588 51.6897007,78.1690897 51.95,76.12 C56.04,74.12 56.83,68.37 56.82,63.58 C56.9989841,63.2063281 57.0814962,62.793768 57.06,62.38 C57.0200974,61.1453813 56.8491379,59.9184957 56.55,58.72 C56.4516649,58.3421704 56.2549941,57.9971339 55.98,57.72 C55.98,57.35 55.9,56.98 55.89,56.59 C55.8784179,55.9653459 55.6237088,55.3698288 55.18,54.93 C54.49,52.21 53.61,49.55 52.93,46.81 C55.05,46.41 57.5,46.86 59.59,46.96 C62.79,47.26 68.91,42.8 59.57,42.07 Z" fill="#FAFD7B" fill-rule="nonzero"></path>
                <path d="M50.51,55.17 C48.6057325,54.5316276 47.1199519,53.0235603 46.51,51.11 C46.13,49.88 45.63,48.9 45.9,47.63 C46.6,44.35 44.73,41.63 45.49,38.3 C45.91,36.47 46.29,34.3 48.49,33.79 C48.8186103,33.710644 49.1613897,33.710644 49.49,33.79 C50.0534251,33.9712084 50.4935526,34.4150658 50.67,34.98 C50.8371065,35.5408273 50.9114196,36.1251982 50.89,36.71 C50.8347769,39.4354273 51.1237264,42.1569291 51.75,44.81 C52.4142079,46.898194 53.1852234,48.9508976 54.06,50.96 C56.72,57.56 58.67,65.1 55.94,71.68 C54.74,74.55 52.46,77.2 49.41,77.82" stroke="#000000"></path>
                <path d="M32.17,57.41 C33.3387758,56.8651326 34.0926006,55.6994241 34.11,54.41 C34.0956607,53.137282 33.8934805,51.8736554 33.51,50.66 C32.7087087,47.0145708 32.4592619,43.2694977 32.77,39.55 C32.9309524,38.421333 32.8629333,37.2718099 32.57,36.17 C32.2463424,35.0450578 31.2205519,34.2675738 30.05,34.26 C28.34,34.43 27.72,36.57 27.57,38.26 C27.42,39.95 27.32,41.91 27.23,43.73 L26.57,56.73 C26.438488,58.3247768 26.4552264,59.928316 26.62,61.52 C27.15,65.41 29.02,68.87 30.62,72.41 C32.38,76.28 34.49,82.77 33.23,87.06" stroke="#000000"></path>
                <path d="M37.21,78.49 C38.3076944,78.9727326 39.5021195,79.19519 40.7,79.14 C41.9293894,79.0545588 42.9391173,78.135872 43.14,76.92" stroke="#000000"></path>
                <path d="M32.4,35.77 C32.56,33.42 32.88,30.61 33.04,28.26 C33.15,26.68 33.51,24.75 35.04,24.26 C36.2459571,24.0012987 37.4755881,24.583324 38.04,25.68 C38.5638194,26.7728418 38.8045281,27.9798239 38.74,29.19 C38.84,35.26 37.85,41.38 38.74,47.39 C38.8916338,48.076882 38.908614,48.7866528 38.79,49.48 C38.39,51.09 36.32,52.3 34.12,52.48" stroke="#000000"></path>
                <path d="M32.98,63.7 C34.0570971,63.1261581 34.969383,62.2861666 35.63,61.26 C35.89,60.77 36.03,60.26 36.25,59.73 C37.1207406,58.1535692 38.3895958,56.8329943 39.93,55.9" stroke="#000000"></path>
                <path d="M36.55,24.16 C36.31,22.63 37.7,20.68 39.1,20.82 C40.5,20.96 41.66,23.05 41.99,24.32 C42.1365699,24.9504516 42.2236186,25.5932729 42.25,26.24 C42.47,29.59 42.15,32.78 42.53,36.11 C42.5829537,37.3169137 42.4889301,38.5257883 42.25,39.71 C41.9886108,41.0499989 41.9179117,42.4202148 42.04,43.78 C42.13,44.37 42.3,44.94 42.33,45.53 C42.41,47.07 41.81,48.71 38.8,49.48" stroke="#000000"></path>
                <path d="M47.51,53.07 C46.67,52.32 44.84,52.75 44.06,53.56 C42.22,55.44 41.7,58.14 41.44,60.64 C41.3291785,61.4997769 41.3291785,62.3702231 41.44,63.23 C41.99,66.77 43.28,71.08 45.54,73.93" stroke="#000000"></path>
                <path d="M52.3,76.91 C51.5959123,80.3423759 51.3537682,83.8534641 51.58,87.35" stroke="#000000"></path>
                <path d="M42.36,42.26 C43.3969507,42.446172 44.4634242,42.3810177 45.47,42.07" stroke="#000000"></path>
                <path d="M51.37,41.85 C55.37,41.1 59.47,42.04 63.43,42.98 C63.8674474,43.0276055 64.2709056,43.2382607 64.56,43.57 C64.8105772,44.1430645 64.665459,44.8122204 64.2,45.23 C62.78,46.85 60.34,46.95 58.2,46.94 L52.43,46.94" stroke="#000000"></path>
                <path d="M43.17,48.71 L45.58,48.18" stroke="#000000"></path>
                <path d="M60.28,42.26 C59.4684681,42.5655451 58.901907,43.3067312 58.82,44.17 C58.82,45.09 59.64,45.37 60.54,45.55 C60.89,45.62 63.22,46.02 64.2,45.22" stroke="#000000"></path>
                <path d="M30.97,43.07 C31.5294556,43.0564029 32.0763966,42.9016083 32.56,42.62" stroke="#000000"></path>
                <path d="M31.27,49.79 C31.9165786,49.8661889 32.5697037,49.7179119 33.12,49.37" stroke="#000000"></path>
                <path d="M36.31,42.96 C36.9760898,42.9155835 37.6151087,42.6794243 38.15,42.28" stroke="#000000"></path>
                <path d="M36.79,34.46 C37.3948409,34.4094983 37.9668955,34.1638307 38.42,33.76" stroke="#000000"></path>
                <path d="M41.04,32.68 C41.5187309,32.6284678 41.9695678,32.4292608 42.33,32.11" stroke="#000000"></path>
                <path d="M40.87,39.68 C41.3878622,39.570121 41.867427,39.3251634 42.26,38.97" stroke="#000000"></path>
                <path d="M47.66,46.08 L46.97,45.56" stroke="#000000"></path>
            </g>
        </g>
    </g>
</svg>