<?xml version="1.0" encoding="UTF-8"?>
<svg width="102px" height="91px" viewBox="0 0 102 91" version="1.1" xmlns="http://www.w3.org/2000/svg" xmlns:xlink="http://www.w3.org/1999/xlink">
    <!-- Generator: Sketch 43.2 (39069) - http://www.bohemiancoding.com/sketch -->
    <title>V</title>
    <desc>Created with Sketch.</desc>
    <defs></defs>
    <g id="Symbols" stroke="none" stroke-width="1" fill="none" fill-rule="evenodd">
        <g id="V" transform="translate(-16.000000, 1.000000)">
            <g transform="translate(17.000000, 0.000000)" id="Shape">
                <path d="M46.46,89.11 C46.46,87.33 45.27,86.05 44.46,84.61 C30.4066667,58.35 16.3333333,32.0966667 2.24,5.85 C-0.52,0.7 -0.5,0.66 5.38,0.66 L95.8,0.66 C97.24,0.66 99.16,-0.02 99.99,1.32 C100.82,2.66 99.17,4.02 98.44,5.23 C90.16,18.89 81.73,32.47 73.54,46.23 C71.77,49.23 54.48,76.99 51.88,81.43 C50.38,83.99 48.88,86.57 47.42,89.14 L46.42,89.14 L46.46,89.11 Z" stroke="#000000"></path>
                <path d="M64.07,43.81 C63.14,42.44 61.81,40 60.07,39.11 C59.9551383,38.8910555 59.8104223,38.6891261 59.64,38.51 C57.3151671,36.1545366 55.1911183,33.609023 53.29,30.9 C53.1074085,30.6331713 52.8768287,30.4025915 52.61,30.22 C52.5522074,29.9283964 52.4475157,29.6480926 52.3,29.39 C49.95,25.23 46.72,21.47 44.61,17.21 C44.3469776,16.6006867 43.8077524,16.1544313 43.16,16.01 C42.504229,14.9742028 41.7471781,14.0061155 40.9,13.12 C40.3231317,12.607475 39.5445536,12.3849834 38.7839793,12.515312 C38.0234049,12.6456406 37.3633202,13.114655 36.99,13.79 L36.63,14.33 C36.2382819,14.868228 36.1235261,15.5597468 36.3204002,16.1956501 C36.5172743,16.8315534 37.0026884,17.3372611 37.63,17.56 C37.8442715,18.1020973 38.1560902,18.6003294 38.55,19.03 C38.55,19.03 38.55,19.12 38.62,19.16 C38.92,19.6 39.17,20.08 39.46,20.52 C39.6842191,20.85353 39.931489,21.1709711 40.2,21.47 L40.35,21.64 L40.35,21.64 C40.4562198,21.9982336 40.6689862,22.3156393 40.96,22.55 C41.9119098,24.3022286 42.9740437,25.9922907 44.14,27.61 C45.335089,29.6264618 46.3715473,31.7328124 47.24,33.91 C46.8938686,34.0497376 46.559469,34.2169375 46.24,34.41 L46.05,34.56 C41.32,31.48 37.72,27.35 32.68,24.93 L30.22,22.93 C30.1307937,22.8607884 30.0372711,22.7973267 29.94,22.74 C29.4042901,21.7445266 28.2443878,21.2605386 27.16,21.58 C26.85,21.4 26.54,21.21 26.22,21.04 C23.38,19.53 21.03,23.95 23.88,25.46 L24.23,25.66 C24.2808343,25.9429935 24.3972809,26.2101357 24.57,26.44 C26.1465379,28.7350167 28.5266884,30.3550891 31.24,30.98 C32.87,32.31 34.63,33.41 36.24,34.63 C37.24,35.41 38.35,36.16 39.41,36.92 C38.8056737,37.1381233 38.2203581,37.4056962 37.66,37.72 C36.8522047,38.0725984 36.2512217,38.7768178 36.03,39.63 C35.8533773,40.6767125 36.2318377,41.740186 37.03,42.44 C37.2571757,42.6628063 37.5301758,42.8334313 37.83,42.94 C38.2176526,43.4495493 38.7743378,43.8041259 39.4,43.94 C39.29,44.16 39.18,44.38 39.08,44.61 C38.9457894,44.9265535 38.8744637,45.2661997 38.87,45.61 C37.67561,45.3392016 36.4475355,45.9000223 35.87,46.98 C35.12,48.45 36.06,49.98 36.73,51.33 C37.9294192,53.4071864 39.502521,55.244732 41.37,56.75 C42.3790435,58.2517846 43.694541,59.5229778 45.23,60.48 C45.3488685,60.6483151 45.4864111,60.8026312 45.64,60.94 C47.64,62.72 49.92,65.06 52.55,65.87 C53.4158543,66.1231497 54.3222016,66.2080136 55.22,66.12 C55.1970867,66.6121886 55.3225026,67.099917 55.58,67.52 C57.15,70.13 59.48,71.9 62.63,70.94 C65.47,70.07 70.15,68.04 71.63,65.37 C72.1306047,64.3655156 71.9244144,63.1526312 71.12,62.37 C70.3367161,61.5125229 69.7618089,60.4859031 69.44,59.37 C69.4106731,58.8100505 69.4543737,58.2486657 69.57,57.7 C69.7438565,55.9801034 69.32775,54.2522036 68.39,52.8 C67.388232,49.6118054 65.9333524,46.584174 64.07,43.81 L64.07,43.81 Z" fill="#FAFD7B" fill-rule="nonzero"></path>
                <path d="M47.32,33.7 C46.03,32.01 45.62,30.45 44.74,28.6 C44.05,27.15 42.8,26.19 41.94,24.84 C40.77,23.01 40.19,21.26 38.75,19.57 C37.9193278,18.7084462 37.2428242,17.7106034 36.75,16.62 C36.2556692,15.4959945 36.4713619,14.1861514 37.3,13.28 C38.2609368,12.5358847 39.5758854,12.4450624 40.63,13.05 C41.6489191,13.6576161 42.5199476,14.4842392 43.18,15.47 C47.96,21.73 51.43,28.96 56.65,34.86 C58.65,37.16 60.96,39.23 62.84,41.65 C65.1783715,44.917323 67.1376241,48.4399519 68.68,52.15 C69.68,54.26 70.62,56.74 69.55,58.8 C68.6743277,60.1202726 67.41413,61.1396014 65.94,61.72" stroke="#000000"></path>
                <path d="M39.07,36.81 C34.77,31.81 27.44,30.6 23.39,25.39 C22.5811573,24.556824 22.2367311,23.3775387 22.47,22.24 C22.8455899,21.3542466 23.6812097,20.7496738 24.64,20.67 C25.5797924,20.604394 26.5211934,20.7727467 27.38,21.16 C29.7863858,22.233863 32.0394313,23.6226806 34.08,25.29 C38.17,28.29 42.08,31.29 46.17,34.36" stroke="#000000"></path>
                <path d="M56.22,51.13 C52.9470961,49.220582 49.2291294,48.206591 45.44,48.19 C43.9744343,48.3251693 42.4965061,48.1895795 41.08,47.79 C39.71,47.26 38.57,45.79 39.08,44.36 C39.5102377,43.350255 40.4575536,42.656068 41.55,42.55 C42.6173809,42.4441234 43.6926191,42.4441234 44.76,42.55 C45.7966495,42.5855045 46.8338591,42.4982312 47.85,42.29 C48.5601169,42.1006979 49.2867968,41.9801427 50.02,41.93 C50.77566,41.9610434 51.5231003,42.0990841 52.24,42.34 C56.48,43.54 60.98,44.9 63.82,48.26" stroke="#000000"></path>
                <path d="M69.61,58.61 C69.9821924,60.1627312 70.662294,61.6249496 71.61,62.91" stroke="#000000"></path>
                <path d="M39.13,44.52 C39.3,45.77 42.62,46.11 43.72,45.83 C44.3776225,45.6906806 44.971341,45.3393679 45.41,44.83 C45.7631873,44.1154363 45.6899693,43.2637945 45.22,42.62" stroke="#000000"></path>
                <path d="M38.81,43.95 C37.6000873,43.3220472 36.6018976,42.3516816 35.94,41.16 C35.817718,40.9557507 35.7298779,40.7327721 35.68,40.5 C35.6340397,40.1618878 35.6753495,39.8176389 35.8,39.5 C36.5020848,37.6591384 38.3918449,36.5560846 40.34,36.85 C41.2556962,37.0616026 42.121677,37.4487469 42.89,37.99 C44.743868,39.2691295 46.4957834,40.6900532 48.13,42.24" stroke="#000000"></path>
                <path d="M38.93,45.19 C37.59,45.19 36.31,45.48 35.66,46.65 C35.2824871,47.5104122 35.2824871,48.4895878 35.66,49.35 C36.5808718,51.6139036 37.9402717,53.6733944 39.66,55.41 C42.7492264,58.8533101 46.2179319,61.9362311 50,64.6 C50.7067891,65.1397666 51.4839667,65.5805037 52.31,65.91 C54.8532654,66.6455686 57.5916236,65.8240612 59.31,63.81" stroke="#000000"></path>
                <path d="M39.99,51.37 C42.3074309,52.8386431 45.1682081,53.1700073 47.76,52.27 C48.2349567,52.1365982 48.6595821,51.8651164 48.98,51.49 C49.4291419,50.6385986 49.3309752,49.6019585 48.73,48.85" stroke="#000000"></path>
                <path d="M41.8,49.89 L42.21,49.23" stroke="#000000"></path>
                <path d="M48.68,48.56 C44.8,48.2 44.83,50.06 45.08,50.69 C45.43,51.54 47.74,51.94 48.41,51.98" stroke="#000000"></path>
                <path d="M42.4,53.81 C42.5765945,53.3298729 42.501543,52.7932547 42.2,52.38" stroke="#000000"></path>
                <path d="M52.66,49.56 C53.44,50.72 53.16,52.8 53.32,54.19 C53.8146703,57.6219758 56.5890243,60.2724748 60.04,60.61" stroke="#000000"></path>
                <path d="M29.77,27.55 C30.325719,27.034981 30.7950388,26.4339815 31.16,25.77" stroke="#000000"></path>
                <path d="M35.97,32.29 C36.3903236,32.0824493 36.6765432,31.6757162 36.73,31.21" stroke="#000000"></path>
                <path d="M41.33,20.23 L42.54,19.86" stroke="#000000"></path>
                <path d="M45.58,26.73 C46.2232011,26.4422412 46.8014841,26.0272381 47.28,25.51" stroke="#000000"></path>
                <path d="M44.24,38.95 C44.2331148,37.1789259 45.0090514,35.4952899 46.36,34.35 C47.78,33.35 49.7,33.07 51.02,31.89" stroke="#000000"></path>
                <path d="M46.49,40.81 C47.7966944,39.1949706 49.411295,37.8557019 51.24,36.87" stroke="#000000"></path>
                <path d="M51.87,45.64 C51.3405461,45.3095256 51.1392284,44.6370387 51.4,44.07" stroke="#000000"></path>
                <path d="M54.94,66.2 C55.7681864,68.2301811 57.3174155,69.8826921 59.29,70.84" stroke="#000000"></path>
            </g>
        </g>
    </g>
</svg>