<?xml version="1.0" encoding="UTF-8"?>
<svg width="117px" height="90px" viewBox="0 0 117 90" version="1.1" xmlns="http://www.w3.org/2000/svg" xmlns:xlink="http://www.w3.org/1999/xlink">
    <!-- Generator: Sketch 43.2 (39069) - http://www.bohemiancoding.com/sketch -->
    <title>W</title>
    <desc>Created with Sketch.</desc>
    <defs></defs>
    <g id="Symbols" stroke="none" stroke-width="1" fill="none" fill-rule="evenodd">
        <g id="W" transform="translate(-9.000000, 0.000000)">
            <g transform="translate(9.000000, 0.000000)" id="Shape">
                <path d="M30.57,89.04 C26.57,74.81 20.92,61.13 16.12,47.16 C11.32,33.19 6.34,19.23 1.23,5.35 C-0.1,1.75 0.09,0.49 4.44,0.5 C40.5466667,0.64 76.6566667,0.64 112.77,0.5 C116.69,0.5 117.18,1.5 115.87,5.05 C105.67,33 95.65,61.05 85.58,89.05 L84.58,89.05 C82.03,86.22 79.3,83.52 76.99,80.51 C74.68,77.5 60.87,60.59 58.53,60.8 C56.53,60.98 49.53,68.94 46.71,71.88 C41.46,77.41 36.6,83.3 31.58,89.05 L30.58,89.05 L30.57,89.04 Z" stroke="#000000"></path>
                <path d="M68.06,46.38 L68.06,46.26 C68.2,45.08 68.31,43.9 68.4,42.7 C68.4358677,42.291768 68.3634316,41.8812968 68.19,41.51 C68.33,40.33 68.45,39.15 68.52,37.95 C68.5611904,37.4484104 68.4307262,36.9477099 68.15,36.53 C68.5077967,32.2795938 68.5779565,28.0098669 68.36,23.75 C68.3380672,23.368293 68.23222,22.9961207 68.05,22.66 C68.15,20.33 68.15,17.99 68.05,15.66 C67.87,12.46 62.87,12.44 63.05,15.66 C63.47,23.22 62.47,31.06 61.16,38.55 C60.9666891,38.4320011 60.7580677,38.3411499 60.54,38.28 C60.11,35.12 59.43,31.99 59.16,28.8 C58.81,24.53 58.68,20.36 57.62,16.19 C57.5180743,15.7756237 57.3075093,15.3959163 57.01,15.09 C56.9233333,14.4233333 56.84,13.7566667 56.76,13.09 C56.38,9.93 51.38,9.9 51.76,13.09 C52.76,21.82 54.33,30.09 53.97,38.85 C52.2483615,34.743798 50.7495165,30.5476998 49.48,26.28 C48.48,23 47.03,20.08 45.96,16.89 C44.89,13.7 40.39,15.16 41.42,18.22 C41.98,19.87 42.32,21.49 42.94,23.11 C43.17,25.52 44.12,27.61 44.85,29.94 C45.5,32.01 46.04,34.12 46.58,36.22 C45.8624502,35.8342669 45.0722451,35.602655 44.26,35.54 C42.249481,35.2690615 40.3377667,36.4913743 39.74,38.43 C39.3149273,39.6854788 39.66292,41.0735398 40.63,41.98 C40.6797534,42.9504173 40.8339777,43.9126432 41.09,44.85 C41.0036647,45.2175611 40.9534263,45.5926743 40.94,45.97 C40.9721293,49.4331547 41.2865036,52.887928 41.88,56.3 C42.1684117,58.7684275 42.9615145,61.1511399 44.21,63.3 C45.92,66.38 48.39,68.3 49.21,71.7 C46.85,78.83 62.88,76.88 66.08,75.31 C67.0495212,74.7318152 67.5187062,73.5812917 67.23,72.49 C66.41,69.03 66.97,65.75 67.69,62.33 C67.7821144,61.9353032 67.7821144,61.5246968 67.69,61.13 C68.2416052,59.6412284 68.5292508,58.0676377 68.54,56.48 C68.34,53.17 68.49,49.67 68.06,46.38 Z" fill="#FAFD7B" fill-rule="nonzero"></path>
                <path d="M52.9,62 C52.0555165,58.9900153 53.4148946,55.7973473 56.17,54.32 L53.37,50.77 C53.0633454,50.3363504 52.6924246,49.9519416 52.27,49.63 C51.6179081,49.2792127 50.9263759,49.0072996 50.21,48.82 C47.9986241,47.9568498 46.4888418,45.8891893 46.34,43.52 C46.2947135,43.0370763 46.3774931,42.5507461 46.58,42.11 C47.19,40.93 48.89,40.82 50.11,41.35 C51.33,41.88 52.3,42.85 53.5,43.42 C55.07,44.17 56.94,44.18 58.5,45.03 C59.5152566,45.6713351 60.4090326,46.4872443 61.14,47.44 C63.25,49.88 65.45,52.52 65.86,55.72 C65.9124334,56.033204 65.9927528,56.3410953 66.1,56.64" stroke="#000000"></path>
                <path d="M51.18,39.59 L55.69,39.03 C58.85,38.64 62.19,38.27 65.09,39.58" stroke="#000000"></path>
                <path d="M46.68,41.95 C47.3481101,43.5717641 48.7350864,44.7886046 50.43,45.24 C51.2233864,45.3652644 52.0338695,45.1671463 52.68,44.69 C53.21,44.14 52.68,43.22 52.04,42.53" stroke="#000000"></path>
                <path d="M46.33,35.99 C45.63,33.7 45.05,31.86 44.33,29.57 C43.1589191,26.0441693 42.2300898,22.4424499 41.55,18.79 C41.37,17.67 41.3,16.34 42.15,15.59 C43.1293036,14.9090844 44.4573475,15.0359676 45.29,15.89 C46.0725446,16.741719 46.6354865,17.7714907 46.93,18.89 L53.93,38.89" stroke="#000000"></path>
                <path d="M61.35,38.32 C62.5487872,31.3865692 63.0878634,24.3551406 62.96,17.32 C62.96,16.05 62.96,14.58 63.96,13.83 C64.96,13.08 66.88,13.7 67.63,14.92 C68.2668009,16.212398 68.536604,17.6548069 68.41,19.09 L68.41,53.43 C68.4426764,55.2986893 68.3792594,57.1678228 68.22,59.03 C67.75,63.65 66.09,68.03 67.28,72.51 C67.4336792,72.971182 67.631251,73.4165558 67.87,73.84" stroke="#000000"></path>
                <path d="M41.9,41.51 C43.2676018,42.6195068 44.3051464,44.0824448 44.9,45.74 C45.0426931,46.2625117 45.2545681,46.7636128 45.53,47.23 C46.06,48 47.89,48.95 48.53,47.81" stroke="#000000"></path>
                <path d="M49.76,41.22 C49.76,41.05 49.6,40.53 49.59,40.46 C48.92,37.67 46.47,35.09 43.43,35.32 C41.9293187,35.4157234 40.6014514,36.3252742 39.97,37.69 C39.23,39.49 40.08,41.49 40.47,43.4 C41.0886771,47.0809766 41.4595111,50.7993389 41.58,54.53 C41.71,56.43 41.65,58.15 42.64,59.84 C43.7075955,61.6629372 44.6756799,63.5423561 45.54,65.47 C46.17,66.87 47.44,67.76 48.12,69.1 C48.8746549,70.8396564 49.3926044,72.6726594 49.66,74.55" stroke="#000000"></path>
                <path d="M54.08,39.23 C54.1756706,31.7230822 53.4479896,24.2283029 51.91,16.88 C51.5760532,15.7008116 51.474169,14.468013 51.61,13.25 C51.7609712,12.0008818 52.6753576,10.9786857 53.9,10.69 C56.9,10.24 57.5,15.2 57.77,17.17 C58.179361,19.007783 58.4831912,20.8674913 58.68,22.74 C58.75,25.34 59.42,27.84 59.68,30.39 C59.94,32.94 60.35,35.65 60.57,38.33 L60.95,38.33" stroke="#000000"></path>
                <path d="M45.52,39.49 L46.89,39.12" stroke="#000000"></path>
                <path d="M47.78,32.04 C48.3443489,32.1850563 48.943406,32.0948369 49.44,31.79" stroke="#000000"></path>
                <path d="M55.7,29.22 C56.1478623,29.2820311 56.6021377,29.2820311 57.05,29.22" stroke="#000000"></path>
                <path d="M64.91,30.87 C65.3953965,31.1143907 65.951887,31.1781921 66.48,31.05" stroke="#000000"></path>
                <path d="M65.27,22 L66.92,22" stroke="#000000"></path>
                <path d="M54.34,19.68 C55.0076471,19.756337 55.6832975,19.7225545 56.34,19.58" stroke="#000000"></path>
                <path d="M44.33,25.35 C45.0046096,25.338252 45.6475415,25.0616835 46.12,24.58" stroke="#000000"></path>
                <path d="M56.18,54.33 C55.9936313,55.8166378 56.4730304,57.3097281 57.49,58.41" stroke="#000000"></path>
            </g>
        </g>
    </g>
</svg>