<?xml version="1.0" encoding="UTF-8"?>
<svg width="100px" height="90px" viewBox="0 0 100 90" version="1.1" xmlns="http://www.w3.org/2000/svg" xmlns:xlink="http://www.w3.org/1999/xlink">
    <!-- Generator: Sketch 43.2 (39069) - http://www.bohemiancoding.com/sketch -->
    <title>Y</title>
    <desc>Created with Sketch.</desc>
    <defs></defs>
    <g id="Symbols" stroke="none" stroke-width="1" fill="none" fill-rule="evenodd">
        <g id="Y" transform="translate(-18.000000, 0.000000)">
            <g transform="translate(18.000000, 0.000000)" id="Shape">
                <path d="M95.56,0.5 L2.3,0.5 C1.01,0.5 -0.25,1.24 1.05,3.98 C8.60333333,19.9266667 16.1333333,35.8833333 23.64,51.85 C24.437269,53.6825789 24.8033315,55.6736852 24.71,57.67 L24.71,82.16 C24.71,83.43 24.24,85.55 25.71,85.68 C29.66,86.06 33.79,86.42 37.61,85.63 C40.3,85.07 61.08,86.11 70.99,86.1 C74.45,86.1 75.14,84.84 75.07,81.74 C74.89,74.41 75.15,67.08 74.95,59.74 C74.8449997,55.9283399 75.6831573,52.1497604 77.39,48.74 C84.39,34.2 91.16,19.53 98.18,4.99 C99.75,1.73 99.84,0.49 95.56,0.5 Z" stroke="#000000"></path>
                <path d="M65.05,52.28 C65.7562711,50.2549329 65.9352273,48.0833681 65.57,45.97 C65.4175087,44.6943545 64.7579354,43.5337937 63.74,42.75 C62.74,42.12 61.16,42.19 59.97,42.08 C59.79,40.3 59.57,38.53 59.5,36.73 C59.44,35.42 59.66,34.09 59.64,32.73 C59.64,31.57 59.01,29.53 59.35,28.46 C59.620312,27.7320181 59.4790453,26.9149621 58.98,26.32 C59.36,24.15 59.71,21.82 58.98,20.08 C58.5792954,18.7726432 57.2281956,18.0049728 55.9,18.33 L55.67,18.39 C54.5937999,18.7018411 53.8472467,19.6796634 53.83,20.8 L53.83,21 C53.7763607,21.6314083 53.9988461,22.2550969 54.44,22.71 C54.62,25.16 53.55,28.82 53.44,30.83 C53.36,32.04 53.32,33.25 53.28,34.47 C52.9373804,34.4665637 52.5974841,34.531144 52.28,34.66 C50.3614822,35.4597968 49.1582197,37.3850169 49.28,39.46 C46.04,36.97 42.13,40.46 40.28,43.63 C40.1015784,43.5615494 39.9108847,43.5309022 39.72,43.54 C39.7370498,43.3133606 39.6957357,43.086133 39.6,42.88 C39.0644518,41.3840983 37.9963955,40.1380326 36.6,39.38 C35.3,36.99 33.8,34.04 30.7,34.19 C30.254924,34.1959494 29.8460112,34.4362883 29.6242881,34.8222506 C29.4025651,35.208213 29.400935,35.6825228 29.62,36.07 C29.77,36.27 29.92,36.45 30.08,36.63 C29.9876358,37.0261881 30.1133946,37.4415733 30.41,37.72 C34.22,41.6 35.54,47.08 38.68,51.43 C38.6478586,53.2040938 38.771668,54.9775808 39.05,56.73 C39.1142063,58.3056185 39.386569,59.8658195 39.86,61.37 C39.7575256,62.6997188 40.0021796,64.0332552 40.57,65.24 C41.29,67.06 41.33,69.03 41.96,70.88 C38.8863338,74.2774768 36.6259529,78.3297481 35.35,82.73 C35.35,82.81 34.08,85.83 34.07,85.9 C33.68,86.57 34,86.67 36.15,87.4 C39.91,88.67 49.15,91.09 51.07,86.81 C52.07,84.65 53.2,80.81 54.07,78.55 C54.43,77.64 54.81,76.77 55.17,75.9 C56.5026015,74.2533958 57.0928016,72.1279513 56.8,70.03 L56.8,69.97 L56.8,69.97 L56.8,69.65 C57.8698872,69.5026103 58.7979983,68.836466 59.28,67.87 C60.28,65.87 60.67,63.87 61.76,61.87 C62.9178047,60.7827107 63.8935525,59.5166019 64.65,58.12 C65.43,56.55 65.18,54.66 65.17,52.95 C65.159191,52.7224115 65.1188532,52.4971925 65.05,52.28 L65.05,52.28 Z" fill="#FAFD7B" fill-rule="nonzero"></path>
                <path d="M60.86,48.39 C58.3320154,48.3944771 56.0051999,47.0122105 54.8,44.79 C54.12,43.49 54.06,41.57 55.36,40.89 C57.05,40 58.8,42.09 60.69,42.38 C61.57,42.51 62.54,42.25 63.31,42.68 C63.8334487,43.0285363 64.2299052,43.5372638 64.44,44.13 C65.7,46.96 65.38,50.29 65.23,53.3 C65.2672848,54.6825146 65.207136,56.0659385 65.05,57.44 C64.71,59.13 63.44,60.29 62.42,61.6 C61.4205683,62.8912581 60.6246844,64.3278959 60.06,65.86 C59.7583649,67.0747293 59.1990569,68.2103973 58.42,69.19 C57.54,70.07 55.84,70.29 55.15,69.26" stroke="#000000"></path>
                <path d="M44.22,68.88 C44.486637,69.4164889 44.9977675,69.7895769 45.59,69.88 C46.78,70.1 48.91,70.33 49.73,69.88" stroke="#000000"></path>
                <path d="M54.05,52.41 C54.5225602,53.3484373 55.511767,53.9120093 56.56,53.84 C56.9422429,53.8695433 57.3265241,53.8219332 57.69,53.7 C58.694664,53.1911775 59.2351094,52.0734382 59.01,50.97 C58.6300278,49.6578658 58.0169141,48.4248637 57.2,47.33" stroke="#000000"></path>
                <path d="M51.49,87.06 C52.1903129,83.8542659 53.2503612,80.7378579 54.65,77.77 C55.86,75.48 57.77,72.84 57.11,69.95" stroke="#000000"></path>
                <path d="M60.42,52.45 C59.7420901,52.3317552 59.193064,51.8333485 59.01,51.17" stroke="#000000"></path>
                <path d="M54.72,41.45 C54.9510698,42.1866479 55.4010377,42.8354388 56.01,43.31 C56.5018654,43.6466706 57.0458069,43.9000595 57.62,44.06 C58.0866451,44.2301146 58.6090129,44.1302502 58.98,43.8 C59.4447155,43.2350097 59.5236339,42.4458252 59.18,41.8" stroke="#000000"></path>
                <path d="M49.19,39.13 C48.8479766,37.1984525 50.1152911,35.348618 52.04,34.97 C52.4173122,34.8739147 52.8126878,34.8739147 53.19,34.97 C53.7942004,35.2038575 54.2968757,35.6428134 54.61,36.21 C55.4413363,37.5236893 55.9549313,39.013115 56.11,40.56" stroke="#000000"></path>
                <path d="M42.75,46.65 C43.3661323,46.8082742 44.0208302,46.671549 44.5221213,46.2799153 C45.0234124,45.8882816 45.3144887,45.2861207 45.31,44.65 C45.08,45.17 45.67,45.65 46.17,45.95 L48.52,47.25 C48.2683459,48.0549569 48.117199,48.8879444 48.07,49.73 C48.07,51.48 50.93,56.37 53.01,54.55 C54.01,53.65 54.14,50.35 54.12,49.05 C54.12,46.26 52.45,44.13 51.21,41.75 C50.31,40.03 48.8,38.35 46.87,38.34 C44.94,38.33 43.52,40.07 42.11,41.44 C41.4632586,42.147086 40.9088326,42.9333629 40.46,43.78" stroke="#000000"></path>
                <path d="M53.32,34.91 C52.62,30.8 54.32,26.65 54.17,22.48 C54.17,21.06 53.99,19.33 55.17,18.48 C56.2094831,17.9095365 57.5091985,18.1762534 58.24,19.11 C58.9360913,20.0351802 59.2895321,21.1732598 59.24,22.33 C59.24,23.47 59.06,24.62 59.14,25.76 C59.26,27.43 59.44,29.09 59.51,30.76 C59.57,32.23 59.06,33.69 59.39,35.1 C59.8599555,37.0935942 60.015165,39.1484328 59.85,41.19 C59.85,40.98 59.85,41.89 59.85,41.69" stroke="#000000"></path>
                <path d="M42.11,49.2 C42.7645195,48.7007581 43.0462915,47.8514736 42.82,47.06 C42.3750736,45.2908723 41.0715432,43.863375 39.35,43.26 C39.47,41.84 36.72,38.81 35.95,38.74 C35.88,36.81 33.66,34.38 31.81,33.97 C30.52,33.68 28.91,34.69 29.13,35.97 C29.2676581,36.4869784 29.5323453,36.961353 29.9,37.35 C32.842649,41.3523274 35.3690761,45.6445729 37.44,50.16 C37.8238651,50.8608728 38.1290529,51.6020433 38.35,52.37 C38.5214782,53.253064 38.6085372,54.1504419 38.61,55.05 C38.84,59.33 40.25,63.44 41.2,67.62 C41.5315522,68.712264 41.5933167,69.8686332 41.38,70.99 C41.0971711,71.8293828 40.6782498,72.6165494 40.14,73.32 C37.430899,77.5477328 35.2195573,82.0744398 33.55,86.81" stroke="#000000"></path>
                <path d="M56.71,26.05 C57.6165635,26.1465241 58.5087727,25.7684694 59.07,25.05" stroke="#000000"></path>
                <path d="M57.31,33.08 C58.0259469,33.2182967 58.765442,33.0149355 59.31,32.53" stroke="#000000"></path>
                <path d="M50.71,54.42 C50.2303219,53.0926707 50.3850839,51.6187469 51.13,50.42 C51.74,49.63 53.13,49.28 53.98,51.79" stroke="#000000"></path>
                <path d="M55.85,53.75 C55.47,52.63 54.65,50.29 56.08,49.38 C57.25,48.63 58.81,50.08 59.02,51.38" stroke="#000000"></path>
                <path d="M34.99,39.81 C35.3398935,39.6922608 35.6257126,39.4353854 35.78,39.1" stroke="#000000"></path>
                <path d="M38.42,44.17 L39.19,43.61" stroke="#000000"></path>
                <path d="M53.53,53.75 C53.05,56.05 52.53,58.68 53.71,60.75 C53.8940995,61.1306874 54.1525043,61.4706937 54.47,61.75" stroke="#000000"></path>
            </g>
        </g>
    </g>
</svg>