<?xml version="1.0" encoding="UTF-8"?>
<svg width="95px" height="89px" viewBox="0 0 95 89" version="1.1" xmlns="http://www.w3.org/2000/svg" xmlns:xlink="http://www.w3.org/1999/xlink">
    <!-- Generator: Sketch 43.2 (39069) - http://www.bohemiancoding.com/sketch -->
    <title>Z</title>
    <desc>Created with Sketch.</desc>
    <defs></defs>
    <g id="Symbols" stroke="none" stroke-width="1" fill="none" fill-rule="evenodd">
        <g id="Z" transform="translate(-21.000000, 0.000000)">
            <g transform="translate(21.000000, 0.000000)" id="Shape">
                <path d="M2.9,85.56 C2.75,83.61 3.99,82.35 4.76,80.94 C11.5933333,68.3533333 18.45,55.78 25.33,43.22 C28.05,38.22 28.03,38.22 22.56,38.22 C17.89,38.22 13.22,38.1 8.56,38.22 C5.86,38.31 4.69,37.58 4.74,34.63 C4.88666667,24.47 4.88666667,14.3066667 4.74,4.14 C4.74,1.14 5.92,0.52 8.59,0.52 C35.9233333,0.586666667 63.2566667,0.586666667 90.59,0.52 C93.8,0.52 94.33,1.3 92.74,4.15 C85.74,16.65 78.91,29.23 72.03,41.79 C71.25,43.22 70.53,44.69 69.3,47.08 C75.73,47.08 81.45,47.28 87.14,47.01 C90.73,46.84 91.68,48.2 91.61,51.59 C91.43,60.92 91.61,70.25 91.48,79.59 C91.48,81.7 92.94,85.04 90.08,85.71 C87.03,86.39 19.87,85.56 2.9,85.56 Z" stroke="#000000"></path>
                <path d="M47.07,38.55 C46.9287957,38.4805829 46.776469,38.4365774 46.62,38.42 C43.73,38.1 40.78,38.64 37.9,38.91 C36.27,39.06 34.61,39.04 32.97,39.12 C32.6022751,38.3235421 31.9043638,37.7279424 31.06,37.49 C29.37,36.92 27.26,37.78 25.83,38.6 C25.2706129,38.9123395 24.6809126,39.1669828 24.07,39.36 C22.2813165,39.2773973 20.5178352,39.8064417 19.07,40.86 C18.7376835,41.0971879 18.4696265,41.4133576 18.29,41.78 C17.7902308,42.0453542 17.3061015,42.3391706 16.84,42.66 L16.7,42.73 L16.7,42.73 L16.52,42.86 C16.1855323,42.8493132 15.8507903,42.8693977 15.52,42.92 C14.4262181,43.1134528 13.4409796,43.7003277 12.75,44.57 C12.0371381,45.5173154 11.8318041,46.7530527 12.2,47.88 C12.1039587,48.1101548 12.0400264,48.3524246 12.01,48.6 C11.7008825,50.2124591 11.6637026,51.8652718 11.9,53.49 C11.86942,54.0343819 11.7992344,54.575814 11.69,55.11 C11.26,57.17 10.32,59.11 9.69,61.11 C9.59441701,61.4344688 9.57389934,61.7764301 9.63,62.11 L9.63,62.19 C9.5333736,62.921614 9.57749887,63.6649552 9.76,64.38 C9.79578306,64.6005626 9.85963463,64.8156416 9.95,65.02 L9.95,65.23 C9.9788709,65.8312129 10.2280478,66.4007602 10.65,66.83 C10.73,67.31 10.81,67.83 10.92,68.26 C10.9926978,68.5718881 11.1364314,68.8627775 11.34,69.11 C10.43,70.11 9.5,71.11 8.55,72.11 C7.99,72.69 6.55,74.69 5.7,75.36 C5.15387934,75.4312225 4.65794419,75.7151274 4.32,76.15 L4.26,76.22 C4.00363246,76.5313139 3.82229248,76.8974153 3.73,77.29 L3.67,77.29 L3.67,77.66 C2.67,78.53 0.05,84.9 1.25,86.08 C3.14,87.93 5.41,86.08 7.6,87.57 C9.33,88.72 13.34,88.22 15.33,87.1 C17.32,85.98 19.21,83.1 20.65,81.2 C21.6715519,79.8778392 22.5813552,78.4729959 23.37,77 C23.5,76.74 23.63,76.45 23.75,76.14 C24.48,75.14 25.15,74.21 25.75,73.3 C25.8621765,73.2387795 25.9691951,73.1685486 26.07,73.09 C28.5104418,70.9125003 30.8022414,68.5739293 32.93,66.09 C33.2601029,65.7194434 33.4845933,65.2670089 33.58,64.78 C36.7,61.86 39.5,58.11 39.78,54.05 C39.7995668,53.8738751 39.7995668,53.6961249 39.78,53.52 L40.19,51.94 C40.3863767,51.2221496 40.2386196,50.4538126 39.79,49.86 C39.9453178,49.4587498 40.016787,49.0299343 40,48.6 C39.9835857,47.8565342 39.6409146,47.1579399 39.0630534,46.6898724 C38.4851922,46.2218048 37.7306681,46.031671 37,46.17 C36.7961241,46.0858996 36.5800131,46.0352486 36.36,46.02 C36.6439578,45.8682822 36.837503,45.5891306 36.88,45.27 C36.82,45.55 39.08,44.8 39.22,44.77 C40.5616516,44.4673775 41.9460707,44.4030646 43.31,44.58 C44.4674194,44.6486715 45.6284183,44.5339216 46.75,44.24 C49.1,43.71 52.75,43.67 54.28,41.39 C56.99,37.28 50.98,37.9 47.07,38.55 Z" fill="#FAFD7B" fill-rule="nonzero"></path>
                <path d="M35.25,51.02 C33.6979887,51.1991401 32.1427535,50.7122207 30.97,49.68 C29.34,48.23 29.11,46.45 28.9,44.41 C28.8785005,44.1562368 28.9232971,43.9012412 29.03,43.67 C29.1767074,43.3890878 29.4403927,43.1876614 29.75,43.12 C33.12,42.03 34.25,45.55 37.25,46.06 C37.7473805,46.1099952 38.2373053,46.217376 38.71,46.38 C40.77,47.26 39.57,49.31 39.97,50.89 C40.83,54.28 39.28,57.62 37.53,60.65 C36.6408936,62.0645227 35.6015262,63.3788195 34.43,64.57 L28.77,70.74 C28.1200918,71.5607662 27.3104297,72.2411544 26.39,72.74 C25.4423047,73.2274275 24.2944831,73.0972622 23.48,72.41" stroke="#000000"></path>
                <path d="M32.37,38.88 C37.57,38.52 42.16,37.98 47.37,38.27 C48.92,38.36 50.45,37.56 52.09,37.65 C53.4,37.73 54.98,38 55.09,39.4 C55.2,40.8 53.78,42.48 52.68,43.01 C51.14,43.76 49.1,43.23 47.37,43.82 C46.9,43.98 46.44,44.18 45.96,44.3 C45.2578245,44.4552207 44.5385389,44.5190825 43.82,44.49 C42.8266667,44.49 41.8266667,44.4366667 40.82,44.33 C40.4893869,44.2697753 40.1506131,44.2697753 39.82,44.33 C39.5164498,44.4367358 39.2275188,44.5812014 38.96,44.76 C38.28,45.14 36.53,45.58 36.76,45.62" stroke="#000000"></path>
                <path d="M25.11,39.09 C26.4055622,37.7008363 28.2824141,37.0072172 30.17,37.22 C31.2513106,37.2431556 32.182303,37.98959 32.44,39.04 C32.8442574,40.2816576 32.8651655,41.6162888 32.5,42.87" stroke="#000000"></path>
                <path d="M15.83,48.52 C16.643263,47.9176599 17.506387,47.3857346 18.41,46.93 C18.8,48.4 17.06,49.25 16.7,50.54 C16.3784072,51.7788861 16.4200643,53.0841414 16.82,54.3 C18.69,57.54 22.58,51.37 23.23,50.03 C23.88,48.69 23.18,47.43 23.12,46.03 C23.12,44.86 23.35,43.03 22.26,42.17 C20.75,41.03 16.42,42.57 14.65,42.83 C12.65,43.12 12.13,44.41 11.83,46.42 C11.39,49.42 12.01,52.42 11.29,55.35 C10.96,56.69 10.34,57.94 9.96,59.27 C9.14999577,62.1543189 9.46449313,65.2385374 10.84,67.9 C10.9911203,68.1245486 11.071254,68.3893381 11.07,68.66 C11.0122965,68.9050806 10.8835945,69.1277002 10.7,69.3 L3.12,78.03" stroke="#000000"></path>
                <path d="M15.73,87.08 C15.8605509,86.5703713 16.1186508,86.1023502 16.48,85.72 L26.56,73" stroke="#000000"></path>
                <path d="M15.98,42.62 C17.9709205,41.3799581 20.0497887,40.2870483 22.2,39.35 C23.0793903,38.901238 24.1206097,38.901238 25,39.35 C25.4356863,39.7387143 25.7484709,40.2461203 25.9,40.81 C27.4986248,45.3072249 27.7454458,50.1741186 26.61,54.81 C26.5386747,55.2790544 26.3258566,55.7151569 26,56.06 C25.3442729,56.4779633 24.5057271,56.4779633 23.85,56.06 C22.52,55.37 21.96,52.35 22.65,51.06" stroke="#000000"></path>
                <path d="M34.6,51.05 C32.87,51.45 31.79,54.18 31.97,55.77 C32.0217629,56.2268098 32.112085,56.6784206 32.24,57.12" stroke="#000000"></path>
                <path d="M47.24,42.21 C47.0878487,42.8049381 47.3940671,43.4216278 47.96,43.66" stroke="#000000"></path>
                <path d="M27.46,54.66 C27.46,55.1 29.73,57.05 31.2,56.09 C32.37,55.57 32.2,52.79 32.12,50.88" stroke="#000000"></path>
                <path d="M24.16,65.35 C23.6678371,63.7089763 23.7311104,61.9513859 24.34,60.35 C24.9940794,59.0321302 25.7461938,57.7652352 26.59,56.56 C26.96,55.99 27.13,55.93 27.48,55.35" stroke="#000000"></path>
                <path d="M16.71,54.07 C17.0206067,53.2546111 17.6278153,52.5866816 18.41,52.2 C19.03,51.85 19.68,51.67 20.11,52.31 C20.4553337,52.9319459 20.4553337,53.6880541 20.11,54.31" stroke="#000000"></path>
                <path d="M23.31,55.67 C23.2,53.8 23.93,52.13 24.68,51.67 C25.1354591,51.4237927 25.6819014,51.4131938 26.1465652,51.6415543 C26.611229,51.8699147 26.9366709,52.3090037 27.02,52.82" stroke="#000000"></path>
                <path d="M28.61,55.79 C28.04,53.79 28.47,52.11 29.33,51.66 C30.19,51.21 31.84,50.78 32.05,54.27" stroke="#000000"></path>
                <path d="M29.41,43.67 C29.8586997,44.3461409 30.3931527,44.9612661 31,45.5 C31.424204,45.8115015 31.8927556,46.0575754 32.39,46.23 C32.8849499,46.3845185 33.4225835,46.3168238 33.8637802,46.0444327 C34.3049769,45.7720417 34.6063811,45.3217219 34.69,44.81" stroke="#000000"></path>
                <path d="M48.83,38.61 C48.7697299,38.6631533 48.7352026,38.7396398 48.7352026,38.82 C48.7352026,38.9003602 48.7697299,38.9768467 48.83,39.03 C48.9605,39.1515316 49.1133179,39.2466182 49.28,39.31 C50.03,39.56 53.43,39.6 53.95,38.91" stroke="#000000"></path>
                <path d="M36,32.52 C43.46,32.3533333 50.9233333,32.3533333 58.39,32.52" stroke="#000000"></path>
                <path d="M59.63,30.24 C59.6886976,31.7704539 59.6586472,33.3030234 59.54,34.83 L63.69,32.29 C63.7533866,32.2587312 63.8031718,32.2053899 63.83,32.14 C63.8417253,31.9869714 63.7464026,31.8460597 63.6,31.8 C62.3066667,31.1333333 60.9966667,30.53 59.67,29.99" stroke="#000000"></path>
                <path d="M27.06,52.6 C26.9981978,53.4180433 27.1606963,54.2374503 27.53,54.97" stroke="#000000"></path>
            </g>
        </g>
    </g>
</svg>