<?xml version="1.0" encoding="UTF-8"?>
<svg width="122px" height="92px" viewBox="0 0 122 92" version="1.1" xmlns="http://www.w3.org/2000/svg" xmlns:xlink="http://www.w3.org/1999/xlink">
    <!-- Generator: Sketch 43.2 (39069) - http://www.bohemiancoding.com/sketch -->
    <title>Æ</title>
    <desc>Created with Sketch.</desc>
    <defs></defs>
    <g id="Symbols" stroke="none" stroke-width="1" fill="none" fill-rule="evenodd">
        <g id="Æ" transform="translate(-7.000000, 1.000000)">
            <g transform="translate(8.000000, 0.000000)" id="Shape">
                <path d="M90.47,86.11 L53.28,86.11 L27.23,86.11 L0.68,86.11" stroke="#000000" fill-rule="nonzero"></path>
                <path d="M119.88,55.51 C119.93,52.51 118.64,52.02 116.02,51.96 C105.83,51.75 105.83,51.66 105.83,41.38 L105.83,40.88 C105.6,37.09 107.35,32.39 105.07,29.75 C102.79,27.11 98.16,29.08 94.56,28.88 C92.56,28.77 90.9,28.81 90.94,26.08 C90.98,23.35 92.94,23.49 94.75,23.49 C101.08,23.49 107.41,23.4 113.75,23.49 C116.52,23.54 117.62,22.58 117.52,19.72 C117.35,14.72 117.3,9.72 117.52,4.72 C117.68,1.36 116.38,0.46 113.19,0.48 C90.71,0.58 68.19,0.61 45.74,0.48 C43.28,0.48 42.15,1.07 41.68,2.48 C26.44,33.03 15.47,55.05 0.63,84.48 C0.444153181,84.8096102 0.444363835,85.2124444 0.630555277,85.5418601 C0.816746719,85.8712757 1.16175968,86.0792217 1.54,86.09 L26.21,86.09 L52.26,86.09 L69.78,86.09 C77.62,86.09 88.3,86.15 90.58,86.09 C99.07,85.87 107.58,85.93 116.06,86.09 C118.76,86.09 119.92,85.45 119.87,82.5 C119.716667,73.5 119.72,64.5033333 119.88,55.51 Z" stroke="#000000"></path>
                <path d="M77.64,54.71 C77.4623391,54.1765436 77.1100374,53.7185514 76.64,53.41 C76.6459903,53.05235 76.6022383,52.6956031 76.51,52.35 C76.46,51.41 76.4,50.46 76.37,49.52 C76.368096,49.3034195 76.2496144,49.1046762 76.06,49 C76.1185081,48.6732267 75.932517,48.3519693 75.62,48.24 C74.3997787,47.9489137 73.1438288,48.5601427 72.62,49.7 C71.78,51.26 72.03,53.47 72.49,55.1 C72.5277964,55.2244464 72.6050062,55.3332421 72.71,55.41 C72.730031,55.6143471 72.7736548,55.8156877 72.84,56.01 C73.07,56.67 73.92,57.01 73.56,57.71 C73.0653122,58.2483881 72.5194062,58.7373591 71.93,59.17 C71.0959086,59.9726879 70.4857959,60.9792015 70.16,62.09 C70.0259099,61.9971164 69.8855773,61.9135851 69.74,61.84 C69.1289784,61.5054904 68.4349946,61.3528139 67.74,61.4 C67.5339956,61.4076931 67.3294485,61.4378722 67.13,61.49 L67.41,60.49 C68.4527061,58.5956641 69.0318506,56.4812729 69.1,54.32 L69.38,53.32 C69.4695321,52.9946266 69.4933288,52.6546737 69.45,52.32 C70.45,50.2 71.6,48.09 72.58,46.03 C74.02,43.03 76.11,40.85 77.4,38.03 C78.69,35.21 75.52,33.32 73.1,35.48 C70.84,37.48 69.91,41.1 68.37,43.75 L67.65,45.02 C66.8715882,45.3243636 66.2947283,45.9948696 66.11,46.81 C65.8724687,47.1744518 65.7093406,47.5822719 65.63,48.01 C65.5825495,48.2974087 65.5657886,48.5890475 65.58,48.88 L65.37,49.31 C64.8690944,48.9108033 64.2397252,48.7081251 63.6,48.74 C63.769671,48.4302133 63.878303,48.0907384 63.92,47.74 C64.1342919,46.0509786 64.0701066,44.3382451 63.73,42.67 C63.5964342,41.9192276 63.5964342,41.1507724 63.73,40.4 C64.0763399,40.069073 64.3459919,39.6663017 64.52,39.22 C65.0856399,37.9311864 65.401237,36.5466311 65.45,35.14 C66.0605129,34.2639907 66.8306125,33.5108537 67.72,32.92 C70.41,31.16 67.94,26.81 65.24,28.58 C63.1229168,29.899149 61.3967266,31.7599821 60.24,33.97 C60.1174257,34.2122257 60.0330935,34.4719689 59.99,34.74 C59.8525751,34.9662159 59.7513534,35.2125219 59.69,35.47 C59.0429621,37.5128155 58.6335928,39.6234161 58.47,41.76 L58.47,41.96 C58.445563,42.0455826 58.4255367,42.1323635 58.41,42.22 C58.0159097,44.1261433 58.0914136,46.0995417 58.63,47.97 C58.3451135,48.1305527 58.0883938,48.336604 57.87,48.58 C57.7978922,48.6658393 57.7311009,48.7560075 57.67,48.85 L57.6,48.85 C57.0966636,48.7334078 56.5733364,48.7334078 56.07,48.85 C56.1341311,47.9745062 56.1341311,47.0954938 56.07,46.22 C55.9334316,44.8966761 55.5962368,43.6018478 55.07,42.38 C54.822016,41.8440311 54.349838,41.445059 53.78,41.29 C53.78,41.2 53.78,41.11 53.72,41.02 C54.7464017,40.2139307 55.4861924,39.0989855 55.83,37.84 C56.0084358,37.3353074 56.0084358,36.7846926 55.83,36.28 L55.96,36.17 C57.34,35.17 58.57,35.12 59.41,33.55 C61.21,30.2 58.36,28.75 55.41,31.02 C56.06,30.53 54.28,31.36 53.92,31.56 C51.2312457,33.0099482 49.4615271,35.7247719 49.22,38.77 C49.2049495,38.9430066 49.2049495,39.1169934 49.22,39.29 C46.56,39.83 44.22,42.58 42.89,44.96 C42.2060812,45.6049302 41.9133522,46.5629523 42.12,47.48 C42.1576669,47.7011959 42.2145489,47.9186862 42.29,48.13 C42.3249205,48.4954061 42.4266047,48.851301 42.59,49.18 C42.79,49.6 43.02,50.01 43.26,50.41 C43.2896944,50.7579614 43.3846847,51.0972125 43.54,51.41 C43.6928703,51.7233923 43.8700802,52.0243146 44.07,52.31 C44.76,53.5 45.39,54.73 45.99,55.97 C46.09,60.05 45.51,64.05 45.51,68.12 C45.51,70.54 46.24,72.89 47.96,74.2 C47.8521738,74.4645635 47.7880061,74.7448752 47.77,75.03 C47.7303234,77.0842145 47.495941,79.1300383 47.07,81.14 C46.68,82.8 44.73,86.73 46.47,87.49 C51.02,89.49 55.02,90.49 58.47,90.42 C59.5925941,90.4092955 60.5738751,89.6601017 60.88,88.58 C61.1311518,86.730476 61.5053146,84.8997508 62,83.1 C62.63,81.17 63.6,79.33 64.41,77.47 C64.5448388,77.1532343 64.6194465,76.8141084 64.63,76.47 C66.2392976,75.397731 67.7162104,74.1389985 69.03,72.72 C69.3511177,72.4248881 69.5861352,72.0481687 69.71,71.63 C70.8166231,70.8972836 71.8423664,70.0492017 72.77,69.1 C73.0598513,68.7929327 73.2753812,68.4234529 73.4,68.02 C73.5631015,67.8795702 73.7106174,67.7219964 73.84,67.55 C74.5148545,66.7641199 74.9549593,65.8042063 75.11,64.78 C75.39,64.11 75.66,63.43 75.91,62.78 C75.9848973,62.5639644 76.0286694,62.3383695 76.04,62.11 C76.8230959,61.5441681 77.4605925,60.800422 77.9,59.94 C78.4611883,58.2242462 78.3685919,56.3616347 77.64,54.71 L77.64,54.71 Z M49.74,51.26 C49.6337719,50.8938511 49.4533673,50.5534651 49.21,50.26 C48.6598611,49.5960106 48.152185,48.8979559 47.69,48.17 C47.6390824,47.9702808 47.5687474,47.7760222 47.48,47.59 C47.6628085,47.3414012 47.8171095,47.0730517 47.94,46.79 C48.0740675,46.4720079 48.1551409,46.1342021 48.18,45.79 C48.82,44.79 49.55,44.06 50.1,44.31 C50.0238058,44.8227837 50.1076147,45.346589 50.34,45.81 C50.6929807,46.7684367 50.7928626,47.8016985 50.63,48.81 C50.666287,49.7070019 50.3504789,50.5826514 49.75,51.25 L49.74,51.26 Z" fill="#FAFD7B" fill-rule="nonzero"></path>
                <path d="M60.62,76.3 C61.62,76.21 62.49,76.87 63.47,76.92 C64.77,76.99 65.85,76.01 66.77,75.1 L72.92,69.03 C73.6196573,68.4030304 74.2258228,67.6789994 74.72,66.88 C75.43,65.6 75.54,64.06 76.18,62.75 C76.82,61.44 78.18,60.21 78.5,58.67 C79.06,56.04 76.58,53.67 76.43,51 C76.38,50.09 76.57,49 75.96,48.36 C75.2,47.5 73.67,47.91 73.02,48.85 C72.4705405,49.8647393 72.2437778,51.0229736 72.37,52.17 C72.2413235,53.6985524 72.5721286,55.2307023 73.32,56.57 C73.5595185,56.7904007 73.6559743,57.1260669 73.57,57.44 C73.4844445,57.553853 73.3707117,57.6434607 73.24,57.7 C71.7167372,58.5937437 70.7130925,60.1624033 70.54,61.92 C70.5770395,62.3521591 70.7139723,62.7698042 70.94,63.14" stroke="#000000"></path>
                <path d="M45.88,44.25 C46.8808664,44.9189923 48.1737049,44.9654416 49.22,44.37 C50.2397865,43.7749115 51.0316614,42.8563366 51.47,41.76 C51.6372343,41.4254071 51.7163944,41.053699 51.7,40.68 C51.5426903,39.9264328 50.8986307,39.3726236 50.13,39.33 C49.3767717,39.3038534 48.6314813,39.4910426 47.98,39.87 C46.2373471,40.7356144 44.6865963,41.9428876 43.42,43.42 C42.7760949,44.115373 42.2885042,44.9405265 41.99,45.84 C41.42,47.84 42.32,49.91 43.39,51.67 C44.46,53.43 45.73,55.18 45.99,57.22 C46.0812826,58.0708922 46.0812826,58.9291078 45.99,59.78 L45.56,64.67 C45.3,67.67 45.12,71.03 46.96,73.44 C47.7135696,74.5810594 49.0555285,75.1878582 50.41,75" stroke="#000000"></path>
                <path d="M68,50.26 C67.0237029,50.2696936 66.1089758,49.7840977 65.57,48.97 C64.89,47.6 66.14,45.87 67.02,44.9 C68.0157776,43.8087003 68.8325495,42.566667 69.44,41.22 C70.0199656,39.7441128 70.7469605,38.3303255 71.61,37 C72.43,35.89 74.15,34.48 75.61,34.47 C79.05,34.47 76.68,39.09 75.61,40.35 C74.7298038,41.4608276 74.0032697,42.685172 73.45,43.99 L71.37,48.36 C70.0919011,50.8188282 69.2686726,53.4883919 68.94,56.24 C68.7086629,58.3932754 67.9979299,60.4673857 66.86,62.31" stroke="#000000"></path>
                <path d="M48.7,44.9 C48.596417,45.7512315 48.3707669,46.5831058 48.03,47.37 C47.6823448,48.1647854 47.0076692,48.77017 46.18,49.03" stroke="#000000"></path>
                <path d="M50,43.93 C49.77,44.44 50.22,46.21 50.23,46.77 C50.23,47.04 50.58,50.27 49.79,51.15 C49.2036205,51.746214 48.5290769,52.2487489 47.79,52.64" stroke="#000000"></path>
                <path d="M61.12,48.97 C62.7307603,48.7204617 64.3784629,48.8821361 65.91,49.44" stroke="#000000"></path>
                <path d="M53.78,50 C54.6176128,49.0318646 55.8399259,48.4829216 57.12,48.5 C57.4240046,48.5497291 57.7359443,48.5006599 58.01,48.36 C58.2631043,48.092248 58.3840301,47.7258063 58.34,47.36 C58.34,43.73 58.13,40.03 59.07,36.52 C60.01,33.01 62.33,29.63 65.78,28.52 C66.6490878,28.1197504 67.668047,28.2312591 68.43,28.81 C68.9084215,29.3595055 69.0501685,30.1257053 68.8,30.81 C68.5760427,31.4736954 68.2375985,32.0930484 67.8,32.64 C67.2008086,33.6214354 66.338059,34.4148879 65.31,34.93 C65.6074185,36.340194 65.334155,37.810783 64.55,39.02 C64.2542188,39.3857811 64.0210638,39.7980263 63.86,40.24 C63.7837329,40.7196886 63.807566,41.2099704 63.93,41.68 C64.4743063,44.0212025 64.4537399,46.4583169 63.87,48.79" stroke="#000000"></path>
                <path d="M47.33,48.46 C48.5555902,48.6307675 49.4778205,49.6629885 49.51,50.9" stroke="#000000"></path>
                <path d="M49.11,39.26 C49.72,36.74 50.44,34.05 52.42,32.37 C53.5366512,31.5290016 54.7876757,30.8832024 56.12,30.46 C56.8465633,30.0364973 57.6798946,29.8316367 58.52,29.87 C58.7569754,29.927411 58.9809257,30.0292066 59.18,30.17 C59.3692669,30.3369586 59.5049528,30.5561435 59.57,30.8 C59.7452093,31.7179241 59.6971937,32.6645166 59.43,33.56 C58.9887609,34.658069 58.0903853,35.5089695 56.97,35.89 C55.56,36.42 56.1,36.89 55.97,38.22 C55.9065757,38.7612954 55.736644,39.2846851 55.47,39.76 C55.29,40.09 54.3,40.9 54.27,41.14 C54.21,41.66 54.8,41.9 55.04,42.25 C55.4240358,42.8053337 55.6957994,43.4303901 55.84,44.09 C55.9853602,44.7955566 56.078943,45.5107963 56.12,46.23 L56.28,48.16" stroke="#000000"></path>
                <path d="M47.47,74.05 C47.5746095,75.0229836 47.6180283,76.0015752 47.6,76.98 C47.5415853,77.7102422 47.4313071,78.435405 47.27,79.15 C46.87,81.15 46.21,84.86 45.8,86.86" stroke="#000000"></path>
                <path d="M53.47,36.34 C54.2297048,36.7896119 55.1512341,36.8740548 55.98,36.57" stroke="#000000"></path>
                <path d="M53.19,41.17 C53.6054853,41.2237295 54.027735,41.1614304 54.41,40.99" stroke="#000000"></path>
                <path d="M61.81,40.33 C62.3948103,40.6103195 63.0751897,40.6103195 63.66,40.33" stroke="#000000"></path>
                <path d="M63.66,34 C63.9954408,34.5621641 64.6165929,34.8901015 65.27,34.85" stroke="#000000"></path>
                <path d="M72.97,40.01 C73.6047538,40.5970029 74.481496,40.8459085 75.33,40.68" stroke="#000000"></path>
                <path d="M70.83,44.48 C71.458845,44.8998133 72.2319707,45.0443228 72.97,44.88" stroke="#000000"></path>
                <path d="M66.47,63.03 C66.7350701,62.3984509 67.1847011,61.8616821 67.76,61.49 C68.3537524,61.1296612 69.0919386,61.1031622 69.71,61.42 C70.1803947,61.7643342 70.5470864,62.2313472 70.77,62.77 L70.97,63.15" stroke="#000000"></path>
                <path d="M51.07,58.89 C52.7977522,57.7937912 54.6876603,56.9770809 56.67,56.47 C57.4914723,56.1793812 58.3438028,55.9847546 59.21,55.89 C60.36,55.81 61.51,56.08 62.66,56.08 C63.8233255,56.1627425 64.9504085,55.6555552 65.66,54.73" stroke="#000000"></path>
                <path d="M56.08,70.71 C56.47,68.41 56.95,65.95 58.59,64.29 C59.0099514,63.8798152 59.468775,63.5114167 59.96,63.19 C61.2378285,62.3276239 62.6018219,61.6003841 64.03,61.02" stroke="#000000"></path>
                <path d="M47.06,40.33 C47.0236123,40.6268414 47.1096561,40.9257031 47.2983143,41.1577526 C47.4869724,41.3898022 47.7619806,41.5350344 48.06,41.56 C48.499228,41.4527974 48.9276913,41.3055132 49.34,41.12 C49.7037517,41.0239552 50.010925,40.780478 50.1874759,40.4482586 C50.3640267,40.1160393 50.3939382,39.7252171 50.27,39.37" stroke="#000000"></path>
                <path d="M64.71,76.67 C64.05,78.31 63.08,80.67 62.42,82.34 C61.3991304,84.5268925 60.9255167,86.9292808 61.04,89.34" stroke="#000000"></path>
            </g>
        </g>
    </g>
</svg>