<?xml version="1.0" encoding="UTF-8"?>
<svg width="60px" height="28px" viewBox="0 0 60 28" version="1.1" xmlns="http://www.w3.org/2000/svg" xmlns:xlink="http://www.w3.org/1999/xlink">
    <!-- Generator: Sketch 43.2 (39069) - http://www.bohemiancoding.com/sketch -->
    <title>Combined Shape Copy 2</title>
    <desc>Created with Sketch.</desc>
    <defs></defs>
    <g id="Symbols" stroke="none" stroke-width="1" fill="none" fill-rule="evenodd">
        <g id="Loop" transform="translate(-21.000000, -6.000000)" stroke="#000000" stroke-width="2">
            <g id="loop-icon" transform="translate(3.000000, 7.000000)">
                <path d="M40.29517,20.7847672 L40.2580363,20.7476335 L39.5509295,21.4547403 L39.469614,21.5360558 C34.7950291,26.2106407 27.2144361,26.2080467 22.5353971,21.5290078 C17.857354,16.8509647 17.8546647,9.26847521 22.5283491,4.59479086 L22.6909801,4.43215979 C27.365565,-0.242425084 34.946158,-0.239831143 39.625197,4.43920784 C39.6423586,4.45639214 39.6423586,4.45639214 39.6594635,4.47361026 L47.3459259,12.1599368 L48.0530327,12.86703 L48.7601327,12.15993 L55.70483,5.21523277 L55.7419637,5.25236651 L56.4490705,4.54525973 L56.530386,4.4639442 C61.2049709,-0.210640681 68.7855639,-0.208046741 73.4646029,4.47099225 C78.142646,9.14903534 78.1453353,16.7315248 73.4716509,21.4052091 L73.3090199,21.5678402 C68.634435,26.2424251 61.053842,26.2398311 56.374803,21.5607922 C56.3576414,21.5436079 56.3576414,21.5436079 56.3405365,21.5263897 L48.6540741,13.8400632 L47.9469673,13.13297 L47.2398673,13.84007 L40.29517,20.7847672 Z" id="Combined-Shape-Copy-2"></path>
            </g>
        </g>
    </g>
</svg>