<?xml version="1.0" encoding="UTF-8"?>
<svg width="29px" height="30px" viewBox="0 0 29 30" version="1.1" xmlns="http://www.w3.org/2000/svg" xmlns:xlink="http://www.w3.org/1999/xlink">
    <!-- Generator: Sketch 43.2 (39069) - http://www.bohemiancoding.com/sketch -->
    <title>Page 1</title>
    <desc>Created with Sketch.</desc>
    <defs>
        <polygon id="path-1" points="0 5.85649219 0 11.25 28.7590053 11.25 28.7590053 0.462984375 0 0.462984375"></polygon>
    </defs>
    <g id="design" stroke="none" stroke-width="1" fill="none" fill-rule="evenodd">
        <g id="modal" transform="translate(-829.000000, -754.000000)">
            <g id="Page-1" transform="translate(829.000000, 754.000000)">
                <g id="Group-3" transform="translate(0.000000, 18.443719)">
                    <mask id="mask-2" fill="white">
                        <use xlink:href="#path-1"></use>
                    </mask>
                    <g id="Clip-2"></g>
                    <path d="M0,0.462984375 L4.003125,0.462984375 L4.003125,7.23689062 L24.7485938,7.23689062 L24.7485938,0.490171875 L28.7432813,0.490171875 C28.7489063,0.594234375 28.7578125,0.687984375 28.7578125,0.782203125 C28.75875,3.55532812 28.7601563,6.32845312 28.7573438,9.10157812 C28.7564063,10.1853281 28.1625,10.9732969 27.1710938,11.2020469 C26.9854688,11.2447031 26.788125,11.2479844 26.5964063,11.2479844 C18.4504688,11.2503281 10.305,11.2503281 2.15953125,11.2498594 C1.00359375,11.2498594 0.2690625,10.6489219 0.043125,9.52439062 C0.03796875,9.49860937 0.015,9.47610937 0,9.45220312 L0,0.462984375" id="Fill-1" fill="#000000" mask="url(#mask-2)"></path>
                </g>
                <path d="M16.9928906,0 C17.2127344,0.1603125 17.2760156,0.3759375 17.2755469,0.64546875 C17.2685156,3.7471875 17.2708594,6.84890625 17.2708594,9.950625 L17.2708594,10.32375 L17.6074219,10.32375 C18.5158594,10.3246875 19.4242969,10.3167188 20.3322656,10.3359375 C20.4860156,10.3392188 20.7110156,10.4221875 20.7677344,10.5360937 C20.8235156,10.6467188 20.7499219,10.87875 20.6575781,10.99875 C18.8125781,13.3926563 16.9619531,15.7823438 15.0991406,18.1626563 C14.7175781,18.6496875 14.3219531,18.6276563 13.9277344,18.1523438 C12.0157031,15.8475 10.1022656,13.5445313 8.19820313,11.233125 C8.07914062,11.08875 8.03695313,10.880625 7.95914062,10.7020312 C8.15132812,10.640625 8.34257813,10.5304688 8.53570312,10.5267188 C9.44367187,10.5075 10.3525781,10.5182813 11.2605469,10.5182813 L11.5849219,10.5182813 C11.5910156,10.4020312 11.5989844,10.3171875 11.5989844,10.2323438 C11.5994531,7.014375 11.6036719,3.796875 11.5924219,0.57890625 C11.5910156,0.283125 11.6777344,0.10078125 11.9472656,0 L16.9928906,0 Z" id="Fill-4" fill="#000000"></path>
            </g>
        </g>
    </g>
</svg>