<?xml version="1.0" encoding="UTF-8"?>
<svg width="17px" height="30px" viewBox="0 0 17 30" version="1.1" xmlns="http://www.w3.org/2000/svg" xmlns:xlink="http://www.w3.org/1999/xlink">
    <!-- Generator: Sketch 43.2 (39069) - http://www.bohemiancoding.com/sketch -->
    <title>Fill 10</title>
    <desc>Created with Sketch.</desc>
    <defs></defs>
    <g id="design" stroke="none" stroke-width="1" fill="none" fill-rule="evenodd">
        <g id="modal" transform="translate(-714.000000, -754.000000)" fill="#000000">
            <path d="M729.995368,770.346333 C730.282693,770.348166 730.350973,770.260182 730.34914,769.982938 C730.337225,768.173753 730.343182,766.364568 730.342266,764.555382 C730.342266,764.4509 730.333559,764.346877 730.327143,764.206193 L724.255283,764.206193 C724.255283,763.241111 724.209916,762.311314 724.270405,761.388391 C724.313481,760.73263 724.808395,760.088326 725.708405,760.116279 C727.154654,760.162105 728.603193,760.124528 730.050358,760.132776 C730.278568,760.134151 730.348681,760.067704 730.347765,759.833537 C730.3386,757.9854 730.343182,756.136805 730.342266,754.288668 C730.342266,754.203433 730.330351,754.118656 730.323019,754.021506 C730.238242,754.014632 730.171795,754.004092 730.105807,754.004092 C728.540871,754.003634 726.975935,753.993553 725.411457,754.006842 C724.126514,754.01784 722.954301,754.40094 721.902609,755.146061 C720.038433,756.466747 718.96062,758.291513 718.630678,760.518626 C718.468456,761.612936 718.535819,762.741156 718.500534,763.853796 C718.496868,763.966985 718.500076,764.080631 718.500076,764.211234 L718.138972,764.211234 C716.867318,764.211234 715.596122,764.216275 714.324927,764.206651 C714.094425,764.205276 713.999108,764.25156 714.000483,764.509099 C714.011023,766.347612 714.01194,768.186584 714.000025,770.025097 C713.998192,770.2973 714.097175,770.346333 714.340049,770.3445 C715.601621,770.334419 716.863194,770.339918 718.124766,770.339918 L718.479454,770.339918 L718.479454,784 L724.237869,784 L724.237869,770.339459 L724.596682,770.339459 C726.396244,770.339459 728.195806,770.333502 729.995368,770.346333 Z" id="Fill-10"></path>
        </g>
    </g>
</svg>