<?xml version="1.0" encoding="UTF-8"?>
<svg width="30px" height="30px" viewBox="0 0 30 30" version="1.1" xmlns="http://www.w3.org/2000/svg" xmlns:xlink="http://www.w3.org/1999/xlink">
    <!-- Generator: Sketch 43.2 (39069) - http://www.bohemiancoding.com/sketch -->
    <title>Group 4</title>
    <desc>Created with Sketch.</desc>
    <defs></defs>
    <g id="design" stroke="none" stroke-width="1" fill="none" fill-rule="evenodd">
        <g id="modal" transform="translate(-645.000000, -754.000000)" fill="#000000">
            <g id="Group-4" transform="translate(645.000000, 754.000000)">
                <path d="M24.0894429,6.88982609 C24.0881571,6.1993913 23.5601571,5.66678261 22.8783,5.66808696 C22.1981571,5.66895652 21.6727286,6.20504348 21.6740143,6.89678261 C21.6753,7.58678261 22.2033,8.11982609 22.8851571,8.11852174 C23.5657286,8.11721739 24.0907286,7.58113043 24.0894429,6.88982609 Z" id="Fill-4"></path>
                <path d="M15.0020143,9.47486957 C17.9295857,9.47226087 20.3240143,11.8948696 20.3368714,14.8722609 C20.3501571,17.8505217 17.9184429,20.3148696 14.9857286,20.2953043 C12.0483,20.2757391 9.66244286,17.8431304 9.67144286,14.8766087 C9.68001429,11.9018261 12.0727286,9.47704348 15.0020143,9.47486957 M14.9951571,23.0031304 C19.4064429,23.0057391 23.0004429,19.3731304 23.0060143,14.9048696 C23.0120143,10.4266087 19.4360143,6.77617391 15.0341571,6.76704348 C10.6173,6.75791304 7.0143,10.3809565 7.0023,14.844 C6.98987143,19.3444348 10.5710143,23.000087 14.9951571,23.0031304" id="Fill-6"></path>
                <path d="M3.00214286,8.88243478 C3.02057143,5.84721739 4.92814286,3.45286957 7.81628571,2.83852174 C8.20757143,2.75547826 8.61471429,2.71330435 9.015,2.71243478 C13.0011429,2.70330435 16.9872857,2.68982609 20.973,2.71243478 C23.9395714,2.7293913 26.2864286,4.68852174 26.88,7.60330435 C26.9695714,8.04113043 27.0021429,8.49808696 27.0034286,8.94634783 C27.0124286,12.9054783 27.0137143,16.8650435 27.0068571,20.8241739 C27.0017143,23.898087 25.1168571,26.2985217 22.2115714,26.9241739 C21.7804286,27.0172174 21.3308571,27.0563478 20.8894286,27.0576522 C16.9585714,27.0676522 13.0281429,27.0724348 9.09771429,27.0602609 C6.10328571,27.0511304 3.74142857,25.1176522 3.135,22.1867826 C3.03857143,21.722 3.009,21.2363478 3.00557143,20.7602609 C2.99185714,18.7876522 2.99957143,16.8150435 2.99957143,14.8424348 C3,12.855913 2.98971429,10.8689565 3.00214286,8.88243478 M7.77728571,29.685913 C7.85442857,29.6989565 7.92728571,29.7406957 8.00185714,29.7693913 L22.0067143,29.7693913 C22.6958571,29.5811304 23.412,29.4606957 24.0694286,29.1933043 C27.1898571,27.9224348 29.031,25.5850435 29.5932857,22.2167826 C29.6065714,22.138087 29.6477143,22.0646087 29.6755714,21.9889565 L29.6755714,7.78113043 C29.481,7.05504348 29.3597143,6.29808696 29.079,5.60808696 C27.8091429,2.48808696 25.5162857,0.636347826 22.2231429,0.0915652174 C21.8018571,0.022 21.3677143,0.00591304348 20.9395714,0.00504347826 C16.9825714,-0.00104347826 13.0255714,-0.00104347826 9.069,0.002 C4.641,0.00504347826 1.059,3.15026087 0.411428571,7.59547826 C0.402,7.65982609 0.359571429,7.7193913 0.332571429,7.78113043 L0.332571429,21.9889565 C0.518142857,22.688087 0.636428571,23.4146087 0.900428571,24.082 C2.15314286,27.2476522 4.45714286,29.1154783 7.77728571,29.685913" id="Fill-8"></path>
            </g>
        </g>
    </g>
</svg>