<?xml version="1.0" encoding="UTF-8"?>
<svg width="16px" height="26px" viewBox="0 0 16 26" version="1.1" xmlns="http://www.w3.org/2000/svg" xmlns:xlink="http://www.w3.org/1999/xlink">
    <!-- Generator: Sketch 43.2 (39069) - http://www.bohemiancoding.com/sketch -->
    <title>L Copy</title>
    <desc>Created with Sketch.</desc>
    <defs></defs>
    <g id="Symbols" stroke="none" stroke-width="1" fill="none" fill-rule="evenodd">
        <g id="Loop" transform="translate(-3.000000, -7.000000)" fill="#000000">
            <g id="loop-icon" transform="translate(3.000000, 7.000000)">
                <path d="M0.396028169,25.7070423 C0.164102127,25.5117361 0.0481408451,25.2676071 0.0481408451,24.9746479 L0.0481408451,1.17183099 C0.0481408451,0.830045239 0.151895676,0.549296873 0.359408451,0.329577465 C0.566921225,0.109858056 0.841566366,0 1.18335211,0 C1.54955113,0 1.83029949,0.103754831 2.02560563,0.311267606 C2.22091177,0.51878038 2.31856338,0.805631972 2.31856338,1.17183099 L2.31856338,24.0225352 L14.842507,24.0225352 C15.1598795,24.0225352 15.4101118,24.1079804 15.5932113,24.2788732 C15.7763108,24.4497661 15.8678592,24.6938951 15.8678592,25.0112676 C15.8678592,25.3286401 15.7763108,25.5727691 15.5932113,25.743662 C15.4101118,25.9145548 15.1598795,26 14.842507,26 L1.21997183,26 C0.902599352,26 0.627954211,25.9023484 0.396028169,25.7070423 Z" id="L-Copy"></path>
            </g>
        </g>
    </g>
</svg>