<?xml version="1.0" encoding="UTF-8"?>
<svg width="29px" height="30px" viewBox="0 0 29 30" version="1.1" xmlns="http://www.w3.org/2000/svg" xmlns:xlink="http://www.w3.org/1999/xlink">
    <!-- Generator: Sketch 43.2 (39069) - http://www.bohemiancoding.com/sketch -->
    <title>Fill 12</title>
    <desc>Created with Sketch.</desc>
    <defs></defs>
    <g id="design" stroke="none" stroke-width="1" fill="none" fill-rule="evenodd">
        <g id="modal" transform="translate(-769.000000, -754.000000)" fill="#000000">
            <path d="M775.318283,770.836286 C777.041827,768.94012 778.765371,767.044399 780.488916,765.148678 C780.887547,764.710007 781.288402,764.273114 781.683918,763.831773 C781.74487,763.764148 781.775123,763.769042 781.836519,763.830438 C783.031077,765.029 784.228749,766.224448 785.422862,767.423454 C785.486038,767.48663 785.528303,767.498198 785.611055,767.452373 C787.748801,766.260485 789.888772,765.072155 792.028299,763.882937 C792.078572,763.855353 792.129736,763.828659 792.180454,763.801075 C792.185793,763.809083 792.191577,763.817091 792.196916,763.824655 C792.099928,763.932321 792.003829,764.039986 791.906396,764.146763 C790.735418,765.434304 789.563995,766.721846 788.393017,768.009833 C787.209137,769.311612 786.025257,770.612946 784.844491,771.917394 C784.775087,771.993917 784.740384,771.993027 784.667866,771.920508 C783.476422,770.724171 782.28142,769.530948 781.089976,768.335055 C781.02947,768.274549 780.988984,768.263871 780.911126,768.307027 C778.772935,769.498025 776.633408,770.686799 774.493437,771.874683 C774.436045,771.906716 774.382657,771.950316 774.297236,771.959214 C774.645148,771.577045 774.981493,771.206443 775.318283,770.836286 M769.058089,768.785295 C769.09457,769.128758 769.144399,769.471331 769.207575,769.812125 C769.333037,770.48348 769.506103,771.141042 769.732558,771.784813 C770.177903,773.049665 770.812331,774.21397 771.614931,775.285735 C772.147032,775.995796 772.743644,776.648465 773.404321,777.241517 C773.481734,777.310477 773.507538,777.382551 773.507538,777.484433 C773.504424,779.607498 773.505313,781.730563 773.505313,783.853628 C773.505313,783.902567 773.508873,783.951061 773.510652,783.999555 L773.52133,783.99911 L773.532452,784 C773.535567,783.997775 773.538236,783.995551 773.54135,783.993326 C775.461096,782.83614 777.380841,781.678954 779.300587,780.520879 C779.342407,780.495519 779.379334,780.493295 779.426938,780.504862 C780.080942,780.663692 780.740284,780.792713 781.40719,780.887476 C781.806266,780.943979 782.208011,780.98491 782.608866,780.999591 C783.322932,781.026285 784.038331,781.018277 784.750617,780.93953 C785.25291,780.884362 785.752978,780.813623 786.247707,780.712186 C787.876932,780.378955 789.40828,779.792132 790.8373,778.938813 C792.129736,778.167355 793.275354,777.218827 794.262144,776.082997 C795.273847,774.918692 796.072888,773.620918 796.632128,772.180775 C796.992053,771.253602 797.245201,770.298846 797.381786,769.310277 C797.4503,768.813768 797.474325,768.31637 797.505468,767.818971 C797.522819,767.547137 797.502799,767.273523 797.493011,767.000799 C797.479219,766.619964 797.443182,766.242689 797.400916,765.864968 C797.36043,765.504154 797.301704,765.146899 797.224736,764.793203 C796.959575,763.57818 796.528467,762.424108 795.93319,761.331433 C795.351705,760.264561 794.63764,759.294678 793.796333,758.420004 C792.790858,757.374488 791.648798,756.506042 790.376383,755.807994 C789.6552,755.412477 788.906877,755.077912 788.129191,754.812306 C787.427583,754.572505 786.713073,754.379418 785.979877,754.253511 C785.585695,754.185442 785.191513,754.12716 784.794662,754.08 C784.553526,754.051527 784.309721,754.051527 784.068585,754.031061 C783.765607,754.005702 783.46263,753.996359 783.160543,754.001253 C782.798839,754.006592 782.437135,754.028392 782.075431,754.051527 C781.746204,754.072437 781.419203,754.108474 781.094425,754.155188 C780.165918,754.288659 779.256097,754.50755 778.369855,754.8172 C776.802471,755.364428 775.366332,756.151457 774.069002,757.188965 C773.054629,758.000018 772.167943,758.932529 771.418285,759.992727 C770.334953,761.524519 769.601312,763.208912 769.237828,765.053025 C769.16175,765.439643 769.093681,765.828931 769.059423,766.219554 C769.02828,766.576364 768.98646,766.934509 769.004256,767.294878 L769.004256,767.724207 C768.993133,768.079238 769.020717,768.433823 769.058089,768.785295" id="Fill-12"></path>
        </g>
    </g>
</svg>