<?xml version="1.0" encoding="UTF-8"?>
<svg width="20px" height="26px" viewBox="0 0 20 26" version="1.1" xmlns="http://www.w3.org/2000/svg" xmlns:xlink="http://www.w3.org/1999/xlink">
    <!-- Generator: Sketch 43.2 (39069) - http://www.bohemiancoding.com/sketch -->
    <title>P Copy</title>
    <desc>Created with Sketch.</desc>
    <defs></defs>
    <g id="Symbols" stroke="none" stroke-width="1" fill="none" fill-rule="evenodd">
        <g id="Loop" transform="translate(-85.000000, -7.000000)" fill="#000000">
            <g id="loop-icon" transform="translate(3.000000, 7.000000)">
                <path d="M83.1569577,25.6887324 C82.949445,25.4812196 82.8456901,25.194368 82.8456901,24.828169 L82.8456901,1.13521127 C82.8456901,0.817838789 82.9616514,0.549296873 83.1935775,0.329577465 C83.4255035,0.109858056 83.7123551,0 84.0541408,0 L92.6231549,0 C95.3086144,0 97.3898142,0.646941887 98.8668169,1.94084507 C100.34382,3.23474825 101.08231,5.06571586 101.08231,7.43380282 C101.08231,9.82630304 100.337716,11.6755803 98.848507,12.9816901 C97.3592977,14.2878 95.2842011,14.9408451 92.6231549,14.9408451 L85.1161127,14.9408451 L85.1161127,24.828169 C85.1161127,25.194368 85.0123578,25.4812196 84.8048451,25.6887324 C84.5973323,25.8962452 84.3226872,26 83.9809014,26 C83.6391157,26 83.3644705,25.8962452 83.1569577,25.6887324 Z M92.4766761,13 C96.7001714,13 98.8118873,11.1446195 98.8118873,7.43380282 C98.8118873,3.77181268 96.7001714,1.94084507 92.4766761,1.94084507 L85.1161127,1.94084507 L85.1161127,13 L92.4766761,13 Z" id="P-Copy"></path>
            </g>
        </g>
    </g>
</svg>