<?xml version="1.0" encoding="UTF-8"?>
<svg width="30px" height="25px" viewBox="0 0 30 25" version="1.1" xmlns="http://www.w3.org/2000/svg" xmlns:xlink="http://www.w3.org/1999/xlink">
    <!-- Generator: Sketch 43.2 (39069) - http://www.bohemiancoding.com/sketch -->
    <title>Fill 1</title>
    <desc>Created with Sketch.</desc>
    <defs></defs>
    <g id="design" stroke="none" stroke-width="1" fill="none" fill-rule="evenodd">
        <g id="modal" transform="translate(-584.000000, -757.000000)" fill="#000000">
            <path d="M590.313071,781.204086 C592.067643,781.4818 593.838929,781.489086 595.588786,781.296657 C599.491357,780.868514 602.837643,779.224514 605.593786,776.413943 C608.191786,773.764514 609.753929,770.575514 610.406643,766.9468 C610.609786,765.817514 610.628214,764.654371 610.712214,763.505371 C610.728071,763.287229 610.8095,763.157371 610.973643,763.0288 C611.9105,762.295514 612.728643,761.445229 613.435357,760.488657 C613.5005,760.399943 613.550643,760.300086 613.586643,760.177086 C612.567071,760.485229 611.574071,760.846943 610.5035,760.933514 C611.558214,760.078086 612.388786,759.069657 612.881643,757.7278 C612.7325,757.7788 612.629643,757.810086 612.529357,757.849086 C611.5475,758.2288 610.566071,758.610229 609.584214,758.989943 C609.200214,759.138657 608.894643,759.045657 608.585214,758.761943 C607.676214,757.930086 606.607357,757.416229 605.373071,757.273086 C605.337071,757.2688 604.720786,757.195514 604.1915,757.228943 C603.723071,757.2628 603.131643,757.339514 602.885214,757.417514 C600.654929,758.125943 599.1605,759.5878 598.579786,761.858371 C598.385214,762.618657 598.479929,763.453943 598.4495,764.254943 C598.444357,764.386514 598.4765,764.519371 598.496214,764.691229 C593.390214,764.353086 589.267357,762.145943 585.954071,758.332086 C584.7635,760.225086 584.527357,764.032943 587.6135,766.477943 C587.187929,766.393086 586.754643,766.334371 586.338071,766.215657 C585.922786,766.096943 585.524214,765.918657 585.0845,765.754086 C585.001357,767.2018 585.504929,768.4498 586.342786,769.559371 C587.1905,770.682229 588.330929,771.416371 589.702786,771.840229 C589.504357,771.871086 589.306786,771.910086 589.107071,771.9298 C588.904786,771.949514 588.700786,771.9538 588.497214,771.957657 C588.283786,771.961514 588.070357,771.961086 587.857357,771.954657 C587.657643,771.948229 587.458357,771.931086 587.1815,771.913943 C588.175786,774.5368 590.066643,775.885086 592.818071,776.208229 C590.1695,778.194657 587.238071,778.957086 584.007071,778.684943 C584.004929,778.711086 584.002357,778.737229 584.000214,778.7638 C584.051214,778.807943 584.097071,778.861086 584.1545,778.894943 C586.070643,780.028943 588.1025,780.854371 590.313071,781.204086" id="Fill-1"></path>
        </g>
    </g>
</svg>