<?xml version="1.0" encoding="UTF-8"?>
<svg width="71px" height="90px" viewBox="0 0 71 90" version="1.1" xmlns="http://www.w3.org/2000/svg" xmlns:xlink="http://www.w3.org/1999/xlink">
    <!-- Generator: Sketch 43.2 (39069) - http://www.bohemiancoding.com/sketch -->
    <title>1</title>
    <desc>Created with Sketch.</desc>
    <defs></defs>
    <g id="Symbols" stroke="none" stroke-width="1" fill="none" fill-rule="evenodd">
        <g id="1" transform="translate(-33.000000, 0.000000)">
            <g transform="translate(33.000000, 0.000000)" id="Shape">
                <path d="M70.22,5.06 C70.22,1.6 69.22,0.45 65.69,0.5 C52.2,0.67 38.69,0.71 25.23,0.5 C22.52,0.5 21.16,1 20.59,2.61 C20.54,2.68 20.48,2.74 20.43,2.82 C14.34,12.82 8.43,22.43 2.3,32.54 C1.57,33.75 -0.15,34.99 0.75,36.45 C1.65,37.91 3.51,37.11 4.94,37.11 L20.34,37.11 L20.34,70.97 C20.34,75.13 20.42,79.3 20.34,83.46 C20.34,85.87 21.69,86.13 23.52,86.16 L65.85,86.16 C69.58,86.05 70.26,84.85 70.25,81.51 C70.11,56.0366667 70.1,30.5533333 70.22,5.06 Z" stroke="#000000"></path>
                <path d="M57.16,62.54 C57.3256911,61.0211722 57.3256911,59.4888278 57.16,57.97 L57.16,57.87 L57.16,57.87 C57.16,57.65 57.16,57.43 57.08,57.2 C57.0529891,57.0219634 57.0060269,56.8475323 56.94,56.68 C57.1268443,55.730461 56.97094,54.7454292 56.5,53.9 C56.3971257,53.7392052 56.2835351,53.5855238 56.16,53.44 C56.0892833,51.3164912 55.7533445,49.2101551 55.16,47.17 C55.1046846,46.9863816 55.0309778,46.8088151 54.94,46.64 L54.37,38.24 C54.3436387,37.7794687 54.1952297,37.3342418 53.94,36.95 C53.77,33.57 54.07,30.24 53.01,26.95 C52.8275726,26.3191373 52.3935973,25.791134 51.81,25.49 C51.7216738,25.2189662 51.4908361,25.0189069 51.21,24.97 C50.1243221,24.6141114 48.946905,25.148511 48.5,26.2 C48.2140767,26.5685554 48.0623946,27.0236017 48.07,27.49 C47.8607926,28.8123769 47.793744,30.1533499 47.87,31.49 C47.96,35.23 48.68,38.78 48.53,42.57 C48.53,43.35 48.46,44.14 48.41,44.92 C48.3643963,44.7821582 48.2893239,44.6559 48.19,44.55 C47.48,43.79 45.96,44.03 45.11,44.33 C43.8456372,44.749543 42.8932939,45.8005354 42.6,47.1 C41.9133489,46.8637126 41.1591708,46.9253522 40.52,47.27 C39.9538951,47.5880324 39.457415,48.0165015 39.06,48.53 C38.6856231,48.8088636 38.386619,49.1766043 38.19,49.6 C38.0144999,49.966647 37.912578,50.3641422 37.89,50.77 C37.7450907,51.0645568 37.6408066,51.3774089 37.58,51.7 C37.5458925,51.9555336 37.5458925,52.2144664 37.58,52.47 C32.1,51.06 30.29,56.59 30.65,61.15 C30.9549493,64.2773851 31.7268549,67.3414123 32.94,70.24 C33.6557088,72.2840811 34.4836333,74.2871242 35.42,76.24 C35.5072278,76.4183371 35.6145941,76.5860969 35.74,76.74 C35.6492174,77.2202378 35.7232122,77.7170599 35.95,78.15 C36.1410468,81.0376083 36.1209935,83.9353124 35.89,86.82 C35.8905886,87.9460427 36.6439061,88.9327248 37.73,89.23 C41.865655,90.0898261 46.155572,89.8344329 50.16,88.49 C51.2362001,88.1781589 51.9827533,87.2003366 52,86.08 C51.5617111,83.2820093 51.2912278,80.4603007 51.19,77.63 C52.8838982,76.0073321 54.3204137,74.1358154 55.45,72.08 C56.62,69.63 56.52,66.83 57.45,64.28 C57.5884327,63.6845088 57.4840821,63.0584054 57.16,62.54 Z" fill="#FAFD7B" fill-rule="nonzero"></path>
                <path d="M35.58,87.6 C35.5378546,85.8650306 35.6348317,84.129474 35.87,82.41 C36.01,79.06 34.87,75.79 33.62,72.68 C32.37,69.57 31.02,66.42 30.72,63.08 C30.47,60.31 30.37,55.08 32.72,53.19 C35.58,50.79 39.06,52.31 40.37,55.4 L42.21,59.72 C42.79,61.08 43.35,62.72 42.56,63.95 C41.56,65.49 39.08,65.27 37.79,63.95 C36.5,62.63 36.24,57.67 34.36,59.1" stroke="#000000"></path>
                <path d="M52.21,87.06 C51.21,83.85 50.29,79.86 52.02,76.98 C52.65,75.93 53.59,75.1 54.3,74.09 C55.008446,73.0133705 55.5606114,71.8417025 55.94,70.61 C57.35,66.52 58.22,62.12 57.46,57.86 C56.8,54.23 54.07,51.62 51.66,48.91 C50.73,47.91 49.17,46.22 47.92,47.74 C47.21,48.6 47.47,50.06 47.67,51.04 C48.1691036,53.5075839 49.1365579,55.8566307 50.52,57.96 C50.8191618,58.3404219 51.0339204,58.7801659 51.15,59.25 C51.56,61.63 48.04,62.95 46.59,64.07 C43.5558787,66.5808774 42.9201604,70.9833345 45.12,74.25" stroke="#000000"></path>
                <path d="M48.33,44.58 C48.14,42 48.33,39.37 48.33,36.78 C48.33,33.67 47.24,30.59 47.82,27.46 C48.07,26.1 48.63,24.82 50.14,24.61 C52.84,24.24 53.57,27.61 53.75,29.61 C53.97,32.24 53.57,34.72 54.18,37.32 C54.61878,39.7765406 54.8562357,42.2648087 54.89,44.76 C55.02,46.58 56.61,53.14 57.07,56.53" stroke="#000000"></path>
                <path d="M37.49,52.39 C37.2498159,50.7338266 37.854117,49.0673067 39.1,47.95 C40.188404,46.9663187 41.7476813,46.7012415 43.1,47.27 C43.6506235,47.5107262 44.1072367,47.9251905 44.4,48.45 C44.5781892,49.0770402 44.7151486,49.7150705 44.81,50.36 C45.18,54.46 45.89,57.46 45.59,61.57 C45.59,62.18 45.4,63.38 44.81,63.73 C44.2328329,64.0744064 43.5447188,64.1819242 42.89,64.03" stroke="#000000"></path>
                <path d="M42.87,47.17 C42.7426958,46.3826717 43.0165135,45.5837239 43.6,45.04 C44.3628563,44.2988315 45.3598884,43.8462779 46.42,43.76 C46.9882685,43.6763873 47.5660644,43.8280588 48.02,44.18 C48.3090111,44.4783445 48.5067713,44.8530481 48.59,45.26 C48.7098733,45.8895977 48.7701398,46.5290922 48.77,47.17" stroke="#000000"></path>
                <path d="M45.67,60.54 C45.67,60.54 46.06,62.24 46.85,62.54 C48.0341032,62.982955 49.3569447,62.4141331 49.85,61.25 C49.9998399,60.5944006 50.0637097,59.9220866 50.04,59.25 C50.0095017,58.394271 49.9159144,57.5419579 49.76,56.7" stroke="#000000"></path>
                <path d="M40.04,65.06 C39.4296982,63.9981281 39.0865228,62.8038774 39.04,61.58 C39.0377473,61.4573354 39.058086,61.3353035 39.1,61.22 C39.1681282,61.076347 39.2756261,60.9549784 39.41,60.87 C39.927358,60.5323615 40.577074,60.4688835 41.15,60.7 C41.8643075,61.1652108 42.4436895,61.8101181 42.83,62.57" stroke="#000000"></path>
                <path d="M42.4,59.52 C42.9870955,59.0593594 43.8129045,59.0593594 44.4,59.52 C44.6600943,59.8019462 44.8426948,60.1464756 44.93,60.52 C45.02,61.28 45.15,62.32 45.24,63.09" stroke="#000000"></path>
                <path d="M46.22,61.96 C46.1853191,60.8297685 46.3512178,59.7023345 46.71,58.63 C46.9236035,58.1049357 47.4149494,57.7451312 47.98,57.7 C48.5143823,57.6168878 49.057815,57.7784488 49.46,58.14 C49.8392423,58.766582 50.0333918,59.4877089 50.02,60.22" stroke="#000000"></path>
                <path d="M49.55,47.73 C49.3192026,48.6032364 49.5814073,49.532901 50.2344743,50.1568503 C50.8875412,50.7807996 51.8281906,51.0003587 52.69,50.73" stroke="#000000"></path>
                <path d="M49.72,35.44 C50.4894967,35.834168 51.381321,35.9165454 52.21,35.67" stroke="#000000"></path>
                <path d="M50.12,42.5 C50.5437959,42.7573645 51.0117473,42.933694 51.5,43.02 C51.9948839,43.1002732 52.5005139,42.965681 52.89,42.65" stroke="#000000"></path>
                <path d="M36.97,78.86 C35.9585666,78.363166 35.2241751,77.4378326 34.97,76.34" stroke="#000000"></path>
                <path d="M48.71,79.46 C50.0070278,79.5311203 51.2084365,78.7782375 51.71,77.58" stroke="#000000"></path>
                <path d="M54.45,55.39 C54.9822737,55.4197657 55.4936677,55.1791097 55.81,54.75" stroke="#000000"></path>
                <path d="M35.27,63.74 C35.975188,63.7960153 36.667402,63.5272301 37.15,63.01" stroke="#000000"></path>
            </g>
        </g>
    </g>
</svg>