<?xml version="1.0" encoding="UTF-8"?>
<svg width="85px" height="96px" viewBox="0 0 85 96" version="1.1" xmlns="http://www.w3.org/2000/svg" xmlns:xlink="http://www.w3.org/1999/xlink">
    <!-- Generator: Sketch 43.2 (39069) - http://www.bohemiancoding.com/sketch -->
    <title>2</title>
    <desc>Created with Sketch.</desc>
    <defs></defs>
    <g id="Symbols" stroke="none" stroke-width="1" fill="none" fill-rule="evenodd">
        <g id="2" transform="translate(-26.000000, 0.000000)">
            <g transform="translate(26.000000, 0.000000)" id="Shape">
                <path d="M80.38,55.82 L76.93,55.82 C84.1194375,40.1487663 79.7965458,21.5985843 66.42,10.72 C62.12,7.25 55.47,1.39 41.08,0.61 C25.87,-0.22 5.18,10.93 0.74,25.22 C-0.12,27.99 1.5,28.7 3.19,29.8 C8.37,33.17 17.89,36.97 18.81,38.8 C19.49,40.14 18.97,41.68 18.33,43.59 C13.09,58.71 8.99,67.91 2.42,84.33 C1.9,85.64 0.15,88.75 1.05,90.2 C1.95,91.65 3.81,90.86 5.24,90.86 C10.54,90.86 78.67,90.97 81.91,91.03 C83.79,91.03 84.01,90.1 83.91,88.77 L83.91,87.47 C83.9395187,87.1573619 83.9395187,86.8426381 83.91,86.53 C83.91,81.15 84.03,67.79 84.03,60.39 C83.9901506,59.9208447 83.9901506,59.4491553 84.03,58.98 C84.36,56.31 82.97,55.82 80.38,55.82 Z" stroke="#000000"></path>
                <path d="M55.04,33.11 C54.84,31.44 53.18,29.98 51.42,31.18 L50.93,31.51 C50.2219509,31.9675742 49.7988888,32.7570384 49.81,33.6 C49.331398,35.6271047 49.1196067,37.7080379 49.18,39.79 C49.0537212,39.9933512 48.9624544,40.2164479 48.91,40.45 C48.04,44.55 47.18,48.65 46.36,52.75 C45.84,52.6 45.36,52.48 44.8,52.3 C44.6066682,52.2346607 44.4040725,52.2008947 44.2,52.2 C44.4607466,51.2227089 44.5587249,50.20914 44.49,49.2 C44.4662783,48.7420653 44.3175632,48.2993786 44.06,47.92 C43.79,42.26 42.73,36.66 42.61,30.97 C42.6180419,30.2505382 42.2932403,29.5677168 41.73,29.12 C41.3027447,28.4389399 40.5312013,28.0531682 39.73,28.12 C35.8,28.29 36.43,33.18 37.27,36.12 C37.27,41.4 39.27,47.59 38.73,52.99 C38.73,53.06 38.66,53.12 38.64,53.19 C38.48,53.67 38.35,54.19 38.24,54.62 C37.4210633,53.8417464 36.287184,53.4878618 35.1709585,53.6621497 C34.0547329,53.8364375 33.0827065,54.519139 32.54,55.51 C32.0343228,56.2880365 32.0581497,57.2967082 32.6,58.05 C32.5965208,58.5115418 32.6919982,58.9684692 32.88,59.39 C32.4961327,59.4463972 32.1223313,59.5575273 31.77,59.72 C30.7384059,60.2133296 30.0565501,61.2284521 29.99,62.37 C28.67,63.74 28.76,65.95 28.88,67.82 C29.06,70.52 29.22,73.2 31.07,75.31 C31.2603019,75.5275194 31.4870202,75.7102476 31.74,75.85 C31.9316677,76.738175 32.2270258,77.6007548 32.62,78.42 C32.894135,78.9881238 33.2294535,79.5246333 33.62,80.02 C33.68,80.16 33.74,80.31 33.81,80.44 C34.0604141,81.0339885 34.3476385,81.6117773 34.67,82.17 C34.76,82.32 34.86,82.46 34.95,82.6 C34.9890222,83.1184332 35.1537735,83.6195517 35.43,84.06 C35.5031854,84.1652663 35.5833663,84.2654924 35.67,84.36 L35.74,84.45 L35.74,84.45 C35.8238643,84.5553812 35.9176254,84.6524909 36.02,84.74 C35.6824415,85.1763242 35.5121758,85.7190459 35.54,86.27 C35.54,86.95 35.6,87.63 35.67,88.27 C35.3950843,89.2177761 35.2768605,90.2041008 35.32,91.19 C34.8388234,91.8377118 34.7089706,92.6814188 34.973117,93.4438414 C35.2372634,94.2062639 35.8612474,94.7887991 36.64,95 C38.943207,95.5302634 41.336793,95.5302634 43.64,95 C45.53,94.66 48.01,94.38 49.64,93.34 C50.4126555,92.8963418 50.8864931,92.0709472 50.88,91.18 C50.6184123,89.98818 50.4214582,88.7830877 50.29,87.57 L50.29,87.43 C50.2532663,86.9941059 50.2532663,86.5558941 50.29,86.12 L50.29,85.92 C50.29,85.85 50.37,85.5 50.43,85.29 C50.6003193,84.5708242 50.4625688,83.8131961 50.05,83.2 C51.1852507,81.3709701 52.2201145,79.4815091 53.15,77.54 C53.571252,76.7104652 53.948443,75.859282 54.28,74.99 C54.4938738,74.0982473 54.6145214,73.1866873 54.64,72.27 C54.7052313,71.8285276 54.6570531,71.3777168 54.5,70.96 C54.8153866,67.9398976 54.8555519,64.8973756 54.62,61.87 C54.4,58.04 53.23,53.95 53.62,50.12 C54.0164429,47.5736059 54.1737952,44.9957073 54.09,42.42 C54.09,42.12 54.09,41.82 54.15,41.51 L54.15,38.51 C54.2375859,38.4044496 54.3146205,38.2905724 54.38,38.17 C54.6328937,37.7184578 54.8213864,37.2337622 54.94,36.73 C54.94,36.58 54.94,36.43 55,36.27 C55.4385212,35.8218122 55.6797422,35.2169595 55.67,34.59 C55.6184111,34.0433093 55.398267,33.5261453 55.04,33.11 Z" fill="#FAFD7B" fill-rule="nonzero"></path>
                <path d="M35.19,93.44 C34.44,91.01 35.73,88.44 35.53,85.88 C35.2771966,84.139286 34.6641457,82.470425 33.73,80.98 C33.15,79.9 32.55,78.82 32.02,77.71 C30.88,75.31 29.64,73.44 29.16,70.83 C28.767773,69.0111122 28.6498013,67.1437884 28.81,65.29 C29.05,63.75 29.81,59.96 31.91,59.49 C32.6828466,59.4909627 33.4392823,59.7130356 34.09,60.13 C35.5947691,61.0372956 36.8010361,62.3652322 37.56,63.95 C38.6625361,65.9512009 39.2726974,68.186174 39.34,70.47 C39.34,71.47 39.16,72.68 38.24,73.08 C37.6642442,73.2954793 37.0189112,73.2091848 36.52,72.85 C36.0319335,72.4896474 35.6262584,72.0294279 35.33,71.5 C34.64,70.39 33.69,65.4 32.27,66.86" stroke="#000000"></path>
                <path d="M37.46,86.02 C36.5945089,85.8491102 35.8361247,85.3326866 35.36,84.59" stroke="#000000"></path>
                <path d="M47.69,84.37 C48.6380983,84.2513526 49.5240164,83.8346559 50.22,83.18 C50.879778,82.4810399 51.4233307,81.6809032 51.83,80.81 C52.8385671,79.0460506 53.6949982,77.199371 54.39,75.29 C54.6911014,74.4318185 54.8760744,73.5372216 54.94,72.63 C54.950947,70.1945555 54.0358271,67.8459861 52.38,66.06 C50.732003,64.2981012 48.8671107,62.7524247 46.83,61.46 L40.71,57.21 C40.2361559,56.8602268 39.7306185,56.5555652 39.2,56.3 C38.5556974,56.0124649 37.8553313,55.8723917 37.15,55.89 C36.9853277,55.8843269 36.8214319,55.9150574 36.67,55.98 C36.4898873,56.0837445 36.3465781,56.2410351 36.26,56.43 C35.8704981,57.2632749 35.8523295,58.2225741 36.21,59.07 C36.5675842,59.9039734 37.0684868,60.6688651 37.69,61.33 C38.5186217,62.2857824 39.4142176,63.1813783 40.37,64.01 C41.23,64.76 42.68,65.45 43.16,66.48 C43.5944779,67.3373193 43.8561091,68.2717164 43.93,69.23 C43.93,71.05 42.73,72.64 42.81,74.45 C42.7720966,76.2941873 43.5430458,78.0626205 44.92,79.29" stroke="#000000"></path>
                <path d="M42.31,52.32 C44.8218222,52.0931801 47.325514,52.8335576 49.31,54.39" stroke="#000000"></path>
                <path d="M33.16,59.7 C32.4086783,58.795763 32.0202001,57.6445845 32.07,56.47 C32.5636308,54.8453407 33.9279377,53.6356295 35.6,53.34 C37.1,53.15 39.15,55.14 39.79,56.51" stroke="#000000"></path>
                <path d="M46.36,52.59 C46.75,51.4 46.94,50.02 47.36,48.72 C47.6692323,47.680496 47.8900187,46.616707 48.02,45.54 C48.24,44.05 48.48,42.23 48.7,40.74 C48.9417546,39.5740483 49.085589,38.3899228 49.13,37.2 C49.1235918,36.1206848 49.2376306,35.0440242 49.47,33.99 C49.6780308,32.9218698 50.2770965,31.9697833 51.15,31.32 C52.0565758,30.6767381 53.2789956,30.709336 54.15,31.4 C54.8381698,32.2392095 55.1557963,33.3220271 55.03,34.4 C55.0730219,35.2628922 55.0227303,36.1279073 54.88,36.98 C54.76,37.55 54.67,38.14 54.59,38.72 C54.4836767,39.3810089 54.4501431,40.0516821 54.49,40.72 C54.6154305,42.5988712 54.5450517,44.4856939 54.28,46.35 C54.19,46.96 54.04,47.61 53.95,48.22 C53.8529909,48.8217402 53.806163,49.4305024 53.81,50.04 C53.87,53.57 54.14,57.04 54.41,60.6 C54.66,63.85 54.74,67.6 54.99,70.89" stroke="#000000"></path>
                <path d="M39.52,70.06 C39.5546285,70.8244383 40.0612355,71.4866176 40.79,71.72 C41.2616367,71.9133331 41.7792916,71.965446 42.28,71.87 C42.713235,71.8622686 43.1188574,71.6557699 43.38,71.31 C43.5293609,70.8541291 43.6135269,70.3794325 43.63,69.9" stroke="#000000"></path>
                <path d="M44.74,52.15 C44.62,48.88 44.5,45.61 44.06,42.36 C43.578724,39.6232429 43.2449091,36.8625935 43.06,34.09 C43.097247,32.9816951 43.0201731,31.8725023 42.83,30.78 C42.6494998,29.9285117 42.2216127,29.1492703 41.6,28.54 C40.9635166,27.9345752 40.0936612,27.638532 39.22,27.73 C37.9439028,28.026854 36.9519091,29.0305182 36.67,30.31 C36.4258293,31.5682639 36.4258293,32.8617361 36.67,34.12 L37.22,38.78 C37.28,39.25 37.78,43.48 37.92,43.93 C37.92,44.05 38.49,49.53 38.5,50.83 C38.5891664,51.890687 38.4352645,52.9577405 38.05,53.95" stroke="#000000"></path>
                <path d="M50.9,82.37 C50.5490342,83.0479716 50.3867071,83.8078004 50.43,84.57 C50.3957384,87.0816362 50.5528596,89.5922332 50.9,92.08" stroke="#000000"></path>
                <path d="M36.86,73.03 C36.5279265,72.3152277 36.2828405,71.563183 36.13,70.79 C36.0622995,70.4017124 36.1602112,70.0028129 36.4,69.69 C36.679634,69.418314 37.0237429,69.2221718 37.4,69.12 C37.7229408,69.0022857 38.0770592,69.0022857 38.4,69.12 C38.8474432,69.5653535 39.1624727,70.1261752 39.31,70.74" stroke="#000000"></path>
                <path d="M39.97,71.2 C39.877455,70.4171375 39.9044297,69.6247565 40.05,68.85 C40.1086279,68.5430325 40.2202982,68.2486291 40.38,67.98 C40.5142771,67.7285669 40.7241609,67.5256793 40.98,67.4 C41.5020739,67.156753 42.1118061,67.1943907 42.6,67.5 C43.0931555,67.8214887 43.4329164,68.33113 43.54,68.91 C43.54,69.24 43.59,69.8 43.63,70.13" stroke="#000000"></path>
                <path d="M38.03,56.24 C37.4064889,56.8992591 37.4064889,57.9307409 38.03,58.59 C38.418205,58.9128051 38.8832367,59.1298199 39.38,59.22 C39.8157304,59.3591011 40.2774985,59.3967266 40.73,59.33 C41.1992756,59.2630329 41.5883059,58.9323571 41.73,58.48" stroke="#000000"></path>
                <path d="M44.7,62.12 C45.26712,62.0558959 45.7635741,61.7098825 46.02,61.2" stroke="#000000"></path>
                <path d="M39.45,36.38 C40.0406462,36.4746523 40.6459399,36.4054758 41.2,36.18" stroke="#000000"></path>
                <path d="M40.29,44.08 C40.7208943,44.1442249 41.1611669,44.0852907 41.56,43.91" stroke="#000000"></path>
                <path d="M51.23,38.1 C51.6582717,38.4310904 52.2111534,38.5555803 52.74,38.44" stroke="#000000"></path>
                <path d="M50.5,46.11 C51.1813514,46.4901047 51.9498226,46.6865301 52.73,46.68" stroke="#000000"></path>
                <path d="M33.16,71.52 C33.7790496,71.5504547 34.37222,71.2688865 34.74,70.77" stroke="#000000"></path>
            </g>
        </g>
    </g>
</svg>