<?xml version="1.0" encoding="UTF-8"?>
<svg width="84px" height="90px" viewBox="0 0 84 90" version="1.1" xmlns="http://www.w3.org/2000/svg" xmlns:xlink="http://www.w3.org/1999/xlink">
    <!-- Generator: Sketch 43.2 (39069) - http://www.bohemiancoding.com/sketch -->
    <title>4</title>
    <desc>Created with Sketch.</desc>
    <defs></defs>
    <g id="Symbols" stroke="none" stroke-width="1" fill="none" fill-rule="evenodd">
        <g id="4" transform="translate(-27.000000, 0.000000)">
            <g transform="translate(28.000000, 0.000000)" id="Shape">
                <path d="M81.65,53.55 C81.65,37.3966667 81.6733333,21.24 81.72,5.08 C81.72,1.62 80.72,0.47 77.19,0.52 C67.8566667,0.633333333 58.5233333,0.67 49.19,0.63 L47.4,0.63 C43.8333333,0.63 40.2666667,0.586666667 36.7,0.5 C35.5591202,0.400444767 34.4113839,0.586006923 33.36,1.04 L33.36,1.04 C32.5104581,1.65788994 31.7788366,2.4233828 31.2,3.3 C27.1,9.92 23.73,17.3 23.06,18.54 C16.89,30.41 7.77,49.12 1.56,60.75 C1.02,61.75 -3.17862403e-12,63.49 0.72,64.67 C1.44,65.85 2.96,65.21 4.13,65.21 L31.8,65.21 L31.8,70.97 C31.8,75.13 31.87,79.3 31.8,83.46 C31.8,85.87 33.24,86.46 35.01,85.96 C37.11,85.41 62.51,86.04 75.31,86.03 C75.9756926,85.9790351 76.6443074,85.9790351 77.31,86.03 C80.96,86.6 81.72,84.83 81.7,81.49 C81.66,72.3966667 81.64,63.3066667 81.64,54.22 C81.7149809,54.0034974 81.7184861,53.7686439 81.65,53.55 Z" stroke="#000000"></path>
                <path d="M71.92,28.11 C72.84,25.02 68.02,23.7 67.1,26.78 C66.7164759,28.1155856 66.4224897,29.4752719 66.22,30.85 C65.7053967,31.3069371 65.4258688,31.972655 65.46,32.66 C65.46,34.78 64.53,36.79 64.3,38.91 C64.28797,39.0597588 64.28797,39.2102412 64.3,39.36 L64.3,39.59 L64.3,39.76 C64.0773558,40.5512855 63.9069883,41.3563558 63.79,42.17 C63.79,42.51 63.7,42.86 63.66,43.17 C63.5807998,43.3301971 63.5171741,43.497633 63.47,43.67 C63.1996616,45.0279705 62.8320474,46.3647494 62.37,47.67 C62.2367833,47.9469004 62.0687582,48.2056591 61.87,48.44 C61.81,48.52 61.59,48.71 61.41,48.9 C61.2503616,48.8847878 61.0896384,48.8847878 60.93,48.9 L60.72,48.9 C60.3933333,44.3066667 60.1833333,39.71 60.09,35.11 C60.4934476,31.9871453 60.6539295,28.8376892 60.57,25.69 C60.5676507,25.1397812 60.3770954,24.6069322 60.03,24.18 C59.65,21.41 55.12,21.55 55.03,24.62 L55.03,29.46 C54.7538301,29.8569708 54.6007872,30.3265341 54.59,30.81 C54.5760561,32.8969961 54.6728589,34.9832622 54.88,37.06 C54.4492284,37.498837 54.2178079,38.095468 54.24,38.71 L54.56,44.39 C54.5746254,44.6244919 54.6182923,44.8562628 54.69,45.08 C54.58,46.32 54.5,47.56 54.45,48.81 L54.22,48.81 C53.9092994,46.8486283 53.464931,44.9107809 52.89,43.01 C52.7931106,42.6421745 52.6154723,42.3005623 52.37,42.01 C51.67,37.73 50.87,33.46 49.78,29.16 C48.99,26.04 44.16,27.36 44.96,30.49 C45.16,31.27 45.34,32.04 45.51,32.82 C45.2816418,33.2038467 45.1639654,33.6434025 45.17,34.09 C45.17,37.35 46.43,39.85 47.05,42.95 C47.63,45.85 48.05,48.77 48.64,51.67 C48.0904478,51.9493674 47.5710539,52.2844602 47.09,52.67 C45.09,49.11 43.16,45.47 41.2,41.87 C39.66,39.04 35.34,41.56 36.88,44.39 C38.68,47.7 40.44,51.06 42.3,54.39 C42.3298556,54.5922932 42.383563,54.790339 42.46,54.98 C45.11,61.51 44.09,70.16 48.38,75.85 C48.4958555,76.1077598 48.6586209,76.3417349 48.86,76.54 L49.68,77.36 C49.161212,78.3416206 49.3174758,79.5436499 50.07,80.36 C49.8042088,79.9972101 49.3037796,79.9004707 48.9219269,80.1380629 C48.5400742,80.375655 48.4057644,80.8673345 48.6137965,81.2660627 C48.8218286,81.6647909 49.3019421,81.8359017 49.7152617,81.6586213 C50.1285814,81.4813409 50.3355133,81.0155437 50.19,80.59 C50.28,80.75 50.36,80.91 50.44,81.07 L50.52,81.29 L50.52,81.42 L49.83,85.48 C49.5102702,86.807453 50.2759928,88.1551248 51.58,88.56 C54.68,89.73 66.39,90.16 65.32,84.49 C65.2356391,83.7876189 64.8759804,83.1474264 64.32,82.71 L64.23,77.87 C64.2346053,77.7800589 64.2346053,77.6899411 64.23,77.6 C65.352414,76.5000168 66.2224757,75.1693341 66.78,73.7 C67.7561057,70.8066354 68.0738361,67.7318252 67.71,64.7 C68.93,60.7 67.91,56.7 68.05,52.55 C68.24,46.92 69.72,41.2 70.85,35.71 C70.8899522,35.4381266 70.8899522,35.1618734 70.85,34.89 C71.2,33.43 71.57,31.97 71.85,30.5 C71.9858284,29.9340692 71.9148947,29.3382257 71.65,28.82 C71.76,28.59 71.82,28.35 71.92,28.11 Z" fill="#FAFD7B" fill-rule="nonzero"></path>
                <path d="M59.18,62.47 C57.5751768,62.0646831 56.1717689,61.0911799 55.23,59.73 C54.8991811,59.1281996 54.4850991,58.5760903 54,58.09 C53.5733815,57.7915707 53.1177406,57.5369478 52.64,57.33 C50.9786463,56.4403042 49.8121453,54.8432651 49.47,52.99 C49.27,51.83 49.56,50.38 50.66,49.93 C51.4427966,49.686076 52.2955032,49.8431535 52.94,50.35 C53.61,50.81 54.14,51.43 54.77,51.93 C56.1121544,52.8020357 57.5519996,53.5135677 59.06,54.05 C63.0385969,55.8842011 66.0453853,59.3290641 67.3249276,63.5190877 C68.6044699,67.7091114 68.0351478,72.246041 65.76,75.99 C64.84,77.5 63.51,78.93 61.76,79.18" stroke="#000000"></path>
                <path d="M56.41,48.46 C58.9677854,48.1688212 61.5555758,48.6128389 63.87,49.74" stroke="#000000"></path>
                <path d="M64.99,77.13 C63.99,79.47 64.69,84.23 65.58,86.9" stroke="#000000"></path>
                <path d="M56.55,61.5 C54.0192124,65.0128461 53.5252805,69.5988143 55.25,73.57" stroke="#000000"></path>
                <path d="M52.07,79.6 C50.3241745,78.9214277 48.8608164,77.6696394 47.92,76.05 C44.7,70.93 45.31,64.33 43.46,58.56 C41.94,53.82 38.8,49.74 37.17,45.04 C36.69,43.66 36.48,41.84 37.67,41.04 C38.3678894,40.5970999 39.2497667,40.5627411 39.98,40.95 C40.6920049,41.342342 41.2675625,41.9423172 41.63,42.67 C41.97,43.29 42.2,43.97 42.51,44.61 C42.809144,45.2025404 43.14306,45.7768759 43.51,46.33 C44.89,48.46 47.26,52.9 47.06,52.99" stroke="#000000"></path>
                <path d="M61.4,48.36 C62.1604148,47.4017031 62.6321514,46.2466423 62.76,45.03 L63.56,41.03 C64.3533333,37.0633333 65.15,33.1 65.95,29.14 C66.0897973,28.168912 66.3941592,27.2287718 66.85,26.36 C67.3250196,25.3244112 68.416887,24.716614 69.5473549,24.8584946 C70.6778228,25.0003752 71.5856274,25.8591434 71.79,26.98 C72.0843891,28.1449203 72.1185315,29.3603909 71.89,30.54 C71.57,33.1133333 71.16,35.6733333 70.66,38.22 C69.6758339,42.4133791 68.914765,46.6560045 68.38,50.93 C68.1755608,53.8955582 68.1388356,56.8702985 68.27,59.84 C68.34,62.74 67.93,65.64 68,68.54" stroke="#000000"></path>
                <path d="M54.1,48.82 L51.43,34.76 C51.1787527,33.2758777 50.8449006,31.8069284 50.43,30.36 C50.02,29.04 49.24,27.58 47.87,27.42 C46.6751914,27.4110844 45.6188025,28.194199 45.28,29.34 C44.9775266,30.4692197 44.9364867,31.652538 45.16,32.8 C45.96,39.49 46.93,45.74 48.16,52.36" stroke="#000000"></path>
                <path d="M49.18,77.64 C49.8304488,79.2241982 50.1372093,80.9284234 50.08,82.64 C50.14,84.28 50.08,85.93 50.27,87.56" stroke="#000000"></path>
                <path d="M54.27,48.19 L54.41,31.3 L54.41,27 C54.3544523,25.9830182 54.493611,24.9647838 54.82,24 C55.1945703,22.9873431 56.0844144,22.254081 57.15,22.08 C58.3696217,22.0277588 59.5043108,22.7030755 60.04,23.8 C60.5049307,24.8528568 60.7139659,26.0008367 60.65,27.15 C60.74,34.33 59.51,41.56 60.57,48.67" stroke="#000000"></path>
                <path d="M46.7,53.76 C47.4577781,52.8608677 48.3854889,52.1200584 49.43,51.58" stroke="#000000"></path>
                <path d="M52.07,49.93 C53.413542,49.1763422 54.8850062,48.677943 56.41,48.46" stroke="#000000"></path>
                <path d="M50.92,50.21 C50.4304382,51.5212237 50.8617532,52.9982742 51.98,53.84 C52.204683,54.0132555 52.4695853,54.1267851 52.75,54.17 C53.2092255,54.1957685 53.6561774,54.0162551 53.97,53.68 C54.2779939,53.343126 54.5341334,52.962287 54.73,52.55" stroke="#000000"></path>
                <path d="M59.08,56.05 C59.6835881,55.7982471 60.1938541,55.3648704 60.54,54.81" stroke="#000000"></path>
                <path d="M66.48,35.18 C67.0748595,35.6084901 67.8206488,35.7714052 68.54,35.63" stroke="#000000"></path>
                <path d="M65.14,42.17 C65.7557404,42.5069589 66.4391344,42.7017262 67.14,42.74" stroke="#000000"></path>
                <path d="M55.78,30.42 C56.5136149,30.8883307 57.4246908,30.9846233 58.24,30.68" stroke="#000000"></path>
                <path d="M55.97,39.89 C56.701633,40.1120163 57.4666565,40.2034129 58.23,40.16" stroke="#000000"></path>
                <path d="M47.65,35.56 C48.5911163,35.6471488 49.5304327,35.3757113 50.28,34.8" stroke="#000000"></path>
                <path d="M49.06,42.37 C49.6259295,42.6744111 50.3232647,42.5817018 50.79,42.14" stroke="#000000"></path>
                <path d="M39.92,46.6 C40.6092018,46.6217656 41.2440411,46.2274555 41.53,45.6" stroke="#000000"></path>
                <path d="M43.65,50.62 C44.2813419,50.2151149 44.7625729,49.6144543 45.02,48.91" stroke="#000000"></path>
                <path d="M47.63,60.89 C49.8399877,60.5456066 51.8392837,59.3817307 53.23,57.63" stroke="#000000"></path>
            </g>
        </g>
    </g>
</svg>