<?xml version="1.0" encoding="UTF-8"?>
<svg width="79px" height="99px" viewBox="0 0 79 99" version="1.1" xmlns="http://www.w3.org/2000/svg" xmlns:xlink="http://www.w3.org/1999/xlink">
    <!-- Generator: Sketch 43.2 (39069) - http://www.bohemiancoding.com/sketch -->
    <title>7</title>
    <desc>Created with Sketch.</desc>
    <defs></defs>
    <g id="Symbols" stroke="none" stroke-width="1" fill="none" fill-rule="evenodd">
        <g id="7" transform="translate(-29.000000, 0.000000)">
            <g transform="translate(29.000000, 0.000000)" id="Shape">
                <path d="M74.79,0.52 L4.08,0.52 C1.38,0.52 0.49,1.24 0.52,3.71 C0.65,13.21 0.68,22.71 0.52,32.21 C0.47,34.99 1.4,35.75 4.45,35.73 C12.72,35.67 14.45,35.65 22.71,35.65 L22.71,35.73 C20.62,42.84 14.25,61.29 11.99,66.95 C7.39,79.53 2.75,90.41 2.72,92.02 C2.72,93.88 3.84,94.31 5.2,93.95 C6.82,93.53 44.11,94.03 54,94.03 L55.54,94.03 C58.43,93.97 58.54,93.23 58.88,92.03 C64.11,75.48 73.81,51.31 78.02,36.41 C78.2157006,35.7854905 78.3135261,35.1344451 78.31,34.48 C78.3592609,34.1283836 78.3592609,33.7716164 78.31,33.42 L78.31,33.34 L78.31,32.48 C78.22,28.4 78.41,13.14 78.41,5.02 C78.3704366,4.55083259 78.3704366,4.07916741 78.41,3.61 C78.77,1.04 77.39,0.53 74.79,0.52 Z" stroke="#000000"></path>
                <path d="M60.15,38.61 C57.5414027,43.6430782 55.4377984,48.9221872 53.87,54.37 C53.7940577,54.6163368 53.7536506,54.8722488 53.75,55.13 C53.05,56.13 52.75,57.31 52.02,58.31 C51.8795167,58.324207 51.7378116,58.3000135 51.61,58.24 L51.01,58.01 C50.68,54.12 51.28,50.01 51.34,46.13 L51.34,46.02 L51.34,45.83 C51.61,42.33 52.25,38.83 52.4,35.31 C52.51,32.65 51.13,30.93 48.34,31.22 C47.7513603,31.2531451 47.2009481,31.5222279 46.8132454,31.9663921 C46.4255427,32.4105564 46.2333017,32.9922802 46.28,33.58 C45.964935,33.9375519 45.7600322,34.3786139 45.69,34.85 C45.2586313,37.7231155 45.0446906,40.6246871 45.05,43.53 C44.8303654,43.9724008 44.7501646,44.4710411 44.82,44.96 C45.09,47.04 44.55,49.15 44.61,51.26 L44.49,51.72 C44.0521786,53.194856 43.7180302,54.6985237 43.49,56.22 C43.28,55.91 43.06,55.6 42.85,55.28 C41.62,53.35 40.48,50.79 37.71,51.17 C36.8111628,51.2563427 36.0531106,51.8762082 35.79,52.74 C35.2993308,53.2838117 35.0661963,54.012357 35.15,54.74 C35.363972,55.6587332 35.7181207,56.5390456 36.2,57.35 C35.9222404,57.2037233 35.6691608,57.0147572 35.45,56.79 C34.749719,55.8201779 34.228204,54.7331238 33.91,53.58 C32.8533663,51.233203 31.668237,48.9464041 30.36,46.73 C30.2184614,46.4752855 30.0360313,46.2455586 29.82,46.05 C29.7,45.71 29.57,45.37 29.46,45.05 C28.41,42.05 23.82,44.05 24.87,47.05 C26.0665823,50.7746754 27.6065296,54.3801608 29.47,57.82 C29.4264505,58.2640416 29.5096673,58.7113318 29.71,59.11 C30.28,60.31 30.87,61.5 31.43,62.7 C31.417988,62.8430817 31.417988,62.9869183 31.43,63.13 C31.6184014,64.6808242 31.997951,66.2023815 32.56,67.66 L32.56,68.42 L32.56,68.6 C32.396126,68.8579092 32.2777402,69.142035 32.21,69.44 C31.58,72.25 32.34,75.44 32.91,78.17 C33.1677242,79.4635107 33.6266281,80.708625 34.27,81.86 C34.6848511,83.191612 35.5331908,84.3461987 36.68,85.14 C36.4746883,85.485686 36.3610966,85.8780938 36.35,86.28 C36.2532714,87.6839021 36.293461,89.093887 36.47,90.49 C36.37,90.8 36.27,91.1 36.19,91.43 C35.87,92.77 35.44,94.72 36.4,95.92 C37.36,97.12 38.99,97.23 40.3,97.51 C43.21,98.13 47.75,98.73 50.5,97.28 C52.1,96.44 52.04,94.93 52.15,93.28 C52.28,91.4 52.34,89.51 52.6,87.65 C52.6471257,87.3160104 52.6267227,86.9759587 52.54,86.65 C53.8404777,85.5108889 54.8661249,84.0920769 55.54,82.5 C56.0451265,81.4730004 56.4116624,80.383481 56.63,79.26 C56.6856883,77.8958873 56.5816483,76.5299421 56.32,75.19 C56.3060877,75.0617778 56.2826903,74.9347631 56.25,74.81 C56.73762,73.2423227 57.0265448,71.6196404 57.11,69.98 C57.2514797,68.1921372 57.5424974,66.4192703 57.98,64.68 C58.0857881,64.2825451 58.1196544,63.8693764 58.08,63.46 C60.08,56.35 62.53,49.32 64.3,42.2 C64.3846778,41.8720444 64.3846778,41.5279556 64.3,41.2 C64.42,40.97 64.54,40.73 64.66,40.5 C66.34,37.67 61.7,35.81 60.15,38.61 Z" fill="#FAFD7B" fill-rule="nonzero"></path>
                <path d="M46.68,56.95 C49.1342869,56.9590233 51.5449442,57.5995694 53.68,58.81" stroke="#000000"></path>
                <path d="M42.89,82.34 C42.3708008,80.8684134 42.2331799,79.2892136 42.49,77.75 C42.6192077,76.773465 42.9062842,75.824424 43.34,74.94 C44.11,73.42 45.62,73.18 46.87,72.32 C48.12,71.46 47.22,70.1 46.68,68.87 C46.5552049,68.5607259 46.3976394,68.2657096 46.21,67.99 C45.9338595,67.6440781 45.6146017,67.3349022 45.26,67.07 C43.87,65.93 42.78,65.3 42.26,63.53 C41.9134417,62.6667868 41.9609201,61.6953061 42.39,60.87 C44.16,58.39 47.58,61.87 49.26,62.87 C49.9301923,63.221107 50.5605125,63.6435556 51.14,64.13 C51.4743275,64.5922801 51.7529215,65.0924067 51.97,65.62 C53.21,68.72 55.4,70.38 56.15,73.72 C56.9369188,77.2254635 56.4550182,80.8964124 54.79,84.08 C53.55,86.41 51.35,88.54 48.72,88.51" stroke="#000000"></path>
                <path d="M44.15,59.95 C42.38,59.95 42.85,61.95 43.31,62.25 C43.98,62.73 45.24,63.8 45.98,63.59 C46.7711222,63.1315064 47.300735,62.3278281 47.41,61.42" stroke="#000000"></path>
                <path d="M44.59,59.69 C44.1971901,57.5675785 43.4212009,55.5344189 42.3,53.69 C41.8378785,52.8624182 41.2158181,52.1349814 40.47,51.55 C39.7100771,50.9618699 38.7310094,50.7353692 37.79,50.93 C36.3683766,51.4355425 35.4460227,52.8129785 35.52,54.32 C35.62577,55.7906054 36.1153924,57.2077521 36.94,58.43 C37.5904054,59.5415867 38.3014802,60.6165448 39.07,61.65 C39.89,62.76 40.93,63.9 42.31,64.02" stroke="#000000"></path>
                <path d="M52.15,57.6 C55.59,51.68 56.69,44.6 60.08,38.68 C60.3697457,38.0446716 60.8480821,37.5139627 61.45,37.16 C62.69,36.58 64.2,37.66 64.59,38.98 C64.8369222,40.32436 64.6982426,41.7111565 64.19,42.98 L61.9,50.68 C60.48,55.44 59.06,60.21 58.06,65.08 C57.3637473,68.57761 56.8497209,72.1090385 56.52,75.66" stroke="#000000"></path>
                <path d="M37.92,86.52 C37.1568342,85.9927218 36.4818342,85.3480968 35.92,84.61 C35.2837163,83.7482366 34.7563854,82.8111327 34.35,81.82 C32.8654306,78.3940867 32.1584841,74.6817639 32.28,70.95 C32.3647091,69.7014351 32.3647091,68.4485649 32.28,67.2 C32.1924921,66.4641965 32.0521294,65.735647 31.86,65.02 C30.9268625,61.31536 29.6236428,57.7139176 27.97,54.27 C27.0528212,52.4516926 26.2414691,50.58191 25.54,48.67 C25.19,47.41 24.71,46.42 25.23,45.22 C25.3985186,44.7568319 25.672392,44.339175 26.03,44 C26.9182465,43.5906475 27.9568,43.6819489 28.76,44.24 C31.98,46.99 33.46,53.78 35.52,57.48 C35.9937685,58.1838306 36.6234025,58.7689795 37.36,59.19" stroke="#000000"></path>
                <path d="M43.49,56.04 C43.84,54.58 44.29,51.63 44.49,49.91 C44.81,47.28 44.63,45.44 44.91,42.8 C45.02,41.73 45.18,39.8 45.4,38.72 C45.74,37.06 45.72,35.99 46.06,34.34 C46.1896789,33.292302 46.6646854,32.317659 47.41,31.57 C47.6996454,31.2655673 48.0838408,31.0681825 48.5,31.01 C49.2030938,30.9472602 49.9112151,31.0464656 50.57,31.3 C51.93,31.73 52.57,33.3 52.67,34.74 C52.7501744,36.3590817 52.652929,37.9820753 52.38,39.58 C51.68,45.04 51.2466667,50.5266667 51.08,56.04 C51.0407534,56.4858046 51.0407534,56.9341954 51.08,57.38" stroke="#000000"></path>
                <path d="M36.34,85.5 L36.14,94.41" stroke="#000000"></path>
                <path d="M53.15,86.42 C52.15,89.2 51.95,95.23 51.99,95.96" stroke="#000000"></path>
                <path d="M47.2,40.93 C47.8653754,41.5017439 48.7235694,41.798536 49.6,41.76" stroke="#000000"></path>
                <path d="M46.79,48.82 C47.4272997,49.2603089 48.2445597,49.3469309 48.96,49.05" stroke="#000000"></path>
                <path d="M59.53,45.34 C59.9112062,45.5952132 60.361316,45.7278037 60.82,45.72" stroke="#000000"></path>
                <path d="M56.82,52.42 C57.3221287,53.1492805 58.2139966,53.5044492 59.08,53.32" stroke="#000000"></path>
                <path d="M28.42,50.78 C29.0372871,50.8068879 29.6449041,50.6196571 30.14,50.25" stroke="#000000"></path>
                <path d="M30.76,54.61 C31.3997642,54.7057474 32.0522453,54.5595631 32.59,54.2" stroke="#000000"></path>
                <path d="M50.15,65.69 C50.7190224,65.4700042 51.2002532,65.0695639 51.52,64.55" stroke="#000000"></path>
                <path d="M36.37,69.17 C38.13,69.39 39.82,68.47 41.37,67.56 C42.2794496,67.091531 43.1609328,66.5706545 44.01,66" stroke="#000000"></path>
            </g>
        </g>
    </g>
</svg>