<?xml version="1.0" encoding="UTF-8"?>
<svg width="80px" height="91px" viewBox="0 0 80 91" version="1.1" xmlns="http://www.w3.org/2000/svg" xmlns:xlink="http://www.w3.org/1999/xlink">
    <!-- Generator: Sketch 43.2 (39069) - http://www.bohemiancoding.com/sketch -->
    <title>E</title>
    <desc>Created with Sketch.</desc>
    <defs></defs>
    <g id="Symbols" stroke="none" stroke-width="1" fill="none" fill-rule="evenodd">
        <g id="E" transform="translate(-28.000000, 1.000000)">
            <g transform="translate(28.000000, 0.000000)" id="Shape">
                <path d="M20.44,86.06 C14.78,85.97 9.11,85.93 3.44,86.06 C-0.22,86.15 0.59,83.6 0.58,81.6 C0.54,65.9466667 0.54,50.28 0.58,34.6 C0.58,24.77 0.7,14.94 0.51,5.12 C0.45,1.81 1.16,0.43 4.85,0.46 C27.33,0.62 49.85,0.59 72.3,0.46 C75.49,0.46 76.79,1.35 76.63,4.7 C76.39,9.7 76.44,14.7 76.63,19.7 C76.73,22.55 75.63,23.52 72.86,23.47 C66.53,23.35 60.2,23.47 53.86,23.47 C52.03,23.47 50.09,23.2 50.05,26.06 C50.01,28.92 51.7,28.75 53.68,28.86 C57.28,29.06 62,27.21 64.19,29.73 C66.38,32.25 64.71,37.07 64.95,40.86 L64.95,41.36 C64.95,51.64 64.95,51.72 75.14,51.94 C77.77,52 79.06,52.47 79,55.49 C78.84,64.4833333 78.84,73.4833333 79,82.49 C79.05,85.44 77.89,86.13 75.19,86.08 C66.7,85.95 58.19,85.88 49.71,86.08 C46.17,86.2 22.62,86.09 20.44,86.06 Z" stroke="#000000"></path>
                <path d="M53.49,62.58 L53.49,61.51 C53.4822392,60.7470708 53.1106896,60.0336955 52.49,59.59 L52.24,59.01 C52.1982395,58.9207798 52.1514991,58.8339763 52.1,58.75 L51.63,51.46 C51.6025263,50.8837031 51.3804323,50.333756 51,49.9 C51.209599,48.6846545 51.4900776,47.4826034 51.84,46.3 C52.0598276,45.5671368 51.910728,44.7731814 51.44,44.17 C51.87,40.51 51.8,36.6 48.8,35.67 C48.4321183,35.4429378 48.000567,35.3411899 47.57,35.38 L46.83,35.45 L46.83,35.45 L46.16,35.52 C45.581311,35.593035 45.0666933,35.9238607 44.76,36.42 L44.33,36.65 C44.1178894,36.2706323 43.8701023,35.9123454 43.59,35.58 C42.6689386,34.4110304 41.2980785,33.6841094 39.8136641,33.5775361 C38.3292497,33.4709628 36.8686062,33.9945963 35.79,35.02 C35.5189413,35.2739667 35.3131236,35.5895538 35.19,35.94 C35.0210676,35.787913 34.8367376,35.6538549 34.64,35.54 C33.0463026,34.8278828 31.1965969,34.9984499 29.76,35.99 C29.0663871,36.4712341 28.5610338,37.1780219 28.33,37.99 C28.2338618,38.7268775 28.2338618,39.4731225 28.33,40.21 C28.325768,40.289944 28.325768,40.370056 28.33,40.45 C22.33,41.45 21.7,51.45 22.06,56.28 C22.59,63.28 23.6,70.76 27.83,76.44 C27.8410026,77.1772445 28.16451,77.8751481 28.72,78.36 C28.7452691,79.3626464 28.6917713,80.3657291 28.56,81.36 C28.29,83.16 27.85,84.87 27.76,86.7 C27.6511487,87.7698226 28.3531056,88.7542743 29.4,89 C29.7852932,89.2839794 30.242733,89.4537866 30.72,89.49 C36.018147,89.9283542 41.348929,89.7639688 46.61,89 C48.04,88.8 48.56,87.11 48.36,85.92 C48.16,84.73 47.95,83.39 47.78,82.13 C47.9948025,81.7591919 48.1085884,81.3385286 48.11,80.91 L48.11,77.21 C48.1168685,76.8999891 48.0660031,76.5914057 47.96,76.3 C49.61,71.86 52.82,67.89 53.38,63.3 C53.4587288,63.0683378 53.4959662,62.8246017 53.49,62.58 L53.49,62.58 Z" fill="#FAFD7B" fill-rule="nonzero"></path>
                <path d="M27.94,88.64 L28.22,80.31 C28.2858249,79.4770611 28.2353401,78.6390133 28.07,77.82 C27.8107109,76.9830235 27.4443434,76.1830651 26.98,75.44 C21.9527304,66.1976799 20.736214,55.3566888 23.59,45.23 C24.11,43.41 24.97,41.41 26.76,40.79 C27.6067193,40.5601143 28.4914827,40.5056673 29.36,40.63 C30.9822428,40.5128395 32.4880921,41.477397 33.06,43 L35.91,47.82 C36.1413368,48.1283802 36.2643727,48.5045185 36.26,48.89 C36.0944922,49.4410962 35.6424697,49.8586424 35.08,49.98 C32.270743,50.9102383 29.1800159,49.9734117 27.36,47.64" stroke="#000000"></path>
                <path d="M26.2,53.37 C27.1412449,53.4933564 28.0971523,53.4425103 29.02,53.22 C29.958722,52.9789683 30.6888108,52.2411943 30.92,51.3 C30.9269131,51.1667563 30.9269131,51.0332437 30.92,50.9" stroke="#000000"></path>
                <path d="M33.23,49.98 C32.84,49.27 32.63,48.98 32.23,48.22 C31.83,47.46 31.79,46.61 33.06,45.73 C33.7481949,45.4898259 34.5124423,45.7296695 34.94,46.32" stroke="#000000"></path>
                <path d="M27.77,43.66 C28.2706336,43.7757102 28.7916623,43.5783509 29.09,43.16" stroke="#000000"></path>
                <path d="M28.36,39.98 C28.0948646,38.3204663 28.8116616,36.6570298 30.2,35.71 C31.2084122,35.0352247 32.461169,34.8343453 33.63,35.16 C34.63,35.55 34.9,36.4 35.7,37.11 C36.4287798,37.7641333 37.0527261,38.5263596 37.55,39.37 C37.8,39.8 38.02,40.25 38.31,40.65 C39.79,42.65 41.78,46.37 40.52,49.08 C39.71,50.81 37.28,50.14 36.01,49.49" stroke="#000000"></path>
                <path d="M34.61,41.83 C35.1807068,41.6690392 35.7211953,41.4156852 36.21,41.08 L34.61,41.82" stroke="#000000"></path>
                <path d="M36.9,49.44 C36.75,48.57 36.21,46.15 37.65,45.72 C39.09,45.29 39.98,46.22 40.59,47.21" stroke="#000000"></path>
                <path d="M30.47,78.87 C31.7027776,79.8121782 33.3510312,80.0076687 34.77,79.38" stroke="#000000"></path>
                <path d="M34.95,35.79 C36.1042223,33.7110414 38.5629314,32.7325755 40.83,33.45 C42.4830989,34.1360075 43.7788482,35.4751897 44.41,37.15 C45.0248714,38.8061183 45.408483,40.5391003 45.55,42.3 L46.17,47.23 C46.31,48.37 46.35,49.76 45.39,50.39 C44.9630897,50.6244429 44.4868062,50.7546499 44,50.77 C43.392831,50.8763832 42.7704542,50.8593784 42.17,50.72 C41.5378855,50.2700806 41.1471678,49.5549935 41.11,48.78" stroke="#000000"></path>
                <path d="M41.58,40 L43.16,40" stroke="#000000"></path>
                <path d="M41.86,50.42 C41.36,49.19 40.78,45.97 42.86,45.48 C45.38,44.9 45.94,47.73 46.17,48.6" stroke="#000000"></path>
                <path d="M44.67,36.24 C45.2943484,35.5791013 46.108491,35.1283528 47,34.95 C48.81,34.67 50.54,36.09 51.24,37.79 C51.8092311,39.5400613 51.9834098,41.3945525 51.75,43.22 L51.53,47.31 C51.5437613,48.4337066 51.3329726,49.5488467 50.91,50.59 C50.460689,51.6500712 49.4213602,52.3390201 48.27,52.34 C47.0725046,52.1891897 46.2227608,51.0979397 46.37,49.9" stroke="#000000"></path>
                <path d="M48.42,41.56 C48.959833,41.6519604 49.514928,41.5641289 50,41.31" stroke="#000000"></path>
                <path d="M46.44,49.99 C46.4126122,49.1403439 46.7469811,48.3189596 47.36,47.73 C48.0059503,47.1592361 48.9449211,47.066548 49.69,47.5 C50.47168,48.0449821 50.9382667,48.937096 50.94,49.89" stroke="#000000"></path>
                <path d="M40.14,76.81 C41.4616802,77.9953286 43.1966053,78.6131487 44.97,78.53 C45.14,78.53 45.37,78.36 45.25,78.24" stroke="#000000"></path>
                <path d="M36.44,49.73 C33.94,49.9 33.25,51.29 33.1,52.12 C32.9934357,52.9773338 33.2929829,53.8352959 33.91,54.44 C34.5240277,55.0336711 35.2615924,55.484405 36.07,55.76 C37.9194707,56.443366 39.8784437,56.7822887 41.85,56.76 C41.6643205,58.9991964 42.7753287,61.1474046 44.71,62.29 C44.91,62.4 45.27,62.39 45.23,62.17" stroke="#000000"></path>
                <path d="M38.95,50.56 C39.4046922,51.2288667 39.3512943,52.1202016 38.82,52.73 C38.2480964,53.2594127 37.4747026,53.5147786 36.7,53.43 C35.9656532,53.4150469 35.2442471,53.2338406 34.59,52.9 C33.9831804,52.5637225 33.5418387,51.9921488 33.37,51.32" stroke="#000000"></path>
                <path d="M36.36,73.53 C35.1304144,68.2334017 38.2172906,62.8903951 43.42,61.31" stroke="#000000"></path>
                <path d="M39.15,50.17 C40.7900191,51.0806097 42.601929,51.6391684 44.47,51.81 C45.1211449,51.8332927 45.765053,51.9546576 46.38,52.17 C46.910137,52.435316 47.3878449,52.7944439 47.79,53.23 C49.2997591,54.7008838 50.6628456,56.3151533 51.86,58.05 C52.9140319,59.3841075 53.6032278,60.9692579 53.86,62.65 C53.8787883,64.7236393 53.2263095,66.7477267 52,68.42 C50.7758054,70.0769703 49.7268549,71.8564999 48.87,73.73 C48.2281336,75.7830417 47.9406889,77.9304227 48.02,80.08 C47.98,82.7466667 47.98,85.3933333 48.02,88.02" stroke="#000000"></path>
                <path d="M51.36,50.17 C51.57,52.17 52.24,55.54 51.99,57.62" stroke="#000000"></path>
            </g>
        </g>
    </g>
</svg>