<?xml version="1.0" encoding="UTF-8"?>
<svg width="83px" height="91px" viewBox="0 0 83 91" version="1.1" xmlns="http://www.w3.org/2000/svg" xmlns:xlink="http://www.w3.org/1999/xlink">
    <!-- Generator: Sketch 43.2 (39069) - http://www.bohemiancoding.com/sketch -->
    <title>F</title>
    <desc>Created with Sketch.</desc>
    <defs></defs>
    <g id="Symbols" stroke="none" stroke-width="1" fill="none" fill-rule="evenodd">
        <g id="F" transform="translate(-26.000000, 0.000000)">
            <g transform="translate(26.000000, 0.000000)" id="Shape">
                <path d="M2.45,85.84 C-0.37,85.75 0.7,83.05 0.7,81.46 C0.63,60.97 0.7,40.46 0.7,20 C0.7,14.67 0.8,9.34 0.7,4 C0.63,1.4 1.62,0.49 4.17,0.5 C28.99,0.553333333 53.8066667,0.553333333 78.62,0.5 C81.45,0.5 82.39,1.5 82.36,4.3 C82.2466667,13.96 82.2466667,23.6266667 82.36,33.3 C82.36,36.04 81.58,37.43 78.67,37.02 C78.3371434,36.9947878 78.0028566,36.9947878 77.67,37.02 C65.95,37.16 65.95,37.16 65.95,48.64 C65.95,57.64 65.95,57.64 57.07,57.64 C49.55,57.64 50.54,56.93 50.48,64.37 C50.43,70.37 50.35,76.37 50.48,82.37 C50.56,85.25 49.48,86.3 46.69,86.02 C45.1955365,85.9051549 43.6944635,85.9051549 42.2,86.02 C37.74,86.25 6.19,85.96 2.45,85.84 Z" stroke="#000000"></path>
                <path d="M42.28,47.8 L42.28,47.8 C43.6539467,47.7838025 44.7638025,46.6739467 44.78,45.3 C44.7486561,44.2368407 44.0705123,43.3009229 43.07,42.94 C43.1130367,42.4351875 43.2068441,41.9359981 43.35,41.45 C44.35,38.38 39.52,37.07 38.53,40.12 C38.4030178,40.5408816 38.3159665,40.9727896 38.27,41.41 C37.6198176,41.0617067 36.8973244,40.8699549 36.16,40.85 C35.9499448,40.7448428 35.7327401,40.6546193 35.51,40.58 C34.6805929,40.336779 33.823846,40.1990275 32.96,40.17 C32.5027281,40.1509347 32.0446655,40.1676523 31.59,40.22 C30.838376,39.9370204 30.0017523,39.9879454 29.29,40.36 C29.3931033,39.6944432 29.3659334,39.0151953 29.21,38.36 C29.1769625,38.2255033 29.130044,38.094802 29.07,37.97 C29.07,37.31 29.14,36.65 29.14,35.97 C29.1316474,35.6198157 29.0390333,35.2768005 28.87,34.97 L29.31,31.97 C29.31,31.89 29.31,31.82 29.37,31.73 L29.81,28.57 C29.9256063,27.8095827 29.6985925,27.0370034 29.19,26.46 L29.19,25.09 C29.33,21.83 24.5,21.95 24.19,25.09 C24.1366667,25.4433333 24.1033333,25.8 24.09,26.16 C23.4403843,25.7012528 22.6074027,25.589406 21.8597835,25.8605426 C21.1121642,26.1316792 20.544528,26.7514833 20.34,27.52 C19.924692,29.6962617 19.7005046,31.9046749 19.67,34.12 C19.6,34.97 19.5,35.81 19.4,36.66 C19.0811778,35.7415717 18.2642885,35.0870678 17.2984387,34.9761976 C16.3325889,34.8653275 15.3886404,35.3177043 14.87,36.14 L14.78,36.27 C14.1842537,37.0043709 14.1842537,38.0556291 14.78,38.79 C14.94,40.52 14.25,43.12 14.14,44.65 L13.57,52.85 C13.3611437,54.998269 13.3611437,57.161731 13.57,59.31 C12.91,62.75 14.57,67.16 16.12,69.86 C16.4939662,70.5055643 16.8279283,71.1734885 17.12,71.86 C17.18,72.13 17.23,72.35 17.25,72.41 C17.4134803,72.8553724 17.6318297,73.2786343 17.9,73.67 C18.266248,74.5411878 18.7327245,75.3667505 19.29,76.13 C19.99,77.85 19.19,79.01 19.02,80.73 C18.9262086,82.2652355 18.9262086,83.8047645 19.02,85.34 C19.0100519,85.4764856 19.0100519,85.6135144 19.02,85.75 C18.720695,86.54242 18.79482,87.4275743 19.2217503,88.1591776 C19.6486806,88.8907809 20.3828561,89.3907597 21.22,89.52 C25.89,90.12 30.45,90.52 35.08,89.4 C36.1601017,89.0938751 36.9092955,88.1125941 36.92,86.99 C36.8575947,85.9509418 36.6832523,84.9216508 36.4,83.92 C36.4,83.24 36.48,82.57 36.52,81.92 C36.978913,81.4617632 37.2347006,80.838506 37.23,80.19 C37.201091,79.4459245 37.2581349,78.7009982 37.4,77.97 C37.87,77.19 38.4,76.43 38.92,75.66 C39.5838951,75.4506876 40.1194301,74.9555012 40.38,74.31 C40.567198,73.8333583 40.6191066,73.3142722 40.53,72.81 C40.8419392,72.0997765 41.034527,71.3429404 41.1,70.57 C41.5,64.8 41.63,59.02 42.1,53.23 C42.1288384,52.9348347 42.1051386,52.6368944 42.03,52.35 C42.526332,51.4862219 42.526332,50.4237781 42.03,49.56 C42.0012959,49.369165 41.9439852,49.1837481 41.86,49.01 L41.86,49.01 C42.09,48.56 42.19,48.18 42.28,47.8 Z M37.16,47.6 C36.9803811,48.1568195 37.0197171,48.7611622 37.27,49.29 L37.27,49.42 L36.43,53.42 C36.4066965,53.6226656 36.4066965,53.8273344 36.43,54.03 C36.1479251,54.0535934 35.8712616,54.1210723 35.61,54.23 L35.45,54.29 C35.1990993,53.9487441 34.9106201,53.6367841 34.59,53.36 C33.9453997,52.8513323 33.2358041,52.4309557 32.48,52.11 C33.1381522,51.247055 33.589718,50.2447159 33.8,49.18 C33.9467178,48.4192648 33.9871033,47.6418428 33.92,46.87 C33.9037838,46.7421251 33.8804138,46.6152595 33.85,46.49 C34.988771,46.9832397 36.2605278,47.0783573 37.46,46.76 L37.46,46.76 C37.31,47.02 37.24,47.31 37.19,47.61 L37.16,47.6 Z" fill="#FAFD7B" fill-rule="nonzero"></path>
                <path d="M18.84,87.4 C18.35,83.64 20.43,79.63 18.95,76.14 C18.6099107,75.4433197 18.2153517,74.7745755 17.77,74.14 C15.2480399,70.1241516 13.690663,65.5786648 13.22,60.86 C12.74,55.98 13.43,51.07 14.05,46.21 C14.2984649,44.5549612 14.4221468,42.8835841 14.42,41.21 C14.2606742,39.8595593 14.3180637,38.4923383 14.59,37.16 C14.99,35.86 16.21,34.67 17.59,34.89 C18.97,35.11 19.66,36.45 19.96,37.73 C20.62,40.57 19.82,43.52 19.85,46.44 C19.85,47.73 20.04,49.01 20.13,50.3 C20.26,52.13 20.23,53.96 20.2,55.79 C20.2,56.9 20.06,58.19 19.13,58.79" stroke="#000000"></path>
                <path d="M23.87,25.78 C23.9123717,24.6749969 24.4957357,23.6615889 25.43,23.07 C26.3255834,22.6417839 27.3848013,22.7457799 28.18,23.34 C29.28,24.19 29.52,25.74 29.67,27.12 C29.9787991,29.0040977 29.9787991,30.9259023 29.67,32.81 C29.4966546,33.4287487 29.3564553,34.0563078 29.25,34.69 C29.06,36.41 29.88,38.14 29.6,39.84 C29.3293936,40.814121 28.9953469,41.7694946 28.6,42.7 C28.332309,43.7067747 28.2309731,44.7505343 28.3,45.79 C28.3,46.64 28.88,48.41 28.51,49.18 C27.95,50.35 25.06,51.18 23.82,51.18" stroke="#000000"></path>
                <path d="M30.19,49.87 L32.54,51.21 C32.6119623,51.2640284 32.7000403,51.2922134 32.79,51.29 C32.8854284,51.2645041 32.9676276,51.2037481 33.02,51.12 C34.4835718,49.1310119 34.1414328,46.345649 32.24,44.77 C33.5759574,46.4367965 35.7487071,47.1908456 37.83,46.71 C38.2613667,46.5508476 38.7210183,46.4827511 39.18,46.51 C39.5335331,46.6103253 39.8704487,46.7619373 40.18,46.96 C41.83,47.8 46.44,46.77 44.89,44.25 C43.89,42.65 41.24,42.36 39.64,41.68 C36.64,40.42 33.32,39.16 30.33,40.37" stroke="#000000"></path>
                <path d="M19.47,35.5 L20.07,29.26 C20.2,27.94 20.47,26.4 21.66,25.82 C22.9750402,25.3739628 24.4134752,26.0021949 24.98,27.27 C25.4812332,28.5153669 25.6534255,29.8687986 25.48,31.2 L25.13,39.14 C25.1195773,40.1214858 25.0123919,41.0995519 24.81,42.06 C24.62,42.83 24.31,43.57 24.16,44.36 C23.73,46.68 24.81,49.23 23.83,51.36 C23.0634142,52.6787823 21.9357709,53.7509108 20.58,54.45" stroke="#000000"></path>
                <path d="M22.06,61.69 C24.1,60.7433333 26.1,59.6933333 28.06,58.54 C29.92,57.44 31.73,56.54 32.76,54.69 C32.94,54.36 33.25,53.69 33.42,53.32 C33.5047871,52.5299134 33.1896733,51.7496314 32.58,51.24" stroke="#000000"></path>
                <path d="M28.08,70.69 C27.6715994,67.9172878 28.2408178,65.0888736 29.69,62.69 C31.1225435,60.3276833 32.773077,58.1046524 34.62,56.05 C34.8455821,55.6437829 35.0074675,55.2053431 35.1,54.75 C35.18,53.89 34.04,52.75 33.22,52.08" stroke="#000000"></path>
                <path d="M23.31,35.84 C23.7164916,36.0255463 24.1683859,36.0881163 24.61,36.02 C24.8217834,36.0181938 25.0217031,35.9219356 25.1551841,35.7575024 C25.2886651,35.5930692 25.3417693,35.3776313 25.3,35.17" stroke="#000000"></path>
                <path d="M35.1,54.07 C35.5082624,53.8819173 35.8831694,53.6286017 36.21,53.32 C36.433401,53.1469908 36.6089422,52.9198198 36.72,52.66 C36.7836092,52.4393042 36.8073143,52.2090262 36.79,51.98 L36.79,48.98 C36.7510335,48.4137777 36.8119617,47.8451146 36.97,47.3" stroke="#000000"></path>
                <path d="M38.59,40.6 C38.9897107,39.3742408 40.0309433,38.4674847 41.3,38.24 C42.0286214,38.0494987 42.7960957,38.3581127 43.19,39 C43.2619807,39.185779 43.3057978,39.3812707 43.32,39.58 C43.4152928,40.5079714 43.3714763,41.444971 43.19,42.36" stroke="#000000"></path>
                <path d="M42.48,47.79 C42.12,55.01 41.77,62.52 41.41,69.79 C41.4398776,71.3753106 41.1366745,72.9492416 40.52,74.41 C39.36,76.7 36.8,77.92 34.33,78.61" stroke="#000000"></path>
                <path d="M17.89,44.21 C18.3533165,44.1723738 18.7612857,43.8902268 18.96,43.47" stroke="#000000"></path>
                <path d="M37.07,87.48 C36.8099198,84.847654 36.9481393,82.191141 37.48,79.6 C37.69,78.6 37.63,77.13 38.54,76.6" stroke="#000000"></path>
                <path d="M17.86,51.69 C18.4212903,51.6018312 18.9303988,51.3098949 19.29,50.87" stroke="#000000"></path>
                <path d="M22.29,43.54 C22.7538125,43.6605248 23.246492,43.5921969 23.66,43.35" stroke="#000000"></path>
                <path d="M27.72,34.26 C28.2512438,34.3212571 28.7890622,34.2908145 29.31,34.17" stroke="#000000"></path>
                <path d="M26.58,42.32 L28.5,42.14 C28.67,42.14 28.91,42.02 28.85,41.86" stroke="#000000"></path>
                <path d="M41.19,42.37 C40.8582605,42.4201707 40.562245,42.6058303 40.3726509,42.8826376 C40.1830569,43.1594449 40.116907,43.5025468 40.19,43.83 C40.3140769,44.2686799 40.5999876,44.6439376 40.99,44.88 C42.1542756,45.5416987 43.5399935,45.6936573 44.82,45.3" stroke="#000000"></path>
            </g>
        </g>
    </g>
</svg>