<?xml version="1.0" encoding="UTF-8"?>
<svg width="52px" height="90px" viewBox="0 0 52 90" version="1.1" xmlns="http://www.w3.org/2000/svg" xmlns:xlink="http://www.w3.org/1999/xlink">
    <!-- Generator: Sketch 43.2 (39069) - http://www.bohemiancoding.com/sketch -->
    <title>I</title>
    <desc>Created with Sketch.</desc>
    <defs></defs>
    <g id="Symbols" stroke="none" stroke-width="1" fill="none" fill-rule="evenodd">
        <g id="I" transform="translate(-41.000000, 0.000000)">
            <g transform="translate(42.000000, 0.000000)" id="Shape">
                <path d="M3.79,85.98 C2.03,86.44 0.54,85.89 0.58,83.48 C0.66,79.32 0.58,75.15 0.58,70.99 C0.58,49.18 0.67,27.36 0.49,5.55 C0.49,1.64 1.49,0.44 5.49,0.55 C18.97,0.78 32.49,0.74 45.95,0.55 C49.45,0.55 50.49,1.65 50.48,5.11 C50.36,30.59 50.36,56.0666667 50.48,81.54 C50.48,84.88 49.74,86.65 46.09,86.08 C45.4243074,86.0290351 44.7556926,86.0290351 44.09,86.08 C31.29,86.06 5.89,85.43 3.79,85.98 Z" stroke="#000000"></path>
                <path d="M42.62,56.23 C42.6414824,55.9671048 42.6414824,55.7028952 42.62,55.44 C42.4316685,54.5282973 42.1844845,53.6297498 41.88,52.75 C41.81,52.06 41.73,51.37 41.62,50.67 C41.5599107,50.1601937 41.3143011,49.690332 40.93,49.35 C40.7717302,48.7654339 40.578039,48.1910393 40.35,47.63 C40.1242568,46.6995123 39.241412,46.0823781 38.29,46.19 C38.06,42.63 35.29,37.65 31.97,40.13 C31.630696,40.6017974 31.354993,41.1162189 31.15,41.66 C30.6725616,40.5959395 29.7684606,39.7826117 28.66,39.42 C27.4563374,38.9722416 26.1044627,39.213511 25.13,40.05 C24.4286669,40.6263766 23.9222932,41.4051445 23.68,42.28 C21.68,39.96 19.17,40.95 17.84,43.2 L17.84,42.59 C17.8790825,42.4161697 17.8958841,42.2380724 17.89,42.06 L17.89,41.86 C17.94,40.12 17.96,38.38 17.89,36.64 C17.8759833,36.104526 17.7018262,35.5855379 17.39,35.15 L17.57,32.87 C17.6122215,32.4356872 17.5289249,31.9983802 17.33,31.61 L17.33,31.19 C17.61,27.99 12.61,28 12.33,31.19 C12.07,34.1566667 11.95,37.1266667 11.97,40.1 L11.91,40.9 C11.8738742,41.2366622 11.9079238,41.577158 12.01,41.9 L12.01,43 C12.0206895,43.2595314 12.0712824,43.5158689 12.16,43.76 C12.0395109,44.8021132 12.0093987,45.8526963 12.07,46.9 C12.0804379,47.05502 12.1038532,47.2088922 12.14,47.36 C11.9387078,49.0558058 11.9018697,50.7671029 12.03,52.47 C11.6000515,54.1744314 11.4580946,55.9387528 11.61,57.69 C11.4882418,59.6494321 11.7393488,61.6141746 12.35,63.48 C12,68.76 14.21,73.63 17.06,77.92 C17.06,78 17.93,78.92 17.98,78.98 C17.84,79.4 18.12,79.42 18.3,79.88 C18.57,80.57 18.84,81.22 19.11,81.88 L19.11,83.01 C18.2392619,84.116485 18.0762052,85.6228181 18.69,86.89 C20.42,90.16 26.23,89.53 29.16,89.2 C31.85,88.9 36.32,89.03 37.39,86 C38.12,84 37.39,81 37.5,78.78 C37.7916943,75.068062 38.5303699,71.4049023 39.7,67.87 C39.916859,67.5219513 40.062978,67.1345661 40.13,66.73 C40.6058994,65.84086 41.1265676,64.9764173 41.69,64.14 C41.9866774,63.8071132 42.2023016,63.4100909 42.32,62.98 C42.46,62.76 42.61,62.68 42.73,62.45 C42.9831763,62.0598797 43.1185776,61.6050699 43.12,61.14 C43.61,59.43 43.68,57.38 42.62,56.23 Z" fill="#FAFD7B" fill-rule="nonzero"></path>
                <path d="M14.76,53.93 L17.35,53.18 C17.494846,53.1713761 17.6288015,53.1002539 17.7170865,52.9850996 C17.8053714,52.8699454 17.839277,52.7221182 17.81,52.58 C17.81,46.73 17.76,40.85 17.9,34.98 C18.0515155,33.5274413 17.8025174,32.0611191 17.18,30.74 C16.44,29.49 14.68,28.74 13.49,29.55 C12.49,30.26 12.33,31.69 12.29,32.93 L11.53,57.2 C11.3844831,61.5576135 11.9899867,65.9077674 13.32,70.06 C13.9545933,72.4062932 14.8431799,74.6763805 15.97,76.83 C16.1812422,77.2326088 16.4397332,77.6085957 16.74,77.95 C17.22829,78.3415101 17.6862634,78.7693976 18.11,79.23 C18.48445,79.9068389 18.6513878,80.6789259 18.59,81.45 L18.66,85.83 C18.66,86.34 18.36,86.94 18.39,87.45" stroke="#000000"></path>
                <path d="M26.51,75.98 C28.7639415,76.9140177 31.3317647,76.6900797 33.39,75.38" stroke="#000000"></path>
                <path d="M17.79,43.34 C18.13,42.23 19.61,41.41 20.79,41.18 C22.48,40.85 23.74,42.65 24.41,43.92 C26.6433371,48.1210482 27.891509,52.7751907 28.06,57.53 C28.1928613,58.119581 27.8548148,58.7133295 27.28,58.9 C26.5855917,59.3793448 25.7182404,59.5360511 24.9,59.33 C23.95,58.94 23.65,57.78 23.47,56.77 L22.47,51.45 C22.3703413,50.4613905 22.0267238,49.5130062 21.47,48.69 C20.8814054,47.8570425 19.7737904,47.5769559 18.86,48.03" stroke="#000000"></path>
                <path d="M37.81,86.49 C37.93,86.49 37.73,86.69 37.73,86.57 C37.5574674,82.8543266 37.6577364,79.1310021 38.03,75.43 C38.4058245,71.7171202 39.5939063,68.1323906 41.51,64.93 C42.4435315,63.7476819 43.1242644,62.386216 43.51,60.93 C43.6072329,59.7560619 43.4608389,58.5746958 43.08,57.46 L41.17,50.33 C40.78,48.86 40.23,47.2 38.85,46.57 C37.47,45.94 36.03,46.57 34.62,46.3 C33.6414991,46.0560341 32.6998766,45.682748 31.82,45.19 C30.9289501,44.6906735 29.8806383,44.5511371 28.89,44.8 C28.4101565,44.9508181 28.0171407,45.2986656 27.809147,45.7566334 C27.6011533,46.2146012 27.5978273,46.7394328 27.8,47.2 C28.3071094,48.246995 29.1382052,49.102638 30.17,49.64 C31.9265926,50.5439991 33.8175731,51.1585678 35.77,51.46" stroke="#000000"></path>
                <path d="M26.28,70.75 C25.41,67.66 26.62,64.29 28.65,61.81 C30.8115419,59.4201869 33.3439903,57.3942283 36.15,55.81" stroke="#000000"></path>
                <path d="M14.55,37.82 C15.3356128,38.1042318 16.1871231,38.1528895 17,37.96" stroke="#000000"></path>
                <path d="M35.17,51.59 C34.8150292,51.9795374 34.6281559,52.493439 34.65,53.02 C34.593069,53.4860215 34.6304779,53.9587338 34.76,54.41 C35.0504172,55.0237587 35.5404525,55.5208449 36.15,55.82" stroke="#000000"></path>
                <path d="M23.54,42.58 C23.6828625,41.6707697 24.1434866,40.8416464 24.84,40.24 C25.4754763,39.8185897 26.2022049,39.5546364 26.96,39.47 C27.4282549,39.379864 27.9110951,39.4004104 28.37,39.53 C28.699161,39.6580373 29.0062203,39.8368741 29.28,40.06 C30.0240195,40.5834137 30.6704786,41.2332574 31.19,41.98 C31.7245967,42.8219391 31.9670832,43.8164852 31.88,44.81" stroke="#000000"></path>
                <path d="M28.66,45.51 C29.23599,46.6761883 30.3671016,47.4679665 31.66,47.61 C32.4241031,47.7800496 33.1942063,47.3498243 33.45,46.61" stroke="#000000"></path>
                <path d="M27.88,55.13 C28.2493908,55.9728376 28.8805948,56.6741754 29.68,57.13 C30.4431087,57.4434004 31.2556087,57.6194421 32.08,57.65 C32.3476292,57.700601 32.6223708,57.700601 32.89,57.65 C33.5480189,57.3433106 33.9881746,56.7041281 34.04,55.98 C34.2083522,54.2234766 33.7784503,52.4615836 32.82,50.98" stroke="#000000"></path>
                <path d="M31.27,41.49 C31.6906706,40.5860225 32.5435177,39.9591796 33.5318542,39.8275364 C34.5201908,39.6958932 35.50738,40.0776493 36.15,40.84 C36.3704844,41.1216069 36.5646334,41.4228727 36.73,41.74 L37.66,43.38 C37.8354001,43.6735774 37.9859253,43.9813178 38.11,44.3 C38.2801738,44.7736672 38.3316759,45.281821 38.26,45.78" stroke="#000000"></path>
                <path d="M30.66,57.28 C29.5072493,56.0448072 29.5471462,54.1164561 30.75,52.93 C31.56,52.38 33.18,53.67 34,55.06" stroke="#000000"></path>
                <path d="M24.54,58.94 C23.7,57.15 24.18,55.25 24.64,54.94 C25.1,54.63 26.35,53.65 27.88,56.77" stroke="#000000"></path>
                <path d="M14.58,44.15 C15.3479058,44.4340599 16.1920942,44.4340599 16.96,44.15" stroke="#000000"></path>
                <path d="M18.32,52.59 C19.6889048,53.0082856 21.147946,53.0325452 22.53,52.66" stroke="#000000"></path>
            </g>
        </g>
    </g>
</svg>