<?xml version="1.0" encoding="UTF-8"?>
<svg width="85px" height="89px" viewBox="0 0 85 89" version="1.1" xmlns="http://www.w3.org/2000/svg" xmlns:xlink="http://www.w3.org/1999/xlink">
    <!-- Generator: Sketch 43.2 (39069) - http://www.bohemiancoding.com/sketch -->
    <title>J</title>
    <desc>Created with Sketch.</desc>
    <defs></defs>
    <g id="Symbols" stroke="none" stroke-width="1" fill="none" fill-rule="evenodd">
        <g id="J" transform="translate(-25.000000, 0.000000)">
            <g transform="translate(26.000000, 0.000000)" id="Shape">
                <path d="M55.1,85.04 C49.52,87.53 41.77,87.48 39.1,87.53 C23.65,87.82 6.39,76.28 0.96,62.05 C-0.04,59.49 0.44,58.25 2.96,57.11 C11.89,53.05 20.69,48.69 29.64,44.65 C32.29,43.45 33.3,41.92 33.26,38.98 C33.1,27.83 33.26,16.66 33.13,5.51 C33.08,2.03 33.73,0.43 37.74,0.51 C51.39,0.74 65.05,0.71 78.74,0.51 C82.36,0.46 83.18,1.74 83.14,5.12 C82.98,19.61 83.2,34.12 83.03,48.58 C82.88,60.89 77.23,70.58 67.86,78.22 C63.8919346,80.9909158 59.608549,83.2803116 55.1,85.04 L55.1,85.04 Z" stroke="#000000"></path>
                <path d="M66.55,46.05 C65.1,46.71 63.93,46.13 62.85,45.2 C69.31,42.08 61.63,41.2 61.85,39 L61.77,39.08 C64.31,39.84 66.88,40.54 69.38,39.08 C71.61,37.76 72.71,41.23 74.95,40.3 C75.43,40.1 75.08,41.3 75.1,41.92 C75.1,42.74 74.62,43.29 73.94,42.71 C69.01,38.43 67.88,42.42 66.55,46.05 Z" stroke="#000000" fill-rule="nonzero"></path>
                <path d="M79.03,57.16 C79.33,53.89 80.35,50.64 79.74,47.44 C79.0138508,44.2053646 77.6543717,41.1465365 75.74,38.44 C75.1381231,37.4984708 74.0086524,37.037871 72.92,37.29 L72.45,37.38 C72.45,34.74 70.45,31.65 68.54,30.27 C67.1414552,29.0982531 65.1885878,28.8482861 63.54,29.63 C62.3982202,30.3564638 61.6060859,31.5211543 61.35,32.85 C60.1998515,32.4744244 58.938413,32.6915266 57.98,33.43 C57.2649129,33.9699088 56.7453293,34.72822 56.5,35.59 C56.399029,36.3569144 56.4568948,37.1364013 56.67,37.88 C56.088243,37.7726624 55.491757,37.7726624 54.91,37.88 C54.1599488,38.158243 53.4997119,38.6352728 53,39.26 C51.62,40.98 51.38,43.73 50.84,45.8 L50.84,46.04 C47.4169234,43.509654 43.7913455,41.2654079 40,39.33 C37.14,37.87 34.6,42.19 37.48,43.65 L37.78,43.81 C37.9030973,44.1884092 38.1157984,44.5314755 38.4,44.81 C42.0051551,48.4108863 46.1731333,51.4000766 50.74,53.66 C51.02,54.1 51.29,54.54 51.6,54.96 C52.1431783,55.5551244 52.7352478,56.1037085 53.37,56.6 C54.2794814,57.6013564 55.0589718,58.713474 55.69,59.91 C55.9102835,60.6397819 56.4001216,61.2583366 57.06,61.64 C58.06,63.79 59.52,65.37 60.92,67.45 C63.63,71.45 63.37,75.4 62.25,79.92 C62.167,80.2887202 62.167,80.6712798 62.25,81.04 C62.179471,81.7116892 62.4051421,82.3807688 62.868085,82.8725255 C63.3310278,83.3642822 63.9852799,83.6298929 64.66,83.6 C67.52,83.55 70.43,83.65 73.28,83.34 C75.28,83.12 78.16,82.72 78.75,80.42 C78.97402,79.6638604 78.7968111,78.8456831 78.28,78.25 C78.67,73.96 79.28,69.76 78.48,65.54 C78.48,65.31 78.42,65.09 78.37,64.86 C78.3985689,64.2416075 78.4754702,63.6263974 78.6,63.02 C79.05437,62.5842417 79.2892727,61.9676221 79.24,61.34 L79.17,60.27 C79.3057445,59.6120578 79.3727709,58.9417937 79.37,58.27 C79.3394491,57.8795416 79.2233724,57.5005852 79.03,57.16 L79.03,57.16 Z" fill="#FAFD7B" fill-rule="nonzero"></path>
                <path d="M53.33,51.75 C54.0216565,50.359489 53.7872441,48.6868171 52.74,47.54 C52.3328809,47.1567148 51.8832981,46.8212053 51.4,46.54 L44.08,41.72 C42.33,40.57 40.46,39.38 38.37,39.35 C38.0287441,39.3244708 37.6862543,39.3792692 37.37,39.51 C36.7900538,39.8178849 36.4114603,40.4047049 36.37,41.06 C36.18,42.86 37.63,44.38 39,45.56 C41.7548062,47.930207 44.6866713,50.0864818 47.77,52.01 C48.8341951,52.6211409 49.8386099,53.3309274 50.77,54.13 C51.5312027,54.8809755 52.2208446,55.7011807 52.83,56.58 L59.29,65.29 C60.2846732,66.5253853 61.1398577,67.8668513 61.84,69.29 C63.59,73.29 62.84,77.82 61.99,82.07 L61.99,81.19" stroke="#000000"></path>
                <path d="M72.14,41.89 C70.1231143,42.4650293 67.9992387,42.5575207 65.94,42.16 C64.9416472,41.8803792 64.0455836,41.3177347 63.36,40.54 C62.51,39.54 62,38.13 63.47,37.45 C64.94,36.77 66.72,37.45 68.32,37.4 C70.14,37.31 71.96,37.16 73.79,37.09 C74.1273657,37.0517516 74.469015,37.089333 74.79,37.2 C75.7,37.58 75.93,38.61 76.26,39.4 C76.8,40.71 77.53,41.95 78.18,43.21 C78.6912322,43.9278708 79.158746,44.6758928 79.58,45.45 C79.9328505,46.2531171 80.1361811,47.1138833 80.18,47.99 C80.138242,48.708906 80.0277377,49.4221613 79.85,50.12 C79.06,54.2 80.12,58.45 79.38,62.54 C79.3430414,62.8280336 79.2513989,63.1063553 79.11,63.36 C78.8842737,63.6757153 78.5715644,63.9189337 78.21,64.06 C77.0296522,64.6103781 75.699398,64.7511457 74.43,64.46" stroke="#000000"></path>
                <path d="M50.85,46.05 C50.9516464,44.1312231 51.391754,42.2455311 52.15,40.48 C52.4849364,39.4996191 53.1493052,38.6656242 54.03,38.12 C54.964571,37.7174575 56.0289568,37.7467189 56.94,38.2 C57.8370741,38.6534194 58.662576,39.2363247 59.39,39.93 L66.39,46.02 C67.0792978,46.5428564 67.6601191,47.1950066 68.1,47.94 C68.5354431,48.7092696 68.4847173,49.6613537 67.97,50.38 C67.6208501,50.7477573 67.1669688,50.9991378 66.67,51.1 C65.5452645,51.3804337 64.3567085,51.2380916 63.33,50.7 C61.57,49.77 60.56,47.82 58.89,46.7 C57.48,45.78 55.57,45.41 54.76,43.94" stroke="#000000"></path>
                <path d="M61.46,32.51 C61.5112981,31.2530171 62.173482,30.1003832 63.2335181,29.4229165 C64.2935542,28.7454498 65.617715,28.6286152 66.78,29.11 C67.4538915,29.4182694 68.0669529,29.8450414 68.59,30.37 C70.4419516,32.1050501 71.8454088,34.2634231 72.68,36.66" stroke="#000000"></path>
                <path d="M42.67,45.36 C43.3857596,45.0040308 44.0298363,44.5192783 44.57,43.93" stroke="#000000"></path>
                <path d="M56.61,38.07 C56.1787111,37.1947488 56.1168796,36.1829864 56.4383792,35.2617303 C56.7598788,34.3404742 57.4377885,33.5868663 58.32,33.17 C58.8818211,32.9704141 59.4737817,32.8689352 60.07,32.87 C60.6131133,32.8332074 61.1584218,32.8941736 61.68,33.05 C62.1818687,33.2457788 62.6480981,33.5228137 63.06,33.87 C64.21,34.76 65.71,36.08 66.77,37.08" stroke="#000000"></path>
                <path d="M63.84,37.75 C64.463799,38.2199184 65.164099,38.5785261 65.91,38.81 C66.3156278,38.9600549 66.7534451,39.0014235 67.18,38.93 C67.6143163,38.8499895 67.9598861,38.5201273 68.06,38.09" stroke="#000000"></path>
                <path d="M65.59,50.99 C63.67,49.57 63.59,48.35 63.59,47.9 C63.6294133,47.3675437 63.9661926,46.9030206 64.46,46.7 C65.4275372,46.4912738 66.4374337,46.6219247 67.32,47.07" stroke="#000000"></path>
                <path d="M68.51,47.68 C69.2611896,47.9899434 70.092264,48.0495563 70.88,47.85 C71.4469814,47.7595254 71.9228751,47.3739557 72.1289846,46.838071 C72.3350941,46.3021863 72.2402249,45.6970924 71.88,45.25" stroke="#000000"></path>
                <path d="M74.12,49.23 C73.4273824,49.0284086 72.961259,48.3807859 72.99,47.66 C73.0255365,46.9682127 72.8808132,46.2790539 72.57,45.66 C72.2817483,45.3331261 71.9443772,45.0531081 71.57,44.83 C70.7839439,44.2702231 70.2068715,43.4644331 69.93,42.54" stroke="#000000"></path>
                <path d="M68.65,47.43 C67.7702021,46.6784197 67.4172038,45.4782256 67.75,44.37 C68.23,43.37 70.15,43.76 70.75,44.14" stroke="#000000"></path>
                <path d="M67.8,50.6 C67.61,51.97 68.71,53.6 69.66,54.65 C70.4307491,55.4675084 71.2854645,56.2015581 72.21,56.84" stroke="#000000"></path>
                <path d="M57.02,51.86 C58.3664221,51.037668 59.3060254,49.688122 59.61,48.14" stroke="#000000"></path>
                <path d="M52.46,47.29 C53.82,47.83 55.53,46.7 56.05,45.77" stroke="#000000"></path>
                <path d="M48.35,49.2 C48.7085,48.5876777 49.1165295,48.0057338 49.57,47.46" stroke="#000000"></path>
                <path d="M64.99,68.75 C66.44,69.17 67.99,68.55 69.33,67.89 C69.8619378,67.7459516 70.2436222,67.2798949 70.28,66.73" stroke="#000000"></path>
                <path d="M78.62,64.02 C79.31,69.57 77.92,75.26 78.84,80.78" stroke="#000000"></path>
                <path d="M34.82,53.66 L33.9,74.89 C33.81,77.02 33.82,79.42 35.33,80.89 C36.5029093,81.9956128 38.0953422,82.5422145 39.7,82.39 C41.2475158,82.3752689 42.6615481,81.5107111 43.38,80.14 C44.45,78.36 44.15,76.05 44.26,73.98" stroke="#000000"></path>
                <path d="M41.68,72.46 C41.4,72.46 41.78,71.85 41.93,71.57 L43.74,68.25 C43.7555437,68.2117054 43.7837919,68.1799262 43.82,68.16 C43.9009519,68.1493283 43.9789467,68.1944832 44.01,68.27 C44.87,69.59 45.72,71.14 46.58,72.45 L41.68,72.45" stroke="#000000"></path>
            </g>
        </g>
    </g>
</svg>