<?xml version="1.0" encoding="UTF-8"?>
<svg width="89px" height="91px" viewBox="0 0 89 91" version="1.1" xmlns="http://www.w3.org/2000/svg" xmlns:xlink="http://www.w3.org/1999/xlink">
    <!-- Generator: Sketch 43.2 (39069) - http://www.bohemiancoding.com/sketch -->
    <title>K</title>
    <desc>Created with Sketch.</desc>
    <defs></defs>
    <g id="Symbols" stroke="none" stroke-width="1" fill="none" fill-rule="evenodd">
        <g id="K" transform="translate(-23.000000, 1.000000)">
            <g transform="translate(24.000000, 0.000000)" id="Shape">
                <path d="M41.49,85.99 C33.32,86.16 29.74,86.12 26.29,86.04 C18.96,85.87 11.63,85.89 4.29,86.04 C1.55,86.09 0.48,85.33 0.49,82.41 C0.583333333,56.41 0.583333333,30.41 0.49,4.41 C0.49,1.76 1.08,0.47 4.06,0.48 C29.72,0.56 55.38,0.53 81.06,0.56 C81.8921158,0.676099681 82.7120914,0.866869504 83.51,1.13 C76.6,10.82 70.11,20.23 63.27,29.38 C61.08,32.31 60.82,34.51 62.53,37.81 C70.62,53.46 78.41,69.27 86.76,85.92 L55.88,85.92 C54.48,85.93 48.65,86.11 41.49,85.99 Z" stroke="#000000"></path>
                <path d="M53.4,66.93 C53.57,61.26 53.34,56.17 50.78,51.04 C50.6261357,50.7248524 50.3957952,50.4532568 50.11,50.25 C48.2,44.69 45.61,39.33 43.88,33.71 C43.7416911,33.2217148 43.4551638,32.7884295 43.06,32.47 C42.24,29.6 41.65,26.67 39.87,24.15 C38.09,21.63 33.7,24.03 35.55,26.67 C35.67,26.85 35.77,27.03 35.88,27.21 C35.99,27.39 35.88,27.28 35.88,27.32 C36.321297,29.7794245 36.9327664,32.2052537 37.71,34.58 C38.0296891,35.5447148 38.4138892,36.4868401 38.86,37.4 C38.5612051,37.722956 38.3148819,38.0907536 38.13,38.49 C37.6697407,39.4643135 37.4437221,40.5327652 37.47,41.61 C35.7128798,39.6242338 34.1895711,37.4432851 32.93,35.11 C31.5103915,32.4003091 29.5858484,29.9869932 27.26,28 C24.81,25.94 21.26,29.46 23.72,31.54 L24.92,32.54 C26.58,36.43 28.92,39.23 31.19,42.78 C31.81,43.78 32.34,44.7 32.83,45.67 C32.0660117,45.3241678 31.1761421,45.4078308 30.49,45.89 C29.3382646,46.1479765 28.5121765,47.1599345 28.49,48.34 C28.5341244,50.5148143 29.2309367,52.6261556 30.49,54.4 C30.582584,54.5470966 30.6897953,54.684461 30.81,54.81 C29.8978345,54.3130552 29.1453693,53.5675252 28.64,52.66 C27.25,49.76 22.93,52.29 24.32,55.18 L24.38,55.3 C24.51,59.8 26.38,63.17 28.38,67.11 C29.7917921,69.9369112 31.4445733,72.6368999 33.32,75.18 C33.8087774,76.1867086 34.5282867,77.0638247 35.42,77.74 C35.6596128,77.9387308 35.9297604,78.0974425 36.22,78.21 C36.1728171,78.603991 36.2279209,79.0034934 36.38,79.37 C36.6587987,80.0895386 36.8729777,80.8324718 37.02,81.59 C37.12,82.48 37.24,83.37 37.33,84.22 C36.7457017,84.8699291 36.5239459,85.7684108 36.7387461,86.6155667 C36.9535463,87.4627227 37.5766165,88.1469949 38.4,88.44 C41.5811804,89.6675712 45.0114334,90.1100739 48.4,89.73 C49.7,89.53 51.28,89.25 52.02,88.01 C52.5263273,86.8754646 52.6321098,85.6025496 52.32,84.4 L52.32,84.28 C53.32,78.46 53.22,72.8 53.4,66.93 Z" fill="#FAFD7B" fill-rule="nonzero"></path>
                <path d="M38.57,36.97 C37.9078224,35.3563508 37.4054201,33.6816764 37.07,31.97 C36.7784627,30.6440979 36.3633144,29.3484335 35.83,28.1 C35.1,26.1 34.67,22.72 37.73,22.83 C38.8589834,22.936876 39.8746538,23.5610516 40.48,24.52 C41.066758,25.4725705 41.5082744,26.5072692 41.79,27.59 C43.9252861,34.2865132 46.4291056,40.8598739 49.29,47.28 C50.05,48.99 50.84,50.69 51.47,52.45 C53.65,58.45 53.99,65.04 53.81,71.45 C53.6626175,76.6674932 53.1917131,81.8708192 52.4,87.03" stroke="#000000"></path>
                <path d="M27.32,58.43 C27.44,58.34 27.16,58.2 27.11,58.34 C27.0870533,58.4940294 27.1630085,58.6459397 27.3,58.72 C28.510417,59.7104037 29.7830216,60.6222699 31.11,61.45 C32.33,62.21 34.11,62.81 35.02,61.66 C35.66,60.81 35.26,59.6 34.71,58.66 C33.07,55.92 30.42,53.97 27.84,52.09 C27.4708896,51.7712373 27.0271133,51.5510692 26.55,51.45 C25.25,51.29 24.42,52.85 24.32,54.16 C23.94,59.01 26.58,63.3 28.75,67.48 C29.82,69.54 31,71.48 32.01,73.59 C32.5846349,74.9887271 33.3965724,76.2776778 34.41,77.4 C35.4543747,78.5304455 37.0087274,79.0409993 38.52,78.75" stroke="#000000"></path>
                <path d="M43.6,71.2 C40.74,68.92 39.66,65.05 39.41,61.4 C39.16,57.75 39.57,54.05 38.94,50.45 C38.2408216,47.1757117 37.7332924,43.863416 37.42,40.53 C37.2780838,39.3605707 37.7391559,38.1990067 38.6444587,37.4452614 C39.5497614,36.691516 40.7756414,36.4485416 41.9,36.8 C42.81,37.5 43.26,39.58 43.26,41.03 C43.1096576,42.2996103 43.1568842,43.5848475 43.4,44.84 C43.6475458,45.527404 43.9837161,46.1795744 44.4,46.78 C47.2205278,51.1758784 49.2762584,56.0176649 50.48,61.1" stroke="#000000"></path>
                <path d="M33.63,62.26 C32.36,61.84 31.01,59.88 31.71,58.72 C31.92,58.38 32.82,57.38 34.87,58.97" stroke="#000000"></path>
                <path d="M30.26,53.93 C29.1494033,52.4205323 28.4592504,50.6433886 28.26,48.78 C28.1700099,48.1231817 28.300119,47.4550539 28.63,46.88 C29.1568255,46.2623825 29.8877899,45.8543198 30.69,45.73 C31.3729012,45.4980121 32.1067564,45.4599347 32.81,45.62 C33.6933029,46.0276005 34.4023995,46.7366971 34.81,47.62 C36.7386475,50.5509661 38.2529732,53.7344152 39.31,57.08" stroke="#000000"></path>
                <path d="M34.99,62.26 C35.5020689,62.9798014 36.1638923,63.5802186 36.93,64.02 C37.7241063,64.4493193 38.7041106,64.3202653 39.36,63.7" stroke="#000000"></path>
                <path d="M35.61,62.69 C34.99,57.98 37.69,57.84 39.17,59.27" stroke="#000000"></path>
                <path d="M32.63,52.37 L33.35,51.92" stroke="#000000"></path>
                <path d="M28.5,56.69 C28.6717557,56.1267754 29.0229245,55.635139 29.5,55.29" stroke="#000000"></path>
                <path d="M32.18,45.49 C29.53,41.1 26.72,36.3 24.07,31.9 C23.48,30.9 22.87,29.72 23.37,28.69 C23.8673547,27.8498367 24.8444516,27.4195924 25.8,27.62 C26.729328,27.8369844 27.5785463,28.3118534 28.25,28.99 C31.99,32.35 33.67,37.49 37.2,41.07" stroke="#000000"></path>
                <path d="M32.18,41.79 L33.34,41.65" stroke="#000000"></path>
                <path d="M28.56,36.08 C29.151006,36.1682754 29.7158242,35.8045668 29.88,35.23" stroke="#000000"></path>
                <path d="M38.42,31.13 L40.12,31.28 C40.43,31.28 40.89,31.12 40.73,30.86" stroke="#000000"></path>
                <path d="M44.09,44.58 C44.8298085,44.8974158 45.6624708,44.9224314 46.42,44.65" stroke="#000000"></path>
                <path d="M36.38,79.18 C36.866395,81.7599855 37.0609522,84.3865073 36.96,87.01" stroke="#000000"></path>
                <path d="M37.09,48.57 L37.81,48.41" stroke="#000000"></path>
                <path d="M39.9,36.88 C39.688708,38.2049625 39.688708,39.5550375 39.9,40.88 C39.9248423,41.548163 40.1514551,42.1931379 40.55,42.73 C41.1689274,43.3762535 42.1164762,43.5855039 42.95,43.26" stroke="#000000"></path>
            </g>
        </g>
    </g>
</svg>