<?xml version="1.0" encoding="UTF-8"?>
<svg width="78px" height="89px" viewBox="0 0 78 89" version="1.1" xmlns="http://www.w3.org/2000/svg" xmlns:xlink="http://www.w3.org/1999/xlink">
    <!-- Generator: Sketch 43.2 (39069) - http://www.bohemiancoding.com/sketch -->
    <title>L</title>
    <desc>Created with Sketch.</desc>
    <defs></defs>
    <g id="Symbols" stroke="none" stroke-width="1" fill="none" fill-rule="evenodd">
        <g id="L" transform="translate(-29.000000, 0.000000)">
            <g transform="translate(29.000000, 0.000000)" id="Shape">
                <path d="M2.38,85.88 C-0.19,85.94 0.64,83.47 0.64,82.02 C0.59,56.2 0.64,30.38 0.55,4.56 C0.55,1.56 1.37,0.48 4.47,0.56 C18.29,0.69 32.12,0.72 45.95,0.56 C49.43,0.56 50.05,1.92 50.01,4.98 C49.87,16.81 50.11,28.64 49.87,40.46 C49.79,44.29 50.99,45.32 54.68,45.15 C61,44.86 67.34,45.24 73.68,45 C76.99,44.88 77.52,46.36 77.49,49.16 C77.39,60.16 77.37,71.16 77.49,82.16 C77.49,85.16 76.61,86.16 73.49,86.16 C60.83,86.01 48.17,85.94 35.49,86.16 C30.51,86.2 5.15,85.82 2.38,85.88 Z" stroke="#000000"></path>
                <path d="M59.3,53.53 C56.8979803,52.7492726 54.3067783,52.7738504 51.92,53.6 C51.2576918,53.8052497 50.6067719,54.0455893 49.97,54.32 C49.5440304,54.3266478 49.1270886,54.443805 48.76,54.66 L48.14,55.03 C46.8250106,55.634593 45.3421496,55.7687566 43.94,55.41 C43.79,55.1 43.63,54.79 43.45,54.46 C43.3568299,54.2921671 43.2462181,54.134629 43.12,53.99 C43.7196354,49.9283613 43.9938409,45.8253103 43.94,41.72 C43.74,36.92 43.27,32.04 43.18,27.27 C43.11,24.06 38.11,24.05 38.18,27.27 C38.28,32.06 38.74,36.91 38.94,41.72 L38.94,43.45 C36.8263668,43.1691859 34.6844527,43.6939548 32.94,44.92 C32.6994636,45.1016241 32.490064,45.321156 32.32,45.57 C31.8025596,45.5489729 31.2842665,45.5690358 30.77,45.63 C29.8058883,45.971901 28.883396,46.4214064 28.02,46.97 C27.5606078,46.8707234 27.0826066,46.9018974 26.64,47.06 C26.3826402,46.4743243 25.8606378,46.0471036 25.2356373,45.910632 C24.6106368,45.7741603 23.9580655,45.9449077 23.48,46.37 C21.5926491,47.6891879 20.5220702,49.8908732 20.65,52.19 C20.4645977,52.5254315 20.3553435,52.8975787 20.33,53.28 C20.33,53.85 20.26,54.41 20.23,54.98 C18.52,58.37 19.84,61.67 19.98,65.32 C19.3443133,65.9138276 19.0868432,66.8092087 19.31,67.65 C19.75,69.53 20.03,71.41 21.03,72.79 C21.0245839,72.8865908 21.0245839,72.9834092 21.03,73.08 C21.36,77.18 19.57,81.34 20.12,85.37 C20.6,88.9 25.38,88.83 28.19,88.95 C31,89.07 35.6,88.95 36.33,85.59 C37.03,82.34 36.04,78.96 36.15,75.72 C36.4142478,74.5953054 36.591439,73.4519209 36.68,72.3 C41.57,69.36 45.11,63.82 49.75,60.55 C50.201903,60.2526059 50.5511029,59.82309 50.75,59.32 L50.93,59.21 C53.24,58.29 55.56,57.47 58,58.36 C61,59.45 62.31,54.62 59.3,53.53 Z" fill="#FAFD7B" fill-rule="nonzero"></path>
                <path d="M38.84,42.95 L38.38,28.72 C38.3126844,27.9574596 38.3803881,27.1890225 38.58,26.45 C38.7893066,25.6450899 39.4748941,25.0537133 40.3018062,24.964798 C41.1287184,24.8758827 41.9243576,25.3079876 42.3,26.05 C42.7049219,26.8189535 42.9466389,27.6632609 43.01,28.53 C43.6281921,32.8387446 44.0021229,37.1790128 44.13,41.53 C44.23,45.7 43.68,49.7 43.51,53.82 C43.4640397,54.1581122 43.5053495,54.5023611 43.63,54.82 C44.38,56.36 49.94,54.03 51.11,53.65 C53.63,52.83 56.5,52.24 58.85,53.47 C59.6623268,53.851836 60.3038266,54.5218469 60.65,55.35 C60.9819621,56.2011842 60.736935,57.169242 60.04,57.76 C59.4406565,58.1246049 58.7370254,58.2794037 58.04,58.2 C56.3,58.2 54.52,57.86 52.87,58.4 C51.765963,58.8339075 50.74958,59.464065 49.87,60.26 C47.0266546,62.5617627 44.380769,65.0972637 41.96,67.84 C40.860283,69.2184433 39.6165712,70.4755645 38.25,71.59 C36.8601624,72.7068357 35.0815207,73.2217056 33.31,73.02" stroke="#000000"></path>
                <path d="M23.19,55.6 C23.7,55.6 24.19,55.7 24.73,55.7 C25.2524891,55.7511715 25.7592324,55.5036023 26.04,55.06" stroke="#000000"></path>
                <path d="M23.22,51.38 L25.22,52.29 C25.4291043,52.3661894 25.6198852,52.4854275 25.78,52.64 C25.9708343,52.897878 26.0757804,53.2092182 26.08,53.53 C26.1175863,54.4043173 26.2619922,55.2707529 26.51,56.11 C26.768295,56.9645709 27.4484936,57.6258751 28.31,57.86 C29.3013445,57.9616136 30.2589099,57.4671331 30.75,56.6 C31.7,55.1 31.52,53.16 31.44,51.47 C31.33,49.32 30.52,48.64 28.59,47.67 C26.88,46.82 24.91,45.95 23.14,46.67 C21.04,47.52 20.35,50.11 20.06,52.36 C19.3624101,57.6666161 19.2919251,63.0369033 19.85,68.36 C19.8878355,69.3560061 20.1511076,70.3304548 20.62,71.21 C21.3255376,72.2228024 22.4048067,72.9135347 23.62,73.13 C24.8292522,73.3324107 26.0600862,73.3727659 27.28,73.25" stroke="#000000"></path>
                <path d="M32.25,45.37 C33.25,43.83 35.33,43.48 37.16,43.47 C38.1021065,43.4655607 39.0436805,43.5156444 39.98,43.62 C40.2257294,43.6357816 40.4664318,43.6968048 40.69,43.8 C41.1335097,44.1082323 41.4130824,44.6011631 41.45,45.14 C41.6039179,46.4087157 41.5634527,47.693485 41.33,48.95 L40.64,54.07 C40.6539426,54.9419822 40.1349248,55.7343759 39.33,56.07 C38.6967707,56.5161206 37.9938863,56.8540458 37.25,57.07 C36.4947243,57.2676222 35.6905706,57.0806097 35.1,56.57 L35.55,56.57" stroke="#000000"></path>
                <path d="M41.65,33 L42.38,33" stroke="#000000"></path>
                <path d="M27.28,46.54 C28.8167673,45.7410341 30.5685363,45.453744 32.28,45.72 C33.6670734,45.9964469 35.0118827,46.4536821 36.28,47.08 C36.6325386,47.1917588 36.9383487,47.4167226 37.15,47.72 C37.2541986,47.9555514 37.298844,48.2131212 37.28,48.47 C37.2366336,50.5279727 36.819871,52.5609607 36.05,54.47 C35.6856441,55.6414961 34.9912441,56.6830961 34.05,57.47 C33.0568215,58.2557933 31.6446556,58.2221703 30.69,57.39" stroke="#000000"></path>
                <path d="M32.82,61.66 C32.032539,62.4121265 31.376779,63.2909801 30.88,64.26 C30.3832005,65.2423125 30.2898996,66.379866 30.62,67.43" stroke="#000000"></path>
                <path d="M21.03,71.81 C21.1352437,74.1903174 21.0415851,76.5752663 20.75,78.94 C20.63,79.94 20.48,80.89 20.36,81.86 C20.1846866,83.4838114 20.1112096,85.117006 20.14,86.75" stroke="#000000"></path>
                <path d="M37.19,72.5 C36.7961441,74.1723347 36.5452398,75.8751384 36.44,77.59 C36.35,78.88 36.36,80.17 36.37,81.46 C36.37,82.98 36.21,85.39 36.22,86.9" stroke="#000000"></path>
                <path d="M42.92,42.51 C43.3345148,42.5252797 43.7473926,42.450211 44.13,42.29" stroke="#000000"></path>
            </g>
        </g>
    </g>
</svg>