<?xml version="1.0" encoding="UTF-8"?>
<svg width="86px" height="87px" viewBox="0 0 86 87" version="1.1" xmlns="http://www.w3.org/2000/svg" xmlns:xlink="http://www.w3.org/1999/xlink">
    <!-- Generator: Sketch 43.2 (39069) - http://www.bohemiancoding.com/sketch -->
    <title>P</title>
    <desc>Created with Sketch.</desc>
    <defs></defs>
    <g id="Symbols" stroke="none" stroke-width="1" fill="none" fill-rule="evenodd">
        <g id="P" transform="translate(-25.000000, 0.000000)">
            <g transform="translate(25.000000, 0.000000)" id="Shape">
                <path d="M79.5,49.01 C72.78,57.45 64.5,62.01 53.77,61.96 C50.28,61.96 49.12,62.96 49.31,66.49 C49.58,71.64 49.24,76.82 49.43,81.98 C49.54,84.93 48.71,86.12 45.56,86.09 C31.8933333,85.9566667 18.2266667,85.9566667 4.56,86.09 C1.56,86.09 0.49,85.18 0.5,82.09 C0.6,56.2566667 0.6,30.4266667 0.5,4.6 C0.5,1.67 1.22,0.5 4.4,0.52 C21.4,0.66 38.4,0.41 55.4,0.65 C68,0.83 79.56,9.9 83.68,21.79 C85.11,25.9 86.54,40.16 79.5,49.01 Z" stroke="#000000"></path>
                <path d="M78.86,50.01 C78.7611544,49.6873335 78.5822692,49.394925 78.34,49.16 C77.34,48.26 76.34,47.44 75.34,46.64 C73.1396031,43.3100387 70.588341,40.2257271 67.73,37.44 L67.73,37.44 C67.2553429,36.5020955 66.7243728,35.5937692 66.14,34.72 C64.82,32.65 63.03,30.44 61.39,28.18 C61.08,27.51 60.73,26.86 60.39,26.18 C59.9612871,24.2963269 58.924641,22.6060665 57.44,21.37 C57.3331085,21.2691085 57.219516,21.1755617 57.1,21.09 C56.5727534,20.1950471 55.7937004,19.4751188 54.86,19.02 C54.6908011,18.70938 54.4593041,18.4370305 54.18,18.22 L53.27,17.53 C52.9788412,17.3036481 52.6345761,17.1556141 52.27,17.1 C52.1793722,17.0539608 52.0858407,17.0138758 51.99,16.98 C50.7244914,16.5634058 49.3842451,16.4235837 48.06,16.57 C44.1131832,16.6039289 40.1773828,16.9921541 36.3,17.73 C34.2902628,17.8937527 32.3703067,18.6332656 30.77,19.86 C29.8337831,19.9247958 29.0685289,20.6318242 28.93,21.56 C28.7865127,22.1282754 28.6862265,22.7065926 28.63,23.29 C28.177705,23.2553985 27.7239378,23.334464 27.31,23.52 C22.09,25.88 22.41,30.86 24.1,35.52 C25.36,39 26.96,45.17 31.23,44.72 C30.772949,46.6367008 30.4389341,48.5806674 30.23,50.54 C30.1700731,50.7992805 30.1365687,51.0639653 30.13,51.33 C28.76,52.98 30.18,56.19 32.72,55.46 C34.05,55.08 35.19,55 36.02,53.7 C36.6803645,52.4546398 37.1073902,51.0990029 37.28,49.7 C37.76,47.22 37.9,44.7 38.28,42.2 C38.9387712,42.6336328 39.756004,42.7525731 40.5110499,42.5247076 C41.2660957,42.2968421 41.8810946,41.7456682 42.19,41.02 C42.65,39.9133333 43.1133333,38.81 43.58,37.71 C43.86,38.44 44.14,39.15 44.4,39.86 C43.6271939,42.7136563 43.4569149,45.6969436 43.9,48.62 C44.0511782,50.0683932 44.5447672,51.46004 45.34,52.68 C46.19,53.94 47.34,54.32 48.34,55.25 C50.71,57.33 54.34,54.06 52.08,51.93 C52.0229652,51.6319809 51.9110671,51.3471493 51.75,51.09 C49.82,47.96 49.88,44.63 50.69,41.28 L50.79,41.6 C51.96,45.41 53.38,49.17 54.7,52.94 C54.7061525,53.1713537 54.7465927,53.4005148 54.82,53.62 C55.2258572,54.930373 55.7548851,56.1993703 56.4,57.41 C56.4,57.48 56.48,57.53 56.52,57.6 C56.7094729,58.4525868 56.9465102,59.2939021 57.23,60.12 C57.0764135,60.938617 57.3306739,61.7807778 57.9116115,62.3776315 C58.492549,62.9744851 59.3275317,63.2514097 60.15,63.12 L60.27,63.12 C60.522324,63.1037625 60.7712698,63.0533006 61.01,62.97 C67.31,61.62 73.92,57.55 78.74,53.45 C79.262263,53.0404466 79.577065,52.4212068 79.6002031,51.7579141 C79.6233412,51.0946214 79.3524547,50.4549505 78.86,50.01 L78.86,50.01 Z" fill="#FAFD7B" fill-rule="nonzero"></path>
                <path d="M50.71,42.48 C53.37,49.18 54.84,56.37 58.31,62.69" stroke="#000000"></path>
                <path d="M33.98,25.19 C33.0163418,27.0936748 32.3935975,29.1514384 32.14,31.27 C31.65,34.21 31.14,37.16 30.67,40.11 C30.3,42.45 30.72,44.7 30.51,47.11 C30.3,49.52 28.73,52.46 29.71,54.39 C30.1423702,55.1861145 31.0403001,55.6108111 31.93,55.44 C33.57,55.15 35.14,54.82 36.08,53.44 C36.6793279,52.362679 37.0215664,51.1614219 37.08,49.93 C38.17,41.54 40.14,33.17 43.94,25.6" stroke="#000000"></path>
                <path d="M47.18,27.28 C45.9933333,29.6066667 44.9066667,31.9833333 43.92,34.41 C43.5316152,35.1610963 43.3684097,36.0083758 43.45,36.85 C43.55,37.37 43.83,37.85 43.94,38.35 C44.0307553,39.1202884 43.9557449,39.9010785 43.72,40.64 C42.9775683,44.0354568 43.2594683,47.5748677 44.53,50.81 C45.53,53.45 47.87,56.12 50.69,55.81 C51.0877087,55.7719467 51.4694384,55.6343864 51.8,55.41 C52.5113918,54.7696988 52.7847863,53.7737619 52.5,52.86 C52.2047918,51.9713775 51.8229562,51.1139222 51.36,50.3 C49.55,46.4 50.54,41.79 52.11,37.79 C53.68,33.79 55.81,29.91 56.25,25.63" stroke="#000000"></path>
                <path d="M29.52,53.63 C29.52,51.7 32.61,48.86 33.73,51.05 C34.11,51.8 34.24,52.75 33.73,54.62" stroke="#000000"></path>
                <path d="M32.85,37.28 C33.8262939,37.4329572 34.8241618,37.2076322 35.64,36.65" stroke="#000000"></path>
                <path d="M32.43,44.06 C33.3894751,44.0926404 34.3398507,43.8645503 35.18,43.4" stroke="#000000"></path>
                <path d="M50.25,55.83 C49.92,55.43 49.33,54.56 49.2,54.36 C48.7641234,53.7497331 48.4266876,53.0748614 48.2,52.36 C47.965664,51.6359144 48.0841015,50.8438636 48.52,50.22 C49.2877848,49.5574543 50.4110434,49.5118607 51.23,50.11" stroke="#000000"></path>
                <path d="M43.98,38.39 C44.7629907,38.3948455 45.524473,38.1339673 46.14,37.65" stroke="#000000"></path>
                <path d="M38.3,42.8 C38.84,42.28 40.19,42.53 40.9,42.32 C42.03,41.98 42.44,40.61 42.67,39.45 C42.9,38.29 43.25,36.96 43.47,35.87" stroke="#000000"></path>
                <path d="M30.57,42.91 C28.1475444,41.6139479 26.693587,39.033466 26.84,36.29 C27.0293375,34.8432681 27.3643725,33.4193695 27.84,32.04 C28.3447263,30.122516 28.5670667,28.1416648 28.5,26.16 C28.3363775,24.8263878 28.3938149,23.4749204 28.67,22.16 C29.3076532,20.4262961 30.6697308,19.0569151 32.4,18.41 C34.110135,17.7840159 35.9022279,17.4101018 37.72,17.3 L47.47,16.23 C48.659553,16.025677 49.8765987,16.0426274 51.06,16.28 C52.0473996,16.591228 52.9669322,17.086622 53.77,17.74 C56.3199766,19.649123 58.4848724,22.0244004 60.15,24.74 C61.49,26.91 62.5,29.28 63.77,31.49 C65.6656162,34.583365 67.8199926,37.5105069 70.21,40.24 C73.32,44 76.43,47.77 79.77,51.32" stroke="#000000"></path>
                <path d="M43.17,32.99 C43.6955395,33.1273607 44.2550509,33.0005381 44.67,32.65" stroke="#000000"></path>
                <path d="M28.54,23.28 C26.0109135,23.67906 23.9494894,25.5214333 23.27,27.99 C22.27,31.53 23.8,35.22 25.27,38.58 L26.99,42.5 C27.2600912,43.2364742 27.6672716,43.9151081 28.19,44.5 C28.7316575,45.0899241 29.5606051,45.3223393 30.33,45.1" stroke="#000000"></path>
            </g>
        </g>
    </g>
</svg>