<?xml version="1.0" encoding="UTF-8"?>
<svg width="109px" height="90px" viewBox="0 0 109 90" version="1.1" xmlns="http://www.w3.org/2000/svg" xmlns:xlink="http://www.w3.org/1999/xlink">
    <!-- Generator: Sketch 43.2 (39069) - http://www.bohemiancoding.com/sketch -->
    <title>Q</title>
    <desc>Created with Sketch.</desc>
    <defs></defs>
    <g id="Symbols" stroke="none" stroke-width="1" fill="none" fill-rule="evenodd">
        <g id="Q" transform="translate(-13.000000, 0.000000)">
            <g transform="translate(14.000000, 0.000000)" id="Shape">
                <path d="M90.12,31 C93.12,44.93 85.61,54.42 102.22,64.42 C105.62,66.48 105.54,68.01 103.51,70.93 C100.11,75.86 96.99,81 93.97,86.17 C92.51,88.67 91.16,89.73 88.67,87.45 C81.54,80.92 75.22,79.96 65.3,84.71 C42.05,95.84 15.77,86.1 5.3,64.87 C-8.93,35.87 9.64,3.22 41.82,0.67 C63.73,-1.07 82.31,9.67 89.24,28.1 C89.55,28.87 89.74,29.63 90.12,31 Z" stroke="#000000"></path>
                <path d="M68.99,29.04 C68.8116431,29.2795114 68.6731895,29.5462878 68.58,29.83 C68.4964744,30.0963114 68.426386,30.3666524 68.37,30.64 C67.91,32.17 67.16,33.56 66.76,35.12 C66.29,34.6 65.83,34.07 65.3,33.55 C63.9717931,32.312466 62.5209702,31.2134592 60.97,30.27 C58.27,28.52 55.49,32.67 58.19,34.43 L59.1,35.04 C59.1390002,35.5278073 59.3197458,35.9935748 59.62,36.38 C61.46,38.81 63.41,41.9 66.13,43.47 C66.0287942,43.8602112 66.0287942,44.2697888 66.13,44.66 C66.38,45.66 66.67,46.66 66.99,47.6 L66.99,47.75 C67.05,48.01 67.11,48.26 67.19,48.51 C66.5579543,47.8348861 65.8903388,47.1939752 65.19,46.59 C61.59,43.5 58.39,39.79 54.19,37.59 C51.37,36.12 48.56,40.26 51.41,41.75 C51.64,41.87 51.86,42.01 52.09,42.14 C54.2724714,44.7073437 56.6101839,47.1385647 59.09,49.42 C58.2538925,48.8720713 57.3703579,48.4001835 56.45,48.01 C53.45,46.74 51.93,51.49 54.88,52.76 C55.6388083,53.0817153 56.3463358,53.5129702 56.98,54.04 C56.98,54.04 56.98,54.13 57.06,54.18 C57.3624345,54.5953846 57.69678,54.9865689 58.06,55.35 C59.7282263,57.1533622 61.5519286,58.8064062 63.51,60.29 C63.6823806,60.6832584 63.9505454,61.0270593 64.29,61.29 C64.69,61.6 65.08,61.88 65.48,62.15 L66.35,62.74 C66.4,62.83 66.45,62.91 66.51,63 C67.85,64.85 70.95,65.88 72.8,67.26 C74.9169277,68.9645301 77.2020684,70.4488664 79.62,71.69 C81.79,72.69 84.16,74.32 86.62,74.63 C88.27,74.84 89.87,74.36 91.52,74.8 C92.6937759,75.1781532 93.788464,75.7678613 94.75,76.54 C95.36,77.45 96.35,77.4 97.33,78.22 C102.06,82.22 103,74.22 104.59,71.86 C105.96,69.78 108.24,65.08 106.97,62.45 C106.19,60.85 104.97,60.29 102.71,59.78 C101.93,59.33 101.12,58.89 100.25,58.46 C100.205211,55.5226918 98.8248921,52.7657345 96.5,50.97 C94.12,48.97 91.16,48.8 88.56,47.23 C85.25,45.23 83.76,41.47 80.72,39.14 C80.4907837,38.963988 80.2291343,38.8348624 79.95,38.76 C78.77,37.35 77.56,35.98 76.34,34.62 C75.6745703,33.8216977 74.5608946,33.5606162 73.61,33.98 C73.9134005,33.2628284 73.876651,32.4469891 73.51,31.76 C73.6605809,31.1868909 73.7576636,30.6010468 73.8,30.01 C74.06,27.04 69.83,26.56 68.99,29.04 Z M76.84,42.77 C76.5653656,43.2234332 76.4394851,43.7514319 76.48,44.28 C76.3195151,44.3127301 76.1622366,44.359579 76.01,44.42 L75.83,44.5 C74.6921855,43.4483431 73.4862338,42.4728919 72.22,41.58 C72.4327085,41.1947512 72.6068856,40.7894545 72.74,40.37 C72.9308314,39.721353 73.0119481,39.0453806 72.98,38.37 C74.29,39.78 75.55,41.25 76.84,42.77 L76.84,42.77 Z" fill="#FAFD7B" fill-rule="nonzero"></path>
                <path d="M70.76,52.13 C72.3753808,50.3065312 72.8453313,47.7372122 71.98,45.46 C71.84,45.1 71.56,44.81 71.46,44.46 C71.3449327,43.714287 71.4896864,42.9516824 71.87,42.3 C72.5981641,40.8082478 72.8261006,39.1215177 72.52,37.49 C72.46,37.11 72.28,36.62 72.26,36.24 C72.2771557,35.8488013 72.3979428,35.4691846 72.61,35.14 C73.165067,34.0599921 73.5816886,32.9142827 73.85,31.73 C74.0620123,30.5886704 73.8970476,29.409348 73.38,28.37 C73.1201449,27.834497 72.6552672,27.4264527 72.0905909,27.2382273 C71.5259146,27.0500019 70.9091859,27.0975106 70.38,27.37 C69.787003,27.7263119 69.3028436,28.2381375 68.98,28.85 C65.81,33.95 65.46,40.32 65.98,46.31 C66.0103167,46.5316923 66.0639471,46.7495658 66.14,46.96" stroke="#000000"></path>
                <path d="M72.03,61.18 C72.27,60.02 72.56,58.73 71.48,57.9 C71.0194054,57.5853215 70.5136191,57.3425441 69.98,57.18 C68.3405063,56.6871592 66.8514315,55.7895876 65.65,54.57 C64.6438783,53.3939162 63.3050898,52.5502005 61.81,52.15 C59.69,51.72 58.88,48.96 56.92,48.04 C54.14,46.73 51.16,50.04 54.29,51.91 C56.44,53.16 57.54,55.63 59.38,57.31 C60.49,58.31 61.85,59.02 62.99,59.98 C63.99,60.8 64.76,61.8 65.69,62.67 C68.17,64.99 71.45,66.26 74.24,68.19 C75.92,69.36 77.44,70.77 79.18,71.84 C79.5437207,72.0835624 79.9413166,72.272252 80.36,72.4 C80.72,72.5 81.11,72.51 81.48,72.59 C82.3901709,72.8590655 83.2560265,73.259987 84.05,73.78 C85.4180232,74.5751627 86.9779505,74.9798445 88.56,74.95 C89.26,74.95 89.95,74.76 90.65,74.75 C93.33,74.75 97.33,78.01 99.3,79.83" stroke="#000000"></path>
                <path d="M65.55,43.5 C61.9,40.88 59.41,36.5 57.15,32.72 C56.9877542,31.854926 57.2606136,30.9653297 57.88,30.34 C58.3457408,29.9482811 58.9596715,29.7801811 59.56,29.88 C60.7474286,30.1491135 61.8692922,30.6522523 62.86,31.36 C63.2019866,31.6911689 63.5132594,32.052647 63.79,32.44 C64.4932457,33.332057 65.3063469,34.1317186 66.21,34.82" stroke="#000000"></path>
                <path d="M71,57.63 C70.821412,57.3343509 70.6866745,57.0143495 70.6,56.68 C70.0940711,55.3085035 70.0940711,53.8014965 70.6,52.43" stroke="#000000"></path>
                <path d="M72.55,36.86 C72.7512785,35.9639578 73.0885165,35.104001 73.55,34.31 C73.6857327,34.0217623 73.9197238,33.7913166 74.21,33.66 C74.5652307,33.5983982 74.9297601,33.6931759 75.21,33.92 C76.43,34.74 77.21,36.1 78.21,37.09 C79.21,38.08 80.93,38.78 82.05,39.91 C83.67,41.54 84.21,43.59 86.05,44.98 C88.44,46.76 91.15,48.04 93.65,49.65 C96.46,51.46 101.81,55.65 99.97,59.58" stroke="#000000"></path>
                <path d="M70.39,52.41 C69.31,49.75 66.97,47.62 64.76,45.78 C62.55,43.94 60.16,42.32 58.13,40.29 C57.1512204,39.105915 55.9652576,38.1097063 54.63,37.35 C53.23,36.72 51.28,36.96 50.57,38.35 C50.1237488,39.3312717 50.2382742,40.476526 50.87,41.35 C51.4836677,42.1928132 52.23805,42.9235153 53.1,43.51 C55.7185173,45.6178649 58.1386119,47.9609717 60.33,50.51 C60.95,51.2 61.33,51.42 62,52.12" stroke="#000000"></path>
                <path d="M68.64,56.47 C69.3627139,56.0934442 69.9163802,55.4576209 70.19,54.69" stroke="#000000"></path>
                <path d="M72.86,35.69 C72.7918594,37.643077 73.4836838,39.5464902 74.79,41 C76.0905312,42.4316785 77.2680351,43.9704621 78.31,45.6 C78.9497506,46.9915479 79.4748279,48.4330024 79.88,49.91 C80.7372767,52.4490075 81.9929651,54.8354905 83.6,56.98" stroke="#000000"></path>
                <path d="M91.04,62.93 C92.2723346,63.7734625 93.7177896,64.2518145 95.21,64.31 C95.9367272,64.4221296 96.6663736,64.1264308 97.11,63.54" stroke="#000000"></path>
                <path d="M76.82,44.03 C75.627771,43.9394574 74.4575521,44.387002 73.63,45.25" stroke="#000000"></path>
                <path d="M77.33,63.53 C77.7669016,62.7294927 77.9614749,61.8191679 77.89,60.91 C77.874041,57.8530518 77.2129631,54.8339022 75.95,52.05" stroke="#000000"></path>
                <path d="M72.42,41.03 C73.0084051,42.0395716 73.8231177,42.8987853 74.8,43.54 C75.4297163,43.8179648 76.1358669,43.8709261 76.8,43.69" stroke="#000000"></path>
                <path d="M100.46,58.07 C102.435326,59.6297808 104.646315,60.865234 107.01,61.73" stroke="#000000"></path>
                <path d="M67.96,31.96 L67.66,32.29 C68.4081749,32.1535725 69.101953,31.8066834 69.66,31.29 C69.9353229,30.9704283 70.1306981,30.5899609 70.23,30.18 C70.4227321,29.5818076 70.4227321,28.9381924 70.23,28.34" stroke="#000000"></path>
            </g>
        </g>
    </g>
</svg>