<?xml version="1.0" encoding="UTF-8"?>
<svg width="82px" height="89px" viewBox="0 0 82 89" version="1.1" xmlns="http://www.w3.org/2000/svg" xmlns:xlink="http://www.w3.org/1999/xlink">
    <!-- Generator: Sketch 43.2 (39069) - http://www.bohemiancoding.com/sketch -->
    <title>R</title>
    <desc>Created with Sketch.</desc>
    <defs></defs>
    <g id="Symbols" stroke="none" stroke-width="1" fill="none" fill-rule="evenodd">
        <g id="R" transform="translate(-27.000000, 0.000000)">
            <g transform="translate(28.000000, 0.000000)" id="Shape">
                <path d="M20.27,86.08 C14.95,85.84 9.61,85.92 4.27,86.08 C1.53,86.15 0.47,85.3 0.48,82.41 C0.566666667,56.27 0.566666667,30.13 0.48,3.99 C0.48,1.42 1.31,0.53 3.92,0.54 C20.92,0.64 37.92,0.36 54.87,0.69 C66.87,0.93 76.44,8.48 78.63,18.51 C81.08,29.74 76.44,39.46 65.38,45.33 C62.84,46.68 62.96,47.78 63.96,49.9 C68.96,60.44 73.68,71.07 78.72,81.57 C80.39,85.05 79.88,86.19 75.88,86.11 C66.73,85.92 57.57,86.05 48.41,86.05 C46.93,86.02 24.4,86.27 20.27,86.08 Z" stroke="#000000"></path>
                <path d="M24.96,58.09 C25.55,58.02 26.19,57.21 26.7,58.22 L24.96,58.09 Z" stroke="#000000" fill-rule="nonzero"></path>
                <path d="M50.45,59.65 C50.3658387,59.3122484 50.2126191,58.9955946 50,58.72 C50.3377781,56.5396713 50.3377781,54.3203287 50,52.14 C49.42,48.62 48.72,45.2 46.58,42.37 C45.32,39.22 44.13,36.25 42.77,33.37 C43.3687733,31.9205947 43.707289,30.3769629 43.77,28.81 C43.77,27.26 43.92,25.13 43.26,23.7 C42.930917,22.9065367 42.2929932,22.2812361 41.4931121,21.9680751 C40.693231,21.6549141 39.8003294,21.6808821 39.02,22.04 C38.1042316,22.611661 37.4973331,23.5679858 37.37,24.64 C35.37,23.9 32.51,25.86 34,28.02 C34.35,28.53 34.71,29.02 35.07,29.51 C35.0632807,29.7735824 35.0970057,30.0366373 35.17,30.29 C36.52,34.79 36.17,39.02 35.38,43.43 C34.9708343,43.1221977 34.4720062,42.9570926 33.96,42.96 C32.0540181,42.8230283 30.3618725,44.1715248 30.07,46.06 C29.8,46.51 29.53,46.98 29.25,47.45 C28.4729525,48.0799864 27.8932871,48.9199806 27.58,49.87 C25.67,53.14 25.52,57.42 25.7,61.25 C25.95,66.57 26.28,72.34 29.19,76.94 C29.3523128,77.3780551 29.624321,77.7671301 29.98,78.07 C30.0774551,78.1512832 30.1811028,78.2248397 30.29,78.29 C31.3607214,80.0116829 31.812242,82.0470531 31.57,84.06 C31.47,85.72 31.57,87.58 32.88,87.52 C35.67,88.95 41.41,88.91 43.67,88.27 C48.5,86.9 47.75,87.81 49.67,76.27 C50.59,70.45 51.94,65.45 50.45,59.65 Z" fill="#FAFD7B" fill-rule="nonzero"></path>
                <path d="M45.69,47.33 C44.61,47.58 43.29,47.75 42.59,46.89 C42.3366557,46.5234176 42.1629239,46.1078237 42.08,45.67 C40.5,39.9 36.86,34.94 34.43,29.48 C33.9643621,28.6021521 33.7206068,27.6236977 33.72,26.63 C33.7443955,25.6135696 34.4305009,24.732594 35.41,24.46 C36.0179012,24.395479 36.6293536,24.543924 37.14,24.88 C38.6126176,25.7409714 39.74825,27.0776318 40.36,28.67 C41.1,30.51 42.16,32.22 43.07,34 C46.86,41.41 51.14,50.28 50,58.83" stroke="#000000"></path>
                <path d="M37.96,76.27 C36.5142472,75.3164232 35.7718993,73.5960615 36.07,71.89 C36.3938315,70.2232127 37.076267,68.6467867 38.07,67.27 C39.5966667,64.8366667 41.2333333,62.48 42.98,60.2 C43.1867648,60.0195639 43.3102923,59.7620853 43.3216381,59.4878954 C43.3329839,59.2137054 43.2311508,58.9469015 43.04,58.75 L41.83,56.89 C41.6812784,56.6199948 41.4767381,56.3847735 41.23,56.2 C40.8922154,56.0275067 40.5192442,55.9351193 40.14,55.93 C37.31,55.63 34.48,53.59 34.2,50.76 C34.0335017,50.0194697 34.3811304,49.2587762 35.05,48.9 C35.4422158,48.8186761 35.8498149,48.8569974 36.22,49.01 L40.59,50.35 C42.44,50.92 44.59,50.95 46.02,52.2 C46.4405332,52.6246336 46.7794907,53.1229011 47.02,53.67 L49.87,58.98 C51.3475666,61.1798476 51.7964253,63.9131418 51.1,66.47 C50.2,72.39 48.98,81.03 47.8,86.89" stroke="#000000"></path>
                <path d="M28.83,59.38 C30.5075381,58.8232845 31.9278514,57.6799323 32.83,56.16" stroke="#000000"></path>
                <path d="M29.84,46.83 C29.766069,45.402097 30.4117233,44.0319585 31.56,43.18 C32.2830196,42.5958522 33.2359741,42.3798428 34.1402057,42.5951361 C35.0444373,42.8104293 35.7978002,43.4327047 36.18,44.28 C37.58915,46.3433263 39.1501413,48.2987437 40.85,50.13" stroke="#000000"></path>
                <path d="M37.66,24.69 C37.7759586,23.5797723 38.3856463,22.5807659 39.32,21.97 C40.2909695,21.5038999 41.4247768,21.5224261 42.38,22.02 C42.6734595,22.1637322 42.9248899,22.38072 43.11,22.65 C43.2393243,22.8804891 43.3305025,23.1303849 43.38,23.39 C44.2286247,26.7967626 44.0793563,30.3757332 42.95,33.7" stroke="#000000"></path>
                <path d="M35.98,32.91 C36.0512995,36.051209 35.7966035,39.1913424 35.22,42.28 C35.1685313,42.3608986 35.12817,42.4483482 35.1,42.54 C35.1,42.64 35.29,42.54 35.19,42.54" stroke="#000000"></path>
                <path d="M41.57,44.04 C41.6939341,45.4806729 41.6939341,46.9293271 41.57,48.37" stroke="#000000"></path>
                <path d="M33.89,49.41 C32.64,48.58 31.8,46.94 30.3,46.86 C28.8,46.78 27.76,48.35 27.2,49.76 C23.85,58.24 25.28,67.94 28.62,76.42 C28.8312449,77.0136506 29.1168524,77.5781454 29.47,78.1 C30.5525275,79.519693 32.4323633,80.0706794 34.11,79.46" stroke="#000000"></path>
                <path d="M28.45,53.74 C29.2607186,54.70764 30.40745,55.3328051 31.66,55.49 C31.8781818,55.45 32.1018182,55.45 32.32,55.49 C32.6135918,55.6520671 32.8429442,55.9096474 32.97,56.22 C33.9484442,57.914144 35.4919638,59.2098508 37.33,59.88 C38.1518299,60.2254829 39.0618039,60.3024807 39.93,60.1 C40.8135869,59.8731429 41.4609486,59.1178876 41.55,58.21 C41.5283672,57.5135776 41.1894814,56.8652743 40.63,56.45" stroke="#000000"></path>
                <path d="M30.91,79.27 C31.2859782,81.8090845 31.4665084,84.3732828 31.45,86.94" stroke="#000000"></path>
                <path d="M40.58,59.81 C38.98,59.38 37.2,58.23 37.7,57 C38.09,56.05 39.92,56.37 40.58,56.49" stroke="#000000"></path>
                <path d="M39.51,33.39 C40.0450857,33.4685658 40.5912959,33.4136013 41.1,33.23 C41.5692195,33.1021909 41.9706569,32.7975286 42.22,32.38" stroke="#000000"></path>
                <path d="M42.68,40.8 C43.0680899,40.8545875 43.4619101,40.8545875 43.85,40.8 C44.1160883,40.791844 44.3778709,40.7306481 44.62,40.62 C45.1282311,40.2931942 45.4874459,39.779517 45.62,39.19" stroke="#000000"></path>
                <path d="M35.81,37.92 C36.2873844,38.2290666 36.8529362,38.3730891 37.42,38.33" stroke="#000000"></path>
                <path d="M34.16,50.13 C34.8469725,51.1174456 35.9579455,51.7247775 37.16,51.77 C37.6901772,51.9108881 38.2556057,51.7721269 38.6603277,51.4018063 C39.0650497,51.0314856 39.2533612,50.4805747 39.16,49.94" stroke="#000000"></path>
            </g>
        </g>
    </g>
</svg>