<?xml version="1.0" encoding="UTF-8"?>
<svg width="81px" height="92px" viewBox="0 0 81 92" version="1.1" xmlns="http://www.w3.org/2000/svg" xmlns:xlink="http://www.w3.org/1999/xlink">
    <!-- Generator: Sketch 43.2 (39069) - http://www.bohemiancoding.com/sketch -->
    <title>U</title>
    <desc>Created with Sketch.</desc>
    <defs></defs>
    <g id="Symbols" stroke="none" stroke-width="1" fill="none" fill-rule="evenodd">
        <g id="U" transform="translate(-28.000000, 1.000000)">
            <g transform="translate(28.000000, 0.000000)" id="Shape">
                <path d="M28.13,86.74 C13.38,83.02 1.62,69.84 0.94,54.54 C0.2,37.54 0.65,20.54 0.51,3.59 C0.51,1.16 1.51,0.45 3.78,0.45 C27.9266667,0.49 52.0766667,0.49 76.23,0.45 C78.38,0.45 79.7,0.98 79.65,3.51 C79.25,20.98 80.91,38.51 78.78,55.91 C77.12,69.53 69.84,79.75 56.78,85.17 C46.57,88.97 31.07,87.53 28.13,86.74 Z" stroke="#000000"></path>
                <path d="M49.57,59.29 C49.5483225,59.1680714 49.518251,59.0477853 49.48,58.93 C49.5162539,58.7987647 49.54299,58.6650841 49.56,58.53 C49.6739454,57.6570359 49.6739454,56.7729641 49.56,55.9 C49.5155256,55.5741398 49.4210832,55.2570831 49.28,54.96 C49.28,54.04 49.33,53.12 49.28,52.19 C49.18,49.45 48.44,46.65 48.66,43.91 C48.755319,43.1708511 48.4459456,42.4375217 47.85,41.99 C47.7457011,40.2025234 47.4609192,38.4301746 47,36.7 C47,36.25 46.92,35.79 46.9,35.34 C46.79,33.34 47,31.2 46.32,29.23 C46.0460492,28.3654714 45.3134759,27.7254337 44.42,27.57 C43.4419388,26.7487221 41.9900057,26.8458118 41.13,27.79 C40.7309856,26.1408391 39.9538424,24.607094 38.86,23.31 C37.8786647,22.3416521 36.3013353,22.3416521 35.32,23.31 L35.23,23.42 C34.3345768,23.7508444 33.8128992,24.6839263 34,25.62 C34.39,28.82 35.53,31.78 36,34.94 C36.2102027,36.5611398 36.2604446,38.1990244 36.15,39.83 C36.15,40.47 36.3,42.54 36.28,43.83 C35.8172672,43.7055761 35.3337799,43.6783374 34.86,43.75 C33.9498172,43.5519757 32.9986034,43.7642858 32.2590068,44.3305395 C31.5194102,44.8967931 31.0662908,45.7596756 31.02,46.69 C30.87,46.9 30.73,47.12 30.59,47.35 C30.4509016,47.5765438 30.3464158,47.8225909 30.28,48.08 C29.16,48.62 26.8,49.48 26.42,49.81 C25.2469974,50.7618506 24.4324316,52.0841977 24.11,53.56 C23.75,55.75 24.89,57.69 24.48,59.94 C24.15,61.74 23.48,63.04 23.22,64.67 L23.22,64.89 C22.4408513,65.8071352 22.2544123,67.0889032 22.74,68.19 C22.7529367,68.854849 22.9170856,69.5080249 23.22,70.1 C23.42,70.67 23.7,71.21 23.95,72.1 C24.1001777,72.6226283 24.4160182,73.0823516 24.85,73.41 C25.1726317,74.2428011 25.6705501,74.9964996 26.31,75.62 C26.85,76.12 27.31,76.4 27.77,76.74 C27.7901894,76.8819238 27.8202625,77.022265 27.86,77.16 C28.493467,79.2133971 28.879532,81.3350761 29.01,83.48 C29.07,84.77 28.74,86.36 29.43,87.55 C30.72,89.79 34.81,90.02 37.06,90.06 C39.8,90.06 44.32,90.15 46.76,88.82 C47.03,86.82 47.48,82.44 46.94,80.24 C46.9026863,80.0912051 46.8490266,79.9469947 46.78,79.81 C47.12,76.52 48.3,73.81 49.18,70.57 C50.0444062,66.8714175 50.1768943,63.0394519 49.57,59.29 L49.57,59.29 Z" fill="#FAFD7B" fill-rule="nonzero"></path>
                <path d="M27.1,53.64 C27.8120258,54.4370583 28.7754177,54.9663945 29.83,55.14 C29.7879607,56.1899282 29.9301076,57.2391077 30.25,58.24 C30.5835056,59.2566268 31.4332059,60.0186899 32.48,60.24 C33.7000587,60.3217172 34.8387116,59.6240919 35.32,58.5 C35.7659671,57.3875772 35.849946,56.1628854 35.56,55 C35.21,53.21 32.03,48.4 30.15,48 C27.91,47.55 25.51,50.23 24.46,51.85 C23.32,53.62 24.55,55.98 24.67,57.85 C24.81,60.02 23.76,62.06 23.2,64.16 C22.3665084,67.055902 22.6705597,70.1608022 24.05,72.84 C25.4859014,75.5218739 28.213003,77.2641888 31.25,77.44" stroke="#000000"></path>
                <path d="M40.21,78.66 C41.5580173,78.9857482 42.9794078,78.6097189 43.99,77.66" stroke="#000000"></path>
                <path d="M30.57,47.63 C30.7870176,46.1821186 31.5805473,44.8836155 32.77,44.03 C34.0393328,43.2655657 35.6575578,43.411206 36.77,44.39 C37.127192,44.6216392 37.4619781,44.8861201 37.77,45.18" stroke="#000000"></path>
                <path d="M33.27,74.51 C32.98,71.06 33.4,67.22 35.47,64.35 C36.1634845,63.281034 37.1589348,62.4422105 38.33,61.94 C39.33,61.52 40.41,61.72 41.06,60.55 C42.2,58.48 40.06,54.23 38.71,52.69 C37.71,51.57 36.39,50.77 35.51,49.55 C34.63,48.33 34.43,46.39 35.64,45.55 C36.4441936,45.0649057 37.4362022,45.0087543 38.29,45.4 C39.1269087,45.7935081 39.9355157,46.2445905 40.71,46.75 C41.7371176,47.2036263 42.7211225,47.7491799 43.65,48.38 C46.18,50.45 45.95,54.44 47.8,57.14 C48.24,57.79 48.8,58.35 49.21,59.02 C50.21,60.6 50.21,62.55 50.21,64.4 C50.2521156,65.708712 50.1650272,67.018387 49.95,68.31 C49.5708139,69.7748036 49.0998845,71.2143112 48.54,72.62 C47.02,77.15 47,82.02 47,86.79 C46.9001685,87.4933122 46.954768,88.2099307 47.16,88.89" stroke="#000000"></path>
                <path d="M27.42,76.43 C27.6522156,76.5864675 27.8081919,76.8331278 27.85,77.11 C28.7526965,80.6662271 29.1399832,84.3336644 29,88" stroke="#000000"></path>
                <path d="M41.34,46.67 C41.8160551,41.6767907 41.7389203,36.6462664 41.11,31.67 C40.92,30.19 40.8,28.41 41.99,27.5 C43.18,26.59 45.08,27.29 45.93,28.55 C46.6591728,29.8983117 47.0406779,31.4071475 47.04,32.94 C47.81,41.33 50.1,49.63 49.74,58.05 C49.6939019,58.774419 49.7511426,59.5017118 49.91,60.21" stroke="#000000"></path>
                <path d="M35.7,58.21 L36.03,58.77 C36.4484486,59.6206663 37.0575915,60.3632731 37.81,60.94 C38.5985611,61.5138573 39.67766,61.4725125 40.42,60.84 C40.6693121,60.5520282 40.8474366,60.2094811 40.94,59.84 C41.1973136,58.9736217 41.2452955,58.0585376 41.08,57.17" stroke="#000000"></path>
                <path d="M40.29,62.54 C40.103446,63.251505 40.069368,63.9944039 40.19,64.72 C40.3285867,65.4594092 40.9170497,66.0318596 41.66,66.15" stroke="#000000"></path>
                <path d="M35.78,43.47 C35.8666667,40.4233333 35.82,37.3766667 35.64,34.33 C35.578192,32.6198485 35.3572377,30.9191705 34.98,29.25 C34.6565727,28.2390949 34.4223437,27.2017949 34.28,26.15 C34.1478642,25.0808018 34.5169314,24.010507 35.28,23.25 C36.5953888,22.3279896 38.3898,22.5202479 39.48,23.7 C40.5078496,25.0075908 41.077098,26.6169474 41.1,28.28" stroke="#000000"></path>
                <path d="M33.06,60.25 C32.3487787,59.0455767 32.1167408,57.6176514 32.41,56.25 C32.76,55.44 34.74,54.09 35.7,57.2" stroke="#000000"></path>
                <path d="M35.2,29.74 C35.31,30.22 36.41,30.46 37.02,30.42" stroke="#000000"></path>
                <path d="M35.94,36.53 C36.5163726,37.0769106 37.2979626,37.3531936 38.09,37.29" stroke="#000000"></path>
                <path d="M41.49,33.06 C42.1115864,33.3824757 42.7918019,33.5763371 43.49,33.63" stroke="#000000"></path>
                <path d="M41.71,39.22 C42.4360603,39.6808134 43.2630076,39.95875 44.12,40.03" stroke="#000000"></path>
                <path d="M43.47,51.27 C44.0864831,51.3167468 44.6986396,51.1352353 45.19,50.76" stroke="#000000"></path>
                <path d="M35.25,45.91 C34.87,46.72 37.41,48.69 38.44,48.62 C40.79,48.45 40.78,47.62 40.52,46.62" stroke="#000000"></path>
                <path d="M38.7,61.03 C37.33,59.7 36.91,57.17 38.09,56.15 C38.56,55.75 40.73,56.15 41.16,57.74" stroke="#000000"></path>
                <path d="M33.33,28.27 C32.18,28.91 30.95,29.79 30.77,31.1 C30.6957678,32.1171416 31.1348233,33.1040783 31.94,33.73 C32.741122,34.3366526 33.6507579,34.7846822 34.62,35.05 C40.0942534,36.8529584 45.8802855,37.5132468 51.62,36.99" stroke="#000000"></path>
                <path d="M52.95,34.47 C52.8531314,36.3410201 53.0419659,38.2158765 53.51,40.03 C54.9929942,38.8523022 56.5349904,37.7508763 58.13,36.73 C58.1897335,36.6649684 58.1897335,36.5650316 58.13,36.5 C56.36,35.88 52.97,34.5 52.97,34.5" stroke="#000000"></path>
                <path d="M36.12,35.53 C39.6100802,36.5579202 43.2223121,37.112872 46.86,37.18" stroke="#000000"></path>
            </g>
        </g>
    </g>
</svg>