<?xml version="1.0" encoding="UTF-8"?>
<svg width="97px" height="88px" viewBox="0 0 97 88" version="1.1" xmlns="http://www.w3.org/2000/svg" xmlns:xlink="http://www.w3.org/1999/xlink">
    <!-- Generator: Sketch 43.2 (39069) - http://www.bohemiancoding.com/sketch -->
    <title>X</title>
    <desc>Created with Sketch.</desc>
    <defs></defs>
    <g id="Symbols" stroke="none" stroke-width="1" fill="none" fill-rule="evenodd">
        <g id="X" transform="translate(-19.000000, 0.000000)">
            <g transform="translate(20.000000, 0.000000)" id="Shape">
                <path d="M4.85,0.5 C1.27,0.5 0.48,1.16 2.38,4.56 C8.38,15.31 14.06,26.26 20.05,37.02 C21.3997833,39.1038536 21.3997833,41.7861464 20.05,43.87 C13.56,56.07 7.24,68.36 0.94,80.66 L0.94,80.66 C0.329333496,81.7622523 0.344991437,83.104796 0.981199235,84.1925061 C1.61740703,85.2802162 2.77991707,85.9519597 4.04,85.96 L34.04,85.96 C35.15,85.96 57.5,86.02 60.26,85.96 C70.75,85.9 81.26,85.96 91.73,85.96 C94.44,85.96 94.73,81.08 93.5,78.69 C93.5,78.69 82.11,55.98 75.78,43.69 C74.95,42.08 73.88,40.59 74.97,38.58 C81.62,26.33 87.17,15.98 94.03,3.26 C94.2,2.7 95.27,0.46 92.15,0.5 C62.25,0.55 34.75,0.53 4.85,0.5 Z" stroke="#000000"></path>
                <path d="M93.55,71.94 C93.4130354,71.0696496 92.7226508,70.3914483 91.85,70.27 C91.6578101,70.1688303 91.4525228,70.0947923 91.24,70.05 C90.5156882,69.5595243 89.757068,69.1217303 88.97,68.74 C89.3635024,67.6275267 89.4633869,66.4323575 89.26,65.27 C89.1996921,64.7388 88.9206384,64.2567981 88.49,63.94 C88.2087845,63.1930529 87.7764329,62.5121841 87.22,61.94 C86.9901816,61.694246 86.705892,61.5058613 86.39,61.39 C85.4689258,60.4249385 84.4425091,59.5662369 83.33,58.83 C79.84,56.47 76.39,54.35 72.13,53.88 C71.6767766,53.8168776 71.2151651,53.8973099 70.81,54.11 C67.95,53.74 65.11,53.11 63.18,50.95 C61.25,48.79 58.3,51.36 59.18,53.65 C55.39,51.65 51.6,49.59 47.71,47.82 C46.26,47.16 44.49,46.34 42.93,47.15 C42.490535,47.45076 42.11076,47.830535 41.81,48.27 L41.58,48.54 C41.0434033,48.6935935 40.5339755,48.9297521 40.07,49.24 C39.6061951,49.4997252 39.2143983,49.8709011 38.93,50.32 C38.8,50.56 38.7,51.01 39.05,51.14 C39.05,51.14 39.05,51.14 39.11,51.22 L39.28,51.4 L39.28,51.47 C39.3194028,51.5445794 39.3663124,51.6149438 39.42,51.68 L39.59,51.78 L39.59,51.78 C39.6050677,52.0883455 39.8516545,52.3349323 40.16,52.35 C40.319306,52.3710746 40.480694,52.3710746 40.64,52.35 C40.9693431,52.8922424 41.4685165,53.3105638 42.06,53.54 C42.1204347,54.3136793 42.589425,54.9961937 43.29,55.33 C48.58,58.16 53.23,61.87 58.39,64.9 C57.8572613,65.6414761 57.8942947,66.6496096 58.48,67.35 C60.71,70.35 62.9,72.87 66.37,74.48 C69.84,76.09 72.85,78.48 76.37,79.99 C76.6289366,80.1034614 76.901049,80.1840873 77.18,80.23 C77.4258787,80.4510752 77.715469,80.6180155 78.03,80.72 C81.65,81.91 85.62,82.82 89.03,84.45 C89.1432198,84.5021015 89.2602206,84.545559 89.38,84.58 C89.709781,85.0215513 90.0778747,85.4331469 90.48,85.81 C91.48,87.24 93.48,87.71 94.39,85.9 C96.41,81.98 96.3,75.72 93.55,71.94 Z" fill="#FAFD7B" fill-rule="nonzero"></path>
                <path d="M61.05,66.45 L63.05,61.97 C63.2978366,61.2001267 63.8166069,60.546334 64.51,60.13 C65.3662301,59.8888546 66.2838154,60.0080684 67.05,60.46 C68.7143347,61.0950181 70.3316989,61.8468919 71.89,62.71 C73.83,63.91 74.01,64.97 75.01,66.77 C75.5876345,67.5255951 75.9348682,68.4318751 76.01,69.38 C75.8423241,70.4681635 74.8796906,71.2538105 73.78,71.2 C72.7011003,71.1000473 71.7547875,70.4387684 71.29,69.46 C71.0765898,68.858526 70.7804085,68.2897234 70.41,67.77 C69.67,66.98 68.41,67 67.35,67.09 C67.1525045,67.0587289 66.9508995,67.1109957 66.7934733,67.2342812 C66.636047,67.3575668 66.5369798,67.5407664 66.52,67.74 L65.76,70.54" stroke="#000000"></path>
                <path d="M84.63,73.19 C84.9066102,74.1150595 84.802207,75.1122896 84.34,75.96 C83.877456,76.7953845 83.3057687,77.565481 82.64,78.25" stroke="#000000"></path>
                <path d="M75.23,66.83 C79.53,67.26 76.36,62.3 75.46,61.35 C74.0542436,60.0382462 72.4252808,58.9883949 70.65,58.25 C68.7475342,57.2073074 66.7024432,56.4492424 64.58,56 C63.6927748,55.7693693 62.7494825,55.9217473 61.98,56.42 C61.5188663,56.857969 61.1750294,57.4046698 60.98,58.01 L58.74,63.52 C57.4753878,65.6480897 58.0739699,68.3919549 60.11,69.8 C61.2847212,71.2189766 62.6511537,72.4676131 64.17,73.51 C65.4147698,74.1913321 66.6967843,74.8022921 68.01,75.34 C71.8,77.13 75.01,80.06 78.94,81.54 C81.15,82.37 83.5,82.71 85.76,83.37 C88.0882505,83.89293 90.189661,85.1432692 91.76,86.94" stroke="#000000"></path>
                <path d="M79.95,69.13 C81.0695621,69.6769347 82.2792301,70.0157772 83.52,70.13" stroke="#000000"></path>
                <path d="M61.69,56.72 C60.85,55.6733333 60.0433333,54.6033333 59.27,53.51 C58.9927288,53.1713281 58.7945748,52.7750201 58.69,52.35 C58.47,51.07 60.01,50.09 61.29,50.26 C62.5456753,50.5858322 63.7203158,51.1680453 64.74,51.97 C66.329026,52.9342042 68.1115546,53.53521 69.96,53.73 C71.7607796,53.7479067 73.5582581,53.8882303 75.34,54.15 C76.60195,54.5096085 77.807077,55.0448464 78.92,55.74 C80.5733333,56.6866667 82.19,57.6866667 83.77,58.74 C85.5403145,59.805904 87.074865,61.2213653 88.28,62.9 C89.7284605,65.2164267 89.981224,68.0860363 88.96,70.62" stroke="#000000"></path>
                <path d="M58.09,64.94 C54.1297072,62.6362634 50.2974014,60.1192263 46.61,57.4 C44.7633333,56.0666667 42.9566667,54.6566667 41.19,53.17 C40.1,52.27 37.19,50.36 39.84,49.17 C40.95,48.66 42.25,49.17 43.37,49.46 C45.24,49.94 46.37,51 47.89,52.1 C49.18,53.1 50.77,52.89 52.13,53.84 C53.49,54.79 54.28,55.95 55.52,56.84 C56.91,57.84 58.75,58.16 60.23,58.98" stroke="#000000"></path>
                <path d="M89.53,68.44 C89.5622303,68.8128844 89.7512408,69.1545572 90.05,69.38 C90.9869382,70.013206 91.9935419,70.5366399 93.05,70.94" stroke="#000000"></path>
                <path d="M41.99,48.64 C41.6,47.82 42.57,46.96 43.46,46.79 C44.8715561,46.6114875 46.3020526,46.9144991 47.52,47.65 C48.77,48.31 49.91,49.16 51.2,49.74 C52.68,50.41 54.34,50.74 55.63,51.74 C56.63,52.5 57.45,53.69 58.71,53.8" stroke="#000000"></path>
                <path d="M74.86,70.89 C74.1562627,70.3207446 73.5861618,69.6038512 73.19,68.79 C73.0261364,68.3046275 73.0547714,67.774881 73.27,67.31 C73.5340117,67.0056467 73.9170942,66.8308238 74.32,66.8308238 C74.7229058,66.8308238 75.1059883,67.0056467 75.37,67.31" stroke="#000000"></path>
                <path d="M75.05,66.43 C74.24,65.21 74.38,63.49 74.88,63.04 C75.38,62.59 76.1,62.57 77.11,64.04" stroke="#000000"></path>
                <path d="M73.07,58.72 C73.6904452,58.4934992 74.2464444,58.1194009 74.69,57.63" stroke="#000000"></path>
                <path d="M47.94,54.5 L48.26,53.5" stroke="#000000"></path>
                <path d="M54.96,57.49 L55.11,57.19" stroke="#000000"></path>
                <path d="M49.3,50.48 L49.89,49.88" stroke="#000000"></path>
                <path d="M56.17,54.22 C56.5578645,54.0916418 56.8760083,53.8096506 57.05,53.44" stroke="#000000"></path>
                <path d="M54.51,57.79 L54.81,57.64" stroke="#000000"></path>
                <path d="M70.4,66.19 C70.117182,66.5301258 69.9837544,66.9700762 70.03,67.41" stroke="#000000"></path>
                <path d="M66.77,65.56 C66.813956,66.067248 67.024982,66.5455735 67.37,66.92" stroke="#000000"></path>
                <path d="M32.21,64.37 C32.4,58.18 32.21,52.37 34.96,46.65 C35.5050814,45.167194 36.5715384,43.9336588 37.96,43.18 C39.42,42.59 41.48,43.37 41.62,44.94" stroke="#000000"></path>
                <path d="M29.54,65.13 L34.33,64.49 C33.4959089,65.897991 32.9519024,67.4586099 32.73,69.08 L30.39,66.52 C29.9263301,66.1500094 29.6816564,65.570321 29.74,64.98" stroke="#000000"></path>
            </g>
        </g>
    </g>
</svg>