<?xml version="1.0" encoding="UTF-8"?>
<svg width="99px" height="94px" viewBox="0 0 99 94" version="1.1" xmlns="http://www.w3.org/2000/svg" xmlns:xlink="http://www.w3.org/1999/xlink">
    <!-- Generator: Sketch 43.2 (39069) - http://www.bohemiancoding.com/sketch -->
    <title>รก</title>
    <desc>Created with Sketch.</desc>
    <defs></defs>
    <g id="Symbols" stroke="none" stroke-width="1" fill="none" fill-rule="evenodd">
        <g id="รก" transform="translate(-18.000000, 0.000000)">
            <g transform="translate(18.000000, 0.000000)" id="Shape">
                <path d="M36.29,87.62 L1.5,87.62 C1.14560143,87.6143459 0.820674928,87.4215137 0.645929743,87.1131398 C0.471184559,86.804766 0.472733066,86.4269312 0.65,86.12 L52.2,0.97 C52.3888064,0.671426791 52.7211349,0.494623416 53.0742474,0.504888314 C53.4273599,0.515153212 53.7488567,0.710963138 53.92,1.02 L98.78,86.14 C98.9352066,86.4479365 98.9208057,86.8141123 98.7418949,87.1089086 C98.562984,87.4037049 98.24481,87.5855219 97.9,87.59 L62.38,87.59 C60.94,87.6 40.67,87.61 36.29,87.62 Z" fill="#000000" fill-rule="nonzero"></path>
                <path d="M65.68,77.81 C66.83,77.17 68.06,76.29 68.24,74.98 C68.3142322,73.9628584 67.8751767,72.9759217 67.07,72.35 C66.268878,71.7433474 65.3592421,71.2953178 64.39,71.03 C60.81,69.84 40.93,68.8 32.53,71.33 C27.13,72.96 28.04,77.58 32,79.08" stroke="#AFDBD1"></path>
                <path d="M63.14,81.21 C63.2368686,79.3389799 63.0480341,77.4641235 62.58,75.65 C61.0970058,76.8276978 59.5550096,77.9291237 57.96,78.95 C57.9002665,79.0150316 57.9002665,79.1149684 57.96,79.18 C59.73,79.8 63.12,81.18 63.12,81.18" stroke="#AFDBD1"></path>
                <path d="M64.73,42.4 C64.6194354,41.9888035 64.393961,41.617638 64.08,41.33 C64.02,40.76 63.94,40.19 63.88,39.62 C63.8303036,39.0611886 63.5984173,38.5341742 63.22,38.12 C63.32,37.91 63.43,37.71 63.51,37.49 C64.0055617,37.080046 64.1054313,36.3592483 63.74,35.83 C64.2503913,35.6753224 64.5495862,35.1473315 64.42,34.63 L64.42,34.49 C64.3498876,34.2339583 64.1808445,34.0163021 63.9501234,33.8849974 C63.7194024,33.7536928 63.4459398,33.7195164 63.19,33.79 C63.12,33.79 63.01,33.61 62.95,33.64 C60.56,33.58 59.95,34.37 59.49,37.47 C59.1588392,37.7929308 58.9745125,38.2374833 58.98,38.7 C57.84,37.38 55.54,37.38 54.81,38.76 L54.7,38.76 C54.1050478,38.984213 53.6521463,39.47795 53.48,40.09 C51.67,37.84 48.09,37.6 46.96,40.5 C45.3867689,39.3252338 43.1623574,39.6277538 41.96,41.18 C41.4839557,41.7325588 41.2497636,42.4531499 41.31,43.18 C40.6511756,42.9208009 39.9082316,42.9913805 39.31,43.37 C39.12,43.52 38.96,43.69 38.78,43.85 C38.56835,43.9024776 38.3636092,43.9796749 38.17,44.08 C36.45,44.99 35.17,47.28 34.72,49.08 C34.27,50.88 33.55,52.9 33.9,54.7 C33.9,54.94 33.83,55.18 33.81,55.42 L33.81,55.65 C32.81,56.4 32.61,57.93 32.62,59.14 C32.62,60.2 32.68,61.83 33.46,62.7 C33.5418335,63.9687957 33.8821308,65.2074778 34.46,66.34 C34.210159,67.0153815 34.327426,67.7719428 34.77,68.34 C35.3725669,69.1955428 35.9107157,70.0946859 36.38,71.03 C37.395777,73.7662274 38.0675913,76.6180793 38.38,79.52 C38.71,83.11 37.69,86.66 36.96,90.14 C36.7437267,91.005496 36.9973622,91.9210059 37.6281782,92.5518218 C38.2589941,93.1826378 39.174504,93.4362733 40.04,93.22 C43.83,92.56 51.94,95.65 54.42,91.35 C55.49,89.5 55.04,86.11 55.15,84.1 C55.29,81.48 54.52,78.1 54.89,75.33 C54.99,74.88 55.09,74.44 55.18,73.99 L55.18,73.87 C56.7870135,72.4924643 57.9551419,70.6742169 58.54,68.64 C59.7223011,65.5252655 60.6944804,62.33478 61.45,59.09 C61.97,56.4 62.95,53.81 63.25,51.09 L64.36,49.3 C65.78,47.05 65.38,44.88 64.73,42.4 Z" fill="#AFDBD1" fill-rule="nonzero"></path>
                <path d="M36.38,90.73 C36.9526215,89.6991893 37.293863,88.55603 37.38,87.38 C37.92,83.53 38.46,79.56 37.55,75.78 C36.69,72.21 34.55,69.05 33.61,65.52 C32.41,61.22 32.92,56.63 33.78,52.24 C34.37,49.24 35.24,46.03 37.6,44.07 C38.78,43.07 40.74,42.6 41.74,43.77 C42.0897203,44.2587943 42.3161462,44.8248591 42.4,45.42 L43.79,51.64 C43.9410352,52.1223905 43.9651445,52.6355743 43.86,53.13 C43.51,54.26 41.97,54.53 40.86,54.13 C38.76,53.38 37.5,51.13 37.19,48.93 L37.34,51.49 C36.95,51.75 36.63,51.81 36.24,52.07" stroke="#000000" stroke-linecap="round"></path>
                <path d="M43.38,54.3 C43.476657,55.5880376 43.9770552,56.8127885 44.81,57.8 C45.61,58.74 46.99,59.44 48.05,58.8 C49.11,58.16 49.16,56.68 49.05,55.44 L48.4,45.24 C48.4326619,43.8947903 48.0861208,42.567538 47.4,41.41 C46.554661,40.2500726 45.0954558,39.7112286 43.6991358,40.0433736 C42.3028159,40.3755185 41.2425227,41.5136798 41.01,42.93" stroke="#000000" stroke-linecap="round"></path>
                <path d="M47.04,67.17 C47.90507,64.9213005 49.0906635,62.8094622 50.56,60.9" stroke="#000000" stroke-linecap="round"></path>
                <path d="M49.59,57.48 C50.51,58.55 52.4,58.07 53.22,56.92 C53.921964,55.687906 54.2389095,54.2738415 54.13,52.86 L54.33,43.17 C54.3725131,42.5009354 54.3322078,41.8291813 54.21,41.17 C53.8437263,39.548921 52.5264499,38.3147601 50.8849697,38.0547673 C49.2434896,37.7947745 47.6093014,38.5614551 46.76,39.99" stroke="#000000" stroke-linecap="round"></path>
                <path d="M41.12,54.14 C40.5032011,53.6055317 40.1401667,52.8358986 40.12,52.02 C40.0730694,51.5694199 40.2309164,51.1215751 40.55,50.8 C40.8232328,50.6024707 41.144331,50.4816273 41.48,50.45 C42.1794284,50.2382487 42.9386729,50.4090787 43.48,50.9 C43.7034508,51.2667193 43.8146897,51.6908176 43.8,52.12" stroke="#000000" stroke-linecap="round"></path>
                <path d="M45.54,57.9 C45.6276007,57.397192 45.5827982,56.8802401 45.41,56.4 C45.2184078,55.4960026 45.5697168,54.563082 46.31,54.01 C46.6877031,53.7655659 47.1500439,53.6892087 47.5862844,53.7992172 C48.0225249,53.9092256 48.3933713,54.1956909 48.61,54.59" stroke="#000000" stroke-linecap="round"></path>
                <path d="M49.3,55.07 C49.4078734,54.0481628 50.2725003,53.2743218 51.3,53.28 C51.6891329,53.2428829 52.0802438,53.3266924 52.42,53.52 C52.8279448,53.8113136 53.093235,54.2619435 53.15,54.76 C53.2003148,55.2536815 53.1801123,55.7520114 53.09,56.24" stroke="#000000" stroke-linecap="round"></path>
                <path d="M53.69,39.48 C53.97,38.27 55.4,37.79 56.63,37.59 C57.3218086,37.3862623 58.0670068,37.4766989 58.69,37.84 C59.239144,38.4359666 59.4891271,39.2484115 59.37,40.05 C59.3415849,43.2560824 59.0977019,46.4566295 58.64,49.63 C58.5606382,50.8413068 58.1640344,52.0104258 57.49,53.02 C56.7622032,54.0336314 55.4059085,54.3684667 54.29,53.81" stroke="#000000" stroke-linecap="round"></path>
                <path d="M39.48,74.18 C40.8121415,75.3230426 42.5721207,75.8368253 44.31,75.59" stroke="#000000" stroke-linecap="round"></path>
                <path d="M54.96,90.59 C55.1466667,86.3166667 55.1466667,82.0366667 54.96,77.75 C54.873463,76.7892766 54.9375695,75.8209311 55.15,74.88 C55.252325,74.5987689 55.3227658,74.3069427 55.36,74.01" stroke="#000000" stroke-linecap="round"></path>
                <path d="M59.24,38.77 C59.17,37.45 59.24,35.45 59.99,34.51 C60.8031996,33.5704558 62.0414587,33.113659 63.27,33.3 C63.6115902,33.2774268 63.945708,33.4068899 64.1829064,33.6537306 C64.4201048,33.9005712 64.536159,34.2395798 64.5,34.58 C64.4935399,35.4092059 64.2544738,36.219952 63.81,36.92 C63.6519965,37.1265839 63.5333545,37.3604782 63.46,37.61 C63.4258887,37.9096503 63.4707036,38.2130122 63.59,38.49 C64.1366667,40.11 64.6366667,41.7466667 65.09,43.4 C65.4021986,44.340513 65.5411163,45.3298777 65.5,46.32 C65.3230773,47.3464208 64.98561,48.3385749 64.5,49.26 C63.4425532,51.8487492 62.557292,54.5045326 61.85,57.21 L58.26,69.76 C57.9173815,72.21887 55.9479658,74.1306041 53.48,74.4 C52.8918423,74.6153963 52.2752897,74.7434237 51.65,74.78" stroke="#000000" stroke-linecap="round"></path>
                <path d="M59.57,44.67 C59.9845819,45.3604691 60.7728659,45.734904 61.57,45.62" stroke="#000000" stroke-linecap="round"></path>
                <path d="M63.21,34 C62.652469,34.5925787 62.2745014,35.3311761 62.12,36.13 C61.9769948,36.9414881 62.301588,37.7645638 62.96,38.26 C63.0540345,38.3334146 63.1859655,38.3334146 63.28,38.26" stroke="#000000" stroke-linecap="round"></path>
                <path d="M54.7,50.19 C54.9744925,49.6577998 55.5791354,49.384468 56.16,49.53 C57.10714,49.7310633 57.7883635,50.5618238 57.8,51.53" stroke="#000000" stroke-linecap="round"></path>
                <path d="M55.38,45.39 C56.1946564,45.8822498 57.1810184,46.0023603 58.09,45.72" stroke="#000000" stroke-linecap="round"></path>
                <path d="M50.48,49 L52.48,49" stroke="#000000" stroke-linecap="round"></path>
                <path d="M46.11,50.48 C46.7019638,50.6504464 47.333061,50.6259037 47.91,50.41 C48.019269,50.3798064 48.1146884,50.3126594 48.18,50.22 C48.2072669,50.1728968 48.2130247,50.1163619 48.1958137,50.0647288 C48.1786026,50.0130957 48.1400754,49.9713225 48.09,49.95" stroke="#000000" stroke-linecap="round"></path>
                <path d="M40.19,47.15 C40.7997443,47.2021243 41.4092505,47.0471054 41.92,46.71" stroke="#000000" stroke-linecap="round"></path>
                <path d="M31.37,28.88 L64.88,8.39" stroke="#FFFFFF" stroke-width="2" stroke-linecap="round" stroke-linejoin="round"></path>
            </g>
        </g>
    </g>
</svg>