<?xml version="1.0" encoding="UTF-8"?>
<svg width="85px" height="93px" viewBox="0 0 85 93" version="1.1" xmlns="http://www.w3.org/2000/svg" xmlns:xlink="http://www.w3.org/1999/xlink">
    <!-- Generator: Sketch 43.2 (39069) - http://www.bohemiancoding.com/sketch -->
    <title>É</title>
    <desc>Created with Sketch.</desc>
    <defs></defs>
    <g id="Symbols" stroke="none" stroke-width="1" fill="none" fill-rule="evenodd">
        <g id="é" transform="translate(-25.000000, 3.000000)">
            <g id="É" transform="translate(26.000000, -2.000000)">
                <path d="M25.3,87.93 C19.64,87.84 13.97,87.8 8.3,87.93 C4.64,88.02 5.45,85.47 5.44,83.47 C5.4,67.8166667 5.4,52.15 5.44,36.47 C5.44,26.64 5.56,16.81 5.37,6.99 C5.31,3.68 6.02,2.3 9.71,2.33 C32.19,2.49 54.71,2.46 77.16,2.33 C80.35,2.33 81.65,3.22 81.49,6.57 C81.25,11.57 81.3,16.57 81.49,21.57 C81.59,24.42 80.49,25.39 77.72,25.34 C71.39,25.22 65.06,25.34 58.72,25.34 C56.89,25.34 54.95,25.07 54.91,27.93 C54.87,30.79 56.56,30.62 58.54,30.73 C62.14,30.93 66.86,29.08 69.05,31.6 C71.24,34.12 69.57,38.94 69.81,42.73 L69.81,43.23 C69.81,53.51 69.81,53.59 80,53.81 C82.63,53.87 83.92,54.34 83.86,57.36 C83.7,66.3533333 83.7,75.3533333 83.86,84.36 C83.91,87.31 82.75,88 80.05,87.95 C71.56,87.82 63.05,87.75 54.57,87.95 C50.99,88.07 27.48,87.96 25.3,87.93 Z" id="Shape" fill="#000000" fill-rule="nonzero"></path>
                <path d="M58.45,78.56 C58.2833333,72.8266667 58.2833333,67.0966667 58.45,61.37" id="Shape" stroke="#AFDBD1"></path>
                <path d="M56.17,59.13 C57.7004539,59.0713024 59.2330234,59.1013528 60.76,59.22 L58.22,55.07 C58.1887312,55.0066134 58.1353899,54.9568282 58.07,54.93 C57.9169714,54.9182747 57.7760597,55.0135974 57.73,55.16 C57.0633333,56.4533333 56.46,57.7633333 55.92,59.09" id="Shape" stroke="#AFDBD1"></path>
                <path d="M50.35,64.45 L50.35,63.38 C50.3422392,62.6170708 49.9706896,61.9036955 49.35,61.46 L49.1,60.88 C49.0582395,60.7907798 49.0114991,60.7039763 48.96,60.62 L48.49,53.33 C48.4625263,52.7537031 48.2404323,52.203756 47.86,51.77 C48.069599,50.5546545 48.3500776,49.3526034 48.7,48.17 C48.9198276,47.4371368 48.770728,46.6431814 48.3,46.04 C48.73,42.38 48.66,38.47 45.66,37.54 C45.2921183,37.3129378 44.860567,37.2111899 44.43,37.25 L43.69,37.32 L43.69,37.32 L42.99,37.37 C42.411311,37.443035 41.8966933,37.7738607 41.59,38.27 L41.16,38.5 C40.9478894,38.1206323 40.7001023,37.7623454 40.42,37.43 C39.4989386,36.2610304 38.1280785,35.5341094 36.6436641,35.4275361 C35.1592497,35.3209628 33.6986062,35.8445963 32.62,36.87 C32.3489413,37.1239667 32.1431236,37.4395538 32.02,37.79 C31.8510676,37.637913 31.6667376,37.5038549 31.47,37.39 C29.8763026,36.6778828 28.0265969,36.8484499 26.59,37.84 C25.8963871,38.3212341 25.3910338,39.0280219 25.16,39.84 C25.0638618,40.5768775 25.0638618,41.3231225 25.16,42.06 C25.155768,42.139944 25.155768,42.220056 25.16,42.3 C19.16,43.3 18.53,53.3 18.89,58.13 C19.42,65.13 20.43,72.61 24.66,78.29 C24.6710026,79.0272445 24.99451,79.7251481 25.55,80.21 C25.5752691,81.2126464 25.5217713,82.2157291 25.39,83.21 C25.12,85.01 24.68,86.72 24.59,88.55 C24.4811487,89.6198226 25.1831056,90.6042743 26.23,90.85 C26.6152932,91.1339794 27.072733,91.3037866 27.55,91.34 C32.848147,91.7783542 38.178929,91.6139688 43.44,90.85 C44.87,90.65 45.39,88.96 45.19,87.77 C44.99,86.58 44.78,85.24 44.61,83.98 C44.8248025,83.6091919 44.9385884,83.1885286 44.94,82.76 L44.94,79.06 C44.9468685,78.7499891 44.8960031,78.4414057 44.79,78.15 C46.44,73.71 49.65,69.74 50.21,65.15 C50.2966575,64.9264781 50.3440216,64.6896577 50.35,64.45 L50.35,64.45 Z" id="Shape" fill="#AFDBD1" fill-rule="nonzero"></path>
                <path d="M24.81,90.52 L25.09,82.19 C25.1558249,81.3570611 25.1053401,80.5190133 24.94,79.7 C24.6807109,78.8630235 24.3143434,78.0630651 23.85,77.32 C18.8227304,68.0776799 17.606214,57.2366888 20.46,47.11 C20.98,45.29 21.84,43.29 23.63,42.67 C24.4767193,42.4401143 25.3614827,42.3856673 26.23,42.51 C27.8522428,42.3928395 29.3580921,43.357397 29.93,44.88 L32.78,49.7 C33.0113368,50.0083802 33.1343727,50.3845185 33.13,50.77 C32.9644922,51.3210962 32.5124697,51.7386424 31.95,51.86 C29.140743,52.7902383 26.0500159,51.8534117 24.23,49.52" id="Shape" stroke="#000000" stroke-linecap="round"></path>
                <path d="M23.06,55.25 C24.0012449,55.3733564 24.9571523,55.3225103 25.88,55.1 C26.818722,54.8589683 27.5488108,54.1211943 27.78,53.18 C27.7869131,53.0467563 27.7869131,52.9132437 27.78,52.78" id="Shape" stroke="#000000" stroke-linecap="round"></path>
                <path d="M30.09,51.85 C29.7,51.14 29.49,50.85 29.09,50.09 C28.69,49.33 28.65,48.48 29.92,47.6 C30.6081949,47.3598259 31.3724423,47.5996695 31.8,48.19" id="Shape" stroke="#000000" stroke-linecap="round"></path>
                <path d="M24.64,45.54 C25.1406336,45.6557102 25.6616623,45.4583509 25.96,45.04" id="Shape" stroke="#000000" stroke-linecap="round"></path>
                <path d="M25.2,41.86 C24.9348646,40.2004663 25.6516616,38.5370298 27.04,37.59 C28.0484122,36.9152247 29.301169,36.7143453 30.47,37.04 C31.47,37.43 31.74,38.28 32.54,38.99 C33.2687798,39.6441333 33.8927261,40.4063596 34.39,41.25 C34.64,41.68 34.86,42.13 35.15,42.53 C36.63,44.53 38.62,48.25 37.36,50.96 C36.55,52.69 34.12,52.02 32.85,51.37" id="Shape" stroke="#000000" stroke-linecap="round"></path>
                <path d="M31.47,43.71 C32.0407068,43.5490392 32.5811953,43.2956852 33.07,42.96 L31.47,43.7" id="Shape" stroke="#000000" stroke-linecap="round"></path>
                <path d="M33.77,51.31 C33.62,50.44 33.08,48.02 34.52,47.59 C35.96,47.16 36.85,48.09 37.46,49.08" id="Shape" stroke="#000000" stroke-linecap="round"></path>
                <path d="M27.33,80.75 C28.5627776,81.6921782 30.2110312,81.8876687 31.63,81.26" id="Shape" stroke="#000000" stroke-linecap="round"></path>
                <path d="M31.82,37.66 C32.9742223,35.5810414 35.4329314,34.6025755 37.7,35.32 C39.3530989,36.0060075 40.6488482,37.3451897 41.28,39.02 C41.8948714,40.6761183 42.278483,42.4091003 42.42,44.17 L43.04,49.1 C43.18,50.24 43.22,51.63 42.26,52.26 C41.8330897,52.4944429 41.3568062,52.6246499 40.87,52.64 C40.262831,52.7463832 39.6404542,52.7293784 39.04,52.59 C38.4078855,52.1400806 38.0171678,51.4249935 37.98,50.65" id="Shape" stroke="#000000" stroke-linecap="round"></path>
                <path d="M38.44,42 L39.99,42" id="Shape" stroke="#000000" stroke-linecap="round"></path>
                <path d="M38.73,52.29 C38.23,51.06 37.65,47.84 39.73,47.35 C42.25,46.77 42.81,49.6 43.04,50.47" id="Shape" stroke="#000000" stroke-linecap="round"></path>
                <path d="M41.53,38.11 C42.1543484,37.4491013 42.968491,36.9983528 43.86,36.82 C45.67,36.54 47.4,37.96 48.1,39.66 C48.6692311,41.4100613 48.8434098,43.2645525 48.61,45.09 L48.39,49.18 C48.4037613,50.3037066 48.1929726,51.4188467 47.77,52.46 C47.320689,53.5200712 46.2813602,54.2090201 45.13,54.21 C43.9325046,54.0591897 43.0827608,52.9679397 43.23,51.77" id="Shape" stroke="#000000" stroke-linecap="round"></path>
                <path d="M45.29,43.44 C45.829833,43.5319604 46.384928,43.4441289 46.87,43.19" id="Shape" stroke="#000000" stroke-linecap="round"></path>
                <path d="M43.3,51.86 C43.2700145,51.0118633 43.6006567,50.1907078 44.21,49.6 C44.8559503,49.0292361 45.7949211,48.936548 46.54,49.37 C47.32168,49.9149821 47.7882667,50.807096 47.79,51.76" id="Shape" stroke="#000000" stroke-linecap="round"></path>
                <path d="M36.99,78.69 C38.3116802,79.8753286 40.0466053,80.4931487 41.82,80.41 C41.99,80.41 42.22,80.24 42.1,80.12" id="Shape" stroke="#000000" stroke-linecap="round"></path>
                <path d="M33.3,51.56 C30.8,51.73 30.11,53.12 29.96,53.95 C29.8534357,54.8073338 30.1529829,55.6652959 30.77,56.27 C31.3840277,56.8636711 32.1215924,57.314405 32.93,57.59 C34.7794707,58.273366 36.7384437,58.6122887 38.71,58.59 C38.5243205,60.8291964 39.6353287,62.9774046 41.57,64.12 C41.77,64.23 42.13,64.22 42.09,64" id="Shape" stroke="#000000" stroke-linecap="round"></path>
                <path d="M35.81,52.44 C36.2646922,53.1088667 36.2112943,54.0002016 35.68,54.61 C35.1080964,55.1394127 34.3347026,55.3947786 33.56,55.31 C32.8256532,55.2950469 32.1042471,55.1138406 31.45,54.78 C30.8431804,54.4437225 30.4018387,53.8721488 30.23,53.2" id="Shape" stroke="#000000" stroke-linecap="round"></path>
                <path d="M33.19,75.37 C31.9604144,70.0734017 35.0472906,64.7303951 40.25,63.15" id="Shape" stroke="#000000" stroke-linecap="round"></path>
                <path d="M35.99,52.04 C37.6300191,52.9506097 39.441929,53.5091684 41.31,53.68 C41.9611449,53.7032927 42.605053,53.8246576 43.22,54.04 C43.750137,54.305316 44.2278449,54.6644439 44.63,55.1 C46.1397591,56.5708838 47.5028456,58.1851533 48.7,59.92 C49.7540319,61.2541075 50.4432278,62.8392579 50.7,64.52 C50.7187883,66.5936393 50.0663095,68.6177267 48.84,70.29 C47.6158054,71.9469703 46.5668549,73.7264999 45.71,75.6 C45.0681336,77.6530417 44.7806889,79.8004227 44.86,81.95 C44.82,84.6166667 44.82,87.2633333 44.86,89.89" id="Shape" stroke="#000000" stroke-linecap="round"></path>
                <path d="M48.18,52.04 C48.39,54.04 49.06,57.41 48.81,59.49" id="Shape" stroke="#000000" stroke-linecap="round"></path>
                <path d="M0.52,21.81 L34.8,0.85" id="Shape" stroke="#FFFFFF" stroke-width="2" stroke-linecap="round" stroke-linejoin="round"></path>
            </g>
        </g>
    </g>
</svg>