<?xml version="1.0" encoding="UTF-8"?>
<svg width="56px" height="93px" viewBox="0 0 56 93" version="1.1" xmlns="http://www.w3.org/2000/svg" xmlns:xlink="http://www.w3.org/1999/xlink">
    <!-- Generator: Sketch 43.2 (39069) - http://www.bohemiancoding.com/sketch -->
    <title>Í</title>
    <desc>Created with Sketch.</desc>
    <defs></defs>
    <g id="Symbols" stroke="none" stroke-width="1" fill="none" fill-rule="evenodd">
        <g id="í" transform="translate(-39.000000, 3.000000)">
            <g id="Í" transform="translate(40.000000, -2.000000)">
                <path d="M7.76,87.77 C6,88.23 4.51,87.68 4.55,85.27 C4.63,81.11 4.55,76.94 4.55,72.78 C4.55,50.97 4.64,29.15 4.46,7.34 C4.46,3.43 5.46,2.23 9.46,2.34 C22.94,2.57 36.46,2.53 49.92,2.34 C53.42,2.34 54.46,3.44 54.45,6.9 C54.33,32.38 54.33,57.8566667 54.45,83.33 C54.45,86.67 53.71,88.44 50.06,87.87 C49.3943074,87.8190351 48.7256926,87.8190351 48.06,87.87 C35.26,87.85 9.89,87.22 7.76,87.77 Z" id="Shape" fill="#000000" fill-rule="nonzero"></path>
                <path d="M46.79,73.38 C46.6233333,67.6466667 46.6233333,61.9166667 46.79,56.19" id="Shape" stroke="#AFDBD1"></path>
                <path d="M44.51,53.95 C46.0404539,53.8913024 47.5730234,53.9213528 49.1,54.04 L46.56,49.89 C46.5287312,49.8266134 46.4753899,49.7768282 46.41,49.75 C46.2569714,49.7382747 46.1160597,49.8335974 46.07,49.98 C45.4033333,51.2733333 44.8,52.5833333 44.26,53.91" id="Shape" stroke="#AFDBD1"></path>
                <path d="M41.59,58.02 C41.6114824,57.7571048 41.6114824,57.4928952 41.59,57.23 C41.4016685,56.3182973 41.1544845,55.4197498 40.85,54.54 C40.78,53.85 40.7,53.16 40.59,52.46 C40.5299107,51.9501937 40.2843011,51.480332 39.9,51.14 C39.7417302,50.5554339 39.548039,49.9810393 39.32,49.42 C39.0942568,48.4895123 38.211412,47.8723781 37.26,47.98 C37.03,44.42 34.26,39.44 30.94,41.92 C30.600696,42.3917974 30.324993,42.9062189 30.12,43.45 C29.6425616,42.3859395 28.7384606,41.5726117 27.63,41.21 C26.4263374,40.7622416 25.0744627,41.003511 24.1,41.84 C23.3986669,42.4163766 22.8922932,43.1951445 22.65,44.07 C20.65,41.75 18.14,42.74 16.81,44.99 L16.81,44.38 C16.8490825,44.2061697 16.8658841,44.0280724 16.86,43.85 L16.86,43.65 C16.91,41.91 16.93,40.17 16.86,38.43 C16.8459833,37.894526 16.6718262,37.3755379 16.36,36.94 L16.54,34.66 C16.5822215,34.2256872 16.4989249,33.7883802 16.3,33.4 L16.3,32.98 C16.58,29.78 11.58,29.79 11.3,32.98 C11.04,35.9466667 10.92,38.9166667 10.94,41.89 L10.88,42.69 C10.8438742,43.0266622 10.8779238,43.367158 10.98,43.69 L10.98,44.79 C10.9906895,45.0495314 11.0412824,45.3058689 11.13,45.55 C11.0095109,46.5921132 10.9793987,47.6426963 11.04,48.69 C11.0504379,48.84502 11.0738532,48.9988922 11.11,49.15 C10.9087078,50.8458058 10.8718697,52.5571029 11,54.26 C10.5700515,55.9644314 10.4280946,57.7287528 10.58,59.48 C10.4582418,61.4394321 10.7093488,63.4041746 11.32,65.27 C10.97,70.55 13.18,75.42 16.03,79.71 C16.03,79.79 16.9,80.71 16.95,80.77 C16.81,81.19 17.09,81.21 17.27,81.67 C17.54,82.36 17.81,83.01 18.08,83.67 L18.08,84.8 C17.2092619,85.906485 17.0462052,87.4128181 17.66,88.68 C19.39,91.95 25.2,91.32 28.13,90.99 C30.82,90.69 35.29,90.82 36.36,87.79 C37.09,85.79 36.36,82.79 36.47,80.57 C36.7616943,76.858062 37.5003699,73.1949023 38.67,69.66 C38.886859,69.3119513 39.032978,68.9245661 39.1,68.52 C39.5758994,67.63086 40.0965676,66.7664173 40.66,65.93 C40.9566774,65.5971132 41.1723016,65.2000909 41.29,64.77 C41.43,64.55 41.58,64.47 41.7,64.24 C41.9531763,63.8498797 42.0885776,63.3950699 42.09,62.93 C42.57,61.22 42.65,59.17 41.59,58.02 Z" id="Shape" fill="#AFDBD1" fill-rule="nonzero"></path>
                <path d="M13.73,55.72 L16.32,54.97 C16.464846,54.9613761 16.5988015,54.8902539 16.6870865,54.7750996 C16.7753714,54.6599454 16.809277,54.5121182 16.78,54.37 C16.78,48.52 16.73,42.64 16.87,36.77 C17.0215155,35.3174413 16.7725174,33.8511191 16.15,32.53 C15.41,31.28 13.65,30.53 12.46,31.34 C11.46,32.05 11.3,33.48 11.26,34.72 L10.5,58.99 C10.3544831,63.3476135 10.9599867,67.6977674 12.29,71.85 C12.9245933,74.1962932 13.8131799,76.4663805 14.94,78.62 C15.1512422,79.0226088 15.4097332,79.3985957 15.71,79.74 C16.19829,80.1315101 16.6562634,80.5593976 17.08,81.02 C17.45445,81.6968389 17.6213878,82.4689259 17.56,83.24 L17.63,87.62 C17.63,88.13 17.33,88.73 17.36,89.24" id="Shape" stroke="#000000" stroke-linecap="round"></path>
                <path d="M25.47,77.77 C27.7239415,78.7040177 30.2917647,78.4800797 32.35,77.17" id="Shape" stroke="#000000" stroke-linecap="round"></path>
                <path d="M16.76,45.13 C17.1,44.02 18.58,43.2 19.76,42.97 C21.45,42.64 22.71,44.44 23.38,45.71 C25.6133371,49.9110482 26.861509,54.5651907 27.03,59.32 C27.1628613,59.909581 26.8248148,60.5033295 26.25,60.69 C25.5555917,61.1693448 24.6882404,61.3260511 23.87,61.12 C22.92,60.73 22.62,59.57 22.44,58.56 L21.44,53.24 C21.3403413,52.2513905 20.9967238,51.3030062 20.44,50.48 C19.8514054,49.6470425 18.7437904,49.3669559 17.83,49.82" id="Shape" stroke="#000000" stroke-linecap="round"></path>
                <path d="M36.78,88.29 C36.9,88.29 36.7,88.49 36.7,88.37 C36.5274674,84.6543266 36.6277364,80.9310021 37,77.23 C37.3758245,73.5171202 38.5639063,69.9323906 40.48,66.73 C41.4135315,65.5476819 42.0942644,64.186216 42.48,62.73 C42.5772329,61.5560619 42.4308389,60.3746958 42.05,59.26 L40.14,52.13 C39.75,50.66 39.2,49 37.82,48.37 C36.44,47.74 35,48.37 33.59,48.1 C32.6114991,47.8560341 31.6698766,47.482748 30.79,46.99 C29.8989501,46.4906735 28.8506383,46.3511371 27.86,46.6 C27.3801565,46.7508181 26.9871407,47.0986656 26.779147,47.5566334 C26.5711533,48.0146012 26.5678273,48.5394328 26.77,49 C27.2771094,50.046995 28.1082052,50.902638 29.14,51.44 C30.8965926,52.3439991 32.7875731,52.9585678 34.74,53.26" id="Shape" stroke="#000000" stroke-linecap="round"></path>
                <path d="M25.24,72.51 C24.37,69.42 25.58,66.05 27.61,63.57 C29.7715419,61.1801869 32.3039903,59.1542283 35.11,57.57" id="Shape" stroke="#000000" stroke-linecap="round"></path>
                <path d="M13.51,39.61 C14.2956128,39.8942318 15.1471231,39.9428895 15.96,39.75" id="Shape" stroke="#000000" stroke-linecap="round"></path>
                <path d="M34.13,53.38 C33.7750292,53.7695374 33.5881559,54.283439 33.61,54.81 C33.553069,55.2760215 33.5904779,55.7487338 33.72,56.2 C34.0104172,56.8137587 34.5004525,57.3108449 35.11,57.61" id="Shape" stroke="#000000" stroke-linecap="round"></path>
                <path d="M22.5,44.37 C22.6428625,43.4607697 23.1034866,42.6316464 23.8,42.03 C24.4293718,41.6236122 25.1451308,41.3701855 25.89,41.29 C26.3582549,41.199864 26.8410951,41.2204104 27.3,41.35 C27.629161,41.4780373 27.9362203,41.6568741 28.21,41.88 C28.9540195,42.4034137 29.6004786,43.0532574 30.12,43.8 C30.6545967,44.6419391 30.8970832,45.6364852 30.81,46.63" id="Shape" stroke="#000000" stroke-linecap="round"></path>
                <path d="M27.63,47.29 C28.20599,48.4561883 29.3371016,49.2479665 30.63,49.39 C31.3941031,49.5600496 32.1642063,49.1298243 32.42,48.39" id="Shape" stroke="#000000" stroke-linecap="round"></path>
                <path d="M26.89,56.91 C27.2593908,57.7528376 27.8905948,58.4541754 28.69,58.91 C29.4531087,59.2234004 30.2656087,59.3994421 31.09,59.43 C31.3576292,59.480601 31.6323708,59.480601 31.9,59.43 C32.5580189,59.1233106 32.9981746,58.4841281 33.05,57.76 C33.2183522,56.0034766 32.7884503,54.2415836 31.83,52.76" id="Shape" stroke="#000000" stroke-linecap="round"></path>
                <path d="M30.23,43.29 C30.6506706,42.3860225 31.5035177,41.7591796 32.4918542,41.6275364 C33.4801908,41.4958932 34.46738,41.8776493 35.11,42.64 C35.3304844,42.9216069 35.5246334,43.2228727 35.69,43.54 L36.62,45.18 C36.7954001,45.4735774 36.9459253,45.7813178 37.07,46.1 C37.2401738,46.5736672 37.2916759,47.081821 37.22,47.58" id="Shape" stroke="#000000" stroke-linecap="round"></path>
                <path d="M29.63,59.07 C28.4772493,57.8348072 28.5171462,55.9064561 29.72,54.72 C30.53,54.17 32.15,55.46 32.97,56.85" id="Shape" stroke="#000000" stroke-linecap="round"></path>
                <path d="M23.5,60.73 C22.66,58.94 23.14,57.04 23.6,56.73 C24.06,56.42 25.31,55.44 26.84,58.56" id="Shape" stroke="#000000" stroke-linecap="round"></path>
                <path d="M13.55,45.94 C14.3179058,46.2240599 15.1620942,46.2240599 15.93,45.94" id="Shape" stroke="#000000" stroke-linecap="round"></path>
                <path d="M17.28,54.38 C18.6489048,54.7982856 20.107946,54.8225452 21.49,54.45" id="Shape" stroke="#000000" stroke-linecap="round"></path>
                <path d="M0.52,21.73 L34.67,0.85" id="Shape" stroke="#FFFFFF" stroke-width="2" stroke-linecap="round" stroke-linejoin="round"></path>
            </g>
        </g>
    </g>
</svg>