<?xml version="1.0" encoding="UTF-8"?>
<svg width="100px" height="89px" viewBox="0 0 100 89" version="1.1" xmlns="http://www.w3.org/2000/svg" xmlns:xlink="http://www.w3.org/1999/xlink">
    <!-- Generator: Sketch 43.2 (39069) - http://www.bohemiancoding.com/sketch -->
    <title>Ð</title>
    <desc>Created with Sketch.</desc>
    <defs></defs>
    <g id="Symbols" stroke="none" stroke-width="1" fill="none" fill-rule="evenodd">
        <g id="Ð" transform="translate(-17.000000, 0.000000)">
            <g transform="translate(18.000000, 0.000000)">
                <path d="M98.06,40.23 C96.06,18.23 80.3,2.29 57.95,0.97 C43.95,0.15 29.95,0.7 15.95,0.55 C13.3,0.55 12.55,1.67 12.56,4.16 L12.56,18.43 L3.17,18.43 C0.76,18.43 0.17,19.87 0.67,21.64 C1.22,23.74 0.59,49.14 0.6,61.94 C0.651043096,62.6056896 0.651043096,63.2743104 0.6,63.94 C0.03,67.59 1.8,68.35 5.14,68.33 L12.57,68.33 L12.57,82.68 C12.57,85.32 13.57,86.14 16.09,86.09 C22.59,85.97 29.09,86.09 35.59,86.09 C37.17,86.09 59.68,86.83 65.73,84.73 C85.85,79.15 99.81,59.9 98.06,40.23 Z" id="Shape" stroke="#000000"></path>
                <path d="M51.45,41.22 C51.34,41.35 51.25,41.49 51.14,41.62 L51.14,41.62 C51.1068932,41.2367117 50.9760604,40.8683142 50.76,40.55 C50.3728282,39.888128 49.8082186,39.3477654 49.13,38.99 C47.4812214,37.8590032 45.5972201,37.117028 43.62,36.82 C43.9034534,35.9653015 44.1174812,35.0891253 44.26,34.2 C44.6705404,31.8931028 45.317277,29.6345511 46.19,27.46 C47.3,24.46 42.47,23.13 41.37,26.13 C40.5537204,28.0611777 39.9404238,30.0719862 39.54,32.13 C39.3805505,33.3293295 39.1093715,34.5111342 38.73,35.66 C38.6075517,35.7974625 38.5064256,35.9525226 38.43,36.12 L38.11,36.83 C37.6073448,36.9152738 37.1098905,37.0287868 36.62,37.17 C35.8126063,37.4061089 35.0633233,37.807997 34.42,38.35 C34.57,37.41 34.72,36.47 34.86,35.52 C34.9624731,34.916288 34.8566865,34.2956735 34.56,33.76 C35.2,32.04 35.95,30.34 36.77,28.64 C38.16,25.75 33.85,23.21 32.45,26.12 C31.69,27.71 30.99,29.29 30.37,30.86 C30.0932333,31.0616209 29.8559459,31.3124675 29.67,31.6 C29.38,32.04 29.12,32.5 28.86,32.96 C28.0901233,32.350254 27.049876,32.2066274 26.1435778,32.5849446 C25.2372795,32.9632618 24.6078755,33.8038528 24.5,34.78 C24.1866667,38.2266667 24.0166667,41.6733333 23.99,45.12 C23.9175576,45.3401209 23.8738625,45.56868 23.86,45.8 C23.77,47.46 23.75,49.07 23.86,50.68 C23.535076,51.2713012 23.4288587,51.9581732 23.56,52.62 L23.56,52.74 C23.5456839,53.4686406 23.5857954,54.197333 23.68,54.92 C23.5543345,55.8252061 23.4775565,56.7365283 23.45,57.65 C23.4295132,58.2126477 23.6143309,58.7635466 23.97,59.2 C23.34,60.92 23.97,61.99 24.42,63.79 C25.15,66.61 25.18,69.48 25.7,72.32 C26.0277075,73.6360858 26.5827093,74.88484 27.34,76.01 C29.07,79.33 28.68,82.58 28.79,86.19 C28.8114373,87.5617342 29.9182658,88.6685627 31.29,88.69 C34.65,88.62 37.99,88.4 41.29,88.03 C42.6595423,88.0033995 43.7633995,86.8995423 43.79,85.53 C43.6615525,82.0997884 43.8826929,78.6654117 44.45,75.28 C47.45,72.65 48.06,68.1 48.97,64.28 C49.0067591,64.1154902 49.0301685,63.9482797 49.04,63.78 C49.9996182,61.6677623 51.0711381,59.6081741 52.25,57.61 C52.4305264,57.3056792 52.5367347,56.9630717 52.56,56.61 C53.7240976,55.4196012 54.5611126,53.9487971 54.99,52.34 L54.99,52.34 C55.0351212,52.1223279 55.0651924,51.9018058 55.08,51.68 C55.1011049,51.3161124 55.0466278,50.9517968 54.92,50.61 L55.18,49.11 C55.2809705,48.5706527 55.2182831,48.0134312 55,47.51 L55.45,45.59 C55.5692306,45.1095697 55.541359,44.6043978 55.37,44.14 C56.42,41.72 53.35,38.97 51.45,41.22 Z M48.45,46.31 C48.0156443,47.648823 47.7469757,49.0358249 47.65,50.44 C47.13,50.8 46.65,51.21 46.17,51.56 C44.9500315,52.4224393 43.7937115,53.3715574 42.71,54.4 C42.62,53.55 42.59,52.7 42.45,51.86 C42.146325,50.7895056 41.7236898,49.7563974 41.19,48.78 C41.0335978,48.3937884 40.7866632,48.0508237 40.47,47.78 C40.6073095,47.6309638 40.7218766,47.4624827 40.81,47.28 C41.1863532,46.5020236 41.5201781,45.704182 41.81,44.89 C42.0044006,44.3923142 42.1484533,43.8764048 42.24,43.35 C42.8590014,43.1518219 43.500948,43.0341877 44.15,43 C44.4652112,42.9947416 44.7795177,42.9646484 45.09,42.91 C45.09,42.96 45.09,43.07 45.36,43.28 C45.7593092,43.6870482 46.201941,44.0492015 46.68,44.36 C46.8128167,44.4172611 46.9498995,44.4640699 47.09,44.5 C47.5599072,44.9950284 48.2176829,45.2675874 48.9,45.25 C48.77,45.59 48.62,45.97 48.48,46.3 L48.45,46.31 Z" id="Shape" fill="#FAFD7B" fill-rule="nonzero"></path>
                <path d="M28.71,87.28 C28.9121082,84.2043743 28.7442404,81.1156067 28.21,78.08 C28.1364149,76.9649763 27.5997676,75.9315675 26.73,75.23 C24.95,73.46 25.15,70.83 24.99,68.52 C24.78,65.45 23.31,62.69 23.47,59.52 C23.55,57.88 23.15,56.2 23.15,54.52 C23.15,51.07 23.61,47.65 23.6,44.2 C23.6,43.29 23.6,42.37 23.65,41.46 C23.71,40.78 23.85,40.1 23.92,39.46 C23.9330397,37.9143692 24.1175011,36.3749548 24.47,34.87 C24.97,33.41 26.38,32.08 27.9,32.36 C28.2848302,32.4080487 28.6396546,32.5925574 28.9,32.88 C29.2097363,33.3672386 29.3405293,33.9469698 29.27,34.52 C29.27,36.33 28.94,38.16 29.01,39.95 C29.0306055,40.3397278 29.0306055,40.7302722 29.01,41.12 C29.01,41.63 28.84,42.02 28.76,42.53 C28.6949236,43.3434689 28.7183945,44.1615998 28.83,44.97 C28.88,45.85 28.68,46.67 28.83,47.52 C29.0827452,48.409364 29.2271245,49.3260045 29.26,50.25 C29.262287,51.1693643 29.1377809,52.0846523 28.89,52.97 C28.7323057,53.3596166 28.4318647,53.6743643 28.05,53.85 C27.5650497,54.0095578 27.0601499,54.1004398 26.55,54.12" id="Shape" stroke="#000000"></path>
                <path d="M28.13,59.37 C29.0842336,59.4129716 30.0403563,59.3828839 30.99,59.28 C32.7,58.9 33.86,57.37 34.88,55.95 C35.9,54.53 37.09,53.01 38.81,52.68" id="Shape" stroke="#000000"></path>
                <path d="M28.94,32.58 L31.42,27.64 C31.844973,26.5077598 32.6325501,25.5479002 33.66,24.91 C34.5084692,24.5121237 35.5022843,24.5808408 36.2879187,25.0917067 C37.0735532,25.6025726 37.5394964,26.4830766 37.52,27.42 C37.52,29.2 35.78,30.48 35.18,32.16 C34.64,33.69 35.07,35.41 34.69,36.99 C34.3838647,37.9308527 34.0060924,38.8468669 33.56,39.73 C32.56,42.12 32.56,44.79 32.56,47.38 C32.5854624,47.7770133 32.5169413,48.1744357 32.36,48.54 C31.81,49.54 29.68,49.62 29.13,50.66" id="Shape" stroke="#000000"></path>
                <path d="M37.75,36.67 C39.08,34.46 39.27,31.75 40.05,29.55 C40.22,29.07 40.43,28.55 40.58,28.1 C40.7237369,27.4199397 40.9175996,26.7514479 41.16,26.1 C41.6691282,25.0580608 42.6934452,24.3650285 43.85,24.28 C44.3464466,24.2352779 44.8441503,24.3509415 45.27,24.61 C46.1738739,25.3910306 46.4899919,26.6555029 46.06,27.77 C45.74,28.89 45.06,29.89 44.8,31.01 C44.36,32.75 44.5,35.08 43.67,36.67" id="Shape" stroke="#000000"></path>
                <path d="M38.15,72.62 C36.77,70.23 35.88,67.07 36.6,64.41 C37.032229,63.0104742 37.5946891,61.6545436 38.28,60.36" id="Shape" stroke="#000000"></path>
                <path d="M34.2,38.35 C35.08,37.05 37.55,36.7 39.12,36.69 L42.05,36.69 C43.2448084,36.6380765 44.4417319,36.7151892 45.62,36.92 C47.8321485,37.400378 49.7572328,38.752263 50.96,40.67" id="Shape" stroke="#000000"></path>
                <path d="M43.89,86.49 C43.2192818,82.9911226 43.3837389,79.3833456 44.37,75.96 C44.1839134,76.2035954 43.9572683,76.4133267 43.7,76.58 C46.8,73.95 48.4,69.89 48.88,65.85 C49.4,61.48 51.88,58.45 54.25,54.85 C54.943582,54.0084746 55.2999503,52.9393695 55.25,51.85 C55.37,48.68 55.68,45.47 55.79,42.33 C55.88,39.89 52.61,40.03 51.09,41.09 C49.7721549,42.0912573 48.8568113,43.5316818 48.51,45.15 C48.1729742,46.7537582 48.0286194,48.3920175 48.08,50.03 C46.1577262,50.9896825 44.4047402,52.2562909 42.89,53.78" id="Shape" stroke="#000000"></path>
                <path d="M32.88,48.23 C34.091243,48.4791154 35.3487483,48.3714285 36.5,47.92 C36.7775721,47.8279972 37.0306092,47.6741233 37.24,47.47 C37.3841729,47.2983252 37.5021197,47.1062404 37.59,46.9 C38.17,45.68 38.77,44.26 38.24,43.02" id="Shape" stroke="#000000"></path>
                <path d="M36.37,41.91 C38.6480203,43.3680655 41.4727489,43.6893092 44.02,42.78 C44.1135376,42.7071933 44.2345486,42.6796215 44.3503937,42.7047213 C44.4662388,42.729821 44.5649857,42.8050071 44.62,42.91 C45.5613243,44.1032172 46.9117377,44.9049139 48.41,45.16" id="Shape" stroke="#000000"></path>
                <path d="M40.68,47.73 C41.4787469,46.8679165 41.9860286,45.7763863 42.13,44.61 C42.18,44.4 42.34,43.4 42.39,43.19" id="Shape" stroke="#000000"></path>
                <path d="M37.63,47.5 C38.87,47.37 40.29,47.3 41.17,48.18 C41.4082387,48.4315985 41.6010901,48.7225673 41.74,49.04 C42.2560476,50.4322608 42.5757823,51.889578 42.69,53.37 C43.0941243,54.8553607 43.840757,56.225329 44.87,57.37" id="Shape" stroke="#000000"></path>
                <path d="M33.06,32.64 C33.7902168,32.7974883 34.5526371,32.6215452 35.14,32.16" id="Shape" stroke="#000000"></path>
                <path d="M42.06,31.83 C42.5403814,31.9364643 43.0286845,32.0033551 43.52,32.03 C44.0146699,32.0515727 44.4819779,31.8025971 44.74,31.38" id="Shape" stroke="#000000"></path>
                <path d="M49.54,42.71 C48.7585083,42.4246935 48.0535059,41.9626773 47.48,41.36 C46.9453522,40.7549977 46.7947277,39.9014588 47.09,39.15 C47.45,38.42 48.4,38.31 49.81,39.21" id="Shape" stroke="#000000"></path>
                <path d="M54.83,40.65 C54.2,40.44 53.47,41.18 53.19,41.77 C52.82,42.58 51.85,45.04 53.19,46.49 C53.8001474,47.034358 54.6221711,47.2765614 55.43,47.15" id="Shape" stroke="#000000"></path>
                <path d="M31.42,40.54 C32.1205591,40.6128225 32.8252035,40.4472311 33.42,40.07" id="Shape" stroke="#000000"></path>
                <path d="M27.06,40.89 C27.6592088,41.1812584 28.3641098,41.1550121 28.94,40.82" id="Shape" stroke="#000000"></path>
                <path d="M27.47,46.97 C27.849551,47.0159994 28.2329681,46.9236953 28.55,46.71" id="Shape" stroke="#000000"></path>
                <path d="M56.87,26.46 C58.3754791,27.0461361 59.8331906,27.7482449 61.23,28.56 C60.8840029,27.0682643 60.7128508,25.5413191 60.72,24.01 C59.7306363,25.0599635 58.5075012,25.8616822 57.15,26.35" id="Shape" stroke="#000000"></path>
                <circle id="Oval" stroke="#000000" cx="52.93" cy="36.89" r="1"></circle>
                <circle id="Oval" stroke="#000000" cx="54.87" cy="34.25" r="1"></circle>
                <circle id="Oval" stroke="#000000" cx="56.51" cy="31.89" r="1"></circle>
                <circle id="Oval" stroke="#000000" cx="57.97" cy="29.43" r="1"></circle>
            </g>
        </g>
    </g>
</svg>