<?xml version="1.0" encoding="UTF-8"?>
<svg width="94px" height="94px" viewBox="0 0 94 94" version="1.1" xmlns="http://www.w3.org/2000/svg" xmlns:xlink="http://www.w3.org/1999/xlink">
    <!-- Generator: Sketch 43.2 (39069) - http://www.bohemiancoding.com/sketch -->
    <title>รณ</title>
    <desc>Created with Sketch.</desc>
    <defs></defs>
    <g id="Symbols" stroke="none" stroke-width="1" fill="none" fill-rule="evenodd">
        <g id="รณ" transform="translate(-20.000000, 2.000000)">
            <g transform="translate(21.000000, -1.000000)" id="Shape">
                <path d="M20,82.62 C8.53,75.45 2.49,64.56 0.88,51.29 C-2.12,27.03 13.8,5.94 37.6,2.29 C63.95,-1.79 86.29,12.63 91.25,36.93 C96.71,63.68 77.99,88.25 50.72,90.13 C40.66,90.73 27.48,87.29 20,82.62 Z" fill="#000000" fill-rule="nonzero"></path>
                <path d="M58.77,77.76 C59.92,77.12 61.15,76.24 61.33,74.93 C61.4042322,73.9128584 60.9651767,72.9259217 60.16,72.3 C59.358878,71.6933474 58.4492421,71.2453178 57.48,70.98 C53.9,69.79 34.02,68.75 25.62,71.28 C20.22,72.91 21.13,77.53 25.09,79.03" stroke="#AFDBD1"></path>
                <path d="M56.23,81.17 C56.3268686,79.2989799 56.1380341,77.4241235 55.67,75.61 C54.1870058,76.7876978 52.6450096,77.8891237 51.05,78.91 C50.9902665,78.9750316 50.9902665,79.0749684 51.05,79.14 C52.82,79.76 56.21,81.14 56.21,81.14" stroke="#AFDBD1"></path>
                <path d="M56.16,45.57 C55.9073896,45.3234477 55.6035033,45.1356528 55.27,45.02 L55.13,44.84 L54.62,44.1 C54.27,43.6 53.92,43.1 53.54,42.63 C52.8366311,41.7555636 51.9532959,41.0427565 50.95,40.54 C49.4032769,39.8207537 47.7157108,39.4552282 46.01,39.47 C45.4406908,39.0347356 44.6992748,38.8938665 44.01,39.09 C42.41,39.42 39.23,40.39 39.43,38.51 L39.43,38.51 L39.43,37.22 C39.4466225,36.4750699 39.108982,35.766396 38.52,35.31 C39.123588,33.6707113 39.5297822,31.9653671 39.73,30.23 C39.7628319,30.0380605 39.7628319,29.8419395 39.73,29.65 C39.921838,29.4161182 40.0677329,29.1480786 40.16,28.86 C40.53,25.41 37.41,23.52 35.84,26.34 C34.8029382,28.0223724 34.0590347,29.8686057 33.64,31.8 C32.92,28.89 28.32,30.22 28.87,33.31 C29.128608,34.590308 29.5000581,35.8452068 29.98,37.06 C29.3285809,37.006842 28.6870421,37.2447506 28.2277916,37.70979 C27.768541,38.1748294 27.5386867,38.8192978 27.6,39.47 C27.91,44.91 28.34,50.1 29.16,55.38 C29.0391348,55.7228965 28.9980934,56.0888487 29.04,56.45 C29.43,60.54 28.53,64.68 28.95,68.69 C29.2912565,70.9853766 29.964994,73.2188163 30.95,75.32 L31.13,83.03 C30.88,84.78 31.19,86.47 30.95,88.21 C30.73,89.79 31.57,91.37 33.36,91.37 C36.88,91.37 41.63,94.3 44.65,91.68 C46.07,90.45 45.65,86.77 45.7,85.07 C45.8,82.57 46.01,80.07 46.28,77.58 C47.822479,76.8672545 49.1629066,75.7811645 50.18,74.42 C52.32,71.36 53.36,67.42 54.67,63.95 C54.7947602,63.632088 54.8493394,63.2909679 54.83,62.95 C55.08,62.64 55.33,62.34 55.6,62.05 C56.0410187,61.5970116 56.2915495,60.9921586 56.3,60.36 C57.5280932,59.4503791 58.5503722,58.2917962 59.3,56.96 C59.824738,55.6528689 59.9567981,54.2210592 59.68,52.84 C59.7936854,52.2093516 59.8572176,51.5706859 59.87,50.93 C59.8699694,50.6743972 59.8259956,50.4207022 59.74,50.18 C59.8618892,49.5753678 60.0566439,48.987746 60.32,48.43 C61.61,45.74 58.11,43.9 56.16,45.57 Z M53.43,53.71 C53.1697646,53.7875246 52.9233989,53.9056451 52.7,54.06 C52.3027589,54.1237613 51.9137476,54.2310748 51.54,54.38 C50.9358559,54.5733188 50.4167388,54.9688366 50.07,55.5 C48.8864624,54.8451402 47.4018458,55.155676 46.58,56.23 C46.4424333,55.752688 46.2651475,55.2877309 46.05,54.84 C45.2180018,53.0574756 43.7686486,51.636541 41.97,50.84 L42.25,50.01 C42.685914,48.847726 43.0204939,47.6499299 43.25,46.43 C45.7231377,46.1150295 48.2345591,46.3090011 50.63,47 L50.63,47 C51.2877886,48.2421187 52.3756439,49.2019911 53.69,49.7 C53.5369453,50.7511243 53.5369453,51.8188757 53.69,52.87 C53.7315594,53.1099275 53.8235887,53.3382964 53.96,53.54 C53.7784911,53.6010761 53.6014053,53.6745834 53.43,53.76 L53.43,53.71 Z" fill="#AFDBD1" fill-rule="nonzero"></path>
                <path d="M30.53,89.73 L30.53,78.15 C30.5729749,77.0013725 30.4925139,75.8514505 30.29,74.72 C30.01,73.44 29.43,72.25 29.1,70.99 C28.4,68.37 28.8,65.6 28.9,62.89 C29.21,54.7 26.77,46.52 27.73,38.39 C27.7430556,38.0552852 27.8467438,37.7303954 28.03,37.45 C28.2025071,37.2465265 28.4326151,37.1000942 28.69,37.03 C30.35,36.52 31.95,38.21 32.31,39.9 C32.67,41.59 32.31,43.37 32.55,45.09 C32.89,47.39 34.36,49.66 33.68,51.88 C34.5045815,52.5668874 35.1526579,53.4412763 35.57,54.43" stroke="#000000" stroke-linecap="round"></path>
                <path d="M32.91,76.57 C33.819849,77.3132104 34.9461965,77.7412926 36.12,77.79 C36.8392589,77.9670986 37.5907411,77.9670986 38.31,77.79 C39.0417799,77.5716014 39.5102653,76.8583217 39.42,76.1" stroke="#000000" stroke-linecap="round"></path>
                <path d="M40.43,51.27 C40.6699159,49.3894268 40.4678978,47.4788152 39.84,45.69 C39.4744003,44.8473724 39.1962755,43.9694364 39.01,43.07 C38.82,41.65 39.4,40.37 39.48,38.99 C39.4446513,37.762823 39.1836326,36.5526452 38.71,35.42 C38.3409324,34.6470076 38.4540852,33.7300797 39,33.07 C39.380531,32.3272107 39.6019138,31.5132031 39.65,30.68 C39.77,29.21 40.72,24.78 38.02,24.97 C37.1856703,25.1605914 36.4830356,25.7197562 36.11,26.49 C35.3049663,27.6041649 34.6336935,28.8090996 34.11,30.08 C33.62,31.5 33.9,31.72 34.45,33.08 C35.4043462,35.300827 35.665758,37.7580981 35.2,40.13 C35.0409187,40.8021149 35.1186249,41.5085353 35.42,42.13 C35.73,42.71 36.16,43.22 36.42,43.81 C36.8268044,44.8319074 36.994414,45.9333419 36.91,47.03 C36.889389,47.3853189 36.9162932,47.7417994 36.99,48.09 C37.1183907,48.4648531 37.2824769,48.8265125 37.48,49.17 C37.9159524,50.084383 38.0691543,51.10805 37.92,52.11" stroke="#000000" stroke-linecap="round"></path>
                <path d="M42.43,72.95 C42.0358224,71.8907625 41.7314165,70.8002536 41.52,69.69 C41.2701342,68.5471193 41.222749,67.369259 41.38,66.21 C41.5491857,65.0524463 42.1189029,63.9908613 42.99,63.21 C43.4401446,62.9327947 43.7903813,62.5195154 43.99,62.03" stroke="#000000" stroke-linecap="round"></path>
                <path d="M39.59,39.81 C40.43,38.81 44.5,39.08 46.72,39.37 C48.1098185,39.4763927 49.4754033,39.7933433 50.77,40.31 C53.02,41.31 54.52,43.49 55.92,45.54 C56.51,46.4 57.06,47.68 56.28,48.38 C56.0095427,48.5866087 55.694467,48.7270229 55.36,48.79 C54,49.15 52.36,49.43 51.36,48.48 C50.75,47.92 50.49,47.04 49.8,46.59 C49.2777091,46.3121766 48.691162,46.1776158 48.1,46.2 L43.88,46 C43.8180362,45.9813734 43.7519638,45.9813734 43.69,46 C43.6146487,46.0689153 43.5742613,46.168048 43.58,46.27 C43.4045081,47.9131728 42.8610515,49.4956911 41.99,50.9" stroke="#000000" stroke-linecap="round"></path>
                <path d="M38.77,62.57 C38.2410908,62.0527462 37.8017782,61.4512259 37.47,60.79 C37.2851237,60.4915164 37.2108092,60.1376377 37.26,59.79 C37.338305,59.5501656 37.4799648,59.3359483 37.67,59.17 C38.2,58.65 38.85,58.28 39.42,57.82 C40.0224327,57.3866055 40.4428449,56.7452988 40.6,56.02 C40.6,55.73 40.75,55.31 41.03,55.38" stroke="#000000" stroke-linecap="round"></path>
                <path d="M29.77,36.81 C29.4816058,36.1295727 29.247541,35.4273784 29.07,34.71 C28.7329111,33.6845725 28.7827088,32.571238 29.21,31.58 C29.6828789,30.5772505 30.818147,30.0712696 31.88,30.39 C32.5980134,30.7941355 33.1504328,31.4386249 33.44,32.21 C33.74,32.79 35.31,35 35.31,36.81" stroke="#000000" stroke-linecap="round"></path>
                <path d="M31.87,57.57 C33.2252707,57.1165628 34.4063103,56.2534954 35.25,55.1 C35.649941,54.421132 36.1263844,53.7903478 36.67,53.22 C37.1858731,52.8243744 37.7636853,52.5168837 38.38,52.31 L40.85,51.31 C41.4966204,50.9512217 42.259539,50.8648536 42.97,51.07 C43.2381236,51.2090841 43.4814047,51.3915449 43.69,51.61 C45.33,53.16 47.08,54.96 47.12,57.21 C47.127917,57.3291496 47.1695337,57.4435956 47.24,57.54" stroke="#000000" stroke-linecap="round"></path>
                <path d="M54.39,48.57 C53.767987,47.7164731 53.2002024,46.8247172 52.69,45.9 C52.3922915,45.3821363 52.3097047,44.7681215 52.46,44.19 C52.8174977,43.4762573 53.6846576,43.185714 54.4,43.54" stroke="#000000" stroke-linecap="round"></path>
                <path d="M56.33,45.88 C57.007101,45.1237646 58.0133323,44.749701 59.02,44.88 C59.4860338,45.0137726 59.8876045,45.3122854 60.15,45.72 C60.3647995,45.9522445 60.4702993,46.2651059 60.44,46.58 C59.8487253,49.7784354 59.5773869,53.0277967 59.63,56.28 C59.6378884,56.736624 59.5385615,57.1887324 59.34,57.6 C59.0793366,58.0295197 58.7400868,58.4060869 58.34,58.71 C57.1036026,59.754958 56.0843355,61.0324394 55.34,62.47 C54.5624555,64.3837171 53.8947043,66.3402282 53.34,68.33 C51.99,72.01 48.76,77.99 44.34,78.22" stroke="#000000" stroke-linecap="round"></path>
                <path d="M47.24,55.5 C48.2179148,54.7542173 49.5980129,54.8527957 50.46,55.73 C50.7821947,56.1229118 51.038831,56.5652717 51.22,57.04 L52.07,58.94 C52.1669995,59.1314002 52.3305891,59.2807646 52.53,59.36" stroke="#000000" stroke-linecap="round"></path>
                <path d="M46.21,78.14 C45.6753922,82.6358899 45.4515275,87.1633009 45.54,91.69" stroke="#000000" stroke-linecap="round"></path>
                <path d="M48.66,43.9 C48.3790172,44.2924353 48.2815631,44.7872458 48.3927513,45.2569201 C48.5039395,45.7265944 48.8128947,46.1251937 49.24,46.35" stroke="#000000" stroke-linecap="round"></path>
                <path d="M42.16,44.19 C42.1025863,44.6649626 42.2593789,45.1408573 42.5878734,45.4886751 C42.916368,45.8364928 43.3825341,46.0202015 43.86,45.99" stroke="#000000" stroke-linecap="round"></path>
                <path d="M31.02,45.25 C31.5090464,45.2265787 31.9980108,45.297886 32.46,45.46" stroke="#000000" stroke-linecap="round"></path>
                <path d="M32.08,51.71 C32.6735684,51.5228029 33.320454,51.6226081 33.83,51.98" stroke="#000000" stroke-linecap="round"></path>
                <path d="M35.35,47.69 C35.8333241,47.6454835 36.3207107,47.686099 36.79,47.81" stroke="#000000" stroke-linecap="round"></path>
                <path d="M33.77,39.94 C34.1703877,39.8816139 34.5787929,39.9590701 34.93,40.16" stroke="#000000" stroke-linecap="round"></path>
                <path d="M37.77,42.04 C38.12,42.04 38.48,42.16 38.77,42.18" stroke="#000000" stroke-linecap="round"></path>
                <path d="M50.3,55.06 C50.3665667,54.5224897 50.7691906,54.0876559 51.3,53.98 C52.5542792,53.5330801 53.937845,53.6272495 55.12,54.24 C54.2281924,53.8907647 53.543712,53.1547642 53.26,52.24 C53.027276,51.209387 53.218235,50.1284866 53.79,49.24" stroke="#000000" stroke-linecap="round"></path>
                <path d="M36.87,34.11 L38.23,34.23" stroke="#000000" stroke-linecap="round"></path>
                <path d="M0.52,34.11 L54.92,0.85" stroke="#FFFFFF" stroke-width="2" stroke-linecap="round" stroke-linejoin="round"></path>
            </g>
        </g>
    </g>
</svg>