<?xml version="1.0" encoding="UTF-8"?>
<svg width="94px" height="91px" viewBox="0 0 94 91" version="1.1" xmlns="http://www.w3.org/2000/svg" xmlns:xlink="http://www.w3.org/1999/xlink">
    <!-- Generator: Sketch 43.2 (39069) - http://www.bohemiancoding.com/sketch -->
    <title>Ö</title>
    <desc>Created with Sketch.</desc>
    <defs></defs>
    <g id="Symbols" stroke="none" stroke-width="1" fill="none" fill-rule="evenodd">
        <g id="Ö" transform="translate(-20.000000, 0.000000)">
            <g id="Ö" transform="translate(21.000000, 0.000000)">
                <path d="M85.38,21.07 C90.2528619,19.2307901 93.0436706,14.1001265 91.94,9.01 C90.75,3.18 85.4,-0.27 79.08,0.71 C75.4532953,1.23275402 72.3749181,3.6376173 70.99,7.03 C61.71,1.54 50.1,-0.71 37.57,1.23 C31.9224089,2.08232457 26.4908533,4.01052682 21.57,6.91 C19.65,2.38 14.87,-0.15 9.36,0.71 C3.69125624,1.53469645 -0.243267677,6.78818009 0.56,12.46 C0.815871701,15.5458629 2.5136532,18.3297797 5.14,19.97 C5.77226645,20.3518397 6.44254062,20.6668686 7.14,20.91 C1.69170654,29.6642901 -0.555715639,40.0356487 0.78,50.26 C2.39,63.53 8.43,74.42 19.9,81.59 C27.38,86.26 40.57,89.7 50.62,89.08 C77.89,87.19 96.62,62.62 91.15,35.88 C90.1249717,30.6388224 88.1708771,25.6232001 85.38,21.07 L85.38,21.07 Z" id="Shape" stroke="#000000"></path>
                <path d="M50.53,44.87 C48.53,40.11 45.62,38.5 40.31,38.23 C38.31,38.13 34.44,38.74 32.47,40.06 C32.53,38.77 32.96,36.7 33.07,35.37 C33.1464858,34.7451264 32.9413013,34.1185808 32.51,33.66 C32.62,33.04 32.75,32.42 32.89,31.8 C33.1496437,31.3692307 33.3801591,30.9215632 33.58,30.46 C33.7273919,30.1349154 33.8543064,29.80093 33.96,29.46 C33.96,29.34 34.04,29.2 34.06,29.08 L34.15,28.97 C34.5488153,28.3608133 34.6235499,27.5947833 34.35,26.92 C34.41,26.76 34.46,26.6 34.52,26.44 C35.68,23.44 30.85,22.14 29.7,25.11 C29.0894423,26.6981262 28.5849996,28.3250375 28.19,29.98 C26.62,28.4 23.19,29.74 24,32.38 C24.2395391,33.2576309 24.373816,34.1606434 24.4,35.07 C23.5917621,35.0620738 22.826162,35.4319289 22.33,36.07 C20.9,37.94 22.19,41.39 22.11,43.55 C21.9350986,46.2528977 22.0322534,48.9665304 22.4,51.65 C22.141338,53.2026341 22.141338,54.7873659 22.4,56.34 C22.6,57.98 22.46,59.6 22.57,61.24 C22.6000883,61.8755307 22.876228,62.4744312 23.34,62.91 C23.02,67.36 23.78,71.49 23.97,75.91 C23.9845553,76.4679405 24.1891761,77.0041883 24.55,77.43 C24.33,80.8 24.05,84.15 23.65,87.51 C23.5360403,88.1115678 23.7039061,88.7321933 24.1055659,89.1942971 C24.5072258,89.656401 25.0984236,89.909067 25.71,89.88 C28.6618148,90.7735454 31.7821248,90.9619286 34.82,90.43 C37.1,89.99 39.95,91.61 40.32,88.86 C40.5171767,87.6035825 40.5841982,86.3301741 40.52,85.06 L40.52,84.85 C40.52,82.68 40.12,80.42 40.42,78.26 C44.55,76.13 46.74,72.03 47.68,67.42 C47.9255723,66.5776747 48.0896593,65.7137065 48.17,64.84 C48.8286208,63.6863549 49.3456884,62.4574801 49.71,61.18 C49.7968968,61.1214977 49.8803672,61.0580602 49.96,60.99 C52.21,58.88 54.45,56.17 53.4,52.92 C53.49,51.62 53.57,50.25 53.76,49.03 C53.8231877,48.8456301 53.8634894,48.6541967 53.88,48.46 C53.91,48.07 57.19,42.66 50.53,44.87 Z M46.93,52.08 C46.980256,52.3669456 47.0470338,52.6507509 47.13,52.93 C45.6663994,53.1640794 44.5658073,54.3897389 44.49,55.87 C43.7397363,55.4305697 42.910901,55.141836 42.05,55.02 C41.5101495,54.9365846 40.9577267,55.0239933 40.47,55.27 C40.0099825,53.9445078 39.1933904,52.7715217 38.11,51.88 C37.4063872,51.2597391 36.5725769,50.8052441 35.67,50.55 C37.14,48.55 38.55,46.4 37.92,44.38 C39.22,45.38 41.79,45.13 43.56,45.45 C44.3647001,46.8358672 45.7209625,47.813976 47.29,48.14 C47.1270045,48.3683969 47.0020551,48.6216725 46.92,48.89 C46.6758182,49.937176 46.6861054,51.0276172 46.95,52.07 L46.93,52.08 Z" id="Shape" fill="#FAFD7B" fill-rule="nonzero"></path>
                <path d="M26.44,57.49 C28.3146402,54.8803414 30.7689286,52.7409687 33.61,51.24 C34.2334443,50.8601902 34.9410892,50.6403394 35.67,50.6 C37.23,50.6 38.36,52.02 39.26,53.29 L40.53,55.07 C40.9155109,55.540311 41.1921286,56.0901312 41.34,56.68 C41.58,58.08 40.4,59.26 39.74,60.52 C39.2416092,61.6114007 38.9241275,62.7766261 38.8,63.97 C38.5044744,65.4676452 38.3836671,66.9945155 38.44,68.52 C38.5018562,70.0562861 39.0957376,71.5233145 40.12,72.67" id="Shape" stroke="#000000"></path>
                <path d="M47.53,48.23 C46.8697751,48.8844438 46.5312117,49.7964001 46.6044255,50.7231327 C46.6776393,51.6498653 47.1552019,52.497346 47.91,53.04 C47.0460769,52.8737495 46.1541549,53.1217112 45.5,53.71 C44.7246929,54.3187642 44.4862204,55.3897985 44.93,56.27 L45.83,58.02 C45.26,56.91 43.36,55.12 42.07,55.13 L42.36,55.13 C41.8717538,55.0571203 41.3733525,55.1560936 40.95,55.41" id="Shape" stroke="#000000"></path>
                <path d="M50.92,45.14 C51.51,44.14 52.72,44.04 53.83,44.41 C55.83,45.07 54.17,47.13 53.83,48.26 C53.3063202,49.8302925 53.2164903,51.512876 53.57,53.13 C53.70427,53.6203348 53.8111024,54.1177731 53.89,54.62 C54.27,58.13 50.83,59.49 49.51,62.25 C48.8891242,63.7622583 48.4234024,65.3336505 48.12,66.94 C47.6921038,69.0652968 47.0522382,71.1423473 46.21,73.14 C44.9409702,75.2932928 43.1880304,77.1215542 41.09,78.48" id="Shape" stroke="#000000"></path>
                <path d="M27.79,55.81 C28.03,54.27 27.29,53 27.1,51.43 C27.01,50.67 27.1,49.89 27.03,49.12 C26.93,48.03 26.5,46.99 26.38,45.89 C26.3220387,45.0243024 26.3220387,44.1556976 26.38,43.29 C26.44,41 26.5,36.67 24.28,35.29 C23.8166819,34.9814046 23.2133181,34.9814046 22.75,35.29 C22.529403,35.4775093 22.3606768,35.7185466 22.26,35.99 C21.34,38.11 22.01,40.55 21.94,42.86 C21.94,44.02 21.68,45.18 21.66,46.34 C21.66,47.98 22.02,49.6 22.07,51.23 L22.07,53.88 C22.07,56.66 22.83,59.39 22.94,62.16 C23.02,63.99 22.82,65.82 22.94,67.64 C23.1255076,69.4699777 23.4058848,71.2890921 23.78,73.09 C24.6086358,78.0986376 24.5103385,83.2168725 23.49,88.19 C23.4171545,88.5022525 23.3703274,88.8200079 23.35,89.14" id="Shape" stroke="#000000"></path>
                <path d="M28.84,76.65 C29.7634202,77.7758262 31.1591235,78.4065092 32.6143174,78.3555186 C34.0695113,78.304528 35.4176468,77.5776996 36.26,76.39" id="Shape" stroke="#000000"></path>
                <path d="M24.27,34.73 C24.4370143,33.7341958 24.4098488,32.7154879 24.19,31.73 C23.9836393,30.7203925 24.4365099,29.6904124 25.32,29.16 C25.9865305,28.9501697 26.7144472,29.1273346 27.21,29.62 C27.6760461,30.1167754 28.0186169,30.7162744 28.21,31.37 C28.8437759,33.0960396 29.1127714,34.9347433 29,36.77 C28.7885221,37.9068541 28.9100638,39.0806 29.35,40.15 C29.8749887,41.8368408 30.0552317,43.6120641 29.88,45.37 C29.8365457,45.6315407 29.8365457,45.8984593 29.88,46.16 C29.9799969,46.4660681 30.1359758,46.7508992 30.34,47 C31.4243734,48.5913578 31.8408999,50.5447236 31.5,52.44" id="Shape" stroke="#000000"></path>
                <path d="M28.12,31.07 C27.93,29.37 29.02,26.55 29.98,25.12 C30.6,24.2 31.41,23.17 32.51,23.19 C33.91,23.19 34.67,24.87 34.73,26.27 C34.8029839,27.803505 34.4573012,29.3279656 33.73,30.68 C33.3321681,31.2703615 33.0348147,31.9225115 32.85,32.61 C32.7981393,33.2230503 32.8419974,33.8404372 32.98,34.44 C33.2164134,36.0330395 33.0968815,37.6586734 32.63,39.2 C32.4327418,39.6891917 32.3341841,40.212567 32.34,40.74 C32.4059315,41.1344372 32.5342017,41.515872 32.72,41.87 C33.9384476,44.6222736 34.4043176,47.6487033 34.07,50.64" id="Shape" stroke="#000000"></path>
                <path d="M32.7,65.5 C32.34,64.76 31.7,64.15 31.61,63.34 C31.6836858,62.4732167 32.2132735,61.71122 33,61.34 C33.7875143,60.9808127 34.5266624,60.5238848 35.2,59.98 C35.9277208,59.219776 36.1809992,58.1222363 35.86,57.12" id="Shape" stroke="#000000"></path>
                <path d="M32.48,40.07 C35.59,38.07 40.28,38.28 43.91,38.95 C44.7633994,39.0817165 45.5904051,39.3483836 46.36,39.74 C47.1230156,40.0417729 47.8070629,40.5137655 48.36,41.12 C49.6715034,42.5248063 50.5920665,44.2487073 51.03,46.12 C51.1714659,46.5688235 50.9514265,47.0520471 50.52,47.24 C49.2395598,48.0384581 47.6758301,48.2425353 46.2333582,47.7994355 C44.7908864,47.3563358 43.6113854,46.3095907 43,44.93 C41.2262366,45.4074104 39.3488617,45.3306404 37.62,44.71 C38.1846923,45.4673337 38.2883729,46.4734191 37.89,47.33 C37.35,48.58 36.25,49.11 35.8,50.46" id="Shape" stroke="#000000"></path>
                <path d="M28.12,38.7 C28.3655774,38.6772703 28.5971611,38.5755138 28.78,38.41" id="Shape" stroke="#000000"></path>
                <path d="M31.46,32.01 C31.9751444,32.0660889 32.4948556,32.0660889 33.01,32.01" id="Shape" stroke="#000000"></path>
                <path d="M49.46,42.72 C48.5051102,42.1708913 47.291992,42.4050018 46.61,43.27 C46.4534157,43.5524594 46.3644209,43.867364 46.35,44.19 C46.3278647,44.6177702 46.4138433,45.0442242 46.6,45.43 C46.8967055,45.9615615 47.2861833,46.4357084 47.75,46.83 L48.84,47.83" id="Shape" stroke="#000000"></path>
                <path d="M26.3,43.18 C25.9030494,43.534913 25.4080532,43.7614957 24.88,43.83" id="Shape" stroke="#000000"></path>
                <path d="M25.28,50.82 C25.8769288,50.8344015 26.4490715,50.5813384 26.84,50.13" id="Shape" stroke="#000000"></path>
                <path d="M28.87,46.86 C29.2911019,46.7686947 29.6644365,46.5269161 29.92,46.18" id="Shape" stroke="#000000"></path>
                <path d="M31.46,41.07 C31.7793063,41.076522 32.0919433,40.9781643 32.35,40.79" id="Shape" stroke="#000000"></path>
                <path d="M41.24,78.07 C40.6614346,78.4238006 40.3503967,79.0891856 40.45,79.76 C40.37,82.56 40.28,86.92 40.4,89.76" id="Shape" stroke="#000000"></path>
                <path d="M58.76,58.45 C58.6673365,58.1369265 58.7109015,57.7992977 58.88,57.52 C59.1849682,56.7544707 59.5459461,56.0124606 59.96,55.3 C60.24,54.82 60.64,53.97 60.85,53.56 C62.0503101,54.9419861 63.0593501,56.4790904 63.85,58.13 C62.2016463,57.9096386 60.5249585,58.0564768 58.94,58.56" id="Shape" stroke="#000000"></path>
                <path d="M61.21,59.25 C62.1534186,64.8373338 62.4887084,70.5104365 62.21,76.17" id="Shape" stroke="#000000"></path>
                <path d="M37.27,43.2 C37.1291997,43.6230253 37.1998632,44.0879171 37.46,44.45" id="Shape" stroke="#000000"></path>
                <path d="M43.05,43.44 C42.9043625,43.8051729 42.8695802,44.2051699 42.95,44.59" id="Shape" stroke="#000000"></path>
            </g>
        </g>
    </g>
</svg>