<?xml version="1.0" encoding="UTF-8"?>
<svg width="85px" height="94px" viewBox="0 0 85 94" version="1.1" xmlns="http://www.w3.org/2000/svg" xmlns:xlink="http://www.w3.org/1999/xlink">
    <!-- Generator: Sketch 43.2 (39069) - http://www.bohemiancoding.com/sketch -->
    <title>Ú</title>
    <desc>Created with Sketch.</desc>
    <defs></defs>
    <g id="Symbols" stroke="none" stroke-width="1" fill="none" fill-rule="evenodd">
        <g id="ú" transform="translate(-25.000000, 2.000000)">
            <g id="Ú" transform="translate(26.000000, -1.000000)">
                <path d="M31.42,88.52 C16.67,84.8 4.91,71.62 4.23,56.32 C3.49,39.32 3.94,22.32 3.8,5.37 C3.8,2.94 4.8,2.23 7.07,2.23 C31.2166667,2.27 55.3666667,2.27 79.52,2.23 C81.67,2.23 82.99,2.76 82.94,5.29 C82.54,22.76 84.2,40.29 82.07,57.69 C80.41,71.31 73.13,81.53 60.07,86.95 C49.88,90.7 34.32,89.23 31.42,88.52 Z" id="Shape" fill="#000000" fill-rule="nonzero"></path>
                <path d="M62.57,74.95 C62.4033333,69.2166667 62.4033333,63.4866667 62.57,57.76" id="Shape" stroke="#AFDBD1"></path>
                <path d="M60.32,55.51 C61.8504539,55.4513024 63.3830234,55.4813528 64.91,55.6 L62.37,51.45 C62.3387312,51.3866134 62.2853899,51.3368282 62.22,51.31 C62.0669714,51.2982747 61.9260597,51.3935974 61.88,51.54 C61.2133333,52.8333333 60.61,54.1433333 60.07,55.47" id="Shape" stroke="#AFDBD1"></path>
                <path d="M52.84,62.02 C52.8183225,61.8980714 52.788251,61.7777853 52.75,61.66 C52.7862539,61.5287647 52.81299,61.3950841 52.83,61.26 C52.9439454,60.3870359 52.9439454,59.5029641 52.83,58.63 C52.7855256,58.3041398 52.6910832,57.9870831 52.55,57.69 C52.55,56.77 52.6,55.85 52.55,54.92 C52.45,52.18 51.71,49.38 51.93,46.64 C52.025319,45.9008511 51.7159456,45.1675217 51.12,44.72 C51.0157011,42.9325234 50.7309192,41.1601746 50.27,39.43 C50.27,38.98 50.19,38.52 50.17,38.07 C50.06,36.07 50.27,33.93 49.59,31.96 C49.3160492,31.0954714 48.5834759,30.4554337 47.69,30.3 C46.7119388,29.4787221 45.2600057,29.5758118 44.4,30.52 C44.0009856,28.8708391 43.2238424,27.337094 42.13,26.04 C41.1486647,25.0716521 39.5713353,25.0716521 38.59,26.04 L38.5,26.15 C37.6045768,26.4808444 37.0828992,27.4139263 37.27,28.35 C37.66,31.55 38.8,34.51 39.27,37.67 C39.4802027,39.2911398 39.5304446,40.9290244 39.42,42.56 C39.42,43.2 39.57,45.27 39.55,46.56 C39.0872672,46.4355761 38.6037799,46.4083374 38.13,46.48 C37.2198172,46.2819757 36.2686034,46.4942858 35.5290068,47.0605395 C34.7894102,47.6267931 34.3362908,48.4896756 34.29,49.42 C34.14,49.63 34,49.85 33.86,50.08 C33.7209016,50.3065438 33.6164158,50.5525909 33.55,50.81 C32.43,51.35 30.07,52.21 29.69,52.54 C28.5169974,53.4918506 27.7024316,54.8141977 27.38,56.29 C27.02,58.48 28.16,60.42 27.75,62.67 C27.42,64.47 26.75,65.77 26.49,67.4 L26.49,67.62 C25.7108513,68.5371352 25.5244123,69.8189032 26.01,70.92 C26.0229367,71.584849 26.1870856,72.2380249 26.49,72.83 C26.69,73.4 26.97,73.94 27.22,74.83 C27.3701777,75.3526283 27.6860182,75.8123516 28.12,76.14 C28.4426317,76.9728011 28.9405501,77.7264996 29.58,78.35 C30.12,78.85 30.58,79.13 31.04,79.47 C31.0601894,79.6119238 31.0902625,79.752265 31.13,79.89 C31.763467,81.9433971 32.149532,84.0650761 32.28,86.21 C32.34,87.5 32.01,89.09 32.7,90.28 C33.99,92.52 38.08,92.75 40.33,92.79 C43.07,92.79 47.59,92.88 50.03,91.55 C50.3,89.55 50.75,85.17 50.21,82.97 C50.1726863,82.8212051 50.1190266,82.6769947 50.05,82.54 C50.39,79.25 51.57,76.54 52.45,73.3 C53.3144062,69.6014175 53.4468943,65.7694519 52.84,62.02 L52.84,62.02 Z" id="Shape" fill="#AFDBD1" fill-rule="nonzero"></path>
                <path d="M30.39,56.38 C31.1020258,57.1770583 32.0654177,57.7063945 33.12,57.88 C33.0779607,58.9299282 33.2201076,59.9791077 33.54,60.98 C33.8735056,61.9966268 34.7232059,62.7586899 35.77,62.98 C36.9900587,63.0617172 38.1287116,62.3640919 38.61,61.24 C39.0559671,60.1275772 39.139946,58.9028854 38.85,57.74 C38.5,55.95 35.32,51.14 33.44,50.74 C31.2,50.29 28.8,52.97 27.75,54.59 C26.61,56.36 27.84,58.72 27.96,60.59 C28.1,62.76 27.05,64.8 26.49,66.9 C25.6565084,69.795902 25.9605597,72.9008022 27.34,75.58 C28.7759014,78.2618739 31.503003,80.0041888 34.54,80.18" id="Shape" stroke="#000000" stroke-linecap="round"></path>
                <path d="M43.49,81.39 C44.8380173,81.7157482 46.2594078,81.3397189 47.27,80.39" id="Shape" stroke="#000000" stroke-linecap="round"></path>
                <path d="M33.84,50.37 C34.0570176,48.9221186 34.8505473,47.6236155 36.04,46.77 C37.3093328,46.0055657 38.9275578,46.151206 40.04,47.13 C40.397192,47.3616392 40.7319781,47.6261201 41.04,47.92" id="Shape" stroke="#000000" stroke-linecap="round"></path>
                <path d="M36.56,77.23 C36.27,73.78 36.69,69.94 38.76,67.07 C39.4534845,66.001034 40.4489348,65.1622105 41.62,64.66 C42.62,64.24 43.7,64.44 44.35,63.27 C45.49,61.2 43.35,56.95 42,55.41 C41,54.29 39.68,53.49 38.8,52.27 C37.92,51.05 37.72,49.11 38.93,48.27 C39.7341936,47.7849057 40.7262022,47.7287543 41.58,48.12 C42.4169087,48.5135081 43.2255157,48.9645905 44,49.47 C45.0271176,49.9236263 46.0111225,50.4691799 46.94,51.1 C49.47,53.17 49.24,57.16 51.09,59.86 C51.53,60.51 52.09,61.07 52.5,61.74 C53.5,63.32 53.5,65.27 53.5,67.12 C53.5421156,68.428712 53.4550272,69.738387 53.24,71.03 C52.8608139,72.4948036 52.3898845,73.9343112 51.83,75.34 C50.31,79.87 50.29,84.74 50.29,89.51 C50.1901685,90.2133122 50.244768,90.9299307 50.45,91.61" id="Shape" stroke="#000000" stroke-linecap="round"></path>
                <path d="M30.71,79.16 C30.9422156,79.3164675 31.0981919,79.5631278 31.14,79.84 C32.0426965,83.3962271 32.4299832,87.0636644 32.29,90.73" id="Shape" stroke="#000000" stroke-linecap="round"></path>
                <path d="M44.62,49.41 C45.0960551,44.4167907 45.0189203,39.3862664 44.39,34.41 C44.2,32.93 44.08,31.15 45.27,30.24 C46.46,29.33 48.36,30.03 49.21,31.29 C49.9391728,32.6383117 50.3206779,34.1471475 50.32,35.68 C51.09,44.07 53.38,52.37 53.02,60.79 C52.9739019,61.514419 53.0311426,62.2417118 53.19,62.95" id="Shape" stroke="#000000" stroke-linecap="round"></path>
                <path d="M38.99,60.94 L39.32,61.5 C39.7384486,62.3506663 40.3475915,63.0932731 41.1,63.67 C41.8885611,64.2438573 42.96766,64.2025125 43.71,63.57 C43.9593121,63.2820282 44.1374366,62.9394811 44.23,62.57 C44.4873136,61.7036217 44.5352955,60.7885376 44.37,59.9" id="Shape" stroke="#000000" stroke-linecap="round"></path>
                <path d="M43.58,65.23 C43.393446,65.941505 43.359368,66.6844039 43.48,67.41 C43.6185867,68.1494092 44.2070497,68.7218596 44.95,68.84" id="Shape" stroke="#000000" stroke-linecap="round"></path>
                <path d="M39.07,46.23 C39.1566667,43.1833333 39.11,40.1366667 38.93,37.09 C38.868192,35.3798485 38.6472377,33.6791705 38.27,32.01 C37.9466222,30.9990814 37.7123942,29.9617858 37.57,28.91 C37.4378642,27.8408018 37.8069314,26.770507 38.57,26.01 C39.8853888,25.0879896 41.6798,25.2802479 42.77,26.46 C43.7978496,27.7675908 44.367098,29.3769474 44.39,31.04" id="Shape" stroke="#000000" stroke-linecap="round"></path>
                <path d="M36.32,62.98 C35.6087787,61.7755767 35.3767408,60.3476514 35.67,58.98 C36.02,58.17 38,56.82 38.96,59.93" id="Shape" stroke="#000000" stroke-linecap="round"></path>
                <path d="M38.48,32.43 C38.59,32.91 39.69,33.15 40.3,33.11" id="Shape" stroke="#000000" stroke-linecap="round"></path>
                <path d="M39.22,39.23 C39.7963726,39.7769106 40.5779626,40.0531936 41.37,39.99" id="Shape" stroke="#000000" stroke-linecap="round"></path>
                <path d="M44.77,35.79 C45.3915864,36.1124757 46.0718019,36.3063371 46.77,36.36" id="Shape" stroke="#000000" stroke-linecap="round"></path>
                <path d="M44.99,41.95 C45.7160603,42.4108134 46.5430076,42.68875 47.4,42.76" id="Shape" stroke="#000000" stroke-linecap="round"></path>
                <path d="M46.75,54.01 C47.3664831,54.0567468 47.9786396,53.8752353 48.47,53.5" id="Shape" stroke="#000000" stroke-linecap="round"></path>
                <path d="M38.54,48.64 C38.16,49.45 40.7,51.42 41.73,51.35 C44.08,51.18 44.07,50.35 43.81,49.35" id="Shape" stroke="#000000" stroke-linecap="round"></path>
                <path d="M41.98,63.77 C40.61,62.44 40.19,59.91 41.37,58.89 C41.84,58.49 44.01,58.89 44.44,60.48" id="Shape" stroke="#000000" stroke-linecap="round"></path>
                <path d="M36.62,31.01 C35.47,31.65 34.24,32.53 34.06,33.84 C33.9857678,34.8571416 34.4248233,35.8440783 35.23,36.47 C36.031122,37.0766526 36.9407579,37.5246822 37.91,37.79 C43.3842534,39.5929584 49.1702855,40.2532468 54.91,39.73" id="Shape" stroke="#AFDBD1"></path>
                <path d="M56.24,37.23 C56.1431314,39.1010201 56.3319659,40.9758765 56.8,42.79 C58.2829942,41.6123022 59.8249904,40.5108763 61.42,39.49 C61.4797335,39.4249684 61.4797335,39.3250316 61.42,39.26 C59.65,38.64 56.26,37.26 56.26,37.26" id="Shape" stroke="#AFDBD1"></path>
                <path d="M39.4,38.23 C42.8900802,39.2579202 46.5023121,39.812872 50.14,39.88" id="Shape" stroke="#000000" stroke-linecap="round"></path>
                <path d="M0.52,22.35 L36.597838,0.285689788" id="Shape" stroke="#FFFFFF" stroke-width="2" stroke-linecap="round" stroke-linejoin="round"></path>
            </g>
        </g>
    </g>
</svg>