<?xml version="1.0" encoding="UTF-8"?>
<svg width="100px" height="93px" viewBox="0 0 100 93" version="1.1" xmlns="http://www.w3.org/2000/svg" xmlns:xlink="http://www.w3.org/1999/xlink">
    <!-- Generator: Sketch 43.2 (39069) - http://www.bohemiancoding.com/sketch -->
    <title>ý</title>
    <desc>Created with Sketch.</desc>
    <defs></defs>
    <g id="Symbols" stroke="none" stroke-width="1" fill="none" fill-rule="evenodd">
        <g id="ý" transform="translate(-18.000000, 2.000000)">
            <g transform="translate(18.000000, -1.000000)" id="Shape">
                <path d="M95.6,2.41 L2.34,2.41 C1.05,2.41 -0.21,3.15 1.09,5.89 C8.64333333,21.8366667 16.1733333,37.7933333 23.68,53.76 C24.477269,55.5925789 24.8433315,57.5836852 24.75,59.58 L24.75,84.07 C24.75,85.34 24.28,87.46 25.75,87.59 C29.7,87.97 33.83,88.33 37.65,87.54 C40.34,86.98 61.12,88.02 71.03,88.01 C74.49,88.01 75.18,86.75 75.11,83.65 C74.93,76.32 75.19,68.99 74.99,61.65 C74.8849997,57.8383399 75.7231573,54.0597604 77.43,50.65 C84.43,36.11 91.2,21.44 98.22,6.9 C99.75,3.64 99.83,2.41 95.6,2.41 Z" fill="#000000" fill-rule="nonzero"></path>
                <path d="M67.27,83.68 C67.1033333,77.9466667 67.1033333,72.2166667 67.27,66.49" stroke="#AFDBD1"></path>
                <path d="M64.99,64.25 C66.5204539,64.1913024 68.0530234,64.2213528 69.58,64.34 L67.04,60.19 C67.0087312,60.1266134 66.9553899,60.0768282 66.89,60.05 C66.7369714,60.0382747 66.5960597,60.1335974 66.55,60.28 C65.8833333,61.5733333 65.28,62.8833333 64.74,64.21" stroke="#AFDBD1"></path>
                <path d="M62,54.2 C62.7062711,52.1749329 62.8852273,50.0033681 62.52,47.89 C62.3675087,46.6143545 61.7079354,45.4537937 60.69,44.67 C59.69,44.04 58.11,44.11 56.92,44 C56.74,42.22 56.52,40.45 56.45,38.65 C56.39,37.34 56.61,36.01 56.59,34.65 C56.59,33.49 55.96,31.45 56.3,30.38 C56.570312,29.6520181 56.4290453,28.8349621 55.93,28.24 C56.31,26.07 56.66,23.74 55.93,22 C55.5292954,20.6926432 54.1781956,19.9249728 52.85,20.25 L52.6,20.41 C51.5237999,20.7218411 50.7772467,21.6996634 50.76,22.82 L50.76,23.02 C50.7063607,23.6514083 50.9288461,24.2750969 51.37,24.73 C51.55,27.18 50.48,30.84 50.37,32.85 C50.29,34.06 50.25,35.27 50.21,36.49 C49.8673804,36.4865637 49.5274841,36.551144 49.21,36.68 C47.2914822,37.4797968 46.0882197,39.4050169 46.21,41.48 C42.97,38.99 39.06,42.48 37.21,45.65 C37.0315784,45.5815494 36.8408847,45.5509022 36.65,45.56 C36.6670498,45.3333606 36.6257357,45.106133 36.53,44.9 C35.9944518,43.4040983 34.9263955,42.1580326 33.53,41.4 C32.23,39.01 30.73,36.06 27.63,36.21 C27.184924,36.2159494 26.7760112,36.4562883 26.5542881,36.8422506 C26.3325651,37.228213 26.330935,37.7025228 26.55,38.09 C26.7,38.29 26.85,38.47 27.01,38.65 C26.9176358,39.0461881 27.0433946,39.4615733 27.34,39.74 C31.15,43.62 32.47,49.1 35.61,53.45 C35.5778586,55.2240938 35.701668,56.9975808 35.98,58.75 C36.0442063,60.3256185 36.316569,61.8858195 36.79,63.39 C36.6875256,64.7197188 36.9321796,66.0532552 37.5,67.26 C38.22,69.08 38.26,71.05 38.89,72.9 C35.8163338,76.2974768 33.5559529,80.3497481 32.28,84.75 C32.28,84.83 31.01,87.85 31,87.92 C30.61,88.59 30.93,88.69 33.08,89.42 C36.84,90.69 46.08,93.11 48,88.83 C49,86.67 50.13,82.83 51,80.57 C51.36,79.66 51.74,78.79 52.1,77.92 C53.4326015,76.2733958 54.0228016,74.1479513 53.73,72.05 L53.73,71.91 L53.73,71.91 L53.73,71.59 C54.7998872,71.4426103 55.7279983,70.776466 56.21,69.81 C57.21,67.81 57.6,65.81 58.69,63.81 C59.8478047,62.7227107 60.8235525,61.4566019 61.58,60.06 C62.36,58.49 62.11,56.6 62.1,54.89 C62.0974358,54.6565813 62.063807,54.4245429 62,54.2 L62,54.2 Z" fill="#AFDBD1" fill-rule="nonzero"></path>
                <path d="M57.85,50.3 C55.3220154,50.3044771 52.9951999,48.9222105 51.79,46.7 C51.11,45.4 51.05,43.48 52.35,42.8 C54.04,41.91 55.79,44 57.68,44.29 C58.56,44.42 59.53,44.16 60.3,44.59 C60.8234487,44.9385363 61.2199052,45.4472638 61.43,46.04 C62.69,48.87 62.37,52.2 62.22,55.21 C62.2572848,56.5925146 62.197136,57.9759385 62.04,59.35 C61.7,61.04 60.43,62.2 59.41,63.51 C58.4105683,64.8012581 57.6146844,66.2378959 57.05,67.77 C56.7483649,68.9847293 56.1890569,70.1203973 55.41,71.1 C54.53,71.98 52.83,72.2 52.14,71.17" stroke="#000000" stroke-linecap="round"></path>
                <path d="M41.21,70.79 C41.476637,71.3264889 41.9877675,71.6995769 42.58,71.79 C43.77,72.01 45.9,72.24 46.72,71.79" stroke="#000000" stroke-linecap="round"></path>
                <path d="M51.02,54.32 C51.4925602,55.2584373 52.481767,55.8220093 53.53,55.75 C53.9122429,55.7795433 54.2965241,55.7319332 54.66,55.61 C55.664664,55.1011775 56.2051094,53.9834382 55.98,52.88 C55.6000278,51.5678658 54.9869141,50.3348637 54.17,49.24" stroke="#000000" stroke-linecap="round"></path>
                <path d="M48.48,88.97 C49.1803129,85.7642659 50.2403612,82.6478579 51.64,79.68 C52.85,77.39 54.76,74.75 54.1,71.86" stroke="#000000" stroke-linecap="round"></path>
                <path d="M57.42,54.41 C56.7420901,54.2917552 56.193064,53.7933485 56.01,53.13" stroke="#000000" stroke-linecap="round"></path>
                <path d="M51.71,43.41 C51.9410698,44.1466479 52.3910377,44.7954388 53,45.27 C53.4918654,45.6066706 54.0358069,45.8600595 54.61,46.02 C55.0766451,46.1901146 55.5990129,46.0902502 55.97,45.76 C56.4347155,45.1950097 56.5136339,44.4058252 56.17,43.76" stroke="#000000" stroke-linecap="round"></path>
                <path d="M46.19,41.04 C45.8479766,39.1084525 47.1152911,37.258618 49.04,36.88 C49.4173122,36.7839147 49.8126878,36.7839147 50.19,36.88 C50.7942004,37.1138575 51.2968757,37.5528134 51.61,38.12 C52.4413363,39.4336893 52.9549313,40.923115 53.11,42.47" stroke="#000000" stroke-linecap="round"></path>
                <path d="M39.75,48.56 C40.3661323,48.7182742 41.0208302,48.581549 41.5221213,48.1899153 C42.0234124,47.7982816 42.3144887,47.1961207 42.31,46.56 C42.08,47.08 42.67,47.56 43.17,47.86 L45.52,49.16 C45.2683459,49.9649569 45.117199,50.7979444 45.07,51.64 C45.07,53.39 47.93,58.28 50.01,56.46 C51.01,55.56 51.14,52.26 51.12,50.96 C51.12,48.17 49.45,46.04 48.21,43.66 C47.31,41.94 45.8,40.26 43.87,40.25 C41.94,40.24 40.52,41.98 39.11,43.35 C38.4632586,44.057086 37.9088326,44.8433629 37.46,45.69" stroke="#000000" stroke-linecap="round"></path>
                <path d="M50.31,36.82 C49.61,32.71 51.31,28.56 51.16,24.39 C51.16,22.97 50.98,21.24 52.16,20.39 C53.1994831,19.8195365 54.4991985,20.0862534 55.23,21.02 C55.9260913,21.9451802 56.2795321,23.0832598 56.23,24.24 C56.23,25.38 56.05,26.53 56.13,27.67 C56.25,29.34 56.43,31 56.5,32.67 C56.56,34.14 56.05,35.6 56.38,37.01 C56.8499555,39.0035942 57.005165,41.0584328 56.84,43.1 C56.84,42.89 56.84,43.8 56.84,43.6" stroke="#000000" stroke-linecap="round"></path>
                <path d="M39.11,51.11 C39.7645195,50.6107581 40.0462915,49.7614736 39.82,48.97 C39.3750736,47.2008723 38.0715432,45.773375 36.35,45.17 C36.47,43.75 33.72,40.72 32.95,40.65 C32.88,38.72 30.66,36.29 28.81,35.88 C27.52,35.59 25.91,36.6 26.13,37.88 C26.2676581,38.3969784 26.5323453,38.871353 26.9,39.26 C29.842649,43.2623274 32.3690761,47.5545729 34.44,52.07 C34.8238651,52.7708728 35.1290529,53.5120433 35.35,54.28 C35.5214782,55.163064 35.6085372,56.0604419 35.61,56.96 C35.84,61.24 37.25,65.35 38.2,69.53 C38.5315522,70.622264 38.5933167,71.7786332 38.38,72.9 C38.0971711,73.7393828 37.6782498,74.5265494 37.14,75.23 C34.4288279,79.4671858 32.2174331,84.0040686 30.55,88.75" stroke="#000000" stroke-linecap="round"></path>
                <path d="M53.71,27.96 C54.6165635,28.0565241 55.5087727,27.6784694 56.07,26.96" stroke="#000000" stroke-linecap="round"></path>
                <path d="M54.3,34.99 C55.0159469,35.1282967 55.755442,34.9249355 56.3,34.44" stroke="#000000" stroke-linecap="round"></path>
                <path d="M47.7,56.33 C47.2203219,55.0026707 47.3750839,53.5287469 48.12,52.33 C48.73,51.54 50.12,51.19 50.97,53.7" stroke="#000000" stroke-linecap="round"></path>
                <path d="M52.85,55.67 C52.47,54.55 51.65,52.21 53.08,51.3 C54.25,50.55 55.81,52 56.02,53.3" stroke="#000000" stroke-linecap="round"></path>
                <path d="M31.99,41.75 C32.3398935,41.6322608 32.6257126,41.3753854 32.78,41.04" stroke="#000000" stroke-linecap="round"></path>
                <path d="M35.42,46.09 L36.19,45.53" stroke="#000000" stroke-linecap="round"></path>
                <path d="M50.52,55.67 C50.04,57.97 49.52,60.6 50.7,62.67 C50.8840995,63.0506874 51.1425043,63.3906937 51.46,63.67" stroke="#000000" stroke-linecap="round"></path>
                <path d="M2.68,20.5 L34.81,0.85" stroke="#FFFFFF" stroke-width="2" stroke-linecap="round" stroke-linejoin="round"></path>
            </g>
        </g>
    </g>
</svg>