<?xml version="1.0" encoding="UTF-8"?>
<svg width="86px" height="91px" viewBox="0 0 86 91" version="1.1" xmlns="http://www.w3.org/2000/svg" xmlns:xlink="http://www.w3.org/1999/xlink">
    <!-- Generator: Sketch 43.2 (39069) - http://www.bohemiancoding.com/sketch -->
    <title>Þ</title>
    <desc>Created with Sketch.</desc>
    <defs></defs>
    <g id="Symbols" stroke="none" stroke-width="1" fill="none" fill-rule="evenodd">
        <g id="Þ" transform="translate(-25.000000, 0.000000)">
            <g transform="translate(25.000000, 0.000000)" id="Shape">
                <path d="M83.68,35.02 L83.58,34.76 C82.7757849,31.8445549 81.3877194,29.1228578 79.5,26.76 C72.78,18.59 64.5,14.18 53.77,14.22 C50.28,14.22 49.12,13.22 49.31,9.83 C49.58,4.83 49.24,9.51 49.43,4.51 C49.54,1.65 48.71,0.51 45.56,0.51 C31.8933333,0.643333333 18.2266667,0.643333333 4.56,0.51 C1.56,0.51 0.49,1.39 0.5,4.38 L0.5,17.3 L0.5,18.3 L0.5,44.01 L0.5,69.72 L0.5,70.72 L0.5,83.64 C0.5,86.64 1.57,87.54 4.56,87.51 C18.2266667,87.4033333 31.8933333,87.4033333 45.56,87.51 C48.71,87.51 49.56,86.39 49.43,83.51 C49.24,78.51 49.58,83.18 49.31,78.19 C49.12,74.8 50.31,73.79 53.77,73.8 C64.45,73.8 72.77,69.44 79.5,61.26 C81.3877194,58.8971422 82.7757849,56.1754451 83.58,53.26 L83.68,53 C85.2210998,47.1057346 85.2210998,40.9142654 83.68,35.02 L83.68,35.02 Z" stroke="#000000"></path>
                <path d="M52.52,72.23 C53.52,68.67 52.82,64.47 52.4,60.85 C52.376119,60.6462754 52.3325828,60.4453392 52.27,60.25 L52.27,57.88 C52.27,56.72 51.62,54.5 51.97,53.49 C52.3195235,52.6572668 52.0888371,51.6940502 51.4,51.11 C51.4,47.94 51.18,44.77 50.87,41.6 C50.836498,41.2686878 50.7415436,40.946521 50.59,40.65 L50.59,39.31 C50.47,35.31 50.2,31.31 49.86,27.31 C49.58,24.13 44.58,24.1 44.86,27.31 L44.86,27.88 C44.616108,28.2468396 44.4714077,28.6706047 44.44,29.11 C44.2557097,32.8550158 44.4331987,36.6090768 44.97,40.32 C44.91,42.14 44.78,43.94 44.57,45.75 C44.1893144,45.7310305 43.8111351,45.8212384 43.48,46.01 C42.5684129,44.2089517 41.8542615,42.3146064 41.35,40.36 C40.5916176,38.6074861 39.7369817,36.8982142 38.79,35.24 C37.23,31.96 36.13,28.75 33.87,25.98 C33.7149086,25.648972 33.4856479,25.3581188 33.2,25.13 L32.89,24.88 C30.45,22.88 27.05,26.07 29.35,28.42 L29.35,28.42 C29.3649454,28.7656659 29.4464342,29.105203 29.59,29.42 C31.73,34.25 34.32,39.17 35.7,44.27 L35.77,44.54 C35.2949095,43.9015259 34.6555469,43.4038599 33.92,43.1 C28.75,41.04 26.69,47.32 29.92,50.5 C29.6763552,50.8070064 29.4714774,51.1428715 29.31,51.5 C28.4111143,50.6745449 27.5909182,49.7673076 26.86,48.79 C26.4248861,48.128805 26.0880416,47.4079578 25.86,46.65 C25.86,46.44 25.75,46.24 25.7,46.04 C25.6594344,45.8669638 25.5990348,45.6991873 25.52,45.54 C25.31,44.76 25.13,43.97 24.9,43.21 C24.1236647,40.2201719 22.6149269,37.4707635 20.51,35.21 C18.26,32.9 14.72,36.44 16.97,38.75 C17.5002746,39.2951902 17.9666229,39.8990945 18.36,40.55 C18.3518423,40.6731984 18.3518423,40.7968016 18.36,40.92 C18.7958495,42.8615033 19.4430419,44.7494273 20.29,46.55 C20.289454,46.8171877 20.3264833,47.0831248 20.4,47.34 C20.6815608,48.3237507 21.0153678,49.2917912 21.4,50.24 C21.53,50.65 21.67,51.06 21.79,51.48 C21.79,51.48 21.79,51.57 21.84,51.62 L21.84,51.71 C21.76,56.93 24.26,62.29 26.4,66.88 C28.29,70.94 29.91,74.97 33.56,76.07 C33.56,77.22 34.08,77.93 34.31,79.12 C34.78,81.51 34.76,83.97 35.23,86.34 C35.98,90.13 40.97,90.72 44.23,90.5 C47.49,90.28 51.58,89.36 50.73,85.36 C50.5461036,84.5431248 50.3123324,83.7382838 50.03,82.95 C50.11,81.49 50.41,79.42 50.44,78.82 C50.7,76.4 51.8,74.56 52.52,72.23 Z" fill="#FAFD7B" fill-rule="nonzero"></path>
                <path d="M37.8,73.81 C36.98,72.1 36.21,70.13 36.96,67.81 C37.4571078,66.0015028 38.7111812,64.4958856 40.4,63.68" stroke="#000000"></path>
                <path d="M50.27,65.02 C48.1377099,63.4713754 46.2988862,61.5546641 44.84,59.36 C44.3169644,58.4632648 43.7037885,57.622242 43.01,56.85 C41.42,55.27 39.01,54.76 37.3,53.35 C36.45,52.66 35.77,51.77 34.87,51.14 C34.0010549,50.4330466 32.7960601,50.3074445 31.8,50.82 C30.9784125,51.4837112 30.6487665,52.583855 30.97,53.59 C31.3031554,54.5678061 31.8341943,55.4664873 32.53,56.23 C33.5888892,57.7892662 34.9872063,59.0884362 36.62,60.03 C37.94,60.66 39.62,61.03 40.13,62.39 C40.6736841,63.7418386 41.0107936,65.1678121 41.13,66.62" stroke="#000000"></path>
                <path d="M44.49,45.45 L44.14,30.45 C44.0015453,29.1106309 44.1938332,27.7577478 44.7,26.51 C45.2591876,25.2404665 46.658651,24.5661797 48,24.92 C49.42,25.47 49.75,27.3 49.87,28.82 L50.42,35.82 C51.0866667,44.4866667 51.77,53.1533333 52.47,61.82 C52.828131,64.8093118 52.828131,67.8306882 52.47,70.82 C52.08,73.26 51.21,75.61 50.72,78.03 C50.1366611,80.9172445 50.0959678,83.88786 50.6,86.79" stroke="#000000"></path>
                <path d="M41.62,58.46 C41.8904966,57.7877165 42.4733952,57.2907581 43.18,57.13" stroke="#000000"></path>
                <path d="M31.8,50.77 C30.15,52.14 35.25,56.43 36.8,54.98 C37.300885,54.0875168 37.0854615,52.9639355 36.29,52.32" stroke="#000000"></path>
                <path d="M30.8,51.75 C28.8311281,50.6316544 27.7690727,48.4037337 28.14,46.17 C28.6520335,43.9186333 30.8853276,42.5027249 33.14,43 C35.27,43.63 36.4,45.89 36.84,47.89 C37.41,50.51 39.33,52.64 40.62,54.98" stroke="#000000"></path>
                <path d="M43.45,45.97 L38.55,33.97 C37.12,30.46 35.55,26.73 32.32,24.7 C31.8179504,24.3195606 31.1994213,24.1251657 30.57,24.15 C29.37,24.31 28.78,25.74 28.78,26.95 C28.78,29.72 30.53,32.12 31.88,34.54 C33.0017009,36.5489645 33.8811767,38.6838752 34.5,40.9 C34.7898206,42.3303086 35.1842131,43.7374206 35.68,45.11" stroke="#000000"></path>
                <path d="M44.23,32.08 C45.1422141,32.4355197 46.1266961,32.5658692 47.1,32.46" stroke="#000000"></path>
                <path d="M44.45,39.82 C45.2084685,39.8548848 45.9618804,39.9620367 46.7,40.14" stroke="#000000"></path>
                <path d="M37.61,39.65 C38.1628029,39.790414 38.7489222,39.635376 39.16,39.24" stroke="#000000"></path>
                <path d="M34.66,32.08 C35.1450917,32.1885088 35.6519461,32.1430667 36.11,31.95 C36.6767741,31.6757612 37.0349187,31.0996155 37.03,30.47" stroke="#000000"></path>
                <path d="M28.17,50.02 C24.22,46.08 25.05,38.76 20.64,35.35 C19.38,34.35 17.22,34.04 16.46,35.44 C15.94,36.39 16.41,37.55 16.85,38.54 C21.65,49.38 22.65,61.76 28.57,72.04 C29.0685428,72.9722705 29.6945625,73.8305233 30.43,74.59 C31.9471347,76.0374251 34.0716408,76.6598681 36.13,76.26" stroke="#000000"></path>
                <path d="M39.61,48.56 C39.8852895,48.1732792 40.2232792,47.8352895 40.61,47.56 C42.5309545,45.9117232 45.231422,45.5220453 47.54,46.56" stroke="#000000"></path>
                <path d="M22.23,42.51 C22.9664521,42.2253222 23.5670579,41.6711918 23.91,40.96" stroke="#000000"></path>
                <path d="M24.05,48.37 C24.9222741,48.1623493 25.6559392,47.5754172 26.05,46.77" stroke="#000000"></path>
                <path d="M27.8,49.59 C28.38,50.24 28.92,50.99 29.46,51.5 C28.1122385,52.2389983 26.8709264,53.1573675 25.77,54.23" stroke="#000000"></path>
                <path d="M30.27,48.89 C31.4585567,48.0278284 32.825495,47.4434622 34.27,47.18" stroke="#000000"></path>
                <path d="M39.36,53.02 C41.2782029,51.3247284 43.9947575,50.8706757 46.36,51.85 L46.36,51.85" stroke="#000000"></path>
                <path d="M28.39,59.85 C29.5952186,58.5123936 31.0357619,57.4074122 32.64,56.59" stroke="#000000"></path>
                <path d="M33.52,76.55 C33.65,77.36 33.79,78.17 33.92,78.98 C34.3666667,81.7933333 34.74,84.6166667 35.04,87.45" stroke="#000000"></path>
            </g>
        </g>
    </g>
</svg>